<svg width="48" height="48" viewBox="0 0 48 48" fill="none" xmlns="http://www.w3.org/2000/svg">
<rect width="48" height="48" rx="12" fill="#663AF8"/>
<path fill-rule="evenodd" clip-rule="evenodd" d="M42 24C42 33.1127 33.9411 40.5 24 40.5C20.2584 40.5 16.7834 39.4535 13.9044 37.6624L9 39L10.3977 34.8069C7.65804 31.9118 6 28.1334 6 24C6 14.8873 14.0589 7.5 24 7.5C33.9411 7.5 42 14.8873 42 24ZM22.4558 12.8341C22.5769 13.6537 23.3395 14.2198 24.159 14.0987C24.9785 13.9776 25.5447 13.2151 25.4236 12.3956C25.3025 11.576 24.5399 11.0099 23.7204 11.131C22.9009 11.2521 22.3347 12.0146 22.4558 12.8341ZM21.1453 16.9825C20.3258 17.1037 19.5632 16.5375 19.4421 15.718C19.321 14.8984 19.8872 14.1359 20.7067 14.0148C21.5262 13.8937 22.2888 14.4598 22.4099 15.2794C22.531 16.0989 21.9648 16.8614 21.1453 16.9825ZM25.5302 17.4912C25.0728 18.0333 24.2625 18.1021 23.7203 17.6446C23.1781 17.1872 23.1094 16.3769 23.5668 15.8348C24.0243 15.2926 24.8346 15.2239 25.3767 15.6813C25.9189 16.1387 25.9876 16.949 25.5302 17.4912ZM27.3413 15.7531C26.6037 15.8621 25.9174 15.3525 25.8084 14.6149C25.6994 13.8774 26.209 13.1911 26.9466 13.0821C27.6841 12.9731 28.3704 13.4826 28.4794 14.2202C28.5884 14.9578 28.0789 15.6441 27.3413 15.7531ZM28.8936 15.9118C28.2445 16.4265 28.1354 17.37 28.6501 18.0191C29.1647 18.6683 30.1082 18.7774 30.7574 18.2627C31.4065 17.7481 31.5156 16.8046 31.0009 16.1554C30.4863 15.5063 29.5428 15.3972 28.8936 15.9118ZM30.402 22.0709C29.7038 21.9459 29.2391 21.2785 29.3642 20.5803C29.4892 19.882 30.1566 19.4174 30.8548 19.5424C31.5531 19.6675 32.0177 20.3349 31.8927 21.0331C31.7676 21.7313 31.1002 22.196 30.402 22.0709ZM32.8979 17.0798C32.2487 17.5945 32.1397 18.5379 32.6543 19.1871C33.1689 19.8363 34.1124 19.9453 34.7616 19.4307C35.4108 18.916 35.5198 17.9726 35.0052 17.3234C34.4905 16.6742 33.5471 16.5652 32.8979 17.0798ZM32.8127 22.7702C32.3496 22.186 32.4477 21.3369 33.032 20.8737C33.6162 20.4105 34.4653 20.5086 34.9285 21.0929C35.3917 21.6771 35.2936 22.5263 34.7093 22.9895C34.125 23.4526 33.2759 23.3545 32.8127 22.7702ZM33.4513 24.194C32.681 23.8891 31.8094 24.2664 31.5045 25.0367C31.1997 25.8069 31.577 26.6785 32.3472 26.9834C33.1175 27.2883 33.9891 26.911 34.294 26.1407C34.5989 25.3704 34.2216 24.4988 33.4513 24.194ZM28.8716 28.5798C28.6308 27.9126 28.9764 27.1765 29.6436 26.9357C30.3108 26.6948 31.0469 27.0405 31.2878 27.7077C31.5286 28.3749 31.1829 29.111 30.5157 29.3518C29.8485 29.5927 29.1124 29.247 28.8716 28.5798ZM34.442 28.2457C33.6717 27.9409 32.8001 28.3181 32.4952 29.0884C32.1903 29.8587 32.5676 30.7303 33.3379 31.0352C34.1082 31.3401 34.9798 30.9628 35.2847 30.1925C35.5895 29.4222 35.2122 28.5506 34.442 28.2457ZM29.4713 31.0172C29.7457 30.324 30.5302 29.9844 31.2234 30.2588C31.9167 30.5332 32.2562 31.3176 31.9819 32.0109C31.7075 32.7041 30.923 33.0437 30.2298 32.7693C29.5365 32.4949 29.197 31.7105 29.4713 31.0172ZM28.5579 32.2822C28.4367 31.4626 27.6742 30.8965 26.8547 31.0176C26.0351 31.1387 25.469 31.9012 25.5901 32.7208C25.7112 33.5403 26.4737 34.1065 27.2933 33.9853C28.1128 33.8642 28.679 33.1017 28.5579 32.2822ZM22.4698 30.5089C22.9272 29.9668 23.7375 29.8981 24.2797 30.3555C24.8218 30.8129 24.8905 31.6232 24.4331 32.1654C23.9757 32.7075 23.1654 32.7762 22.6232 32.3188C22.0811 31.8614 22.0124 31.0511 22.4698 30.5089ZM25.5442 35.166C25.4231 34.3464 24.6605 33.7803 23.841 33.9014C23.0215 34.0225 22.4553 34.785 22.5764 35.6045C22.6975 36.4241 23.46 36.9902 24.2796 36.8691C25.0991 36.748 25.6653 35.9855 25.5442 35.166ZM20.6587 32.247C21.3963 32.138 22.0825 32.6476 22.1915 33.3852C22.3005 34.1227 21.791 34.809 21.0534 34.918C20.3158 35.027 19.6296 34.5175 19.5206 33.7799C19.4116 33.0423 19.9211 32.356 20.6587 32.247ZM19.1063 32.0883C19.7555 31.5736 19.8645 30.6301 19.3499 29.981C18.8352 29.3318 17.8918 29.2227 17.2426 29.7374C16.5934 30.252 16.4844 31.1955 16.999 31.8447C17.5137 32.4939 18.4571 32.6029 19.1063 32.0883ZM17.598 25.9292C18.2962 26.0542 18.7608 26.7216 18.6358 27.4199C18.5108 28.1181 17.8434 28.5828 17.1451 28.4577C16.4469 28.3327 15.9822 27.6653 16.1073 26.967C16.2323 26.2688 16.8997 25.8041 17.598 25.9292ZM15.1021 30.9203C15.7513 30.4056 15.8603 29.4622 15.3457 28.813C14.831 28.1638 13.8875 28.0548 13.2384 28.5694C12.5892 29.0841 12.4801 30.0275 12.9948 30.6767C13.5094 31.3259 14.4529 31.4349 15.1021 30.9203ZM15.1872 25.2299C15.6504 25.8141 15.5523 26.6633 14.968 27.1264C14.3837 27.5896 13.5346 27.4915 13.0714 26.9072C12.6083 26.323 12.7064 25.4738 13.2907 25.0107C13.8749 24.5475 14.724 24.6456 15.1872 25.2299ZM14.5486 23.8062C15.3189 24.111 16.1905 23.7337 16.4954 22.9635C16.8002 22.1932 16.4229 21.3216 15.6527 21.0167C14.8824 20.7118 14.0108 21.0891 13.7059 21.8594C13.401 22.6297 13.7783 23.5013 14.5486 23.8062ZM19.1283 19.4203C19.3691 20.0875 19.0235 20.8236 18.3563 21.0644C17.6891 21.3053 16.953 20.9596 16.7121 20.2924C16.4713 19.6252 16.817 18.8891 17.4842 18.6483C18.1514 18.4074 18.8875 18.7531 19.1283 19.4203ZM13.5579 19.7544C14.3282 20.0592 15.1998 19.6819 15.5047 18.9117C15.8096 18.1414 15.4323 17.2698 14.662 16.9649C13.8917 16.66 13.0201 17.0373 12.7152 17.8076C12.4104 18.5779 12.7877 19.4495 13.5579 19.7544ZM18.5286 16.9829C18.2542 17.6761 17.4697 18.0157 16.7765 17.7413C16.0832 17.4669 15.7437 16.6825 16.0181 15.9892C16.2924 15.296 17.0769 14.9564 17.7701 15.2308C18.4634 15.5052 18.8029 16.2896 18.5286 16.9829Z" fill="white"/>
</svg>
