<svg width="136" height="40" viewBox="0 0 136 40" fill="none" xmlns="http://www.w3.org/2000/svg">
<path fill-rule="evenodd" clip-rule="evenodd" d="M35.5 20C35.5 27.5939 28.7843 33.75 20.5 33.75C17.382 33.75 14.4862 32.8779 12.087 31.3854L8 32.5L9.16476 29.0057C6.8817 26.5932 5.5 23.4445 5.5 20C5.5 12.4061 12.2157 6.25 20.5 6.25C28.7843 6.25 35.5 12.4061 35.5 20ZM19.2132 10.6951C19.3141 11.378 19.9495 11.8498 20.6325 11.7489C21.3154 11.648 21.7872 11.0125 21.6863 10.3296C21.5854 9.64664 20.9499 9.17483 20.267 9.27576C19.584 9.37669 19.1122 10.0121 19.2132 10.6951ZM18.1211 14.1521C17.4381 14.253 16.8027 13.7812 16.7017 13.0982C16.6008 12.4153 17.0726 11.7799 17.7556 11.6789C18.4385 11.578 19.074 12.0498 19.1749 12.7328C19.2758 13.4157 18.804 14.0511 18.1211 14.1521ZM21.7752 14.5759C21.394 15.0277 20.7187 15.085 20.2669 14.7038C19.8151 14.3226 19.7579 13.6474 20.139 13.1956C20.5202 12.7438 21.1955 12.6865 21.6473 13.0677C22.0991 13.4489 22.1563 14.1241 21.7752 14.5759ZM23.2844 13.1275C22.6697 13.2183 22.0978 12.7937 22.007 12.1791C21.9162 11.5644 22.3408 10.9925 22.9554 10.9017C23.5701 10.8108 24.142 11.2355 24.2328 11.8501C24.3237 12.4648 23.899 13.0367 23.2844 13.1275ZM24.578 13.2598C24.0371 13.6887 23.9462 14.4749 24.375 15.0159C24.8039 15.5569 25.5901 15.6478 26.1311 15.2189C26.6721 14.79 26.763 14.0038 26.3341 13.4628C25.9052 12.9218 25.119 12.831 24.578 13.2598ZM25.835 18.3924C25.2531 18.2882 24.8659 17.732 24.9701 17.1502C25.0743 16.5683 25.6305 16.1811 26.2124 16.2853C26.7942 16.3895 27.1814 16.9457 27.0772 17.5275C26.973 18.1094 26.4169 18.4966 25.835 18.3924ZM27.9149 14.2331C27.3739 14.662 27.283 15.4482 27.7119 15.9892C28.1408 16.5302 28.927 16.6211 29.468 16.1922C30.009 15.7633 30.0998 14.9771 29.671 14.4361C29.2421 13.8951 28.4559 13.8043 27.9149 14.2331ZM27.8439 18.9751C27.458 18.4883 27.5397 17.7807 28.0266 17.3947C28.5135 17.0087 29.2211 17.0905 29.6071 17.5774C29.9931 18.0642 29.9113 18.7718 29.4244 19.1578C28.9375 19.5438 28.2299 19.462 27.8439 18.9751ZM28.3761 20.1616C27.7342 19.9075 27.0078 20.2219 26.7538 20.8638C26.4997 21.5057 26.8141 22.2321 27.456 22.4861C28.0979 22.7402 28.8243 22.4258 29.0783 21.7839C29.3324 21.142 29.018 20.4157 28.3761 20.1616ZM24.5596 23.8164C24.359 23.2604 24.647 22.647 25.203 22.4463C25.759 22.2456 26.3724 22.5337 26.5731 23.0897C26.7738 23.6457 26.4858 24.2591 25.9298 24.4598C25.3738 24.6605 24.7603 24.3725 24.5596 23.8164ZM29.2016 23.5381C28.5597 23.284 27.8334 23.5984 27.5793 24.2403C27.3253 24.8822 27.6397 25.6085 28.2816 25.8626C28.9235 26.1167 29.6498 25.8023 29.9039 25.1604C30.1579 24.5185 29.8435 23.7921 29.2016 23.5381ZM25.0594 25.8476C25.2881 25.2699 25.9418 24.9869 26.5195 25.2156C27.0972 25.4443 27.3802 26.098 27.1515 26.6757C26.9229 27.2534 26.2692 27.5364 25.6915 27.3077C25.1138 27.079 24.8308 26.4253 25.0594 25.8476ZM24.2982 26.9018C24.1973 26.2188 23.5618 25.747 22.8789 25.8479C22.1959 25.9489 21.7241 26.5843 21.8251 27.2672C21.926 27.9502 22.5614 28.422 23.2444 28.3211C23.9273 28.2201 24.3991 27.5847 24.2982 26.9018ZM19.2248 25.4241C19.606 24.9723 20.2812 24.915 20.733 25.2962C21.1848 25.6774 21.2421 26.3526 20.8609 26.8044C20.4797 27.2562 19.8045 27.3135 19.3527 26.9323C18.9009 26.5511 18.8436 25.8759 19.2248 25.4241ZM21.7868 29.3049C21.6859 28.622 21.0504 28.1502 20.3675 28.2511C19.6845 28.352 19.2127 28.9875 19.3137 29.6704C19.4146 30.3533 20.05 30.8252 20.733 30.7242C21.4159 30.6233 21.8877 29.9879 21.7868 29.3049ZM17.7156 26.8725C18.3302 26.7817 18.9021 27.2063 18.9929 27.8209C19.0838 28.4356 18.6591 29.0075 18.0445 29.0983C17.4299 29.1891 16.858 28.7645 16.7671 28.1499C16.6763 27.5352 17.1009 26.9633 17.7156 26.8725ZM16.4219 26.7402C16.9629 26.3113 17.0538 25.5251 16.6249 24.9841C16.196 24.4431 15.4098 24.3522 14.8688 24.7811C14.3278 25.21 14.237 25.9962 14.6658 26.5372C15.0947 27.0782 15.8809 27.169 16.4219 26.7402ZM15.165 21.6076C15.7468 21.7118 16.134 22.268 16.0298 22.8498C15.9256 23.4317 15.3695 23.8189 14.7876 23.7147C14.2057 23.6105 13.8185 23.0543 13.9227 22.4725C14.0269 21.8906 14.5831 21.5034 15.165 21.6076ZM13.0851 25.7669C13.626 25.338 13.7169 24.5518 13.288 24.0108C12.8592 23.4698 12.0729 23.3789 11.532 23.8078C10.991 24.2367 10.9001 25.0229 11.329 25.5639C11.7579 26.1049 12.5441 26.1957 13.0851 25.7669ZM13.156 21.0249C13.542 21.5117 13.4602 22.2193 12.9733 22.6053C12.4864 22.9913 11.7788 22.9095 11.3929 22.4226C11.0069 21.9358 11.0887 21.2282 11.5755 20.8422C12.0624 20.4562 12.77 20.538 13.156 21.0249ZM12.6238 19.8384C13.2657 20.0925 13.9921 19.7781 14.2461 19.1362C14.5002 18.4943 14.1858 17.7679 13.5439 17.5139C12.902 17.2598 12.1756 17.5742 11.9216 18.2161C11.6675 18.858 11.9819 19.5844 12.6238 19.8384ZM16.4403 16.1835C16.6409 16.7396 16.3529 17.353 15.7969 17.5537C15.2409 17.7543 14.6275 17.4663 14.4268 16.9103C14.2261 16.3543 14.5141 15.7409 15.0701 15.5402C15.6262 15.3395 16.2396 15.6275 16.4403 16.1835ZM11.7983 16.4619C12.4402 16.716 13.1665 16.4016 13.4206 15.7597C13.6746 15.1178 13.3602 14.3914 12.7183 14.1374C12.0764 13.8833 11.3501 14.1977 11.096 14.8396C10.842 15.4815 11.1564 16.2079 11.7983 16.4619ZM15.9405 14.1523C15.7118 14.7301 15.0581 15.013 14.4804 14.7844C13.9027 14.5557 13.6197 13.902 13.8484 13.3243C14.077 12.7466 14.7307 12.4636 15.3084 12.6923C15.8861 12.9209 16.1691 13.5746 15.9405 14.1523Z" fill="white"/>
<path d="M56.74 28.6C55.2333 28.6 53.9267 28.28 52.82 27.64C51.7267 27 50.88 26.0733 50.28 24.86C49.6933 23.6467 49.4 22.2 49.4 20.52C49.4 18.84 49.6933 17.3933 50.28 16.18C50.88 14.9667 51.7267 14.04 52.82 13.4C53.9267 12.76 55.2333 12.44 56.74 12.44C58.2333 12.44 59.5267 12.76 60.62 13.4C61.7267 14.04 62.5733 14.9667 63.16 16.18C63.76 17.3933 64.06 18.84 64.06 20.52C64.06 22.2 63.76 23.6467 63.16 24.86C62.5733 26.0733 61.7267 27 60.62 27.64C59.5267 28.28 58.2333 28.6 56.74 28.6ZM56.74 25.48C57.9533 25.48 58.9067 25.0467 59.6 24.18C60.3067 23.3 60.66 22.08 60.66 20.52C60.66 18.96 60.3067 17.7467 59.6 16.88C58.9067 16 57.9533 15.56 56.74 15.56C55.5267 15.56 54.5667 15.9933 53.86 16.86C53.1667 17.7267 52.82 18.9467 52.82 20.52C52.82 22.0933 53.1667 23.3133 53.86 24.18C54.5667 25.0467 55.5267 25.48 56.74 25.48ZM66.1448 28.32V16.5H69.3848V18.06H69.4848C69.8182 17.4867 70.2715 17.04 70.8448 16.72C71.4182 16.3867 72.0648 16.22 72.7848 16.22C73.9715 16.22 74.8915 16.6067 75.5448 17.38C76.2115 18.14 76.5448 19.2267 76.5448 20.64V28.32H73.3248V21.36C73.3248 20.72 73.1582 20.2133 72.8248 19.84C72.5048 19.4667 72.0715 19.28 71.5248 19.28C70.8715 19.28 70.3515 19.4933 69.9648 19.92C69.5782 20.3333 69.3848 20.8867 69.3848 21.58V28.32H66.1448ZM89.2611 21.56C89.2611 22.2267 89.1744 22.8867 89.0011 23.54H81.6811C81.7878 24.2733 82.0478 24.84 82.4611 25.24C82.8744 25.64 83.4344 25.84 84.1411 25.84C85.1011 25.84 85.8478 25.32 86.3811 24.28L88.8211 25.92C88.4478 26.6933 87.8611 27.3333 87.0611 27.84C86.2611 28.3467 85.2744 28.6 84.1011 28.6C82.9544 28.6 81.9411 28.3533 81.0611 27.86C80.1944 27.3667 79.5211 26.66 79.0411 25.74C78.5611 24.82 78.3211 23.7467 78.3211 22.52C78.3211 21.2533 78.5544 20.1467 79.0211 19.2C79.4878 18.24 80.1411 17.5067 80.9811 17C81.8344 16.48 82.8211 16.22 83.9411 16.22C84.9944 16.22 85.9211 16.44 86.7211 16.88C87.5344 17.32 88.1611 17.9467 88.6011 18.76C89.0411 19.56 89.2611 20.4933 89.2611 21.56ZM85.9611 21C85.9611 20.3467 85.7811 19.8333 85.4211 19.46C85.0744 19.0733 84.5811 18.88 83.9411 18.88C83.3678 18.88 82.8944 19.0667 82.5211 19.44C82.1611 19.8 81.9078 20.32 81.7611 21H85.9611ZM96.4253 28.6C95.2653 28.6 94.2453 28.3467 93.3653 27.84C92.4986 27.3333 91.8253 26.62 91.3453 25.7C90.8786 24.7667 90.6453 23.6733 90.6453 22.42C90.6453 21.1667 90.8786 20.0733 91.3453 19.14C91.8253 18.2067 92.4986 17.4933 93.3653 17C94.2453 16.4933 95.2653 16.24 96.4253 16.24C97.4653 16.24 98.4053 16.5 99.2453 17.02C100.099 17.5267 100.725 18.22 101.125 19.1L98.5653 20.84C98.0053 19.8 97.2586 19.28 96.3253 19.28C95.5786 19.28 94.992 19.56 94.5653 20.12C94.152 20.68 93.9453 21.4467 93.9453 22.42C93.9453 23.3933 94.152 24.16 94.5653 24.72C94.992 25.28 95.5786 25.56 96.3253 25.56C97.2586 25.56 98.0053 25.04 98.5653 24L101.125 25.74C100.725 26.62 100.099 27.32 99.2453 27.84C98.4053 28.3467 97.4653 28.6 96.4253 28.6ZM102.903 28.32V12.72H106.143V18.06H106.243C106.576 17.4867 107.029 17.04 107.603 16.72C108.176 16.3867 108.823 16.22 109.543 16.22C110.729 16.22 111.649 16.6067 112.303 17.38C112.969 18.14 113.303 19.2267 113.303 20.64V28.32H110.083V21.36C110.083 20.72 109.916 20.2133 109.583 19.84C109.263 19.4667 108.829 19.28 108.283 19.28C107.629 19.28 107.109 19.4933 106.723 19.92C106.336 20.3333 106.143 20.8867 106.143 21.58V28.32H102.903ZM118.819 28.6C118.126 28.6 117.492 28.4667 116.919 28.2C116.359 27.9333 115.912 27.5467 115.579 27.04C115.246 26.5333 115.079 25.9267 115.079 25.22C115.079 24.3933 115.292 23.66 115.719 23.02C116.146 22.3667 116.766 21.86 117.579 21.5C118.392 21.14 119.359 20.96 120.479 20.96H121.979V20.64C121.979 20.12 121.792 19.7067 121.419 19.4C121.059 19.0933 120.572 18.94 119.959 18.94C119.052 18.94 118.326 19.3467 117.779 20.16L115.579 18.64C116.672 17.0267 118.232 16.22 120.259 16.22C121.232 16.22 122.092 16.4067 122.839 16.78C123.586 17.1533 124.166 17.68 124.579 18.36C125.006 19.04 125.219 19.8267 125.219 20.72V28.32H121.979V26.96H121.859C121.619 27.4933 121.226 27.9 120.679 28.18C120.146 28.46 119.526 28.6 118.819 28.6ZM119.799 25.94C120.412 25.94 120.926 25.7933 121.339 25.5C121.766 25.2067 121.979 24.8 121.979 24.28V23.6H121.159C119.306 23.6 118.379 24.0667 118.379 25C118.379 25.3067 118.499 25.54 118.739 25.7C118.979 25.86 119.332 25.94 119.799 25.94ZM134.753 19.56H131.693V24.12C131.693 24.5467 131.82 24.88 132.073 25.12C132.326 25.36 132.68 25.48 133.133 25.48C133.6 25.48 134.06 25.4067 134.513 25.26V28.32C133.793 28.5333 133.073 28.64 132.353 28.64C131.1 28.64 130.133 28.2933 129.453 27.6C128.786 26.9067 128.453 25.9067 128.453 24.6V19.56H126.633V16.5H128.453V13.16H131.693V16.5H134.753V19.56Z" fill="white"/>
</svg>
