<svg width="40" height="40" viewBox="0 0 40 40" fill="none" xmlns="http://www.w3.org/2000/svg">
<g clip-path="url(#clip0_7128_3511)">
<g clip-path="url(#clip1_7128_3511)">
<g clip-path="url(#clip2_7128_3511)">
<path d="M13.9231 8.95716C14.0846 10.0499 15.1013 10.8048 16.194 10.6433C17.2867 10.4818 18.0416 9.46507 17.8802 8.37237C17.7187 7.27967 16.702 6.52477 15.6093 6.68625C14.5166 6.84774 13.7617 7.86445 13.9231 8.95716Z" fill="white"/>
<path d="M19.6276 11.5261C20.3504 12.136 21.4309 12.0444 22.0407 11.3215C22.6506 10.5986 22.559 9.51818 21.8361 8.9083C21.1132 8.29842 20.0328 8.39003 19.4229 9.11291C18.8131 9.8358 18.9047 10.9162 19.6276 11.5261Z" fill="white"/>
<path d="M17.9413 5.11209C18.1028 6.20479 19.1195 6.9597 20.2122 6.79821C21.3049 6.63673 22.0598 5.62001 21.8983 4.52731C21.7369 3.43461 20.7201 2.67971 19.6274 2.84119C18.5347 3.00267 17.7798 4.01939 17.9413 5.11209Z" fill="white"/>
<path d="M22.4115 7.48647C22.5569 8.4699 23.4719 9.14931 24.4554 9.00398C25.4388 8.85864 26.1182 7.9436 25.9729 6.96016C25.8275 5.97673 24.9125 5.29732 23.9291 5.44266C22.9456 5.58799 22.2662 6.50304 22.4115 7.48647Z" fill="white"/>
<path d="M26.0721 10.9309C26.2013 11.8051 27.0146 12.409 27.8888 12.2798C28.763 12.1506 29.3669 11.3373 29.2377 10.4631C29.1085 9.58893 28.2951 8.98501 27.421 9.11419C26.5468 9.24338 25.9429 10.0568 26.0721 10.9309Z" fill="white"/>
</g>
<g clip-path="url(#clip3_7128_3511)">
<path d="M26.5251 9.21574C25.6595 9.90194 25.5141 11.1599 26.2003 12.0255C26.8865 12.891 28.1445 13.0364 29.01 12.3502C29.8756 11.664 30.021 10.4061 29.3348 9.54051C28.6486 8.67495 27.3906 8.52954 26.5251 9.21574Z" fill="white"/>
<path d="M27.1524 15.4403C26.9857 16.3712 27.6053 17.2611 28.5362 17.4278C29.4672 17.5946 30.3571 16.975 30.5238 16.044C30.6905 15.1131 30.071 14.2232 29.14 14.0565C28.209 13.8898 27.3192 14.5093 27.1524 15.4403Z" fill="white"/>
<path d="M31.8644 10.773C30.9989 11.4592 30.8535 12.7172 31.5397 13.5827C32.2259 14.4483 33.4838 14.5937 34.3494 13.9075C35.2149 13.2213 35.3604 11.9634 34.6742 11.0978C33.988 10.2322 32.73 10.0868 31.8644 10.773Z" fill="white"/>
<path d="M32.0432 15.8315C31.2642 16.4491 31.1333 17.5812 31.7509 18.3602C32.3685 19.1392 33.5007 19.2701 34.2797 18.6525C35.0587 18.0349 35.1895 16.9028 34.572 16.1238C33.9544 15.3448 32.8222 15.2139 32.0432 15.8315Z" fill="white"/>
<path d="M30.8906 20.7237C30.1981 21.2727 30.0818 22.279 30.6308 22.9715C31.1797 23.6639 32.1861 23.7802 32.8785 23.2313C33.571 22.6823 33.6873 21.676 33.1383 20.9835C32.5894 20.2911 31.583 20.1747 30.8906 20.7237Z" fill="white"/>
</g>
<path d="M32.6021 20.2585C31.575 19.852 30.4129 20.3551 30.0064 21.3821C29.5999 22.4092 30.1029 23.5713 31.13 23.9778C32.157 24.3843 33.3192 23.8812 33.7257 22.8542C34.1322 21.8272 33.6291 20.665 32.6021 20.2585Z" fill="white"/>
<path d="M27.525 23.9141C26.6354 24.2352 26.1745 25.2167 26.4956 26.1063C26.8167 26.9959 27.7982 27.4568 28.6878 27.1357C29.5774 26.8146 30.0383 25.8331 29.7172 24.9435C29.3961 24.0539 28.4146 23.593 27.525 23.9141Z" fill="white"/>
<path d="M33.9231 25.6609C32.8961 25.2544 31.7339 25.7575 31.3274 26.7845C30.9209 27.8115 31.424 28.9737 32.451 29.3802C33.4781 29.7867 34.6402 29.2836 35.0467 28.2566C35.4532 27.2295 34.9502 26.0674 33.9231 25.6609Z" fill="white"/>
<path d="M29.6317 28.345C28.7073 27.9791 27.6614 28.4319 27.2956 29.3562C26.9297 30.2805 27.3825 31.3265 28.3068 31.6923C29.2311 32.0582 30.2771 31.6054 30.6429 30.6811C31.0088 29.7567 30.556 28.7108 29.6317 28.345Z" fill="white"/>
<path d="M24.8185 29.7927C23.9968 29.4675 23.0672 29.87 22.7419 30.6916C22.4167 31.5133 22.8192 32.443 23.6408 32.7682C24.4625 33.0934 25.3922 32.6909 25.7174 31.8693C26.0426 31.0476 25.6401 30.1179 24.8185 29.7927Z" fill="white"/>
<g clip-path="url(#clip4_7128_3511)">
<path d="M26.077 31.0428C25.9155 29.9501 24.8988 29.1952 23.8061 29.3567C22.7134 29.5182 21.9585 30.5349 22.12 31.6276C22.2814 32.7203 23.2982 33.4752 24.3909 33.3137C25.4836 33.1522 26.2385 32.1355 26.077 31.0428Z" fill="white"/>
<path d="M20.3726 28.4739C19.6497 27.864 18.5693 27.9556 17.9594 28.6785C17.3495 29.4014 17.4411 30.4818 18.164 31.0917C18.8869 31.7015 19.9673 31.6099 20.5772 30.8871C21.1871 30.1642 21.0955 29.0838 20.3726 28.4739Z" fill="white"/>
<path d="M22.0587 34.8879C21.8972 33.7952 20.8805 33.0403 19.7878 33.2018C18.6951 33.3632 17.9402 34.38 18.1017 35.4727C18.2631 36.5654 19.2799 37.3203 20.3726 37.1588C21.4653 36.9973 22.2202 35.9806 22.0587 34.8879Z" fill="white"/>
<path d="M17.5886 32.5135C17.4432 31.5301 16.5282 30.8507 15.5448 30.996C14.5613 31.1413 13.8819 32.0564 14.0273 33.0398C14.1726 34.0232 15.0876 34.7026 16.0711 34.5573C17.0545 34.412 17.7339 33.4969 17.5886 32.5135Z" fill="white"/>
<path d="M13.928 29.0691C13.7989 28.1949 12.9855 27.591 12.1113 27.7202C11.2372 27.8493 10.6332 28.6627 10.7624 29.5369C10.8916 30.411 11.705 31.015 12.5791 30.8858C13.4533 30.7566 14.0572 29.9432 13.928 29.0691Z" fill="white"/>
</g>
<g clip-path="url(#clip5_7128_3511)">
<path d="M13.475 30.7843C14.3406 30.0981 14.486 28.8401 13.7998 27.9746C13.1136 27.109 11.8557 26.9636 10.9901 27.6498C10.1245 28.336 9.97913 29.594 10.6653 30.4595C11.3515 31.3251 12.6095 31.4705 13.475 30.7843Z" fill="white"/>
<path d="M12.8476 24.5598C13.0143 23.6288 12.3947 22.7389 11.4638 22.5722C10.5328 22.4055 9.64293 23.025 9.4762 23.956C9.30948 24.887 9.92902 25.7768 10.86 25.9436C11.791 26.1103 12.6808 25.4907 12.8476 24.5598Z" fill="white"/>
<path d="M8.13569 29.2269C9.00126 28.5407 9.14666 27.2828 8.46046 26.4172C7.77426 25.5517 6.51631 25.4063 5.65074 26.0925C4.78518 26.7787 4.63977 28.0366 5.32597 28.9022C6.01217 29.7677 7.27012 29.9131 8.13569 29.2269Z" fill="white"/>
<path d="M7.95691 24.1685C8.73592 23.5509 8.86678 22.4187 8.24921 21.6397C7.63163 20.8607 6.49947 20.7299 5.72046 21.3474C4.94145 21.965 4.81058 23.0972 5.42816 23.8762C6.04574 24.6552 7.1779 24.7861 7.95691 24.1685Z" fill="white"/>
<path d="M9.10955 19.2763C9.80201 18.7273 9.91833 17.721 9.36937 17.0285C8.82041 16.336 7.81405 16.2197 7.12159 16.7687C6.42914 17.3176 6.31282 18.324 6.86178 19.0165C7.41074 19.7089 8.4171 19.8252 9.10955 19.2763Z" fill="white"/>
</g>
<path d="M7.39794 19.7415C8.42499 20.148 9.58711 19.6449 9.99361 18.6179C10.4001 17.5908 9.89706 16.4287 8.87001 16.0222C7.84296 15.6157 6.68084 16.1188 6.27434 17.1458C5.86784 18.1728 6.37089 19.335 7.39794 19.7415Z" fill="white"/>
<path d="M12.475 16.0859C13.3646 15.7648 13.8255 14.7833 13.5044 13.8937C13.1833 13.0041 12.2018 12.5432 11.3122 12.8643C10.4226 13.1854 9.96172 14.1669 10.2828 15.0565C10.6039 15.9461 11.5854 16.407 12.475 16.0859Z" fill="white"/>
<path d="M6.07689 14.3391C7.10394 14.7456 8.26607 14.2425 8.67257 13.2155C9.07907 12.1884 8.57602 11.0263 7.54897 10.6198C6.52192 10.2133 5.3598 10.7163 4.95329 11.7434C4.54679 12.7704 5.04985 13.9326 6.07689 14.3391Z" fill="white"/>
<path d="M10.3682 11.655C11.2926 12.0208 12.3385 11.5681 12.7043 10.6437C13.0702 9.7194 12.6174 8.67349 11.6931 8.30764C10.7687 7.94178 9.72283 8.39453 9.35698 9.31888C8.99112 10.2432 9.44387 11.2891 10.3682 11.655Z" fill="white"/>
<path d="M15.1815 10.2072C16.0032 10.5324 16.9328 10.13 17.2581 9.30831C17.5833 8.48667 17.1808 7.55698 16.3592 7.23177C15.5375 6.90657 14.6078 7.30901 14.2826 8.13065C13.9574 8.95229 14.3599 9.88199 15.1815 10.2072Z" fill="white"/>
</g>
</g>
<defs>
<clipPath id="clip0_7128_3511">
<rect width="40" height="40" fill="white"/>
</clipPath>
<clipPath id="clip1_7128_3511">
<rect width="40" height="40" fill="white"/>
</clipPath>
<clipPath id="clip2_7128_3511">
<rect width="40" height="40" fill="white" transform="translate(27.3206 -7.32051) rotate(60)"/>
</clipPath>
<clipPath id="clip3_7128_3511">
<rect width="40" height="40" fill="white" transform="translate(47.3206 12.6795) rotate(120)"/>
</clipPath>
<clipPath id="clip4_7128_3511">
<rect width="40" height="40" fill="white" transform="translate(12.6794 47.3205) rotate(-120)"/>
</clipPath>
<clipPath id="clip5_7128_3511">
<rect width="40" height="40" fill="white" transform="translate(-7.32056 27.3205) rotate(-60)"/>
</clipPath>
</defs>
</svg>
