<svg width="64" height="64" viewBox="0 0 64 64" fill="none" xmlns="http://www.w3.org/2000/svg">
<circle cx="32" cy="32" r="24" stroke="#7535FD" stroke-width="2"/>
<path d="M44.3613 38.5726C42.9733 41.183 40.7945 43.2871 38.1372 44.5831C35.4799 45.8792 32.4805 46.3007 29.5689 45.7873C26.6573 45.2739 23.983 43.852 21.9292 41.7252C19.8755 39.5985 18.5477 36.8762 18.1362 33.9484C17.7248 31.0207 18.2507 28.0378 19.6387 25.4274C21.0267 22.817 23.2055 20.7129 25.8628 19.4169C28.5201 18.1208 31.5195 17.6993 34.4311 18.2127C37.3427 18.7261 40.017 20.148 42.0708 22.2748L38.0662 26.1419C36.8291 24.8609 35.2182 24.0043 33.4644 23.6951C31.7106 23.3858 29.9038 23.6397 28.3032 24.4204C26.7026 25.2011 25.3901 26.4685 24.5541 28.0409C23.718 29.6134 23.4012 31.4101 23.649 33.1737C23.8969 34.9372 24.6967 36.577 25.9338 37.8581C27.1709 39.1391 28.7818 39.9957 30.5356 40.3049C32.2894 40.6142 34.0962 40.3603 35.6968 39.5796C37.2974 38.7989 38.6099 37.5315 39.4459 35.9591L44.3613 38.5726Z" stroke="#7535FD" stroke-width="2"/>
</svg>
