<svg width="64" height="64" viewBox="0 0 64 64" fill="none" xmlns="http://www.w3.org/2000/svg">
<path d="M32 6L52 13V37L32 56L12 37V13L32 6Z" stroke="#7535FD" stroke-width="2"/>
<path fill-rule="evenodd" clip-rule="evenodd" d="M32.4317 33.2045V33.8181C32.4317 34.3106 32.5359 34.7651 32.7442 35.1818C32.9564 35.5984 33.267 35.9337 33.676 36.1875C34.0851 36.4412 34.587 36.5681 35.1817 36.5681C35.7764 36.5681 36.2802 36.4412 36.6931 36.1875C37.106 35.9337 37.4185 35.5984 37.6306 35.1818C37.8465 34.7651 37.9545 34.3106 37.9545 33.8181V33.2045C37.9545 32.7045 37.8484 32.2462 37.6363 31.8295C37.4242 31.4128 37.1117 31.0795 36.6988 30.8295C36.2897 30.5795 35.784 30.4545 35.1817 30.4545C34.5946 30.4545 34.0965 30.5814 33.6874 30.8352C33.2783 31.089 32.9658 31.4242 32.7499 31.8409C32.5378 32.2575 32.4317 32.7121 32.4317 33.2045ZM34.409 33.8181V33.2045C34.409 32.9772 34.462 32.7575 34.5681 32.5454C34.6779 32.3333 34.8825 32.2272 35.1817 32.2272C35.5075 32.2272 35.7177 32.3333 35.8124 32.5454C35.9071 32.7575 35.9545 32.9772 35.9545 33.2045V33.8181C35.9545 34.0454 35.9033 34.2613 35.801 34.4659C35.7026 34.6704 35.4961 34.7727 35.1817 34.7727C34.8825 34.7727 34.6779 34.6685 34.5681 34.4602C34.462 34.2481 34.409 34.034 34.409 33.8181Z" fill="#7535FD"/>
<path fill-rule="evenodd" clip-rule="evenodd" d="M26.3408 26.5454V27.159C26.3408 27.6515 26.445 28.1041 26.6533 28.517C26.8654 28.9299 27.176 29.2613 27.5851 29.5113C27.9942 29.7613 28.4961 29.8863 29.0908 29.8863C29.6855 29.8863 30.1893 29.7632 30.6022 29.517C31.0151 29.2708 31.3276 28.9412 31.5397 28.5284C31.7556 28.1155 31.8635 27.659 31.8635 27.159V26.5454C31.8635 26.0454 31.7575 25.5871 31.5454 25.1704C31.3332 24.7537 31.0207 24.4204 30.6079 24.1704C30.1988 23.9204 29.6931 23.7954 29.0908 23.7954C28.5113 23.7954 28.017 23.9204 27.6079 24.1704C27.1988 24.4204 26.8844 24.7537 26.6647 25.1704C26.4488 25.5871 26.3408 26.0454 26.3408 26.5454ZM28.3408 27.159V26.5454C28.3408 26.3295 28.3901 26.1136 28.4885 25.8977C28.5908 25.678 28.7916 25.5681 29.0908 25.5681C29.4166 25.5681 29.6268 25.6742 29.7215 25.8863C29.8162 26.0984 29.8635 26.3181 29.8635 26.5454V27.159C29.8635 27.3863 29.8124 27.6022 29.7101 27.8068C29.6117 28.0113 29.4052 28.1136 29.0908 28.1136C28.8029 28.1136 28.606 28.0113 28.4999 27.8068C28.3939 27.6022 28.3408 27.3863 28.3408 27.159Z" fill="#7535FD"/>
<path d="M35.3067 24.3636L27.3067 36H28.9204L36.9204 24.3636H35.3067Z" fill="#7535FD"/>
<path d="M52 20L32 13L12 20" stroke="#7535FD" stroke-width="2"/>
</svg>
