<svg width="64" height="64" viewBox="0 0 64 64" fill="none" xmlns="http://www.w3.org/2000/svg">
<path d="M26.6813 12.6308L32 5.65005L37.3187 12.6308C40.9366 17.3794 42.5665 23.3485 41.8639 29.2768L41.1818 35.0319L41.1107 35.6321L41.6089 35.9741C45.9885 38.9806 48.8867 43.9811 48.9968 49.6644C45.1803 44.4149 38.9896 41 32 41C25.0104 41 18.8197 44.4149 15.0032 49.6644C15.1133 43.9811 18.0115 38.9806 22.3911 35.9741L22.8893 35.6321L22.8182 35.0319L22.1361 29.2768C21.4335 23.3485 23.0634 17.3793 26.6813 12.6308ZM30.2521 56.2775C28.8443 54.553 28.2061 52.3152 28.4868 50.1044C28.7118 48.3331 30.2201 47 32 47C33.7799 47 35.2882 48.3331 35.5132 50.1044C35.7939 52.3152 35.1557 54.553 33.7479 56.2775L32 58.4187L30.2521 56.2775Z" stroke="#7535FD" stroke-width="2"/>
<circle cx="32" cy="21" r="3" stroke="#7535FD" stroke-width="2"/>
</svg>
