<svg width="32" height="32" viewBox="0 0 32 32" fill="none" xmlns="http://www.w3.org/2000/svg">
<g clip-path="url(#clip0_1100_4769)">
<mask id="mask0_1100_4769" style="mask-type:luminance" maskUnits="userSpaceOnUse" x="0" y="0" width="32" height="32">
<path d="M32 0H0V32H32V0Z" fill="white"/>
</mask>
<g mask="url(#mask0_1100_4769)">
<path d="M35.2 0H-3.20002C-4.96734 0 -6.40002 1.43269 -6.40002 3.2V28.8C-6.40002 30.5673 -4.96734 32 -3.20002 32H35.2C36.9673 32 38.4 30.5673 38.4 28.8V3.2C38.4 1.43269 36.9673 0 35.2 0Z" fill="white"/>
<mask id="mask1_1100_4769" style="mask-type:luminance" maskUnits="userSpaceOnUse" x="-7" y="0" width="46" height="32">
<path d="M35.2 0H-3.20002C-4.96734 0 -6.40002 1.43269 -6.40002 3.2V28.8C-6.40002 30.5673 -4.96734 32 -3.20002 32H35.2C36.9673 32 38.4 30.5673 38.4 28.8V3.2C38.4 1.43269 36.9673 0 35.2 0Z" fill="white"/>
</mask>
<g mask="url(#mask1_1100_4769)">
<path d="M38.4 0H-6.40002V32H38.4V0Z" fill="#FF2936"/>
<path fill-rule="evenodd" clip-rule="evenodd" d="M-6.40002 32H10.6667V0H-6.40002V32Z" fill="#128415"/>
<path d="M10.6667 21.3334C13.6122 21.3334 16 18.9456 16 16.0001C16 13.0546 13.6122 10.6668 10.6667 10.6668C7.72119 10.6668 5.33337 13.0546 5.33337 16.0001C5.33337 18.9456 7.72119 21.3334 10.6667 21.3334Z" stroke="#FAF94F" stroke-width="2.13333"/>
<path fill-rule="evenodd" clip-rule="evenodd" d="M8.53333 13.3334C8.53333 13.0388 8.77211 12.8 9.06666 12.8H12.2667C12.5612 12.8 12.8 13.0388 12.8 13.3334V17.0667C12.8 18.2449 11.8449 19.2 10.6667 19.2C9.48845 19.2 8.53333 18.2449 8.53333 17.0667V13.3334Z" fill="white"/>
<path d="M10.6666 17.0667C11.2558 17.0667 11.7333 16.3504 11.7333 15.4667C11.7333 14.583 11.2558 13.8667 10.6666 13.8667C10.0775 13.8667 9.59998 14.583 9.59998 15.4667C9.59998 16.3504 10.0775 17.0667 10.6666 17.0667Z" fill="#1D50B5"/>
</g>
</g>
</g>
<defs>
<clipPath id="clip0_1100_4769">
<rect width="32" height="32" rx="2" fill="white"/>
</clipPath>
</defs>
</svg>
