<svg width="32" height="32" viewBox="0 0 32 32" fill="none" xmlns="http://www.w3.org/2000/svg">
<g clip-path="url(#clip0_1100_4724)">
<mask id="mask0_1100_4724" style="mask-type:luminance" maskUnits="userSpaceOnUse" x="0" y="0" width="32" height="32">
<path d="M32 0H0V32H32V0Z" fill="white"/>
</mask>
<g mask="url(#mask0_1100_4724)">
<path d="M35.2 0H-3.20002C-4.96734 0 -6.40002 1.43269 -6.40002 3.2V28.8C-6.40002 30.5673 -4.96734 32 -3.20002 32H35.2C36.9673 32 38.4 30.5673 38.4 28.8V3.2C38.4 1.43269 36.9673 0 35.2 0Z" fill="white"/>
<mask id="mask1_1100_4724" style="mask-type:luminance" maskUnits="userSpaceOnUse" x="-7" y="0" width="46" height="32">
<path d="M35.2 0H-3.20002C-4.96734 0 -6.40002 1.43269 -6.40002 3.2V28.8C-6.40002 30.5673 -4.96734 32 -3.20002 32H35.2C36.9673 32 38.4 30.5673 38.4 28.8V3.2C38.4 1.43269 36.9673 0 35.2 0Z" fill="white"/>
</mask>
<g mask="url(#mask1_1100_4724)">
<path d="M38.4 0H-6.40002V32H38.4V0Z" fill="#0A17A7"/>
<path fill-rule="evenodd" clip-rule="evenodd" d="M-8.45199 -3.06641L10.6666 9.82927V-2.13343H21.3333V9.82926L40.4519 -3.06641L42.8378 0.470825L27.722 10.6666H38.4V21.3332H27.722L42.8378 31.529L40.4519 35.0662L21.3333 22.1706V34.1332H10.6666V22.1706L-8.45199 35.0662L-10.8379 31.529L4.27795 21.3332H-6.40004V10.6666H4.27794L-10.8379 0.470825L-8.45199 -3.06641Z" fill="white"/>
<path d="M23.4688 10.1316L43.7332 -3.19995" stroke="#DB1F35" stroke-width="1.06667" stroke-linecap="round"/>
<path d="M25.6204 21.9161L43.7866 34.1606" stroke="#DB1F35" stroke-width="1.06667" stroke-linecap="round"/>
<path d="M6.40881 10.0967L-12.54 -2.67358" stroke="#DB1F35" stroke-width="1.06667" stroke-linecap="round"/>
<path d="M8.46402 21.7679L-12.54 35.6968" stroke="#DB1F35" stroke-width="1.06667" stroke-linecap="round"/>
<path fill-rule="evenodd" clip-rule="evenodd" d="M-6.40002 19.2H12.8V32H19.2V19.2H38.4V12.8H19.2V0H12.8V12.8H-6.40002V19.2Z" fill="#E6273E"/>
</g>
</g>
</g>
<defs>
<clipPath id="clip0_1100_4724">
<rect width="32" height="32" rx="2" fill="white"/>
</clipPath>
</defs>
</svg>
