<svg width="32" height="32" viewBox="0 0 32 32" fill="none" xmlns="http://www.w3.org/2000/svg">
<g clip-path="url(#clip0_1100_4668)">
<mask id="mask0_1100_4668" style="mask-type:luminance" maskUnits="userSpaceOnUse" x="0" y="0" width="32" height="32">
<path d="M32 0H0V32H32V0Z" fill="white"/>
</mask>
<g mask="url(#mask0_1100_4668)">
<path d="M35.2 0H-3.19996C-4.96727 0 -6.39996 1.43269 -6.39996 3.2V28.8C-6.39996 30.5673 -4.96727 32 -3.19996 32H35.2C36.9673 32 38.4 30.5673 38.4 28.8V3.2C38.4 1.43269 36.9673 0 35.2 0Z" fill="white"/>
<mask id="mask1_1100_4668" style="mask-type:luminance" maskUnits="userSpaceOnUse" x="-7" y="0" width="46" height="32">
<path d="M35.2 0H-3.19996C-4.96727 0 -6.39996 1.43269 -6.39996 3.2V28.8C-6.39996 30.5673 -4.96727 32 -3.19996 32H35.2C36.9673 32 38.4 30.5673 38.4 28.8V3.2C38.4 1.43269 36.9673 0 35.2 0Z" fill="white"/>
</mask>
<g mask="url(#mask1_1100_4668)">
<path d="M38.4 0H-6.39996V32H38.4V0Z" fill="#F1361D"/>
<path fill-rule="evenodd" clip-rule="evenodd" d="M11.5771 6.13394L12.8322 6.34791L13.7736 7.20521L13.9875 5.95011L14.8448 5.00877L13.5897 4.7948L12.6484 3.9375L12.4344 5.1926L11.5771 6.13394ZM14.939 10.5238L16.0266 9.86192L17.2995 9.89136L16.6375 8.80374L16.667 7.53086L15.5794 8.1928L14.3065 8.16336L14.9684 9.25098L14.939 10.5238ZM13.4636 17.6296L12.3997 18.3291L12.3847 17.056L11.6852 15.9921L12.9584 15.9771L14.0222 15.2776L14.0372 16.5507L14.7367 17.6146L13.4636 17.6296ZM14.3875 14.3385L15.6529 14.1982L16.7941 14.7628L16.6538 13.4974L17.2185 12.3562L15.953 12.4965L14.8118 11.9319L14.9521 13.1973L14.3875 14.3385Z" fill="#FFDC42"/>
<path fill-rule="evenodd" clip-rule="evenodd" d="M7.163 12.777L4.11592 14.9492L5.24019 11.38L2.23273 9.15334L5.97464 9.11965L7.163 5.57129L8.35136 9.11965L12.0933 9.15334L9.08581 11.38L10.2101 14.9492L7.163 12.777Z" fill="#FFDC42"/>
</g>
</g>
</g>
<defs>
<clipPath id="clip0_1100_4668">
<rect width="32" height="32" rx="2" fill="white"/>
</clipPath>
</defs>
</svg>
