<svg width="64" height="64" viewBox="0 0 64 64" fill="none" xmlns="http://www.w3.org/2000/svg">
<rect x="5" y="22" width="46" height="26" stroke="white" stroke-width="2"/>
<path d="M7 18H55V46" stroke="white" stroke-width="2"/>
<path d="M11 14H59V42" stroke="white" stroke-width="2"/>
<path d="M38 28H45.5" stroke="white" stroke-width="2"/>
<path d="M10 42H17.5" stroke="white" stroke-width="2"/>
<path d="M28.299 42.6364V26.2727H29.3473V42.6364H28.299ZM31.5781 31.348C31.5099 30.7429 31.2287 30.2741 30.7344 29.9418C30.2401 29.6051 29.6179 29.4368 28.8679 29.4368C28.331 29.4368 27.8665 29.522 27.4744 29.6925C27.0824 29.8587 26.7777 30.0888 26.5604 30.3828C26.3473 30.6726 26.2408 31.0028 26.2408 31.3736C26.2408 31.6847 26.3132 31.9531 26.4581 32.179C26.6072 32.4048 26.8011 32.5945 27.0398 32.7479C27.2827 32.897 27.5426 33.0227 27.8196 33.125C28.0966 33.223 28.3629 33.304 28.6186 33.3679L29.897 33.7003C30.3146 33.8026 30.7429 33.9411 31.1818 34.1158C31.6207 34.2905 32.0277 34.5206 32.4027 34.8061C32.7777 35.0916 33.0803 35.4453 33.3104 35.8672C33.5447 36.2891 33.6619 36.794 33.6619 37.3821C33.6619 38.1236 33.4702 38.782 33.0866 39.3572C32.7074 39.9325 32.1555 40.3864 31.4311 40.7188C30.7109 41.0511 29.8395 41.2173 28.8168 41.2173C27.8366 41.2173 26.9886 41.0618 26.2727 40.7507C25.5568 40.4396 24.9964 39.9986 24.5916 39.4276C24.1868 38.8523 23.9631 38.1705 23.9205 37.3821H25.902C25.9403 37.8551 26.0938 38.2493 26.3622 38.5646C26.6349 38.8757 26.9822 39.108 27.4041 39.2614C27.8303 39.4105 28.2969 39.4851 28.804 39.4851C29.3622 39.4851 29.8587 39.3977 30.2933 39.223C30.7322 39.044 31.0774 38.7969 31.3288 38.4815C31.5803 38.1619 31.706 37.7891 31.706 37.3629C31.706 36.9751 31.5952 36.6577 31.3736 36.4105C31.1563 36.1634 30.8601 35.9588 30.4851 35.7969C30.1143 35.6349 29.6946 35.4922 29.2259 35.3686L27.679 34.9467C26.6307 34.6612 25.7997 34.2415 25.1861 33.6875C24.5767 33.1335 24.272 32.4006 24.272 31.4886C24.272 30.7344 24.4766 30.076 24.8857 29.5135C25.2947 28.951 25.8487 28.5142 26.5476 28.2031C27.2464 27.8878 28.0348 27.7301 28.9126 27.7301C29.799 27.7301 30.581 27.8857 31.2585 28.1967C31.9403 28.5078 32.4773 28.9361 32.8693 29.4815C33.2614 30.0227 33.4659 30.6449 33.483 31.348H31.5781Z" fill="white"/>
</svg>
