<svg width="104" height="32" viewBox="0 0 104 32" fill="none" xmlns="http://www.w3.org/2000/svg">
<g clip-path="url(#clip0_3233_325)">
<path d="M11.1795 25.5176C7.71054 23.7572 5.33333 20.1561 5.33333 15.9998C5.33333 11.7693 7.79611 8.11402 11.3662 6.38947L15.1878 0.0200195C6.72867 0.442938 0 7.43557 0 15.9998C0 24.0123 5.88977 30.6493 13.5761 31.8174L24.7098 13.3332H16.7098L20.8206 6.48195C24.2895 8.24237 26.6667 11.8435 26.6667 15.9998C26.6667 20.2302 24.2039 23.8855 20.6338 25.6101L16.8122 31.9795C25.2713 31.5566 32 24.564 32 15.9998C32 7.9872 26.1102 1.35027 18.4239 0.182177L7.29016 18.6665H15.2902L11.1795 25.5176Z" fill="white"/>
</g>
<path d="M56.1049 26.6668V11.6494H60.8859V26.6668H56.1049Z" fill="white"/>
<path d="M58.5003 9.89934C57.829 9.89934 57.2521 9.67773 56.7698 9.23451C56.2875 8.78476 56.0463 8.24377 56.0463 7.61153C56.0463 6.9858 56.2875 6.45133 56.7698 6.00811C57.2521 5.55837 57.829 5.3335 58.5003 5.3335C59.1782 5.3335 59.755 5.55837 60.2308 6.00811C60.7132 6.45133 60.9543 6.9858 60.9543 7.61153C60.9543 8.24377 60.7132 8.78476 60.2308 9.23451C59.755 9.67773 59.1782 9.89934 58.5003 9.89934Z" fill="white"/>
<path d="M81.3784 26.6668V11.6494H86.1593V26.6668H81.3784Z" fill="white"/>
<path d="M83.7738 9.89934C83.1024 9.89934 82.5256 9.67773 82.0432 9.23451C81.5609 8.78476 81.3197 8.24377 81.3197 7.61153C81.3197 6.9858 81.5609 6.45133 82.0432 6.00811C82.5256 5.55837 83.1024 5.3335 83.7738 5.3335C84.4516 5.3335 85.0285 5.55837 85.5043 6.00811C85.9866 6.45133 86.2278 6.9858 86.2278 7.61153C86.2278 8.24377 85.9866 8.78476 85.5043 9.23451C85.0285 9.67773 84.4516 9.89934 83.7738 9.89934Z" fill="white"/>
<path d="M93.9884 11.6494L96.462 16.5966L99.0235 11.6494H103.844L99.6493 19.1581L104 26.6668H99.2191L96.462 21.6806L93.7733 26.6668H88.9239L93.2845 19.1581L89.139 11.6494H93.9884Z" fill="white"/>
<path d="M68.71 26.6667V18.1021C68.7166 17.5285 68.8209 17.0397 69.0229 16.6356C69.2315 16.2315 69.5248 15.9219 69.9028 15.7068C70.2874 15.4851 70.7306 15.3743 71.2325 15.3743C71.9886 15.3743 72.5785 15.609 73.0021 16.0783C73.4323 16.5476 73.6442 17.1994 73.6376 18.0337V26.6667H78.4186V17.0951C78.4251 15.9675 78.21 14.9833 77.7733 14.1424C77.3431 13.2951 76.7369 12.6368 75.9548 12.1675C75.1791 11.6917 74.2634 11.4538 73.2075 11.4538C72.0994 11.4538 71.1445 11.7178 70.3428 12.2457C69.5411 12.7672 68.974 13.4874 68.6416 14.4064H68.4754V11.6493H63.9291V26.6667H68.71Z" fill="white"/>
<path d="M40 6.64359V26.6668H44.8396V18.6204H52.798V14.6803H44.8396V10.5739H53.6682V6.64359H40Z" fill="white"/>
<defs>
<clipPath id="clip0_3233_325">
<rect width="32" height="32" fill="white"/>
</clipPath>
</defs>
</svg>
