<?xml version="1.0" encoding="UTF-8"?>
<svg width="32px" height="32px" viewBox="0 0 32 32" version="1.1" xmlns="http://www.w3.org/2000/svg" xmlns:xlink="http://www.w3.org/1999/xlink">
    <title>icon/icon_head_kefu</title>
    <defs>
        <linearGradient x1="59.3452263%" y1="27.3110268%" x2="59.3452263%" y2="170.932227%" id="linearGradient-1">
            <stop stop-color="#4AA58A" offset="0%"></stop>
            <stop stop-color="#00E0F5" offset="100%"></stop>
        </linearGradient>
    </defs>
    <g id="页面-1" stroke="none" stroke-width="1" fill="none" fill-rule="evenodd">
        <g id="首页-未登录" transform="translate(-1336.000000, -33.000000)">
            <rect fill="#21232C" x="0" y="0" width="1440" height="2442"></rect>
            <g id="编组">
                <g id="1公用组件/head/all">
                    <rect id="矩形" fill="#21232C" x="0" y="0" width="1440" height="98"></rect>
                    <rect id="矩形" stroke="#4AA58A" x="1144" y="32" width="52" height="34.88" rx="4"></rect>
                    <text id="一键买币" font-family="PingFangSC-Regular, PingFang SC" font-size="14" font-weight="normal" fill="#4AA58A">
                        <tspan x="175" y="54">一键买币</tspan>
                    </text>
                    <text id="行情" font-family="PingFangSC-Regular, PingFang SC" font-size="14" font-weight="normal" fill="#4AA58A">
                        <tspan x="287" y="54">行情</tspan>
                    </text>
                    <text id="闪兑" font-family="PingFangSC-Regular, PingFang SC" font-size="14" font-weight="normal" fill="#4AA58A">
                        <tspan x="371" y="54">闪兑</tspan>
                    </text>
                    <text id="登录" font-family="PingFangSC-Regular, PingFang SC" font-size="14" font-weight="normal" fill="#4AA58A">
                        <tspan x="1088" y="54">登录</tspan>
                    </text>
                    <text id="注册" font-family="PingFangSC-Regular, PingFang SC" font-size="14" font-weight="normal" fill="#4AA58A">
                        <tspan x="1156" y="54">注册</tspan>
                    </text>
                </g>
                <g transform="translate(24.000000, 31.000000)" id="logo">
                    <g id="logo1/绿">
                        <g id="logo1-绿" transform="translate(0.000000, 0.500000)" fill="url(#linearGradient-1)">
                            <g id="编组-2" transform="translate(17.804936, 17.863941) rotate(45.000000) translate(-17.804936, -17.863941) translate(5.804936, 5.863941)">
                                <path d="M12.7015385,-3.48564089e-12 C13.5172206,-3.48564089e-12 14.1784615,0.646040043 14.1784615,1.44297082 L14.1784615,7.79204244 C14.1784615,8.58897322 13.5172206,9.23501326 12.7015385,9.23501326 L10.9292308,9.23501326 C10.1135487,9.23501326 9.45230769,8.58897322 9.45230769,7.79204244 L9.45230769,6.06047745 C9.45230769,5.26354667 8.79106671,4.61750663 7.97538462,4.61750663 L6.20307692,4.61750663 C5.38739483,4.61750663 4.72615385,5.26354667 4.72615385,6.06047745 L4.72615385,21.6445623 C4.72615385,22.4414931 4.06491286,23.0875332 3.24923077,23.0875332 L1.47692308,23.0875332 C0.661240985,23.0875332 2.18278728e-12,22.4414931 2.18278728e-12,21.6445623 L2.18278728e-12,2.88594164 C2.18278728e-12,1.29208009 1.32248197,-3.48564089e-12 2.95384615,-3.48564089e-12 L12.7015385,-3.48564089e-12 Z M22.1538462,-4.7983686e-12 C22.9695282,-4.7983686e-12 23.6307692,0.646040043 23.6307692,1.44297082 L23.6307692,20.2015915 C23.6307692,21.7954531 22.3082873,23.0875332 20.6769231,23.0875332 L10.9292308,23.0875332 C10.1135487,23.0875332 9.45230769,22.4414931 9.45230769,21.6445623 L9.45230769,15.2954907 C9.45230769,14.4985599 10.1135487,13.8525199 10.9292308,13.8525199 L12.7015385,13.8525199 C13.5172206,13.8525199 14.1784615,14.4985599 14.1784615,15.2954907 L14.1784615,17.0270557 C14.1784615,17.8239865 14.8397025,18.4700265 15.6553846,18.4700265 L17.4276923,18.4700265 C18.2433744,18.4700265 18.9046154,17.8239865 18.9046154,17.0270557 L18.9046154,1.44297082 C18.9046154,0.646040043 19.5658564,-4.7983686e-12 20.3815385,-4.7983686e-12 L22.1538462,-4.7983686e-12 Z" id="形状"></path>
                            </g>
                        </g>
                        <g id="编组" transform="translate(1.000000, 1.500000)"></g>
                    </g>
                    <path d="M46.309816,24 L47.4662577,19.1629213 L50.9953988,19.1629213 L49.8389571,24 L53.148773,24 L56,12 L52.690184,12 L51.5935583,16.6853933 L48.0644172,16.6853933 L49.1610429,12 L45.851227,12 L43,24 L46.309816,24 Z M59.6428571,24 C61.0844156,24 62.2337662,23.5745455 62.974026,22.9527273 C63.9285714,22.1509091 64.3961039,21.2509091 64.7857143,19.5 C64.8831169,19.0909091 65,18.4527273 65,17.9127273 C65,15.9327273 63.1688312,15 61.3571429,15 C59.9155844,15 58.7662338,15.4254545 58.025974,16.0472727 C57.0714286,16.8490909 56.6038961,17.7490909 56.2142857,19.5 C56.1168831,19.9090909 56,20.5472727 56,21.0872727 C56,23.0672727 57.8311688,24 59.6428571,24 Z M59.9473684,21 C59.3157895,21 59,20.6865672 59,20.1641791 C59,20.0597015 59.0197368,19.7910448 59.2171053,19 C59.4342105,18.1791045 59.6710526,17.5820896 60.1052632,17.2686567 C60.3421053,17.0895522 60.6578947,17 61.0526316,17 C61.6842105,17 62,17.3134328 62,17.8358209 L61.9997302,17.8574219 C61.996839,17.9759212 61.9679276,18.2583955 61.7828947,19 C61.5657895,19.8208955 61.3289474,20.4179104 60.8947368,20.7313433 C60.6578947,20.9104478 60.3421053,21 59.9473684,21 Z M71.1359223,24 L71.6407767,21.852459 L70.6893204,21.852459 C70.3203883,21.852459 70.0873786,21.7377049 70.0873786,21.442623 C70.0873786,21.4262295 70.0873786,21.3114754 70.1067961,21.2459016 L70.9805825,17.5081967 L72.5339806,17.5081967 L73,15.5245902 L71.4466019,15.5245902 L72.0485437,13 L69.0194175,13 L68.4174757,15.5245902 L67.5048544,15.5245902 L67.038835,17.5081967 L67.9514563,17.5081967 L67.0776699,21.2295082 C67.038835,21.3934426 67,21.6229508 67,21.9508197 C67,23.0983607 67.9902913,24 69.7184466,24 L71.1359223,24 Z M82.2890365,24 L82.8671096,21.5393258 L76.9069767,21.5393258 L77.4651163,19.1797753 L82.5083056,19.1797753 L83.0863787,16.7191011 L78.0431894,16.7191011 L78.5813953,14.4606742 L84.4219269,14.4606742 L85,12 L75.8504983,12 L73,24 L82.2890365,24 Z M86.7354839,24 L88.7290323,21.6078067 L89.7935484,24 L93.2774194,24 L90.8,19.5 L95,15 L91.3225806,15 L89.5225806,17.2918216 L88.5354839,15 L85.0516129,15 L87.4516129,19.3828996 L83,24 L86.7354839,24 Z" id="HotEx" fill="#FFFFFF" fill-rule="nonzero"></path>
                </g>
                <g transform="translate(1240.000000, 33.000000)" id="0icon/32/icon_download">
                    <g transform="translate(5.000000, 5.000000)">
                        <path d="M22,14 L22,21 C22,21.5522847 21.5522847,22 21,22 L1,22 C0.44771525,22 6.76353751e-17,21.5522847 0,21 L0,14 L0,14" id="路径" stroke="#91979E" stroke-width="1.5" stroke-linecap="round" stroke-linejoin="round"></path>
                        <g id="编组" transform="translate(6.000000, 0.000000)">
                            <line x1="5" y1="0" x2="5" y2="14.1666667" id="路径-21" stroke="#91979E" stroke-width="1.5" stroke-linecap="round" stroke-linejoin="round"></line>
                            <path d="M5.29993514,11.6732598 L9.4135453,16.3353513 C9.55970672,16.501001 9.54390842,16.7537737 9.37825882,16.8999351 C9.30517897,16.9644174 9.21107103,17 9.11361016,17 L0.886389838,17 C0.665475938,17 0.486389838,16.8209139 0.486389838,16.6 C0.486389838,16.5025391 0.521972474,16.4084312 0.586454695,16.3353513 L4.70006486,11.6732598 C4.84622627,11.5076102 5.09899905,11.4918119 5.26464865,11.6379733 C5.27713377,11.6489896 5.28891886,11.6607747 5.29993514,11.6732598 Z" id="三角形" fill="#91979E" transform="translate(5.000000, 14.166667) scale(1, -1) translate(-5.000000, -14.166667) "></path>
                        </g>
                    </g>
                </g>
                <g transform="translate(1288.000000, 33.000000)" id="0icon/32/icon_not">
                    <g transform="translate(5.000000, 3.000000)">
                        <path d="M11.5789474,2.31578947 C16.0553606,2.31578947 19.6842105,5.9446394 19.6842105,10.4210526 L19.6842105,20.8421053 L19.6842105,20.8421053 L3.47368421,20.8421053 L3.47368421,10.4210526 C3.47368421,5.9446394 7.10253413,2.31578947 11.5789474,2.31578947 Z" id="矩形" stroke="#91979E" stroke-width="1.5" stroke-linecap="round" stroke-linejoin="round"></path>
                        <line x1="22" y1="21.4210526" x2="3.05311332e-16" y2="21.4210526" id="路径" stroke="#91979E" stroke-width="1.5" stroke-linecap="round"></line>
                        <line x1="11" y1="0" x2="11" y2="2.31578947" id="路径-17" stroke="#91979E" stroke-width="1.5" stroke-linecap="round" stroke-linejoin="round"></line>
                        <path d="M9.26315789,23.1578947 C9.26315789,24.4368699 10.2999722,25.4736842 11.5789474,25.4736842 C12.8579226,25.4736842 13.8947368,24.4368699 13.8947368,23.1578947 L9.26315789,23.1578947 Z" id="路径" fill="#91979E"></path>
                    </g>
                </g>
                <g transform="translate(1336.000000, 33.000000)" id="0icon/32/icon_head_kefu" stroke="#91979E" stroke-width="1.5">
                    <g transform="translate(5.000000, 6.000000)">
                        <path d="M0,14 L4,14 C5.1045695,14 6,14.8954305 6,16 L6,19 C6,20.1045695 5.1045695,21 4,21 L1,21 C0.44771525,21 6.76353751e-17,20.5522847 0,20 L0,14 L0,14 Z" id="矩形"></path>
                        <path d="M18,14 L22,14 L22,14 L22,20 C22,20.5522847 21.5522847,21 21,21 L18,21 C16.8954305,21 16,20.1045695 16,19 L16,16 C16,14.8954305 16.8954305,14 18,14 Z" id="矩形"></path>
                        <path d="M22,19 L22,10.9615385 C22,4.90764793 17.0751322,0 11,0 C4.92486775,0 0,4.90764793 0,10.9615385 L0,19" id="路径"></path>
                    </g>
                </g>
                <g transform="translate(1384.000000, 33.000000)" fill="#91979E" fill-rule="nonzero" id="0icon/32/icon_yuyan">
                    <g transform="translate(5.000000, 5.000000)">
                        <path d="M11,0 C4.93460001,0 0,4.93468799 0,11 C0,17.065312 4.93459999,22 11,22 C17.0654,22 22,17.065312 22,11 C22,4.93468799 17.0654,0 11,0 Z M20.56604,12.043988 C20.56472,12.053536 20.56252,12.062732 20.56164,12.07228 C20.52292,12.407384 20.4680667,12.737384 20.39708,13.06228 L20.39708,13.062544 L17.07904,13.062544 C17.2233599,11.691331 17.2233599,10.3087571 17.07904,8.93754401 L20.39708,8.93754401 L20.39708,8.937808 C20.46792,9.26232266 20.5227733,9.59232266 20.56164,9.927808 C20.56252,9.937356 20.56472,9.94655201 20.56604,9.95610001 C20.6446465,10.6498431 20.6446465,11.3502449 20.56604,12.043988 L20.56604,12.043988 Z M14.674,19.8924 C15.7058,18.555636 16.48768,16.665 16.8872,14.437368 L19.97952,14.437368 C19.97952,14.4376003 19.9793073,14.4377883 19.97908,14.437852 C19.0306606,16.9047622 17.1136133,18.8758213 14.674,19.8924 L14.674,19.8924 Z M19.97908,7.56188401 C19.9792719,7.56192969 19.9794333,7.56205882 19.97952,7.562236 L16.8872,7.562236 C16.48768,5.334604 15.7058,3.443836 14.674,2.107204 C17.1136685,3.12383888 19.0307253,5.09500322 19.97908,7.562016 L19.97908,7.56188401 Z M15.6926,8.937368 C15.8527599,10.3077042 15.8527599,11.6920319 15.6926,13.062368 L11.68728,13.062368 L11.68728,8.937368 L15.6926,8.937368 L15.6926,8.937368 Z M11.68728,7.56236801 L11.68728,1.48979601 C13.40108,2.00644402 14.85088,4.40158401 15.47744,7.56249999 L11.68728,7.56249999 L11.68728,7.56236801 Z M11.68728,14.437368 L15.47744,14.437368 C14.85088,17.598284 13.40108,19.99338 11.68728,20.510072 L11.68728,14.4375 L11.68728,14.437368 Z M2.02091999,14.437852 C2.02083873,14.4376705 2.02067488,14.4375 2.02048,14.4375 L5.1128,14.4375 C5.51232001,16.665132 6.2942,18.5559 7.32599999,19.892532 C4.88638672,18.8759533 2.96933942,16.9048942 2.02091999,14.437984 L2.02091999,14.437852 Z M7.32599999,2.1076 C6.29419998,3.444364 5.51231999,5.33499999 5.1128,7.562632 L2.02048,7.562632 C2.02067838,7.56252661 2.02083393,7.5623555 2.02091999,7.562148 C2.969335,5.09523501 4.88638377,3.12417434 7.32599999,2.1076 Z M6.30740001,13.062632 C6.14724017,11.6922959 6.14724017,10.3079682 6.30740001,8.93763201 L10.31228,8.93763201 L10.31228,13.062632 L6.30740001,13.062632 L6.30740001,13.062632 Z M10.31228,14.437632 L10.31228,20.510204 C8.59892001,19.993512 7.14912001,17.598416 6.52256,14.4375 L10.31228,14.4375 L10.31228,14.437632 Z M10.31228,7.562632 L6.52256,7.562632 C7.14911999,4.401716 8.59892001,2.00662 10.31228,1.489928 L10.31228,7.56249999 L10.31228,7.562632 Z M1.4344,9.95561601 C1.43528,9.94730002 1.43704001,9.93920401 1.43792,9.9308 C1.47618843,9.59722429 1.5312584,9.26579119 1.60292001,8.937764 L1.60292001,8.93750001 L4.92096001,8.93750001 C4.77605347,10.3086822 4.77605347,11.6913178 4.92096001,13.0625 L1.60292001,13.0625 L1.60292001,13.062236 C1.5312584,12.7342088 1.47618843,12.4027757 1.43792,12.0692 C1.43704001,12.060796 1.43528,12.052788 1.4344,12.044384 C1.35520007,11.3503803 1.35520007,10.6496197 1.4344,9.95561601 L1.4344,9.95561601 Z" id="形状"></path>
                    </g>
                </g>
            </g>
            <g id="1公用组件/head/all">
                <g fill="#21232C" id="矩形">
                    <rect x="0" y="0" width="1440" height="98"></rect>
                </g>
                <g id="编组" transform="translate(1336.000000, 33.000000)" stroke="#91979E" stroke-width="1.5">
                    <g id="0icon/32/icon_head_kefu" transform="translate(5.000000, 6.000000)">
                        <path d="M0,14 L4,14 C5.1045695,14 6,14.8954305 6,16 L6,19 C6,20.1045695 5.1045695,21 4,21 L1,21 C0.44771525,21 6.76353751e-17,20.5522847 0,20 L0,14 L0,14 Z" id="矩形"></path>
                        <path d="M18,14 L22,14 L22,14 L22,20 C22,20.5522847 21.5522847,21 21,21 L18,21 C16.8954305,21 16,20.1045695 16,19 L16,16 C16,14.8954305 16.8954305,14 18,14 Z" id="矩形"></path>
                        <path d="M22,19 L22,10.9615385 C22,4.90764793 17.0751322,0 11,0 C4.92486775,0 0,4.90764793 0,10.9615385 L0,19" id="路径"></path>
                    </g>
                </g>
                <g id="0icon/32/icon_head_kefu" transform="translate(1336.000000, 33.000000)" stroke="#91979E" stroke-width="1.5">
                    <g transform="translate(5.000000, 6.000000)">
                        <path d="M0,14 L4,14 C5.1045695,14 6,14.8954305 6,16 L6,19 C6,20.1045695 5.1045695,21 4,21 L1,21 C0.44771525,21 6.76353751e-17,20.5522847 0,20 L0,14 L0,14 Z" id="矩形"></path>
                        <path d="M18,14 L22,14 L22,14 L22,20 C22,20.5522847 21.5522847,21 21,21 L18,21 C16.8954305,21 16,20.1045695 16,19 L16,16 C16,14.8954305 16.8954305,14 18,14 Z" id="矩形"></path>
                        <path d="M22,19 L22,10.9615385 C22,4.90764793 17.0751322,0 11,0 C4.92486775,0 0,4.90764793 0,10.9615385 L0,19" id="路径"></path>
                    </g>
                </g>
            </g>
        </g>
    </g>
</svg>