<?xml version="1.0" encoding="UTF-8"?>
<svg width="16px" height="16px" viewBox="0 0 16 16" version="1.1" xmlns="http://www.w3.org/2000/svg" xmlns:xlink="http://www.w3.org/1999/xlink">
    <title>切片</title>
    <g id="页面-1" stroke="none" stroke-width="1" fill="none" fill-rule="evenodd">
        <g id="首页-未登录" transform="translate(-346.000000, -535.000000)">
            <g id="编组-4" transform="translate(346.000000, 364.000000)">
                <g id="编组-3" transform="translate(0.000000, 91.000000)">
                    <g id="0icon/16/icon_v" transform="translate(0.000000, 80.000000)">
                        <g id="0icon/light/icon-警示" transform="translate(6.000000, 2.000000)" fill="#91979E" fill-rule="nonzero">
                            <path d="M3.35642136,8.53583454 C2.96200096,8.43771044 2.61183261,9.84992785 2.003848,9.64598365 C1.94612795,9.62481962 1.95189995,9.63251563 1.90764791,9.5978836 C2.09427609,7.57960558 2.91774892,5.78066378 3.30832131,3.8047138 L3.21212121,3.8047138 C2.4040404,4.08946609 1.1957672,3.97594998 0.410774411,4.28763829 L0.410774411,4.52813853 C1.57864358,4.50505051 1.27465127,5.21693122 1.03799904,6.07311207 C0.745550746,7.13131313 0.212602213,8.45502646 0.12025012,9.40548341 C0.0278980279,10.3540164 0.614718615,10.7118807 1.18229918,10.7080634 C1.98460798,10.7041847 2.66185666,9.91726792 3.01779702,9.45358345 C3.10822511,9.33429533 3.75084175,8.63395863 3.35642136,8.53583454 Z M2.9004329,0.814814815 C2.35401635,0.814814815 1.91341991,1.25733526 1.91341991,1.8037518 C1.91341991,2.35016835 2.35594036,2.79076479 2.9004329,2.79076479 C3.44492544,2.79076479 3.88744589,2.34824435 3.88744589,1.8037518 C3.88744589,1.25733526 3.44492544,0.814814815 2.9004329,0.814814815 L2.9004329,0.814814815 Z" id="形状"></path>
                        </g>
                        <circle id="椭圆形" stroke="#91979E" cx="8" cy="8" r="7.5"></circle>
                    </g>
                </g>
            </g>
        </g>
    </g>
</svg>