<svg width="36" height="56" viewBox="0 0 36 56" fill="none" xmlns="http://www.w3.org/2000/svg">
<path d="M12.6813 8.63082L18 1.65005L23.3187 8.63082C26.9366 13.3794 28.5665 19.3485 27.8639 25.2768L27.1818 31.0319L27.1107 31.6321L27.6089 31.9741C31.9885 34.9806 34.8867 39.9811 34.9968 45.6644C31.1803 40.4149 24.9896 37 18 37C11.0104 37 4.81967 40.4149 1.00325 45.6644C1.11325 39.9811 4.01147 34.9806 8.3911 31.9741L8.88932 31.6321L8.81819 31.0319L8.1361 25.2768C7.43349 19.3485 9.06339 13.3793 12.6813 8.63082ZM16.2521 52.2775C14.8443 50.553 14.2061 48.3152 14.4868 46.1044C14.7118 44.3331 16.2201 43 18 43C19.7799 43 21.2882 44.3331 21.5132 46.1044C21.7939 48.3152 21.1557 50.553 19.7479 52.2775L18 54.4187L16.2521 52.2775Z" stroke="#0D8523" stroke-width="2"/>
</svg>
