<svg width="50" height="52" viewBox="0 0 50 52" fill="none" xmlns="http://www.w3.org/2000/svg">
<path fill-rule="evenodd" clip-rule="evenodd" d="M25.4317 29.2045V29.8181C25.4317 30.3106 25.5359 30.7651 25.7442 31.1818C25.9564 31.5984 26.267 31.9337 26.676 32.1875C27.0851 32.4412 27.587 32.5681 28.1817 32.5681C28.7764 32.5681 29.2802 32.4412 29.6931 32.1875C30.106 31.9337 30.4185 31.5984 30.6306 31.1818C30.8465 30.7651 30.9545 30.3106 30.9545 29.8181V29.2045C30.9545 28.7045 30.8484 28.2462 30.6363 27.8295C30.4242 27.4128 30.1117 27.0795 29.6988 26.8295C29.2897 26.5795 28.784 26.4545 28.1817 26.4545C27.5946 26.4545 27.0965 26.5814 26.6874 26.8352C26.2783 27.089 25.9658 27.4242 25.7499 27.8409C25.5378 28.2575 25.4317 28.7121 25.4317 29.2045ZM27.409 29.8181V29.2045C27.409 28.9772 27.462 28.7575 27.5681 28.5454C27.6779 28.3333 27.8825 28.2272 28.1817 28.2272C28.5075 28.2272 28.7177 28.3333 28.8124 28.5454C28.9071 28.7575 28.9545 28.9772 28.9545 29.2045V29.8181C28.9545 30.0454 28.9033 30.2613 28.801 30.4659C28.7026 30.6704 28.4961 30.7727 28.1817 30.7727C27.8825 30.7727 27.6779 30.6685 27.5681 30.4602C27.462 30.2481 27.409 30.034 27.409 29.8181Z" fill="#0D8523"/>
<path fill-rule="evenodd" clip-rule="evenodd" d="M19.3408 22.5454V23.159C19.3408 23.6515 19.445 24.1041 19.6533 24.517C19.8654 24.9299 20.176 25.2613 20.5851 25.5113C20.9942 25.7613 21.4961 25.8863 22.0908 25.8863C22.6855 25.8863 23.1893 25.7632 23.6022 25.517C24.0151 25.2708 24.3276 24.9412 24.5397 24.5284C24.7556 24.1155 24.8635 23.659 24.8635 23.159V22.5454C24.8635 22.0454 24.7575 21.5871 24.5454 21.1704C24.3332 20.7537 24.0207 20.4204 23.6079 20.1704C23.1988 19.9204 22.6931 19.7954 22.0908 19.7954C21.5113 19.7954 21.017 19.9204 20.6079 20.1704C20.1988 20.4204 19.8844 20.7537 19.6647 21.1704C19.4488 21.5871 19.3408 22.0454 19.3408 22.5454ZM21.3408 23.159V22.5454C21.3408 22.3295 21.3901 22.1136 21.4885 21.8977C21.5908 21.678 21.7916 21.5681 22.0908 21.5681C22.4166 21.5681 22.6268 21.6742 22.7215 21.8863C22.8162 22.0984 22.8635 22.3181 22.8635 22.5454V23.159C22.8635 23.3863 22.8124 23.6022 22.7101 23.8068C22.6117 24.0113 22.4052 24.1136 22.0908 24.1136C21.8029 24.1136 21.606 24.0113 21.4999 23.8068C21.3939 23.6022 21.3408 23.3863 21.3408 23.159Z" fill="#0D8523"/>
<path d="M28.3067 20.3636L20.3067 32H21.9204L29.9204 20.3636H28.3067Z" fill="#0D8523"/>
<path fill-rule="evenodd" clip-rule="evenodd" d="M24.9999 0L30.7847 8.19622L40.2823 4.96556L40.1447 14.9967L49.7274 17.9656L43.7199 26L49.7274 34.0344L40.1447 37.0033L40.2823 47.0344L30.7847 43.8038L24.9999 52L19.2151 43.8038L9.71751 47.0344L9.85513 37.0033L0.272461 34.0344L6.27993 26L0.272461 17.9656L9.85513 14.9967L9.71751 4.96556L19.2151 8.19622L24.9999 0ZM30.013 10.5713L38.2437 7.77157L38.1244 16.4645L46.4287 19.0374L41.2227 26L46.4287 32.9626L38.1244 35.5355L38.2437 44.2284L30.013 41.4287L24.9999 48.5316L19.9868 41.4287L11.7562 44.2284L11.8755 35.5355L3.57112 32.9626L8.77719 26L3.57112 19.0374L11.8755 16.4645L11.7562 7.77157L19.9868 10.5713L24.9999 3.46842L30.013 10.5713Z" fill="#0D8523"/>
</svg>
