<svg width="91" height="12" viewBox="0 0 91 12" fill="none" xmlns="http://www.w3.org/2000/svg">
<path d="M55.8764 4.38955H53.029C52.991 4.09691 52.9132 3.83278 52.7955 3.59715C52.6778 3.36152 52.5222 3.1601 52.3286 2.99287C52.1349 2.82565 51.9053 2.69834 51.6395 2.61093C51.3775 2.51971 51.0871 2.47411 50.7682 2.47411C50.2025 2.47411 49.7147 2.61283 49.3047 2.89026C48.8984 3.1677 48.5852 3.56865 48.365 4.09311C48.1486 4.61758 48.0405 5.25226 48.0405 5.99715C48.0405 6.77245 48.1505 7.42233 48.3707 7.94679C48.5947 8.46746 48.9079 8.86081 49.3104 9.12684C49.7166 9.38907 50.1968 9.52019 50.7511 9.52019C51.0624 9.52019 51.3453 9.48029 51.5996 9.40047C51.8578 9.32067 52.0837 9.20475 52.2773 9.05273C52.4747 8.89691 52.6361 8.70879 52.7613 8.48836C52.8904 8.26413 52.9797 8.0114 53.029 7.73017L55.8764 7.74727C55.827 8.26413 55.677 8.7734 55.4265 9.27506C55.1797 9.77672 54.8399 10.2347 54.4071 10.6489C53.9743 11.0594 53.4466 11.3862 52.824 11.6295C52.2052 11.8727 51.4952 11.9943 50.6942 11.9943C49.6388 11.9943 48.6934 11.7625 47.8582 11.2988C47.0268 10.8314 46.37 10.1511 45.8879 9.25796C45.4057 8.36485 45.1646 7.27791 45.1646 5.99715C45.1646 4.71259 45.4095 3.62375 45.8993 2.73064C46.389 1.83753 47.0515 1.15915 47.8867 0.695487C48.7219 0.231829 49.6577 0 50.6942 0C51.4003 0 52.0533 0.0988125 52.6532 0.296437C53.253 0.490261 53.7807 0.775297 54.2363 1.15154C54.6919 1.52399 55.062 1.98195 55.3467 2.52542C55.6315 3.06888 55.808 3.69026 55.8764 4.38955Z" fill="#E5EAF3"/>
<path d="M60.2741 11.8347V0.159668H57.4894V11.8347H60.2741Z" fill="#E5EAF3"/>
<path fill-rule="evenodd" clip-rule="evenodd" d="M83.6052 11.4585C84.133 11.7929 84.7195 11.9601 85.3649 11.9601C85.8053 11.9601 86.1868 11.8879 86.5095 11.7435C86.836 11.5991 87.1075 11.4091 87.3239 11.1734C87.5403 10.9378 87.7073 10.6851 87.825 10.4152H87.9104V11.8347H90.6667V0.159668H87.882V4.57772H87.825C87.7149 4.31169 87.5536 4.05515 87.341 3.80812C87.1284 3.56109 86.8588 3.35967 86.5323 3.20385C86.2058 3.04423 85.8129 2.96442 85.3535 2.96442C84.7423 2.96442 84.1709 3.12404 83.6394 3.44328C83.1117 3.76252 82.6846 4.25468 82.3581 4.91976C82.0316 5.58485 81.8684 6.43235 81.8684 7.46228C81.8684 8.4542 82.0259 9.28461 82.341 9.95349C82.6561 10.6224 83.0775 11.124 83.6052 11.4585ZM87.1986 9.50314C86.9594 9.69316 86.6709 9.78817 86.333 9.78817C85.9875 9.78817 85.6952 9.69316 85.456 9.50314C85.2206 9.30931 85.0403 9.03758 84.915 8.68793C84.7897 8.33829 84.7271 7.92784 84.7271 7.45658C84.7271 6.98532 84.7878 6.57677 84.9093 6.23093C85.0346 5.88508 85.2168 5.61715 85.456 5.42713C85.6952 5.2371 85.9875 5.14209 86.333 5.14209C86.6709 5.14209 86.9594 5.2352 87.1986 5.42143C87.4416 5.60765 87.6257 5.87368 87.751 6.21953C87.8801 6.56537 87.9446 6.97772 87.9446 7.45658C87.9446 7.92784 87.8801 8.33829 87.751 8.68793C87.6219 9.03758 87.4378 9.30931 87.1986 9.50314Z" fill="#E5EAF3"/>
<path d="M77.6187 3.07837V8.05509C77.6187 8.39333 77.5523 8.68217 77.4194 8.9216C77.2903 9.15723 77.1138 9.33775 76.8898 9.46317C76.6696 9.58478 76.4209 9.64559 76.1438 9.64559C75.7186 9.64559 75.3826 9.50877 75.1358 9.23514C74.889 8.9615 74.7638 8.58716 74.76 8.1121V3.07837H71.9753V8.65937C71.979 9.32065 72.1062 9.89832 72.3568 10.3924C72.6074 10.8826 72.9585 11.2646 73.4103 11.5382C73.8621 11.8119 74.386 11.9487 74.9821 11.9487C75.6388 11.9487 76.1988 11.7929 76.662 11.4812C77.129 11.1658 77.4593 10.7401 77.6529 10.2043H77.744V11.8347H80.3977V3.07837H77.6187Z" fill="#E5EAF3"/>
<path fill-rule="evenodd" clip-rule="evenodd" d="M66.1296 12C65.2109 12 64.4212 11.8119 63.7607 11.4356C63.1039 11.0556 62.597 10.5273 62.2402 9.85082C61.8871 9.17053 61.7106 8.38193 61.7106 7.48502C61.7106 6.58431 61.8871 5.79571 62.2402 5.11923C62.597 4.43894 63.1039 3.91067 63.7607 3.53443C64.4212 3.15438 65.2109 2.96436 66.1296 2.96436C67.0484 2.96436 67.8362 3.15438 68.4929 3.53443C69.1535 3.91067 69.6604 4.43894 70.0134 5.11923C70.3703 5.79571 70.5487 6.58431 70.5487 7.48502C70.5487 8.38193 70.3703 9.17053 70.0134 9.85082C69.6604 10.5273 69.1535 11.0556 68.4929 11.4356C67.8362 11.8119 67.0484 12 66.1296 12ZM66.1467 9.89642C66.4808 9.89642 66.7637 9.79381 66.9952 9.58858C67.2268 9.38336 67.4034 9.09832 67.5248 8.73348C67.6501 8.36863 67.7128 7.94678 67.7128 7.46792C67.7128 6.98146 67.6501 6.5558 67.5248 6.19096C67.4034 5.82611 67.2268 5.54108 66.9952 5.33585C66.7637 5.13063 66.4808 5.02801 66.1467 5.02801C65.8013 5.02801 65.5089 5.13063 65.2698 5.33585C65.0344 5.54108 64.854 5.82611 64.7288 6.19096C64.6073 6.5558 64.5465 6.98146 64.5465 7.46792C64.5465 7.94678 64.6073 8.36863 64.7288 8.73348C64.854 9.09832 65.0344 9.38336 65.2698 9.58858C65.5089 9.79381 65.8013 9.89642 66.1467 9.89642Z" fill="#E5EAF3"/>
<path fill-rule="evenodd" clip-rule="evenodd" d="M37.3472 11.4584C38.0116 11.8195 38.8013 12 39.7162 12C40.4793 12 41.1513 11.8841 41.7321 11.6522C42.313 11.4166 42.7819 11.0879 43.1387 10.666C43.4994 10.2404 43.7329 9.7406 43.8392 9.16673L41.2823 9.09262C41.2101 9.28645 41.1019 9.44987 40.9577 9.58288C40.8134 9.7159 40.6407 9.81661 40.4394 9.88502C40.2382 9.95343 40.0142 9.98763 39.7675 9.98763C39.4106 9.98763 39.1031 9.91352 38.8449 9.76531C38.5868 9.61709 38.3875 9.40996 38.247 9.14393C38.1065 8.87409 38.0363 8.56055 38.0363 8.20331V8.1292H43.8677V7.43371C43.8677 6.71542 43.7633 6.07884 43.5544 5.52397C43.3456 4.96531 43.0533 4.49595 42.6775 4.1159C42.3016 3.73585 41.8555 3.44892 41.3392 3.25509C40.8229 3.06127 40.2534 2.96436 39.6308 2.96436C38.75 2.96436 37.985 3.15438 37.3358 3.53443C36.6866 3.91067 36.1836 4.43894 35.8267 5.11923C35.4699 5.79571 35.2914 6.58621 35.2914 7.49072C35.2914 8.42184 35.468 9.22564 35.821 9.90212C36.1779 10.5748 36.6866 11.0936 37.3472 11.4584ZM38.038 6.5102C38.0518 6.22837 38.1272 5.97564 38.2641 5.752C38.4083 5.51257 38.6039 5.32445 38.8506 5.18763C39.0974 5.04702 39.3764 4.97671 39.6877 4.97671C39.9953 4.97671 40.2667 5.04322 40.5021 5.17623C40.7413 5.30545 40.9292 5.48597 41.0659 5.7178C41.2025 5.94963 41.2728 6.21376 41.2766 6.5102H38.038Z" fill="#E5EAF3"/>
<path d="M33.855 0.159668V11.8347H31.0702V0.159668H33.855Z" fill="#E5EAF3"/>
<path fill-rule="evenodd" clip-rule="evenodd" d="M20.8127 0.159668V11.8347H23.5689V10.4152H23.6543C23.772 10.6851 23.9391 10.9378 24.1555 11.1734C24.3757 11.4091 24.6471 11.5991 24.9698 11.7435C25.2925 11.8879 25.6741 11.9601 26.1144 11.9601C26.7598 11.9601 27.3464 11.7929 27.8741 11.4585C28.4056 11.124 28.827 10.6224 29.1383 9.95349C29.4534 9.28461 29.611 8.4542 29.611 7.46228C29.611 6.43235 29.4477 5.58485 29.1212 4.91976C28.7947 4.25468 28.3657 3.76252 27.8342 3.44328C27.3065 3.12404 26.739 2.96442 26.1315 2.96442C25.6722 2.96442 25.2773 3.04423 24.947 3.20385C24.6205 3.35967 24.351 3.56109 24.1384 3.80812C23.9296 4.05515 23.7682 4.31169 23.6543 4.57772H23.5974V0.159668H20.8127ZM23.7284 8.68793C23.6031 8.33829 23.5404 7.92784 23.5404 7.45658C23.5404 6.97772 23.6031 6.56537 23.7284 6.21953C23.8574 5.87368 24.0416 5.60765 24.2808 5.42143C24.5199 5.2352 24.8104 5.14209 25.152 5.14209C25.4975 5.14209 25.788 5.2371 26.0233 5.42713C26.2625 5.61715 26.4428 5.88508 26.5643 6.23093C26.6896 6.57677 26.7522 6.98532 26.7522 7.45658C26.7522 7.92784 26.6896 8.33829 26.5643 8.68793C26.4428 9.03758 26.2625 9.30931 26.0233 9.50314C25.7842 9.69316 25.4937 9.78817 25.152 9.78817C24.8142 9.78817 24.5237 9.69316 24.2808 9.50314C24.0416 9.30931 23.8574 9.03758 23.7284 8.68793Z" fill="#E5EAF3"/>
<path d="M16.2612 8.05509V3.07837H19.0402V11.8347H16.3865V10.2043H16.2954C16.1018 10.7401 15.7715 11.1658 15.3045 11.4812C14.8413 11.7929 14.2814 11.9487 13.6246 11.9487C13.0285 11.9487 12.5046 11.8119 12.0528 11.5382C11.6011 11.2646 11.2499 10.8826 10.9993 10.3924C10.7488 9.89832 10.6216 9.32065 10.6178 8.65937V3.07837H13.4025V8.1121C13.4063 8.58716 13.5316 8.9615 13.7783 9.23514C14.0251 9.50877 14.3611 9.64559 14.7863 9.64559C15.0634 9.64559 15.3121 9.58478 15.5323 9.46317C15.7563 9.33775 15.9328 9.15723 16.0619 8.9216C16.1948 8.68217 16.2612 8.39333 16.2612 8.05509Z" fill="#E5EAF3"/>
<path fill-rule="evenodd" clip-rule="evenodd" d="M0 0.159668V11.8347H2.81887V7.83853H4.26267L6.39514 11.8347H9.47028L7.05272 7.39311C7.69509 7.09691 8.19153 6.66961 8.54204 6.11121C8.89511 5.54494 9.07165 4.85706 9.07165 4.04755C9.07165 3.24945 8.89891 2.55967 8.55343 1.9782C8.20795 1.39292 7.71631 0.944466 7.07851 0.632827C6.4445 0.317388 5.6909 0.159668 4.81771 0.159668H0ZM4.20838 5.61525H2.81887V2.43425H4.20838C4.62979 2.43425 4.98476 2.49506 5.27329 2.61668C5.56182 2.73449 5.78011 2.91311 5.92818 3.15254C6.07624 3.38817 6.15027 3.68651 6.15027 4.04755C6.15027 4.4086 6.07624 4.70504 5.92818 4.93687C5.78011 5.16489 5.56182 5.33591 5.27329 5.44993C4.98855 5.56014 4.63358 5.61525 4.20838 5.61525Z" fill="#E5EAF3"/>
</svg>
