<?xml version="1.0" encoding="UTF-8"?>
<svg width="24px" height="24px" viewBox="0 0 24 24" version="1.1" xmlns="http://www.w3.org/2000/svg" xmlns:xlink="http://www.w3.org/1999/xlink">
    <title>切片</title>
    <g id="页面-1" stroke="none" stroke-width="1" fill="none" fill-rule="evenodd">
        <g id="登录-邮箱-" transform="translate(-265.000000, -825.000000)">
            <g id="1公用组件/foot/all" transform="translate(0.000000, 714.000000)">
                <g id="编组-11" transform="translate(265.000000, 78.000000)">
                    <g id="0icon/24/icon_banquan" transform="translate(0.000000, 33.000000)">
                        <g id="编组">
                            <rect id="矩形" x="0" y="0" width="24" height="24"></rect>
                        </g>
                        <g id="C" transform="translate(6.000000, 6.000000)" fill="#91979E" fill-rule="nonzero">
                            <path d="M5.99981444,0 C2.68621745,0 0,2.68594353 0,5.99997441 C0,9.31327583 2.68621745,12 5.99981444,12 C9.31334746,12 12,9.31327583 12,5.99997441 C12,2.68594353 9.31334745,0 5.99981444,0 Z M5.99981444,11.1999949 C3.12806792,11.1999949 0.799983795,8.87191267 0.799983795,5.99997439 C0.799983795,3.12807452 3.12806792,0.799992305 5.99981444,0.799992305 C8.87191929,0.799992305 11.2000162,3.12807452 11.2000162,5.99997439 C11.2000162,8.87191267 8.87193207,11.1999949 5.99981444,11.1999949 Z" id="形状"></path>
                            <path d="M6.79559184,7.55692025 C6.53328868,7.78507789 6.21387407,7.89868794 5.83699416,7.89868794 C5.5268559,7.89868794 5.23829082,7.81407459 4.97134949,7.64799052 C4.70593737,7.48111418 4.50995879,7.22881904 4.3834517,6.89189733 C4.25765234,6.55417015 4.19441144,6.15992844 4.19441144,5.70764049 C4.19441144,5.35701268 4.24766827,5.01603724 4.35413138,4.68633831 C4.46058185,4.3558603 4.64422566,4.09304131 4.90810859,3.89632318 C5.17038648,3.7012688 5.49752293,3.60372841 5.88949271,3.60372841 C6.22931779,3.60372841 6.5116523,3.69161644 6.73621819,3.86732647 C6.96070824,4.04471345 7.13200465,4.32678437 7.25004423,4.71291863 L7.91275939,4.54930377 C7.77621768,4.05918542 7.53548769,3.67870261 7.18754896,3.40786858 C6.84039379,3.13702134 6.41214012,3 5.90259838,3 C5.45354244,3 5.04229961,3.1079586 4.66890781,3.32242336 C4.29469453,3.53604303 4.00696357,3.84955346 3.80403407,4.26148897 C3.60111721,4.67420354 3.5,5.15707272 3.5,5.71168103 C3.5,6.21874054 3.58912367,6.69434734 3.76929201,7.13612465 C3.94829765,7.57947327 4.21063872,7.91722685 4.55393929,8.15016446 C4.8972904,8.38393394 5.3432121,8.5 5.89255112,8.5 C6.42220003,8.5 6.87124333,8.3484803 7.23770948,8.0454145 C7.60498445,7.74149041 7.8588201,7.30053178 8,6.72257821 L7.32639082,6.54520443 C7.23381694,6.99267277 7.05641634,7.33041315 6.79559184,7.55692025 Z" id="路径"></path>
                        </g>
                    </g>
                </g>
            </g>
        </g>
    </g>
</svg>