<?xml version="1.0" encoding="UTF-8"?>
<svg width="24px" height="24px" viewBox="0 0 24 24" version="1.1" xmlns="http://www.w3.org/2000/svg" xmlns:xlink="http://www.w3.org/1999/xlink">
    <title>切片</title>
    <g id="页面-1" stroke="none" stroke-width="1" fill="none" fill-rule="evenodd">
        <g id="0.0.0-登录-手机登录-" transform="translate(-842.000000, -394.000000)">
            <g id="编组-3" transform="translate(559.000000, 262.000000)">
                <g id="1公用组件/form/input-默认" transform="translate(0.000000, 122.000000)">
                    <g id="编组" transform="translate(283.000000, 10.000000)">
                        <rect id="矩形" x="0" y="0" width="24" height="24"></rect>
                        <path d="M9.52496853,15.1425078 L7.91174117,16.7547328 L6.81455027,17.8521164 C6.55420074,18.1124659 6.13209076,18.1124659 5.87174123,17.8521164 C5.6113917,17.5917669 5.6113917,17.1696569 5.87174123,16.9093074 L6.6098831,16.1709167 C4.76934491,15.2083642 3.18594331,13.7682109 2,12.0009102 C4.23408357,8.66912869 7.88078679,6.5 12,6.5 C13.2818167,6.5 14.5178788,6.71004319 15.6798806,7.09978006 L16.2426407,6.5384079 C16.5029902,6.27805837 16.9251002,6.27805837 17.1854497,6.5384079 C17.4457993,6.79875742 17.4457993,7.22086741 17.1854497,7.48121694 L14.0693647,10.5968025 C14.0695976,10.5971453 14.0698304,10.5974882 14.0700632,10.5978311 L10.5978311,14.0700632 L9.52496853,15.1425078 L9.52496853,15.1425078 Z M18.2208085,8.30842107 C19.7081421,9.24220326 20.9963902,10.5035038 22,11.9990898 C19.7659164,15.3308713 16.1192132,17.5 12,17.5 C11.0929507,17.5 10.2088124,17.3948235 9.35761487,17.1952245 L10.7512912,15.8012243 C11.1441961,15.9302224 11.5639514,16 12,16 C14.2090909,16 16,14.2090909 16,12 C16,11.5643213 15.9303407,11.1449082 15.8015525,10.752291 L18.1282588,8.42402598 C18.1640211,8.38826368 18.194871,8.34944921 18.2208085,8.30842107 Z M14.498,12.0531458 L14.5,12 C14.5,13.3628636 13.4094625,14.4710186 12.0534118,14.4994407 L14.498,12.0531458 Z M12,8 C9.79090909,8 8,9.79090909 8,12 C8,12.7924633 8.23046486,13.5311125 8.62802496,14.152578 L9.73047377,13.0498838 C9.58255226,12.730659 9.5,12.3749701 9.5,12 C9.5,10.6192881 10.6192881,9.5 12,9.5 C12.3749701,9.5 12.730659,9.58255226 13.0498838,9.73047377 L14.152578,8.62802496 C13.5311125,8.23046486 12.7924633,8 12,8 Z" id="形状结合" fill="#91979E"></path>
                    </g>
                </g>
            </g>
        </g>
    </g>
</svg>