<?xml version="1.0" encoding="UTF-8"?>
<svg width="24px" height="24px" viewBox="0 0 24 24" version="1.1" xmlns="http://www.w3.org/2000/svg" xmlns:xlink="http://www.w3.org/1999/xlink">
    <title>切片</title>
    <g id="页面-1" stroke="none" stroke-width="1" fill="none" fill-rule="evenodd">
        <g id="登录-邮箱-" transform="translate(-842.000000, -394.000000)">
            <g id="编组-5" transform="translate(559.000000, 262.000000)">
                <g id="编组-3" transform="translate(0.000000, 62.000000)">
                    <g id="1公用组件/form/input-默认" transform="translate(0.000000, 60.000000)">
                        <g id="编组" transform="translate(283.000000, 10.000000)">
                            <rect id="矩形" x="0" y="0" width="24" height="24"></rect>
                            <path d="M12,6.5 C16.1187623,6.5 19.7651181,8.66865386 22,11.9990898 C19.7659164,15.3308713 16.1192132,17.5 12,17.5 C7.88123767,17.5 4.23488189,15.3313461 2,12.0009102 C4.23408357,8.66912869 7.88078679,6.5 12,6.5 Z M12,8 C9.79090909,8 8,9.79090909 8,12 C8,14.2090909 9.79090909,16 12,16 C14.2090909,16 16,14.2090909 16,12 C16,9.79090909 14.2090909,8 12,8 Z M12,9.5 C13.3807119,9.5 14.5,10.6192881 14.5,12 C14.5,13.3807119 13.3807119,14.5 12,14.5 C10.6192881,14.5 9.5,13.3807119 9.5,12 C9.5,10.6192881 10.6192881,9.5 12,9.5 Z" id="形状结合" fill="#91979E"></path>
                        </g>
                    </g>
                </g>
            </g>
        </g>
    </g>
</svg>