<?xml version="1.0" encoding="UTF-8"?>
<svg width="24px" height="24px" viewBox="0 0 24 24" version="1.1" xmlns="http://www.w3.org/2000/svg" xmlns:xlink="http://www.w3.org/1999/xlink">
    <title>0country/country_australia_61</title>
    <g id="0资源库" stroke="none" stroke-width="1" fill="none" fill-rule="evenodd">
        <g id="国旗" transform="translate(-76.000000, -20.000000)">
            <g id="澳大利亚" transform="translate(76.000000, 20.000000)">
                <path d="M11.9645714,-4.87229305e-15 C18.5725714,-4.87229305e-15 23.9291429,5.35657143 23.9291429,11.9645714 C23.9291429,18.5725714 18.5725714,23.9291429 11.9645714,23.9291429 C5.35657143,23.9291429 -4.87229305e-15,18.5725714 -4.87229305e-15,11.9645714 C-4.87229305e-15,5.35657143 5.35657143,-4.87229305e-15 11.9645714,-4.87229305e-15" id="Fill-4522" fill="#2E307C"></path>
                <polyline id="Fill-4523" fill="#FEFEFE" points="6.29257143 12.4388571 6.66057143 13.5737143 7.77142857 13.1508571 7.11542857 14.1428571 8.136 14.7497143 6.95314286 14.8525714 7.11542857 16.0297143 6.29257143 15.168 5.47657143 16.0297143 5.64 14.8525714 4.45257143 14.7497143 5.47657143 14.1428571 4.81828571 13.1508571 5.93142857 13.5737143 6.29257143 12.4388571"></polyline>
                <polyline id="Fill-4524" fill="#FEFEFE" points="18.8822857 14.4777143 19.0594286 15.0182857 19.5885714 14.8171429 19.2765714 15.2891429 19.7634286 15.5794286 19.1954286 15.6274286 19.2765714 16.1874286 18.8822857 15.7771429 18.496 16.1874286 18.5737143 15.6274286 18.0091429 15.5794286 18.496 15.2891429 18.184 14.8171429 18.7131429 15.0182857 18.8822857 14.4777143"></polyline>
                <polyline id="Fill-4525" fill="#FEFEFE" points="15.7382857 9.49485714 15.9108571 10.0342857 16.44 9.832 16.128 10.3062857 16.6137143 10.5954286 16.0502857 10.6422857 16.128 11.2045714 15.7382857 10.7931429 15.3462857 11.2045714 15.4251429 10.6422857 14.8605714 10.5954286 15.3462857 10.3062857 15.0354286 9.832 15.5634286 10.0342857 15.7382857 9.49485714"></polyline>
                <polyline id="Fill-4526" fill="#FEFEFE" points="18.8822857 6.08457143 19.0594286 6.624 19.5885714 6.424 19.2765714 6.89485714 19.7634286 7.18514286 19.1954286 7.23428571 19.2765714 7.79428571 18.8822857 7.384 18.496 7.79428571 18.5737143 7.23428571 18.0091429 7.18514286 18.496 6.89485714 18.184 6.424 18.7131429 6.624 18.8822857 6.08457143"></polyline>
                <polyline id="Fill-4527" fill="#FEFEFE" points="21.6845714 8.656 21.8548571 9.19542857 22.3885714 8.99428571 22.0731429 9.46628571 22.5622857 9.75428571 21.9954286 9.80342857 22.0754286 10.3657143 21.6845714 9.95428571 21.2937143 10.3657143 21.3725714 9.80342857 20.8068571 9.75428571 21.2937143 9.46628571 20.9828571 8.99428571 21.512 9.19542857 21.6845714 8.656"></polyline>
                <polyline id="Fill-4528" fill="#FEFEFE" points="20.144 11.1805714 20.2822857 11.5165714 20.6422857 11.544 20.3668571 11.7771429 20.4525714 12.1302857 20.144 11.9382857 19.8377143 12.1302857 19.9222857 11.7771429 19.6457143 11.544 20.008 11.5165714 20.144 11.1805714"></polyline>
                <path d="M6.55771429,1.28914286 L6.55771429,2.608 L4.50742857,2.608 C3.57142857,3.35542857 2.74971429,4.24 2.07314286,5.23085714 L6.55771429,5.23085714 L6.55771429,7.85371429 L9.17714286,7.85371429 L9.17714286,5.23085714 L15.7382857,5.23085714 L15.7382857,2.608 L9.17714286,2.608 L9.17714286,0.326857143 C8.25828571,0.546285714 7.38057143,0.870857143 6.55771429,1.28914286" id="Fill-4529" fill="#FEFEFE"></path>
                <path d="M4.12457143,2.92685714 L13.9771429,7.85371429 L15.7337143,7.85371429 L15.7337143,6.97371429 L5.536,1.872 C5.03885714,2.18971429 4.56685714,2.54171429 4.12457143,2.92685714" id="Fill-4530" fill="#FEFEFE"></path>
                <path d="M13.6948571,0.124571429 L1.45142857,6.24685714 C1.17142857,6.76114286 0.928,7.29714286 0.724571429,7.85371429 L1.76,7.85371429 L15.7337143,0.864 L15.7337143,0.606857143 C15.0777143,0.388571429 14.3965714,0.226285714 13.6948571,0.124571429" id="Fill-4531" fill="#FEFEFE"></path>
                <path d="M7.07885714,1.04 L7.07885714,3.13142857 L3.89485714,3.13142857 C3.36914286,3.61142857 2.88685714,4.13942857 2.45371429,4.70628571 L7.07885714,4.70628571 L7.07885714,7.85371429 L8.65257143,7.85371429 L8.65257143,4.70628571 L15.7337143,4.70628571 L15.7337143,3.13142857 L8.65257143,3.13142857 L8.65257143,0.464 C8.112,0.620571429 7.58628571,0.812571429 7.07885714,1.04" id="Fill-4532" fill="#E42229"></path>
                <path d="M4.50742857,2.608 C4.60228571,2.53257143 4.69942857,2.45714286 4.79657143,2.384 L5.24571429,2.608 L4.50742857,2.608 Z M14.136,0.196571429 L9.31771429,2.608 L10.4914286,2.608 L14.952,0.376 C14.6834286,0.306285714 14.4114286,0.248 14.136,0.196571429 L14.136,0.196571429 Z" id="Fill-4533" fill="#E42229"></path>
                <path d="M0.724571429,7.85371429 C0.780571429,7.70171429 0.84,7.552 0.901714286,7.40228571 L5.24571429,5.23085714 L6.41828571,5.23085714 L1.17371429,7.85371429 L0.724571429,7.85371429 Z M10.4914286,5.23085714 L15.7382857,7.85371429 L15.7382857,7.26628571 L11.664,5.23085714 L10.4914286,5.23085714 L10.4914286,5.23085714 Z" id="Fill-4534" fill="#E42229"></path>
            </g>
        </g>
    </g>
</svg>