<?xml version="1.0" encoding="UTF-8"?>
<svg width="24px" height="24px" viewBox="0 0 24 24" version="1.1" xmlns="http://www.w3.org/2000/svg" xmlns:xlink="http://www.w3.org/1999/xlink">
    <title>0country/country_brazil_55</title>
    <g id="0资源库" stroke="none" stroke-width="1" fill="none" fill-rule="evenodd">
        <g id="国旗" transform="translate(-124.000000, -20.000000)">
            <g id="巴西" transform="translate(124.000000, 20.000000)">
                <path d="M11.9645714,0 C18.5725714,0 23.9291429,5.35771429 23.9291429,11.9645714 C23.9291429,18.5725714 18.5725714,23.9302857 11.9645714,23.9302857 C5.35657143,23.9302857 1.29927815e-14,18.5725714 1.29927815e-14,11.9645714 C1.29927815e-14,5.35771429 5.35657143,0 11.9645714,0" id="Fill-4999" fill="#319342"></path>
                <polyline id="Fill-5000" fill="#EFC906" points="1.29927815e-14 12.0045714 11.9645714 21.024 23.928 12.0102857 23.9291429 11.9645714 23.928 11.9188571 11.9645714 2.90514286 1.29927815e-14 11.9245714 1.29927815e-14 12.0045714"></polyline>
                <path d="M17.9451429,11.9645714 C17.9451429,15.2674286 15.2685714,17.9451429 11.9645714,17.9451429 C8.66285714,17.9451429 5.98628571,15.2674286 5.98628571,11.9645714 C5.98628571,8.66285714 8.66285714,5.98057143 11.9645714,5.98057143 C15.2685714,5.98057143 17.9451429,8.66285714 17.9451429,11.9645714" id="Fill-5001" fill="#33306F"></path>
                <path d="M8.54742857,9.39885714 C7.84685714,9.39885714 7.16114286,9.45142857 6.49028571,9.54514286 C6.36114286,9.83771429 6.256,10.144 6.17257143,10.4594286 C6.944,10.3268571 7.736,10.2548571 8.54742857,10.2548571 C12.0525714,10.2548571 15.256,11.5771429 17.6742857,13.752 C17.7725714,13.4445714 17.8445714,13.128 17.888,12.8045714 C15.3611429,10.68 12.1051429,9.39885714 8.54742857,9.39885714" id="Fill-5002" fill="#FEFEFE"></path>
                <path d="M17.891183,12.7159051 C18.0967919,12.8721864 18.1160678,13.1847491 17.9318764,13.4097942 C17.747685,13.6348393 17.4349881,13.6848493 17.2250956,13.5264843 C17.0194866,13.3660354 17.0023526,13.0534728 17.1844022,12.8284276 C17.3685935,12.6033825 17.6834322,12.549205 17.891183,12.7159051 Z M17.3407506,12.9472015 C17.2143868,13.0888965 17.2229538,13.2806016 17.3493177,13.3722867 C17.4756815,13.4723067 17.6684399,13.4327155 17.7819532,13.2910204 C17.89975,13.1472416 17.8804742,12.9576202 17.7669609,12.8638514 C17.640597,12.7659151 17.4564057,12.8034226 17.3407506,12.9472015 Z M16.9234286,12.2285714 C16.9851429,12.2742857 17.0731429,12.3805714 16.9885714,12.4925714 L16.8914286,12.4205714 C16.9234286,12.3714286 16.8914286,12.3222857 16.8365714,12.2822857 C16.784,12.2445714 16.7485714,12.2274286 16.7131429,12.2765714 C16.6548571,12.352 16.9965714,12.5222857 16.8822857,12.6845714 C16.7931429,12.8068571 16.6548571,12.7451429 16.5725714,12.6811429 C16.4925714,12.6262857 16.3805714,12.5017143 16.4651429,12.3851429 L16.5725714,12.4594286 C16.536,12.5051429 16.5622857,12.5611429 16.6297143,12.6091429 C16.696,12.656 16.7462857,12.6594286 16.768,12.6285714 C16.8331429,12.5348571 16.4777143,12.3725714 16.6022857,12.208 C16.7051429,12.0662857 16.8651429,12.1885714 16.9234286,12.2285714 Z M16.2971429,11.808 C16.36,11.848 16.4571429,11.9497143 16.3805714,12.0674286 L16.2754286,11.9988571 C16.312,11.9497143 16.2754286,11.8982857 16.2171429,11.8685714 C16.1645714,11.8285714 16.1211429,11.8148571 16.0891429,11.8685714 C16.0342857,11.9451429 16.3908571,12.0937143 16.2777143,12.2651429 C16.2045714,12.3897143 16.064,12.3337143 15.9725714,12.2765714 C15.8891429,12.2251429 15.7748571,12.1062857 15.8491429,11.9885714 L15.9611429,12.056 C15.9291429,12.1028571 15.9611429,12.1577143 16.0274286,12.2022857 C16.0971429,12.2445714 16.1417143,12.2422857 16.1634286,12.2148571 C16.2251429,12.1142857 15.8674286,11.9702857 15.9771429,11.8022857 C16.0697143,11.6548571 16.2354286,11.768 16.2971429,11.808 Z M12.0113101,9.93714286 L12.5359958,10.0794353 C12.6146656,10.1026579 12.6779531,10.1578625 12.7162254,10.228446 L12.7437073,10.1337143 L13.2541558,10.308063 C13.3569446,10.3432502 13.4292581,10.4341887 13.4499441,10.5407594 C13.5818953,10.4433664 13.7568346,10.4088495 13.916463,10.4657017 C14.0652979,10.5163538 14.1675462,10.6334265 14.2060139,10.7743288 C14.3345376,10.7087744 14.4880877,10.695892 14.6268026,10.7512342 C14.7416147,10.7979748 14.8250138,10.8837353 14.8706429,10.9880608 L14.8886434,10.944 L15.333986,11.20694 C15.3683791,11.2268248 15.3975791,11.2541162 15.4209012,11.2864073 L15.8365714,11.5211429 L15.7794286,11.6137143 L15.4819389,11.4413754 C15.4880446,11.484304 15.4868485,11.5290499 15.4775914,11.5729453 L15.6674286,11.6788571 L15.6194286,11.7668571 L15.4413914,11.6667143 L15.4221106,11.7035326 C15.4003165,11.7346488 15.3738567,11.760232 15.3444724,11.7794716 L15.624,11.9371429 L15.576,12.0285714 L15.2056649,11.8207257 C15.1656337,11.8200869 15.1250046,11.8091621 15.0865734,11.7866501 L14.7737732,11.6003147 L14.6288601,11.944 L14.4857143,11.8611843 L14.5683841,11.6766605 C14.4471864,11.7256195 14.3107888,11.7317238 14.1876714,11.6826045 C14.0510528,11.6282575 13.9598382,11.5135252 13.9256986,11.3782449 L13.8753165,11.4026671 C13.7675738,11.4442851 13.6472953,11.4509898 13.5335008,11.414064 C13.3233121,11.3379026 13.1986091,11.1288662 13.2269649,10.9073778 C13.1801748,10.92112 13.1263192,10.9195763 13.0722505,10.9012494 L12.7270017,10.7830129 L12.6230559,11.1337143 L12.456,11.0816101 L12.584347,10.660484 C12.5231567,10.6893962 12.4518167,10.697319 12.380111,10.6782496 L12.0189143,10.5833879 L11.9219615,10.9371429 L11.7565714,10.889712 L12.0113101,9.93714286 Z M14.2334345,10.9911132 L14.2123914,11.0147143 L14.3293914,11.0657143 L14.3302857,11.0651429 L14.4068571,11.1005714 L14.2891429,11.3588571 L14.2205714,11.3268571 L14.2973914,11.1407143 L14.1873532,11.0900941 C14.1860846,11.0933888 14.1847811,11.0966808 14.1834424,11.0999696 C14.1659355,11.1431998 14.1433225,11.1830526 14.1166063,11.2190684 C14.0964374,11.3451897 14.1531682,11.464951 14.2711063,11.5093737 L14.2711063,11.5073356 C14.4204109,11.57459 14.598259,11.4869556 14.6707157,11.3239148 C14.7475636,11.1608741 14.6882809,10.9815292 14.5455633,10.922427 C14.4420538,10.8802111 14.3217408,10.9107812 14.2334345,10.9911132 Z M13.4503433,10.8466677 C13.3825043,11.0067545 13.4590967,11.1830526 13.6035282,11.2357394 C13.7191984,11.2770535 13.8436029,11.2328665 13.926806,11.1389493 C13.9322062,11.1033794 13.9438666,11.0686248 13.9593231,11.0345175 C13.9750947,10.9998171 13.9940521,10.9675689 14.0156578,10.9379695 C14.0338208,10.8057828 13.9656429,10.6843023 13.848624,10.6399734 C13.6998158,10.5913394 13.5181823,10.6805017 13.4503433,10.8466677 Z M8.79085714,9.54171429 L9.27885714,9.55771429 L9.27885714,9.66514286 L8.88571429,9.65257143 L8.88730856,9.66343804 C8.92246898,9.69376512 8.95255642,9.7287963 8.97613548,9.76725763 L9.20685714,9.77714286 L9.20685714,9.87314286 L9.02012641,9.8677519 C9.02826017,9.89709406 9.03285301,9.92753736 9.03345569,9.9586831 L9.03639138,10.0147143 L9.28914286,10.024 L9.28457143,10.1314286 L9.03939138,10.1217143 L9.03495764,10.179003 C8.9963914,10.3800272 8.8097618,10.5322813 8.57429454,10.5340449 L8.05994576,10.5439649 L8.05317668,10.1637318 C8.02806422,10.1714713 8.00171943,10.1765593 7.97452176,10.1786019 L7.5714469,10.2008798 C7.56839269,10.249732 7.55799911,10.2967299 7.54125767,10.3407028 L7.55789616,10.5566998 L7.36054718,10.5721324 C7.29853094,10.6089184 7.22345017,10.6371531 7.14127512,10.6456539 C6.86596281,10.6799559 6.61527193,10.4801971 6.57945895,10.205781 C6.53245441,9.9313648 6.72494919,9.67712631 7.00697643,9.65291312 C7.11202981,9.64059412 7.21349825,9.66206118 7.30068696,9.70857012 L7.29257143,9.6095258 L7.92408813,9.57287345 C7.96538523,9.57027838 8.00569029,9.5745683 8.04359463,9.58465611 L8.04228571,9.55196185 L8.55442699,9.54402582 C8.6386304,9.54272102 8.71877601,9.56243991 8.78858467,9.59760961 L8.79085714,9.54171429 Z M12.1215702,10.1584867 L12.0664402,10.4015697 L12.4162306,10.4984077 C12.4846679,10.5181705 12.5436,10.4766685 12.5588083,10.4094749 C12.5778186,10.3403049 12.5359958,10.2731112 12.4770638,10.2533484 L12.1215702,10.1584867 Z M7.02712124,9.83652981 C6.86596281,9.85267194 6.75180893,10.0060221 6.77643035,10.1815678 C6.8055284,10.3550956 6.95325696,10.4801971 7.11889201,10.464055 C7.21849171,10.4508512 7.30179745,10.3797575 7.34183961,10.2841325 L7.31975766,9.98389953 C7.2596176,9.88295266 7.14976871,9.82198208 7.02712124,9.83652981 Z M8.54780448,9.7305224 L8.25161118,9.73582118 C8.27317203,9.77109435 8.28747094,9.81054037 8.29247288,9.85258879 C8.2939595,9.90882613 8.27856415,9.96284678 8.2505575,10.0102174 L8.25420624,10.3554843 L8.55442699,10.3495323 C8.70501041,10.3477278 8.8300281,10.2441667 8.84311317,10.1164715 L8.768,10.1131429 L8.77965847,9.82968225 C8.72509792,9.76956245 8.64086862,9.7305224 8.54780448,9.7305224 Z M10.7634286,9.76914286 L11.1702857,9.84 L11.1577143,9.93714286 L10.8422857,9.88228571 L10.8297143,9.97257143 L11.0902857,10.016 L11.0788571,10.1142857 L10.8114286,10.0697143 L10.7897143,10.1965714 L11.112,10.2514286 L11.1005714,10.3462857 L10.672,10.2754286 L10.7634286,9.76914286 Z M9.544,9.57485714 L9.688,9.58628571 L9.76571429,9.98628571 L9.91657143,9.60685714 L10.0548571,9.61942857 L10.0045714,10.1874286 L9.90857143,10.1794286 L9.94285714,9.78857143 L9.79771429,10.1691429 L9.704,10.16 L9.62742857,9.76228571 L9.59428571,10.1508571 L9.496,10.1428571 L9.544,9.57485714 Z M7.92408813,9.75227708 L7.50088423,9.77349687 L7.5118968,9.92039528 C7.52872544,9.95223651 7.54229561,9.9861587 7.55211045,10.0217556 L7.692514,10.0149141 C7.6695656,9.94640962 7.62183673,9.88244898 7.51428571,9.888 L7.51428571,9.888 L7.66857143,9.87885714 C7.74590587,9.8746389 7.77912709,9.94005035 7.79430761,10.0101762 L7.93724473,10.0030564 C7.98911932,9.99671798 8.02868398,9.96872046 8.04971613,9.93110724 L8.0476572,9.81144673 C8.02287272,9.77162462 7.97740558,9.74813835 7.92408813,9.75227708 Z" id="形状结合" fill="#319342"></path>
                <polyline id="Fill-5023" fill="#FEFEFE" points="7.08 10.6331429 7.00228571 10.8765714 7.12457143 10.9177143 7.08 10.6331429"></polyline>
                <polyline id="Fill-5024" fill="#FEFEFE" points="7.08 10.6331429 7.16114286 10.8765714 7.04 10.9177143 7.08 10.6331429"></polyline>
                <polyline id="Fill-5025" fill="#FEFEFE" points="7.32342857 10.8114286 7.06742857 10.8114286 7.06742857 10.936 7.32342857 10.8114286"></polyline>
                <polyline id="Fill-5026" fill="#FEFEFE" points="7.32342857 10.8114286 7.12 10.96 7.04 10.8571429 7.32342857 10.8114286"></polyline>
                <polyline id="Fill-5027" fill="#FEFEFE" points="6.83657143 10.8114286 7.04457143 10.96 7.12 10.8571429 6.83657143 10.8114286"></polyline>
                <polyline id="Fill-5028" fill="#FEFEFE" points="6.83657143 10.8114286 7.09485714 10.8114286 7.09485714 10.936 6.83657143 10.8114286"></polyline>
                <polyline id="Fill-5029" fill="#FEFEFE" points="7.23085714 11.0971429 7.152 10.8525714 7.032 10.8937143 7.23085714 11.0971429"></polyline>
                <polyline id="Fill-5030" fill="#FEFEFE" points="7.23085714 11.0971429 7.02285714 10.9462857 7.09942857 10.8411429 7.23085714 11.0971429"></polyline>
                <polyline id="Fill-5031" fill="#FEFEFE" points="6.92914286 11.0971429 7.13828571 10.9462857 7.06285714 10.8411429 6.92914286 11.0971429"></polyline>
                <polyline id="Fill-5032" fill="#FEFEFE" points="6.92914286 11.0971429 7.01028571 10.8525714 7.13485714 10.8937143 6.92914286 11.0971429"></polyline>
                <polyline id="Fill-5033" fill="#FEFEFE" points="7.61257143 13.1474286 7.53142857 13.3908571 7.656 13.4297143 7.61257143 13.1474286"></polyline>
                <polyline id="Fill-5034" fill="#FEFEFE" points="7.61257143 13.1474286 7.68914286 13.3908571 7.56914286 13.4297143 7.61257143 13.1474286"></polyline>
                <polyline id="Fill-5035" fill="#FEFEFE" points="7.85142857 13.3257143 7.59771429 13.3257143 7.59771429 13.4537143 7.85142857 13.3257143"></polyline>
                <polyline id="Fill-5036" fill="#FEFEFE" points="7.85142857 13.3257143 7.648 13.4765714 7.57142857 13.3702857 7.85142857 13.3257143"></polyline>
                <polyline id="Fill-5037" fill="#FEFEFE" points="7.368 13.3257143 7.57142857 13.4765714 7.65371429 13.3702857 7.368 13.3257143"></polyline>
                <polyline id="Fill-5038" fill="#FEFEFE" points="7.368 13.3257143 7.62628571 13.3257143 7.62628571 13.4537143 7.368 13.3257143"></polyline>
                <polyline id="Fill-5039" fill="#FEFEFE" points="7.76342857 13.6125714 7.68342857 13.3691429 7.56 13.408 7.76342857 13.6125714"></polyline>
                <polyline id="Fill-5040" fill="#FEFEFE" points="7.76342857 13.6125714 7.55542857 13.4594286 7.62857143 13.3588571 7.76342857 13.6125714"></polyline>
                <polyline id="Fill-5041" fill="#FEFEFE" points="7.45828571 13.6125714 7.66971429 13.4594286 7.59085714 13.3588571 7.45828571 13.6125714"></polyline>
                <polyline id="Fill-5042" fill="#FEFEFE" points="7.45828571 13.6125714 7.536 13.3691429 7.66057143 13.408 7.45828571 13.6125714"></polyline>
                <polyline id="Fill-5043" fill="#FEFEFE" points="6.87771429 13.7691429 6.82971429 13.9337143 6.90742857 13.96 6.87771429 13.7691429"></polyline>
                <polyline id="Fill-5044" fill="#FEFEFE" points="6.87771429 13.7691429 6.92914286 13.9337143 6.85142857 13.96 6.87771429 13.7691429"></polyline>
                <polyline id="Fill-5045" fill="#FEFEFE" points="7.04 13.888 6.86742857 13.888 6.86742857 13.9737143 7.04 13.888"></polyline>
                <polyline id="Fill-5046" fill="#FEFEFE" points="7.04 13.888 6.90285714 13.9897143 6.85257143 13.92 7.04 13.888"></polyline>
                <polyline id="Fill-5047" fill="#FEFEFE" points="6.71771429 13.888 6.85257143 13.9897143 6.90285714 13.92 6.71771429 13.888"></polyline>
                <polyline id="Fill-5048" fill="#FEFEFE" points="6.71771429 13.888 6.88685714 13.888 6.88685714 13.9737143 6.71771429 13.888"></polyline>
                <polyline id="Fill-5049" fill="#FEFEFE" points="6.97714286 14.08 6.92457143 13.9165714 6.84685714 13.9451429 6.97714286 14.08"></polyline>
                <polyline id="Fill-5050" fill="#FEFEFE" points="6.97714286 14.08 6.84228571 13.9794286 6.89142857 13.9074286 6.97714286 14.08"></polyline>
                <polyline id="Fill-5051" fill="#FEFEFE" points="6.77942857 14.08 6.91542857 13.9794286 6.86742857 13.9074286 6.77942857 14.08"></polyline>
                <polyline id="Fill-5052" fill="#FEFEFE" points="6.77942857 14.08 6.82971429 13.9165714 6.90742857 13.9451429 6.77942857 14.08"></polyline>
                <polyline id="Fill-5053" fill="#FEFEFE" points="8.19771429 12.9154286 8.15657143 13.0297143 8.21371429 13.0514286 8.19771429 12.9154286"></polyline>
                <polyline id="Fill-5054" fill="#FEFEFE" points="8.19771429 12.9154286 8.23314286 13.0297143 8.176 13.0514286 8.19771429 12.9154286"></polyline>
                <polyline id="Fill-5055" fill="#FEFEFE" points="8.312 13.0011429 8.192 13.0011429 8.192 13.0617143 8.312 13.0011429"></polyline>
                <polyline id="Fill-5056" fill="#FEFEFE" points="8.312 13.0011429 8.21371429 13.0731429 8.18057143 13.0228571 8.312 13.0011429"></polyline>
                <polyline id="Fill-5057" fill="#FEFEFE" points="8.07771429 13.0011429 8.18057143 13.0731429 8.21371429 13.0228571 8.07771429 13.0011429"></polyline>
                <polyline id="Fill-5058" fill="#FEFEFE" points="8.07771429 13.0011429 8.20228571 13.0011429 8.20228571 13.0617143 8.07771429 13.0011429"></polyline>
                <polyline id="Fill-5059" fill="#FEFEFE" points="8.26971429 13.1382857 8.22742857 13.0194286 8.176 13.0388571 8.26971429 13.1382857"></polyline>
                <polyline id="Fill-5060" fill="#FEFEFE" points="8.26971429 13.1382857 8.17142857 13.0651429 8.20685714 13.0148571 8.26971429 13.1382857"></polyline>
                <polyline id="Fill-5061" fill="#FEFEFE" points="8.12571429 13.1382857 8.224 13.0651429 8.18742857 13.0148571 8.12571429 13.1382857"></polyline>
                <polyline id="Fill-5062" fill="#FEFEFE" points="8.12571429 13.1382857 8.16114286 13.0194286 8.21942857 13.0388571 8.12571429 13.1382857"></polyline>
                <polyline id="Fill-5063" fill="#FEFEFE" points="8.85828571 13.784 8.79085714 13.9885714 8.888 14.0228571 8.85828571 13.784"></polyline>
                <polyline id="Fill-5064" fill="#FEFEFE" points="8.85828571 13.784 8.92114286 13.9885714 8.82285714 14.0228571 8.85828571 13.784"></polyline>
                <polyline id="Fill-5065" fill="#FEFEFE" points="9.056 13.9337143 8.84342857 13.9337143 8.84342857 14.0388571 9.056 13.9337143"></polyline>
                <polyline id="Fill-5066" fill="#FEFEFE" points="9.056 13.9337143 8.88571429 14.0594286 8.82285714 13.9702857 9.056 13.9337143"></polyline>
                <polyline id="Fill-5067" fill="#FEFEFE" points="8.65257143 13.9337143 8.82514286 14.0594286 8.888 13.9702857 8.65257143 13.9337143"></polyline>
                <polyline id="Fill-5068" fill="#FEFEFE" points="8.65257143 13.9337143 8.86628571 13.9337143 8.86628571 14.0388571 8.65257143 13.9337143"></polyline>
                <polyline id="Fill-5069" fill="#FEFEFE" points="8.98285714 14.168 8.91542857 13.968 8.81371429 14.0022857 8.98285714 14.168"></polyline>
                <polyline id="Fill-5070" fill="#FEFEFE" points="8.98285714 14.168 8.808 14.0445714 8.87085714 13.96 8.98285714 14.168"></polyline>
                <polyline id="Fill-5071" fill="#FEFEFE" points="8.73485714 14.168 8.90171429 14.0445714 8.83885714 13.96 8.73485714 14.168"></polyline>
                <polyline id="Fill-5072" fill="#FEFEFE" points="8.73485714 14.168 8.79657143 13.968 8.89714286 14.0022857 8.73485714 14.168"></polyline>
                <polyline id="Fill-5073" fill="#FEFEFE" points="8.67771429 14.3782857 8.61028571 14.5828571 8.71085714 14.6171429 8.67771429 14.3782857"></polyline>
                <polyline id="Fill-5074" fill="#FEFEFE" points="8.67771429 14.3782857 8.74171429 14.5828571 8.64114286 14.6171429 8.67771429 14.3782857"></polyline>
                <polyline id="Fill-5075" fill="#FEFEFE" points="8.88 14.528 8.66742857 14.528 8.66742857 14.632 8.88 14.528"></polyline>
                <polyline id="Fill-5076" fill="#FEFEFE" points="8.88 14.528 8.70628571 14.6537143 8.64342857 14.5668571 8.88 14.528"></polyline>
                <polyline id="Fill-5077" fill="#FEFEFE" points="8.47657143 14.528 8.648 14.6537143 8.71085714 14.5668571 8.47657143 14.528"></polyline>
                <polyline id="Fill-5078" fill="#FEFEFE" points="8.47657143 14.528 8.688 14.528 8.688 14.632 8.47657143 14.528"></polyline>
                <polyline id="Fill-5079" fill="#FEFEFE" points="8.80114286 14.7657143 8.73828571 14.5622857 8.63657143 14.5954286 8.80114286 14.7657143"></polyline>
                <polyline id="Fill-5080" fill="#FEFEFE" points="8.80114286 14.7657143 8.62742857 14.6377143 8.69371429 14.5542857 8.80114286 14.7657143"></polyline>
                <polyline id="Fill-5081" fill="#FEFEFE" points="8.55314286 14.7657143 8.72571429 14.6377143 8.66285714 14.5542857 8.55314286 14.7657143"></polyline>
                <polyline id="Fill-5082" fill="#FEFEFE" points="8.55314286 14.7657143 8.61828571 14.5622857 8.72 14.5954286 8.55314286 14.7657143"></polyline>
                <polyline id="Fill-5083" fill="#FEFEFE" points="13.8194286 9.85142857 13.7405714 10.096 13.8651429 10.1348571 13.8194286 9.85142857"></polyline>
                <polyline id="Fill-5084" fill="#FEFEFE" points="13.8194286 9.85142857 13.9005714 10.096 13.7771429 10.1348571 13.8194286 9.85142857"></polyline>
                <polyline id="Fill-5085" fill="#FEFEFE" points="14.0628571 10.0285714 13.808 10.0285714 13.808 10.1588571 14.0628571 10.0285714"></polyline>
                <polyline id="Fill-5086" fill="#FEFEFE" points="14.0628571 10.0285714 13.8548571 10.1805714 13.7805714 10.0754286 14.0628571 10.0285714"></polyline>
                <polyline id="Fill-5087" fill="#FEFEFE" points="13.5748571 10.0285714 13.7862857 10.1805714 13.8605714 10.0754286 13.5748571 10.0285714"></polyline>
                <polyline id="Fill-5088" fill="#FEFEFE" points="13.5748571 10.0285714 13.8331429 10.0285714 13.8331429 10.1588571 13.5748571 10.0285714"></polyline>
                <polyline id="Fill-5089" fill="#FEFEFE" points="13.9725714 10.3177143 13.8902857 10.0731429 13.7725714 10.1131429 13.9725714 10.3177143"></polyline>
                <polyline id="Fill-5090" fill="#FEFEFE" points="13.9725714 10.3177143 13.7622857 10.1645714 13.8377143 10.0605714 13.9725714 10.3177143"></polyline>
                <polyline id="Fill-5091" fill="#FEFEFE" points="13.6697143 10.3177143 13.8777143 10.1645714 13.8022857 10.0605714 13.6697143 10.3177143"></polyline>
                <polyline id="Fill-5092" fill="#FEFEFE" points="13.6697143 10.3177143 13.7497143 10.0731429 13.8754286 10.1131429 13.6697143 10.3177143"></polyline>
                <polyline id="Fill-5093" fill="#FEFEFE" points="16.1542857 13.808 16.0754286 14.0525714 16.2 14.0925714 16.1542857 13.808"></polyline>
                <polyline id="Fill-5094" fill="#FEFEFE" points="16.1542857 13.808 16.2354286 14.0525714 16.1165714 14.0925714 16.1542857 13.808"></polyline>
                <polyline id="Fill-5095" fill="#FEFEFE" points="16.4 13.9851429 16.1428571 13.9851429 16.1428571 14.1108571 16.4 13.9851429"></polyline>
                <polyline id="Fill-5096" fill="#FEFEFE" points="16.4 13.9851429 16.1954286 14.136 16.1165714 14.0308571 16.4 13.9851429"></polyline>
                <polyline id="Fill-5097" fill="#FEFEFE" points="15.9108571 13.9851429 16.1211429 14.136 16.1954286 14.0308571 15.9108571 13.9851429"></polyline>
                <polyline id="Fill-5098" fill="#FEFEFE" points="15.9108571 13.9851429 16.1691429 13.9851429 16.1691429 14.1108571 15.9108571 13.9851429"></polyline>
                <polyline id="Fill-5099" fill="#FEFEFE" points="16.312 14.2708571 16.2297143 14.0285714 16.1074286 14.0662857 16.312 14.2708571"></polyline>
                <polyline id="Fill-5100" fill="#FEFEFE" points="16.312 14.2708571 16.1017143 14.1211429 16.1771429 14.0148571 16.312 14.2708571"></polyline>
                <polyline id="Fill-5101" fill="#FEFEFE" points="16.0068571 14.2708571 16.2137143 14.1211429 16.1371429 14.0148571 16.0068571 14.2708571"></polyline>
                <polyline id="Fill-5102" fill="#FEFEFE" points="16.0068571 14.2708571 16.0845714 14.0285714 16.2091429 14.0662857 16.0068571 14.2708571"></polyline>
                <polyline id="Fill-5103" fill="#FEFEFE" points="16.9897143 13.9508571 16.9325714 14.1108571 17.0182857 14.1382857 16.9897143 13.9508571"></polyline>
                <polyline id="Fill-5104" fill="#FEFEFE" points="16.9897143 13.9508571 17.0422857 14.1108571 16.9565714 14.1382857 16.9897143 13.9508571"></polyline>
                <polyline id="Fill-5105" fill="#FEFEFE" points="17.1474286 14.0685714 16.9805714 14.0685714 16.9805714 14.152 17.1474286 14.0685714"></polyline>
                <polyline id="Fill-5106" fill="#FEFEFE" points="17.1474286 14.0685714 17.0114286 14.168 16.9611429 14.0982857 17.1474286 14.0685714"></polyline>
                <polyline id="Fill-5107" fill="#FEFEFE" points="16.8251429 14.0685714 16.9611429 14.168 17.016 14.0982857 16.8251429 14.0685714"></polyline>
                <polyline id="Fill-5108" fill="#FEFEFE" points="16.8251429 14.0685714 16.9965714 14.0685714 16.9965714 14.152 16.8251429 14.0685714"></polyline>
                <polyline id="Fill-5109" fill="#FEFEFE" points="17.0857143 14.2582857 17.0388571 14.0948571 16.9542857 14.1234286 17.0857143 14.2582857"></polyline>
                <polyline id="Fill-5110" fill="#FEFEFE" points="17.0857143 14.2582857 16.9485714 14.1588571 17.0011429 14.088 17.0857143 14.2582857"></polyline>
                <polyline id="Fill-5111" fill="#FEFEFE" points="16.8868571 14.2582857 17.0228571 14.1588571 16.976 14.088 16.8868571 14.2582857"></polyline>
                <polyline id="Fill-5112" fill="#FEFEFE" points="16.8868571 14.2582857 16.9394286 14.0948571 17.0182857 14.1234286 16.8868571 14.2582857"></polyline>
                <polyline id="Fill-5113" fill="#FEFEFE" points="16.4 14.3782857 16.3382857 14.5828571 16.4354286 14.6171429 16.4 14.3782857"></polyline>
                <polyline id="Fill-5114" fill="#FEFEFE" points="16.4 14.3782857 16.4651429 14.5828571 16.3691429 14.6171429 16.4 14.3782857"></polyline>
                <polyline id="Fill-5115" fill="#FEFEFE" points="16.6034286 14.528 16.3908571 14.528 16.3908571 14.632 16.6034286 14.528"></polyline>
                <polyline id="Fill-5116" fill="#FEFEFE" points="16.6034286 14.528 16.4354286 14.6537143 16.3691429 14.5668571 16.6034286 14.528"></polyline>
                <polyline id="Fill-5117" fill="#FEFEFE" points="16.2 14.528 16.3748571 14.6537143 16.4354286 14.5668571 16.2 14.528"></polyline>
                <polyline id="Fill-5118" fill="#FEFEFE" points="16.2 14.528 16.4125714 14.528 16.4125714 14.632 16.2 14.528"></polyline>
                <polyline id="Fill-5119" fill="#FEFEFE" points="16.5268571 14.7657143 16.4617143 14.5622857 16.36 14.5954286 16.5268571 14.7657143"></polyline>
                <polyline id="Fill-5120" fill="#FEFEFE" points="16.5268571 14.7657143 16.3542857 14.6377143 16.4171429 14.5542857 16.5268571 14.7657143"></polyline>
                <polyline id="Fill-5121" fill="#FEFEFE" points="16.2754286 14.7657143 16.448 14.6377143 16.3851429 14.5542857 16.2754286 14.7657143"></polyline>
                <polyline id="Fill-5122" fill="#FEFEFE" points="16.2754286 14.7657143 16.3405714 14.5622857 16.4422857 14.5954286 16.2754286 14.7657143"></polyline>
                <polyline id="Fill-5123" fill="#FEFEFE" points="14.96 15.632 14.8937143 15.8354286 14.9942857 15.8685714 14.96 15.632"></polyline>
                <polyline id="Fill-5124" fill="#FEFEFE" points="14.96 15.632 15.0251429 15.8354286 14.9222857 15.8685714 14.96 15.632"></polyline>
                <polyline id="Fill-5125" fill="#FEFEFE" points="15.1634286 15.7817143 14.9508571 15.7817143 14.9508571 15.8891429 15.1634286 15.7817143"></polyline>
                <polyline id="Fill-5126" fill="#FEFEFE" points="15.1634286 15.7817143 14.9897143 15.9051429 14.9268571 15.8194286 15.1634286 15.7817143"></polyline>
                <polyline id="Fill-5127" fill="#FEFEFE" points="14.76 15.7817143 14.9325714 15.9051429 14.9897143 15.8194286 14.76 15.7817143"></polyline>
                <polyline id="Fill-5128" fill="#FEFEFE" points="14.76 15.7817143 14.9725714 15.7817143 14.9725714 15.8891429 14.76 15.7817143"></polyline>
                <polyline id="Fill-5129" fill="#FEFEFE" points="15.0822857 16.0194286 15.0228571 15.816 14.9154286 15.848 15.0822857 16.0194286"></polyline>
                <polyline id="Fill-5130" fill="#FEFEFE" points="15.0822857 16.0194286 14.9097143 15.8914286 14.9725714 15.808 15.0822857 16.0194286"></polyline>
                <polyline id="Fill-5131" fill="#FEFEFE" points="14.8365714 16.0194286 15.008 15.8914286 14.9462857 15.808 14.8365714 16.0194286"></polyline>
                <polyline id="Fill-5132" fill="#FEFEFE" points="14.8365714 16.0194286 14.9005714 15.816 15.0034286 15.848 14.8365714 16.0194286"></polyline>
                <polyline id="Fill-5133" fill="#FEFEFE" points="14.9508571 16.28 14.9005714 16.44 14.9817143 16.4662857 14.9508571 16.28"></polyline>
                <polyline id="Fill-5134" fill="#FEFEFE" points="14.9508571 16.28 15.0034286 16.44 14.9222857 16.4662857 14.9508571 16.28"></polyline>
                <polyline id="Fill-5135" fill="#FEFEFE" points="15.1131429 16.3977143 14.9462857 16.3977143 14.9462857 16.4822857 15.1131429 16.3977143"></polyline>
                <polyline id="Fill-5136" fill="#FEFEFE" points="15.1131429 16.3977143 14.9725714 16.496 14.9222857 16.4274286 15.1131429 16.3977143"></polyline>
                <polyline id="Fill-5137" fill="#FEFEFE" points="14.792 16.3977143 14.9268571 16.496 14.9771429 16.4274286 14.792 16.3977143"></polyline>
                <polyline id="Fill-5138" fill="#FEFEFE" points="14.792 16.3977143 14.96 16.3977143 14.96 16.4822857 14.792 16.3977143"></polyline>
                <polyline id="Fill-5139" fill="#FEFEFE" points="15.0514286 16.5851429 14.9988571 16.4262857 14.9154286 16.4514286 15.0514286 16.5851429"></polyline>
                <polyline id="Fill-5140" fill="#FEFEFE" points="15.0514286 16.5851429 14.9097143 16.4868571 14.9634286 16.4171429 15.0514286 16.5851429"></polyline>
                <polyline id="Fill-5141" fill="#FEFEFE" points="14.8525714 16.5851429 14.9897143 16.4868571 14.9371429 16.4171429 14.8525714 16.5851429"></polyline>
                <polyline id="Fill-5142" fill="#FEFEFE" points="14.8525714 16.5851429 14.9051429 16.4262857 14.984 16.4514286 14.8525714 16.5851429"></polyline>
                <polyline id="Fill-5143" fill="#FEFEFE" points="15.5577143 15.2034286 15.5005714 15.3668571 15.5794286 15.392 15.5577143 15.2034286"></polyline>
                <polyline id="Fill-5144" fill="#FEFEFE" points="15.5577143 15.2034286 15.6057143 15.3668571 15.5257143 15.392 15.5577143 15.2034286"></polyline>
                <polyline id="Fill-5145" fill="#FEFEFE" points="15.7165714 15.3211429 15.5428571 15.3211429 15.5428571 15.4068571 15.7165714 15.3211429"></polyline>
                <polyline id="Fill-5146" fill="#FEFEFE" points="15.7165714 15.3211429 15.5794286 15.4228571 15.5257143 15.3554286 15.7165714 15.3211429"></polyline>
                <polyline id="Fill-5147" fill="#FEFEFE" points="15.3931429 15.3211429 15.5314286 15.4228571 15.5794286 15.3554286 15.3931429 15.3211429"></polyline>
                <polyline id="Fill-5148" fill="#FEFEFE" points="15.3931429 15.3211429 15.5668571 15.3211429 15.5668571 15.4068571 15.3931429 15.3211429"></polyline>
                <polyline id="Fill-5149" fill="#FEFEFE" points="15.656 15.512 15.6011429 15.3508571 15.5211429 15.3771429 15.656 15.512"></polyline>
                <polyline id="Fill-5150" fill="#FEFEFE" points="15.656 15.512 15.5165714 15.4125714 15.5714286 15.3428571 15.656 15.512"></polyline>
                <polyline id="Fill-5151" fill="#FEFEFE" points="15.456 15.512 15.5931429 15.4125714 15.5428571 15.3428571 15.456 15.512"></polyline>
                <polyline id="Fill-5152" fill="#FEFEFE" points="15.456 15.512 15.5108571 15.3508571 15.5885714 15.3771429 15.456 15.512"></polyline>
                <polyline id="Fill-5153" fill="#FEFEFE" points="16.0342857 14.8605714 15.9702857 15.0617143 16.0685714 15.0948571 16.0342857 14.8605714"></polyline>
                <polyline id="Fill-5154" fill="#FEFEFE" points="16.0342857 14.8605714 16.1017143 15.0617143 15.9965714 15.0948571 16.0342857 14.8605714"></polyline>
                <polyline id="Fill-5155" fill="#FEFEFE" points="16.2354286 15.008 16.0228571 15.008 16.0228571 15.1131429 16.2354286 15.008"></polyline>
                <polyline id="Fill-5156" fill="#FEFEFE" points="16.2354286 15.008 16.0685714 15.1325714 16.0068571 15.0445714 16.2354286 15.008"></polyline>
                <polyline id="Fill-5157" fill="#FEFEFE" points="15.832 15.008 16.0068571 15.1325714 16.0685714 15.0445714 15.832 15.008"></polyline>
                <polyline id="Fill-5158" fill="#FEFEFE" points="15.832 15.008 16.0445714 15.008 16.0445714 15.1131429 15.832 15.008"></polyline>
                <polyline id="Fill-5159" fill="#FEFEFE" points="16.16 15.2422857 16.0971429 15.0434286 15.992 15.0765714 16.16 15.2422857"></polyline>
                <polyline id="Fill-5160" fill="#FEFEFE" points="16.16 15.2422857 15.9862857 15.12 16.0491429 15.032 16.16 15.2422857"></polyline>
                <polyline id="Fill-5161" fill="#FEFEFE" points="15.9085714 15.2422857 16.0845714 15.12 16.0182857 15.032 15.9085714 15.2422857"></polyline>
                <polyline id="Fill-5162" fill="#FEFEFE" points="15.9085714 15.2422857 15.9771429 15.0434286 16.0754286 15.0765714 15.9085714 15.2422857"></polyline>
                <polyline id="Fill-5163" fill="#FEFEFE" points="14.9325714 15.0891429 14.8845714 15.2514286 14.9634286 15.28 14.9325714 15.0891429"></polyline>
                <polyline id="Fill-5164" fill="#FEFEFE" points="14.9325714 15.0891429 14.9897143 15.2514286 14.9051429 15.28 14.9325714 15.0891429"></polyline>
                <polyline id="Fill-5165" fill="#FEFEFE" points="15.1017143 15.208 14.9268571 15.208 14.9268571 15.2925714 15.1017143 15.208"></polyline>
                <polyline id="Fill-5166" fill="#FEFEFE" points="15.1017143 15.208 14.96 15.3074286 14.9097143 15.2365714 15.1017143 15.208"></polyline>
                <polyline id="Fill-5167" fill="#FEFEFE" points="14.7748571 15.208 14.9097143 15.3074286 14.96 15.2365714 14.7748571 15.208"></polyline>
                <polyline id="Fill-5168" fill="#FEFEFE" points="14.7748571 15.208 14.9462857 15.208 14.9462857 15.2925714 14.7748571 15.208"></polyline>
                <polyline id="Fill-5169" fill="#FEFEFE" points="15.04 15.4 14.984 15.2354286 14.9005714 15.2617143 15.04 15.4"></polyline>
                <polyline id="Fill-5170" fill="#FEFEFE" points="15.04 15.4 14.8994286 15.296 14.9462857 15.2308571 15.04 15.4"></polyline>
                <polyline id="Fill-5171" fill="#FEFEFE" points="14.8365714 15.4 14.9725714 15.296 14.9222857 15.2308571 14.8365714 15.4"></polyline>
                <polyline id="Fill-5172" fill="#FEFEFE" points="14.8365714 15.4 14.8891429 15.2354286 14.9725714 15.2617143 14.8365714 15.4"></polyline>
                <polyline id="Fill-5173" fill="#FEFEFE" points="9.688 11.9954286 9.61942857 12.1965714 9.72228571 12.2285714 9.688 11.9954286"></polyline>
                <polyline id="Fill-5174" fill="#FEFEFE" points="9.688 11.9954286 9.752 12.1965714 9.65142857 12.2285714 9.688 11.9954286"></polyline>
                <polyline id="Fill-5175" fill="#FEFEFE" points="9.89028571 12.1417143 9.67771429 12.1417143 9.67771429 12.2491429 9.89028571 12.1417143"></polyline>
                <polyline id="Fill-5176" fill="#FEFEFE" points="9.89028571 12.1417143 9.71771429 12.2708571 9.656 12.1817143 9.89028571 12.1417143"></polyline>
                <polyline id="Fill-5177" fill="#FEFEFE" points="9.48228571 12.1417143 9.656 12.2708571 9.71771429 12.1817143 9.48228571 12.1417143"></polyline>
                <polyline id="Fill-5178" fill="#FEFEFE" points="9.48228571 12.1417143 9.69485714 12.1417143 9.69485714 12.2491429 9.48228571 12.1417143"></polyline>
                <polyline id="Fill-5179" fill="#FEFEFE" points="9.81028571 12.3805714 9.74971429 12.1782857 9.64685714 12.2114286 9.81028571 12.3805714"></polyline>
                <polyline id="Fill-5180" fill="#FEFEFE" points="9.81028571 12.3805714 9.63657143 12.2548571 9.69942857 12.1691429 9.81028571 12.3805714"></polyline>
                <polyline id="Fill-5181" fill="#FEFEFE" points="9.55771429 12.3805714 9.73485714 12.2548571 9.672 12.1691429 9.55771429 12.3805714"></polyline>
                <polyline id="Fill-5182" fill="#FEFEFE" points="9.55771429 12.3805714 9.62742857 12.1782857 9.72571429 12.2114286 9.55771429 12.3805714"></polyline>
                <polyline id="Fill-5183" fill="#FEFEFE" points="13.5897143 11.4902857 13.5428571 11.6548571 13.6217143 11.6788571 13.5897143 11.4902857"></polyline>
                <polyline id="Fill-5184" fill="#FEFEFE" points="13.5897143 11.4902857 13.648 11.6548571 13.5645714 11.6788571 13.5897143 11.4902857"></polyline>
                <polyline id="Fill-5185" fill="#FEFEFE" points="13.7577143 11.6114286 13.5851429 11.6114286 13.5851429 11.6948571 13.7577143 11.6114286"></polyline>
                <polyline id="Fill-5186" fill="#FEFEFE" points="13.7577143 11.6114286 13.6171429 11.712 13.5691429 11.6422857 13.7577143 11.6114286"></polyline>
                <polyline id="Fill-5187" fill="#FEFEFE" points="13.4297143 11.6114286 13.5691429 11.712 13.6171429 11.6422857 13.4297143 11.6114286"></polyline>
                <polyline id="Fill-5188" fill="#FEFEFE" points="13.4297143 11.6114286 13.6045714 11.6114286 13.6045714 11.6948571 13.4297143 11.6114286"></polyline>
                <polyline id="Fill-5189" fill="#FEFEFE" points="13.6948571 11.8022857 13.6377143 11.6388571 13.56 11.6651429 13.6948571 11.8022857"></polyline>
                <polyline id="Fill-5190" fill="#FEFEFE" points="13.6948571 11.8022857 13.5542857 11.6994286 13.6045714 11.6297143 13.6948571 11.8022857"></polyline>
                <polyline id="Fill-5191" fill="#FEFEFE" points="13.4914286 11.8022857 13.6308571 11.6994286 13.5805714 11.6297143 13.4914286 11.8022857"></polyline>
                <polyline id="Fill-5192" fill="#FEFEFE" points="13.4914286 11.8022857 13.5451429 11.6388571 13.6251429 11.6651429 13.4914286 11.8022857"></polyline>
                <polyline id="Fill-5193" fill="#FEFEFE" points="11.9645714 14.3931429 11.8834286 14.6365714 12.0068571 14.6765714 11.9645714 14.3931429"></polyline>
                <polyline id="Fill-5194" fill="#FEFEFE" points="11.9645714 14.3931429 12.0434286 14.6365714 11.9245714 14.6765714 11.9645714 14.3931429"></polyline>
                <polyline id="Fill-5195" fill="#FEFEFE" points="12.2068571 14.5691429 11.9542857 14.5691429 11.9542857 14.6982857 12.2068571 14.5691429"></polyline>
                <polyline id="Fill-5196" fill="#FEFEFE" points="12.2068571 14.5691429 12.0022857 14.7222857 11.9291429 14.6171429 12.2068571 14.5691429"></polyline>
                <polyline id="Fill-5197" fill="#FEFEFE" points="11.7211429 14.5691429 11.9337143 14.7222857 12.0022857 14.6171429 11.7211429 14.5691429"></polyline>
                <polyline id="Fill-5198" fill="#FEFEFE" points="11.7211429 14.5691429 11.976 14.5691429 11.976 14.6982857 11.7211429 14.5691429"></polyline>
                <polyline id="Fill-5199" fill="#FEFEFE" points="12.1142857 14.8571429 12.0388571 14.616 11.9142857 14.6537143 12.1142857 14.8571429"></polyline>
                <polyline id="Fill-5200" fill="#FEFEFE" points="12.1142857 14.8571429 11.9097143 14.7062857 11.9817143 14.6034286 12.1142857 14.8571429"></polyline>
                <polyline id="Fill-5201" fill="#FEFEFE" points="11.8137143 14.8571429 12.0217143 14.7062857 11.9451429 14.6034286 11.8137143 14.8571429"></polyline>
                <polyline id="Fill-5202" fill="#FEFEFE" points="11.8137143 14.8571429 11.8937143 14.616 12.0171429 14.6537143 11.8137143 14.8571429"></polyline>
                <polyline id="Fill-5203" fill="#FEFEFE" points="12.6582857 13.248 12.592 13.4514286 12.6948571 13.4822857 12.6582857 13.248"></polyline>
                <polyline id="Fill-5204" fill="#FEFEFE" points="12.6582857 13.248 12.7257143 13.4514286 12.6228571 13.4822857 12.6582857 13.248"></polyline>
                <polyline id="Fill-5205" fill="#FEFEFE" points="12.8605714 13.3965714 12.6445714 13.3965714 12.6445714 13.4994286 12.8605714 13.3965714"></polyline>
                <polyline id="Fill-5206" fill="#FEFEFE" points="12.8605714 13.3965714 12.6857143 13.52 12.6228571 13.4354286 12.8605714 13.3965714"></polyline>
                <polyline id="Fill-5207" fill="#FEFEFE" points="12.456 13.3965714 12.6285714 13.52 12.6902857 13.4354286 12.456 13.3965714"></polyline>
                <polyline id="Fill-5208" fill="#FEFEFE" points="12.456 13.3965714 12.6685714 13.3965714 12.6685714 13.4994286 12.456 13.3965714"></polyline>
                <polyline id="Fill-5209" fill="#FEFEFE" points="12.7828571 13.6342857 12.7165714 13.4297143 12.616 13.4651429 12.7828571 13.6342857"></polyline>
                <polyline id="Fill-5210" fill="#FEFEFE" points="12.7828571 13.6342857 12.6102857 13.5074286 12.6731429 13.4205714 12.7828571 13.6342857"></polyline>
                <polyline id="Fill-5211" fill="#FEFEFE" points="12.5302857 13.6342857 12.7051429 13.5074286 12.6422857 13.4205714 12.5302857 13.6342857"></polyline>
                <polyline id="Fill-5212" fill="#FEFEFE" points="12.5302857 13.6342857 12.5977143 13.4297143 12.6994286 13.4651429 12.5302857 13.6342857"></polyline>
                <polyline id="Fill-5213" fill="#FEFEFE" points="11.9645714 12.7131429 11.8971429 12.9131429 12 12.9462857 11.9645714 12.7131429"></polyline>
                <polyline id="Fill-5214" fill="#FEFEFE" points="11.9645714 12.7131429 12.0297143 12.9131429 11.9337143 12.9462857 11.9645714 12.7131429"></polyline>
                <polyline id="Fill-5215" fill="#FEFEFE" points="12.1668571 12.8582857 11.9542857 12.8582857 11.9542857 12.9657143 12.1668571 12.8582857"></polyline>
                <polyline id="Fill-5216" fill="#FEFEFE" points="12.1668571 12.8582857 11.9965714 12.9828571 11.9337143 12.8971429 12.1668571 12.8582857"></polyline>
                <polyline id="Fill-5217" fill="#FEFEFE" points="11.7645714 12.8582857 11.9382857 12.9828571 11.9965714 12.8971429 11.7645714 12.8582857"></polyline>
                <polyline id="Fill-5218" fill="#FEFEFE" points="11.7645714 12.8582857 11.976 12.8582857 11.976 12.9657143 11.7645714 12.8582857"></polyline>
                <polyline id="Fill-5219" fill="#FEFEFE" points="12.0914286 13.096 12.0274286 12.8937143 11.9245714 12.9257143 12.0914286 13.096"></polyline>
                <polyline id="Fill-5220" fill="#FEFEFE" points="12.0914286 13.096 11.9188571 12.9714286 11.9817143 12.8845714 12.0914286 13.096"></polyline>
                <polyline id="Fill-5221" fill="#FEFEFE" points="11.8411429 13.096 12.0125714 12.9714286 11.9497143 12.8845714 11.8411429 13.096"></polyline>
                <polyline id="Fill-5222" fill="#FEFEFE" points="11.8411429 13.096 11.904 12.8937143 12.0068571 12.9257143 11.8411429 13.096"></polyline>
                <polyline id="Fill-5223" fill="#FEFEFE" points="11.36 13.2902857 11.3085714 13.4537143 11.3908571 13.4811429 11.36 13.2902857"></polyline>
                <polyline id="Fill-5224" fill="#FEFEFE" points="11.36 13.2902857 11.4182857 13.4537143 11.3337143 13.4811429 11.36 13.2902857"></polyline>
                <polyline id="Fill-5225" fill="#FEFEFE" points="11.5257143 13.408 11.3554286 13.408 11.3554286 13.4925714 11.5257143 13.408"></polyline>
                <polyline id="Fill-5226" fill="#FEFEFE" points="11.5257143 13.408 11.3862857 13.5085714 11.3337143 13.4388571 11.5257143 13.408"></polyline>
                <polyline id="Fill-5227" fill="#FEFEFE" points="11.2022857 13.408 11.3382857 13.5085714 11.3862857 13.4388571 11.2022857 13.408"></polyline>
                <polyline id="Fill-5228" fill="#FEFEFE" points="11.2022857 13.408 11.3702857 13.408 11.3702857 13.4925714 11.2022857 13.408"></polyline>
                <polyline id="Fill-5229" fill="#FEFEFE" points="11.4628571 13.6 11.4137143 13.4377143 11.3302857 13.4628571 11.4628571 13.6"></polyline>
                <polyline id="Fill-5230" fill="#FEFEFE" points="11.4628571 13.6 11.3268571 13.4982857 11.3794286 13.4297143 11.4628571 13.6"></polyline>
                <polyline id="Fill-5231" fill="#FEFEFE" points="11.2651429 13.6 11.4011429 13.4982857 11.3508571 13.4297143 11.2651429 13.6"></polyline>
                <polyline id="Fill-5232" fill="#FEFEFE" points="11.2651429 13.6 11.3177143 13.4377143 11.3965714 13.4628571 11.2651429 13.6"></polyline>
                <polyline id="Fill-5233" fill="#FEFEFE" points="11.6662857 13.7542857 11.6285714 13.8697143 11.6857143 13.888 11.6662857 13.7542857"></polyline>
                <polyline id="Fill-5234" fill="#FEFEFE" points="11.6662857 13.7542857 11.7017143 13.8697143 11.6434286 13.888 11.6662857 13.7542857"></polyline>
                <polyline id="Fill-5235" fill="#FEFEFE" points="11.7805714 13.8388571 11.6594286 13.8388571 11.6594286 13.8994286 11.7805714 13.8388571"></polyline>
                <polyline id="Fill-5236" fill="#FEFEFE" points="11.7805714 13.8388571 11.6857143 13.9097143 11.6491429 13.8605714 11.7805714 13.8388571"></polyline>
                <polyline id="Fill-5237" fill="#FEFEFE" points="11.5462857 13.8388571 11.6491429 13.9097143 11.6857143 13.8605714 11.5462857 13.8388571"></polyline>
                <polyline id="Fill-5238" fill="#FEFEFE" points="11.5462857 13.8388571 11.6708571 13.8388571 11.6708571 13.8994286 11.5462857 13.8388571"></polyline>
                <polyline id="Fill-5239" fill="#FEFEFE" points="11.7337143 13.976 11.6971429 13.8594286 11.6388571 13.8777143 11.7337143 13.976"></polyline>
                <polyline id="Fill-5240" fill="#FEFEFE" points="11.7337143 13.976 11.6354286 13.9051429 11.6754286 13.8548571 11.7337143 13.976"></polyline>
                <polyline id="Fill-5241" fill="#FEFEFE" points="11.5908571 13.976 11.6902857 13.9051429 11.6537143 13.8548571 11.5908571 13.976"></polyline>
                <polyline id="Fill-5242" fill="#FEFEFE" points="11.5908571 13.976 11.6331429 13.8594286 11.6902857 13.8777143 11.5908571 13.976"></polyline>
                <polyline id="Fill-5243" fill="#FEFEFE" points="13.7577143 15.7782857 13.6902857 15.9828571 13.7931429 16.0171429 13.7577143 15.7782857"></polyline>
                <polyline id="Fill-5244" fill="#FEFEFE" points="13.7577143 15.7782857 13.8251429 15.9828571 13.72 16.0171429 13.7577143 15.7782857"></polyline>
                <polyline id="Fill-5245" fill="#FEFEFE" points="13.9577143 15.9245714 13.7451429 15.9245714 13.7451429 16.0342857 13.9577143 15.9245714"></polyline>
                <polyline id="Fill-5246" fill="#FEFEFE" points="13.9577143 15.9245714 13.7862857 16.0525714 13.7245714 15.9634286 13.9577143 15.9245714"></polyline>
                <polyline id="Fill-5247" fill="#FEFEFE" points="13.5542857 15.9245714 13.7245714 16.0525714 13.7908571 15.9634286 13.5542857 15.9245714"></polyline>
                <polyline id="Fill-5248" fill="#FEFEFE" points="13.5542857 15.9245714 13.7668571 15.9245714 13.7668571 16.0342857 13.5542857 15.9245714"></polyline>
                <polyline id="Fill-5249" fill="#FEFEFE" points="13.8811429 16.1657143 13.8148571 15.9622857 13.7142857 15.9954286 13.8811429 16.1657143"></polyline>
                <polyline id="Fill-5250" fill="#FEFEFE" points="13.8811429 16.1657143 13.7097143 16.0411429 13.7725714 15.9542857 13.8811429 16.1657143"></polyline>
                <polyline id="Fill-5251" fill="#FEFEFE" points="13.6308571 16.1657143 13.8022857 16.0411429 13.7405714 15.9542857 13.6308571 16.1657143"></polyline>
                <polyline id="Fill-5252" fill="#FEFEFE" points="13.6308571 16.1657143 13.6948571 15.9622857 13.7977143 15.9954286 13.6308571 16.1657143"></polyline>
                <polyline id="Fill-5253" fill="#FEFEFE" points="14.2685714 15.2925714 14.216 15.456 14.2937143 15.4834286 14.2685714 15.2925714"></polyline>
                <polyline id="Fill-5254" fill="#FEFEFE" points="14.2685714 15.2925714 14.3211429 15.456 14.2365714 15.4834286 14.2685714 15.2925714"></polyline>
                <polyline id="Fill-5255" fill="#FEFEFE" points="14.4308571 15.4125714 14.2582857 15.4125714 14.2582857 15.4937143 14.4308571 15.4125714"></polyline>
                <polyline id="Fill-5256" fill="#FEFEFE" points="14.4308571 15.4125714 14.2937143 15.5108571 14.2411429 15.4434286 14.4308571 15.4125714"></polyline>
                <polyline id="Fill-5257" fill="#FEFEFE" points="14.1028571 15.4125714 14.2411429 15.5108571 14.2937143 15.4434286 14.1028571 15.4125714"></polyline>
                <polyline id="Fill-5258" fill="#FEFEFE" points="14.1028571 15.4125714 14.2777143 15.4125714 14.2777143 15.4937143 14.1028571 15.4125714"></polyline>
                <polyline id="Fill-5259" fill="#FEFEFE" points="14.3691429 15.6011429 14.3165714 15.4388571 14.2365714 15.4662857 14.3691429 15.6011429"></polyline>
                <polyline id="Fill-5260" fill="#FEFEFE" points="14.3691429 15.6011429 14.2331429 15.5005714 14.2834286 15.432 14.3691429 15.6011429"></polyline>
                <polyline id="Fill-5261" fill="#FEFEFE" points="14.1702857 15.6011429 14.3062857 15.5005714 14.2537143 15.432 14.1702857 15.6011429"></polyline>
                <polyline id="Fill-5262" fill="#FEFEFE" points="14.1702857 15.6011429 14.2228571 15.4388571 14.304 15.4662857 14.1702857 15.6011429"></polyline>
                <polyline id="Fill-5263" fill="#FEFEFE" points="13.2845714 15.1462857 13.232 15.3074286 13.3108571 15.336 13.2845714 15.1462857"></polyline>
                <polyline id="Fill-5264" fill="#FEFEFE" points="13.2845714 15.1462857 13.3371429 15.3074286 13.2582857 15.336 13.2845714 15.1462857"></polyline>
                <polyline id="Fill-5265" fill="#FEFEFE" points="13.4445714 15.264 13.2742857 15.264 13.2742857 15.3508571 13.4445714 15.264"></polyline>
                <polyline id="Fill-5266" fill="#FEFEFE" points="13.4445714 15.264 13.3062857 15.3668571 13.2582857 15.2948571 13.4445714 15.264"></polyline>
                <polyline id="Fill-5267" fill="#FEFEFE" points="13.12 15.264 13.2582857 15.3668571 13.3062857 15.2948571 13.12 15.264"></polyline>
                <polyline id="Fill-5268" fill="#FEFEFE" points="13.12 15.264 13.2937143 15.264 13.2937143 15.3508571 13.12 15.264"></polyline>
                <polyline id="Fill-5269" fill="#FEFEFE" points="13.3851429 15.456 13.3325714 15.2925714 13.2491429 15.3211429 13.3851429 15.456"></polyline>
                <polyline id="Fill-5270" fill="#FEFEFE" points="13.3851429 15.456 13.2445714 15.3554286 13.2971429 15.2868571 13.3851429 15.456"></polyline>
                <polyline id="Fill-5271" fill="#FEFEFE" points="13.1817143 15.456 13.32 15.3554286 13.2697143 15.2868571 13.1817143 15.456"></polyline>
                <polyline id="Fill-5272" fill="#FEFEFE" points="13.1817143 15.456 13.2342857 15.2925714 13.32 15.3211429 13.1817143 15.456"></polyline>
                <polyline id="Fill-5273" fill="#FEFEFE" points="9.56228571 14.8811429 9.48685714 15.1245714 9.60571429 15.1645714 9.56228571 14.8811429"></polyline>
                <polyline id="Fill-5274" fill="#FEFEFE" points="9.56228571 14.8811429 9.64228571 15.1245714 9.52228571 15.1645714 9.56228571 14.8811429"></polyline>
                <polyline id="Fill-5275" fill="#FEFEFE" points="9.81028571 15.0605714 9.55314286 15.0605714 9.55314286 15.1874286 9.81028571 15.0605714"></polyline>
                <polyline id="Fill-5276" fill="#FEFEFE" points="9.81028571 15.0605714 9.59885714 15.2091429 9.52685714 15.1062857 9.81028571 15.0605714"></polyline>
                <polyline id="Fill-5277" fill="#FEFEFE" points="9.31657143 15.0605714 9.53142857 15.2091429 9.60114286 15.1062857 9.31657143 15.0605714"></polyline>
                <polyline id="Fill-5278" fill="#FEFEFE" points="9.31657143 15.0605714 9.57485714 15.0605714 9.57485714 15.1874286 9.31657143 15.0605714"></polyline>
                <polyline id="Fill-5279" fill="#FEFEFE" points="9.71314286 15.3462857 9.63657143 15.104 9.51771429 15.1417143 9.71314286 15.3462857"></polyline>
                <polyline id="Fill-5280" fill="#FEFEFE" points="9.71314286 15.3462857 9.50742857 15.1954286 9.57942857 15.0914286 9.71314286 15.3462857"></polyline>
                <polyline id="Fill-5281" fill="#FEFEFE" points="9.41257143 15.3462857 9.61942857 15.1954286 9.544 15.0914286 9.41257143 15.3462857"></polyline>
                <polyline id="Fill-5282" fill="#FEFEFE" points="9.41257143 15.3462857 9.496 15.104 9.61485714 15.1417143 9.41257143 15.3462857"></polyline>
                <polyline id="Fill-5283" fill="#FEFEFE" points="11.9645714 16.5565714 11.9382857 16.64 11.976 16.6537143 11.9645714 16.5565714"></polyline>
                <polyline id="Fill-5284" fill="#FEFEFE" points="11.9645714 16.5565714 11.9908571 16.64 11.9542857 16.6537143 11.9645714 16.5565714"></polyline>
                <polyline id="Fill-5285" fill="#FEFEFE" points="12.048 16.6171429 11.96 16.6171429 11.96 16.6594286 12.048 16.6171429"></polyline>
                <polyline id="Fill-5286" fill="#FEFEFE" points="12.048 16.6171429 11.976 16.6685714 11.9542857 16.6331429 12.048 16.6171429"></polyline>
                <polyline id="Fill-5287" fill="#FEFEFE" points="11.8834286 16.6171429 11.9542857 16.6685714 11.976 16.6331429 11.8834286 16.6171429"></polyline>
                <polyline id="Fill-5288" fill="#FEFEFE" points="11.8834286 16.6171429 11.9668571 16.6171429 11.9668571 16.6594286 11.8834286 16.6171429"></polyline>
                <polyline id="Fill-5289" fill="#FEFEFE" points="12.0125714 16.712 11.9908571 16.632 11.9497143 16.6457143 12.0125714 16.712"></polyline>
                <polyline id="Fill-5290" fill="#FEFEFE" points="12.0125714 16.712 11.9451429 16.6628571 11.9668571 16.6308571 12.0125714 16.712"></polyline>
                <polyline id="Fill-5291" fill="#FEFEFE" points="11.9142857 16.712 11.9817143 16.6628571 11.96 16.6308571 11.9142857 16.712"></polyline>
                <polyline id="Fill-5292" fill="#FEFEFE" points="11.9142857 16.712 11.9428571 16.632 11.9817143 16.6457143 11.9142857 16.712"></polyline>
            </g>
        </g>
    </g>
</svg>