<?xml version="1.0" encoding="UTF-8"?>
<svg width="24px" height="24px" viewBox="0 0 24 24" version="1.1" xmlns="http://www.w3.org/2000/svg" xmlns:xlink="http://www.w3.org/1999/xlink">
    <title>0country/country_canada_1</title>
    <defs>
        <path d="M24,12 C24,18.62736 18.62736,24 12,24 C5.37252,24 0,18.62736 0,12 C0,5.37252 5.37252,0 12,0 C18.62736,0 24,5.37252 24,12 L24,12 Z" id="path-1"></path>
    </defs>
    <g id="0资源库" stroke="none" stroke-width="1" fill="none" fill-rule="evenodd">
        <g id="国旗" transform="translate(-172.000000, -20.000000)">
            <g id="加拿大" transform="translate(172.000000, 20.000000)">
                <mask id="mask-2" fill="white">
                    <use xlink:href="#path-1"></use>
                </mask>
                <g id="Clip-1032"></g>
                <polygon id="Fill-1031" fill="#D8232E" mask="url(#mask-2)" points="0 24 24 24 24 0 0 0"></polygon>
                <polygon id="Fill-1033" fill="#FFFFFE" mask="url(#mask-2)" points="5.00004 24 18.99996 24 18.99996 0 5.00004 0"></polygon>
                <path d="M11.99952,6.075 L11.02176,7.97532 C10.91052,8.18184 10.71132,8.16264 10.51272,8.04684 L9.8046,7.665 L10.33272,10.58448 C10.4436,11.11716 10.08696,11.11716 9.91164,10.88676 L8.67576,9.4458 L8.47524,10.17708 C8.45196,10.2738 8.35008,10.37472 8.19768,10.35036 L6.63468,10.00836 L7.04556,11.56248 C7.1334,11.9082 7.20168,12.0522 6.95676,12.14328 L6.39996,12.4152 L9.08988,14.69172 C9.19608,14.77812 9.25032,14.9328 9.21192,15.07248 L8.97636,15.87756 C9.90276,15.76632 10.73376,15.66696 11.65932,15.5556 C11.74152,15.55464 11.87856,15.62808 11.87796,15.7266 L11.75472,18.675 L12.20508,18.675 L12.13416,15.73224 C12.13356,15.63408 12.25752,15.55464 12.33984,15.5556 C13.26624,15.66696 14.0964,15.76632 15.02268,15.87756 L14.78724,15.07248 C14.74932,14.9328 14.80308,14.77812 14.90964,14.69172 L17.60004,12.4152 L17.04276,12.14328 C16.79748,12.0522 16.86612,11.9082 16.95396,11.56248 L17.36448,10.00836 L15.80184,10.35036 C15.64908,10.37472 15.5472,10.2738 15.52476,10.17708 L15.32376,9.4458 L14.08788,10.88676 C13.9122,11.11716 13.55592,11.11716 13.66728,10.58448 L14.19456,7.665 L13.48692,8.04684 C13.28772,8.16264 13.08864,8.18184 12.97836,7.97532 L11.99952,6.075" id="Fill-1034" fill="#D8232E" mask="url(#mask-2)"></path>
            </g>
        </g>
    </g>
</svg>