<?xml version="1.0" encoding="UTF-8"?>
<svg width="24px" height="24px" viewBox="0 0 24 24" version="1.1" xmlns="http://www.w3.org/2000/svg" xmlns:xlink="http://www.w3.org/1999/xlink">
    <title>0country/country_china_86</title>
    <g id="0资源库" stroke="none" stroke-width="1" fill="none" fill-rule="evenodd">
        <g id="国旗" transform="translate(-28.000000, -20.000000)" fill-rule="nonzero">
            <g id="0country/country_86" transform="translate(28.000000, 20.000000)">
                <circle id="椭圆形" fill="#D80027" cx="12" cy="12" r="12"></circle>
                <path d="M6.5671875,7.303125 L7.603125,10.490625 L10.9546875,10.490625 L8.2453125,12.4640625 L9.28125,15.6515625 L6.5671875,13.6828125 L3.853125,15.6515625 L4.89375,12.4640625 L2.1796875,10.490625 L5.53125,10.490625 L6.5671875,7.303125 Z M14.2265625,18.5859375 L13.434375,17.6109375 L12.2625,18.065625 L12.9421875,17.0109375 L12.15,16.03125 L13.3640625,16.3546875 L14.0484375,15.3 L14.1140625,16.55625 L15.3328125,16.8796875 L14.15625,17.3296875 L14.2265625,18.5859375 Z M15.8015625,15.7265625 L16.1765625,14.5265625 L15.15,13.8 L16.40625,13.78125 L16.7765625,12.58125 L17.184375,13.771875 L18.440625,13.7578125 L17.4328125,14.5078125 L17.8359375,15.6984375 L16.809375,14.971875 L15.8015625,15.7265625 Z M17.925,8.8078125 L17.371875,9.9375 L18.271875,10.8140625 L17.0296875,10.6359375 L16.4765625,11.7609375 L16.2609375,10.5234375 L15.0140625,10.3453125 L16.1296875,9.759375 L15.9140625,8.5171875 L16.8140625,9.39375 L17.925,8.8078125 Z M14.259375,5.3859375 L14.165625,6.6375 L15.3328125,7.1109375 L14.109375,7.4109375 L14.0203125,8.6671875 L13.359375,7.5984375 L12.1359375,7.8984375 L12.946875,6.9375 L12.28125,5.8734375 L13.4484375,6.346875 L14.259375,5.3859375 Z" id="形状" fill="#FFDA44"></path>
            </g>
        </g>
    </g>
</svg>