<?xml version="1.0" encoding="UTF-8"?>
<svg width="24px" height="24px" viewBox="0 0 24 24" version="1.1" xmlns="http://www.w3.org/2000/svg" xmlns:xlink="http://www.w3.org/1999/xlink">
    <title>0country/country_japan_81</title>
    <defs>
        <path d="M24,12 C24,18.6276 18.6276,24 12,24 C5.3724,24 0,18.6276 0,12 C0,5.3724 5.3724,0 12,0 C18.6276,0 24,5.3724 24,12 L24,12 Z" id="path-1"></path>
    </defs>
    <g id="0资源库" stroke="none" stroke-width="1" fill="none" fill-rule="evenodd">
        <g id="国旗" transform="translate(-316.000000, -20.000000)">
            <g id="编组" transform="translate(316.000000, 20.000000)">
                <g id="日本" transform="translate(0.000000, 0.000000)">
                    <mask id="mask-2" fill="white">
                        <use xlink:href="#path-1"></use>
                    </mask>
                    <g id="Clip-859"></g>
                    <polygon id="Fill-858" fill="#FFFFFE" mask="url(#mask-2)" points="0 24 24 24 24 0 0 0"></polygon>
                    <path d="M18,12 C18,15.3132 15.3132,18 12,18 C8.6868,18 6,15.3132 6,12 C6,8.6868 8.6868,6 12,6 C15.3132,6 18,8.6868 18,12" id="Fill-860" fill="#BB2535" mask="url(#mask-2)"></path>
                </g>
            </g>
        </g>
    </g>
</svg>