<?xml version="1.0" encoding="UTF-8"?>
<svg width="24px" height="24px" viewBox="0 0 24 24" version="1.1" xmlns="http://www.w3.org/2000/svg" xmlns:xlink="http://www.w3.org/1999/xlink">
    <title>0country/country_singapore_65</title>
    <defs>
        <path d="M24,12 C24,18.6276 18.62736,24 12,24 C5.37252,24 0,18.6276 0,12 C0,5.3724 5.37252,0 12,0 C18.62736,0 24,5.3724 24,12 L24,12 Z" id="path-1"></path>
    </defs>
    <g id="0资源库" stroke="none" stroke-width="1" fill="none" fill-rule="evenodd">
        <g id="国旗" transform="translate(-124.000000, -84.000000)">
            <g id="编组" transform="translate(124.000000, 84.000000)">
                <g id="新加坡" transform="translate(0.000000, 0.000000)">
                    <mask id="mask-2" fill="white">
                        <use xlink:href="#path-1"></use>
                    </mask>
                    <g id="Clip-697"></g>
                    <polygon id="Fill-696" fill="#FFFFFE" mask="url(#mask-2)" points="0 24 24 24 24 12 0 12"></polygon>
                    <polygon id="Fill-698" fill="#CE2431" mask="url(#mask-2)" points="0 12 24 12 24 0 0 0"></polygon>
                    <path d="M8.92692,6 C8.92692,3.9372 10.3152,2.1996 12.20796,1.668 C11.92836,1.6128 11.63952,1.5828 11.3436,1.5828 C8.90436,1.5828 6.92688,3.5604 6.92688,6 C6.92688,8.4396 8.90436,10.4172 11.3436,10.4172 C11.63952,10.4172 11.92836,10.3872 12.20796,10.332 C10.3152,9.8004 8.92692,8.0628 8.92692,6" id="Fill-699" fill="#FFFFFE" mask="url(#mask-2)"></path>
                    <polyline id="Fill-700" fill="#FFFFFE" mask="url(#mask-2)" points="15.42012 7.6248 15.1806 6.888 14.9412 7.6248 14.16612 7.6248 14.79312 8.0808 14.5536 8.8176 15.1806 8.3628 15.80772 8.8176 15.5682 8.0808 16.1952 7.6248 15.42012 7.6248"></polyline>
                    <polyline id="Fill-701" fill="#FFFFFE" mask="url(#mask-2)" points="12.57936 7.6248 12.33984 6.888 12.10032 7.6248 11.32524 7.6248 11.95236 8.0808 11.71284 8.8176 12.33984 8.3628 12.96696 8.8176 12.72744 8.0808 13.35444 7.6248 12.57936 7.6248"></polyline>
                    <polyline id="Fill-702" fill="#FFFFFE" mask="url(#mask-2)" points="17.07312 4.9236 16.29804 4.9236 16.05852 4.1868 15.819 4.9236 15.04404 4.9236 15.67092 5.3796 15.4314 6.1164 16.05852 5.6604 16.68552 6.1164 16.446 5.3796 17.07312 4.9236"></polyline>
                    <polyline id="Fill-703" fill="#FFFFFE" mask="url(#mask-2)" points="11.70156 4.9236 11.46204 4.1868 11.22252 4.9236 10.44744 4.9236 11.07444 5.3796 10.83504 6.1164 11.46204 5.6604 12.08904 6.1164 11.84952 5.3796 12.47652 4.9236 11.70156 4.9236"></polyline>
                    <polyline id="Fill-704" fill="#FFFFFE" mask="url(#mask-2)" points="14.14776 3.7092 14.77488 3.2544 13.9998 3.2544 13.76016 2.5164 13.52076 3.2544 12.74568 3.2544 13.37268 3.7092 13.13328 4.446 13.76016 3.9912 14.38728 4.446 14.14776 3.7092"></polyline>
                </g>
            </g>
        </g>
    </g>
</svg>