<?xml version="1.0" encoding="UTF-8"?>
<svg width="24px" height="24px" viewBox="0 0 24 24" version="1.1" xmlns="http://www.w3.org/2000/svg" xmlns:xlink="http://www.w3.org/1999/xlink">
    <title>0country/country_turkey_90</title>
    <g id="0资源库" stroke="none" stroke-width="1" fill="none" fill-rule="evenodd">
        <g id="国旗" transform="translate(-220.000000, -84.000000)">
            <g id="土耳其" transform="translate(220.000000, 84.000000)">
                <path d="M11.7898939,0 C18.30142,0 23.5797879,5.27836783 23.5797879,11.7898939 C23.5797879,18.3002939 18.30142,23.5797879 11.7898939,23.5797879 C5.27836783,23.5797879 -2.32541259e-14,18.3002939 -2.32541259e-14,11.7898939 C-2.32541259e-14,5.27836783 5.27836783,0 11.7898939,0" id="Fill-9020" fill="#D3262F"></path>
                <path d="M9.26764687,5.8853745 C11.3668313,5.8853745 13.211501,6.98226596 14.2577147,8.63436018 C13.3939408,7.67035701 12.1393853,7.06222417 10.7418059,7.06222417 C8.13584408,7.06222417 6.02089319,9.18280591 6.02089319,11.7865154 C6.02089319,14.3958558 8.13584408,16.5119328 10.7418059,16.5119328 C12.1382591,16.5119328 13.3905623,15.9071785 14.2543362,14.9454277 C13.2069963,16.5941434 11.364579,17.6887825 9.26764687,17.6887825 C6.0085053,17.6887825 3.36763213,15.0467832 3.36763213,11.7865154 C3.36763213,8.52737385 6.0085053,5.88650068 9.26764687,5.8853745" id="Fill-9021" fill="#FEFEFE"></path>
                <polygon id="星形" fill="#FFFFFF" transform="translate(16.640141, 11.294715) rotate(-15.000000) translate(-16.640141, -11.294715) " points="16.6401407 12.75119 14.8767849 14.0082409 15.5274045 11.9427398 13.7869711 10.654139 15.9524319 10.6346401 16.6401407 8.58118995 17.3278494 10.6346401 19.4933102 10.654139 17.7528768 11.9427398 18.4034964 14.0082409"></polygon>
            </g>
        </g>
    </g>
</svg>