<?xml version="1.0" encoding="UTF-8"?>
<svg width="24px" height="24px" viewBox="0 0 24 24" version="1.1" xmlns="http://www.w3.org/2000/svg" xmlns:xlink="http://www.w3.org/1999/xlink">
    <title>0country/country_usa_1</title>
    <defs>
        <path d="M24,12 C24,18.6276 18.6276,24 12,24 C5.3724,24 0,18.6276 0,12 C0,5.3724 5.3724,0 12,0 C18.6276,0 24,5.3724 24,12 L24,12 Z" id="path-1"></path>
    </defs>
    <g id="0资源库" stroke="none" stroke-width="1" fill="none" fill-rule="evenodd">
        <g id="国旗" transform="translate(-268.000000, -84.000000)">
            <g id="美国" transform="translate(268.000000, 84.000000)">
                <mask id="mask-2" fill="white">
                    <use xlink:href="#path-1"></use>
                </mask>
                <g id="Clip-63"></g>
                <polygon id="Fill-62" fill="#AC252F" mask="url(#mask-2)" points="0 1.8456 24 1.8456 24 0 0 0"></polygon>
                <polygon id="Fill-64" fill="#AC252F" mask="url(#mask-2)" points="0 24 24 24 24 22.1544 0 22.1544"></polygon>
                <polygon id="Fill-65" fill="#AC252F" mask="url(#mask-2)" points="0 20.3076 24 20.3076 24 18.462 0 18.462"></polygon>
                <polygon id="Fill-66" fill="#AC252F" mask="url(#mask-2)" points="0 16.6152 24 16.6152 24 14.7696 0 14.7696"></polygon>
                <polygon id="Fill-67" fill="#AC252F" mask="url(#mask-2)" points="0 12.9228 24 12.9228 24 11.0772 0 11.0772"></polygon>
                <polygon id="Fill-68" fill="#AC252F" mask="url(#mask-2)" points="0 9.2304 24 9.2304 24 7.3848 0 7.3848"></polygon>
                <polygon id="Fill-69" fill="#AC252F" mask="url(#mask-2)" points="0 5.538 24 5.538 24 3.6924 0 3.6924"></polygon>
                <polygon id="Fill-70" fill="#FFFFFE" mask="url(#mask-2)" points="0 22.1544 24 22.1544 24 20.3076 0 20.3076"></polygon>
                <polygon id="Fill-71" fill="#FFFFFE" mask="url(#mask-2)" points="0 18.462 24 18.462 24 16.6152 0 16.6152"></polygon>
                <polygon id="Fill-72" fill="#FFFFFE" mask="url(#mask-2)" points="0 14.7696 24 14.7696 24 12.9228 0 12.9228"></polygon>
                <polygon id="Fill-73" fill="#FFFFFE" mask="url(#mask-2)" points="0 11.0772 24 11.0772 24 9.2304 0 9.2304"></polygon>
                <polygon id="Fill-74" fill="#FFFFFE" mask="url(#mask-2)" points="0 7.3848 24 7.3848 24 5.538 0 5.538"></polygon>
                <polygon id="Fill-75" fill="#FFFFFE" mask="url(#mask-2)" points="0 3.6924 24 3.6924 24 1.8456 0 1.8456"></polygon>
                <polygon id="Fill-76" fill="#253A60" mask="url(#mask-2)" points="0 12.9228 12 12.9228 12 0 0 0"></polygon>
                <polyline id="Fill-77" fill="#FFFFFE" mask="url(#mask-2)" points="1.3596 0.5532 1.194 1.0644 0.6564 1.0644 1.092 1.38 0.9252 1.89 1.3596 1.5744 1.794 1.89 1.6284 1.38 2.0628 1.0644 1.5264 1.0644 1.3596 0.5532"></polyline>
                <polyline id="Fill-78" fill="#FFFFFE" mask="url(#mask-2)" points="4.4004 0.5532 4.2336 1.0644 3.6972 1.0644 4.1316 1.38 3.966 1.89 4.4004 1.5744 4.8348 1.89 4.668 1.38 5.1036 1.0644 4.566 1.0644 4.4004 0.5532"></polyline>
                <polyline id="Fill-79" fill="#FFFFFE" mask="url(#mask-2)" points="7.44 0.5532 7.2744 1.0644 6.7368 1.0644 7.1712 1.38 7.0056 1.89 7.44 1.5744 7.8744 1.89 7.7088 1.38 8.1432 1.0644 7.6056 1.0644 7.44 0.5532"></polyline>
                <polyline id="Fill-80" fill="#FFFFFE" mask="url(#mask-2)" points="10.0452 1.89 10.4796 1.5744 10.914 1.89 10.7484 1.38 11.1828 1.0644 10.6464 1.0644 10.4796 0.5532 10.314 1.0644 9.7764 1.0644 10.212 1.38 10.0452 1.89"></polyline>
                <polyline id="Fill-81" fill="#FFFFFE" mask="url(#mask-2)" points="1.3596 3.138 1.194 3.6492 0.6564 3.6492 1.092 3.9648 0.9252 4.4748 1.3596 4.1592 1.794 4.4748 1.6284 3.9648 2.0628 3.6492 1.5264 3.6492 1.3596 3.138"></polyline>
                <polyline id="Fill-82" fill="#FFFFFE" mask="url(#mask-2)" points="4.4004 3.138 4.2336 3.6492 3.6972 3.6492 4.1316 3.9648 3.966 4.4748 4.4004 4.1592 4.8348 4.4748 4.668 3.9648 5.1036 3.6492 4.566 3.6492 4.4004 3.138"></polyline>
                <polyline id="Fill-83" fill="#FFFFFE" mask="url(#mask-2)" points="7.44 3.138 7.2744 3.6492 6.7368 3.6492 7.1712 3.9648 7.0056 4.4748 7.44 4.1592 7.8744 4.4748 7.7088 3.9648 8.1432 3.6492 7.6056 3.6492 7.44 3.138"></polyline>
                <polyline id="Fill-84" fill="#FFFFFE" mask="url(#mask-2)" points="10.4796 3.138 10.314 3.6492 9.7764 3.6492 10.212 3.9648 10.0452 4.4748 10.4796 4.1592 10.914 4.4748 10.7484 3.9648 11.1828 3.6492 10.6464 3.6492 10.4796 3.138"></polyline>
                <polyline id="Fill-85" fill="#FFFFFE" mask="url(#mask-2)" points="1.3596 5.7228 1.194 6.2328 0.6564 6.2328 1.092 6.5484 0.9252 7.0596 1.3596 6.744 1.794 7.0596 1.6284 6.5484 2.0628 6.2328 1.5264 6.2328 1.3596 5.7228"></polyline>
                <polyline id="Fill-86" fill="#FFFFFE" mask="url(#mask-2)" points="4.4004 5.7228 4.2336 6.2328 3.6972 6.2328 4.1316 6.5484 3.966 7.0596 4.4004 6.744 4.8348 7.0596 4.668 6.5484 5.1036 6.2328 4.566 6.2328 4.4004 5.7228"></polyline>
                <polyline id="Fill-87" fill="#FFFFFE" mask="url(#mask-2)" points="7.44 5.7228 7.2744 6.2328 6.7368 6.2328 7.1712 6.5484 7.0056 7.0596 7.44 6.744 7.8744 7.0596 7.7088 6.5484 8.1432 6.2328 7.6056 6.2328 7.44 5.7228"></polyline>
                <polyline id="Fill-88" fill="#FFFFFE" mask="url(#mask-2)" points="10.4796 5.7228 10.314 6.2328 9.7764 6.2328 10.212 6.5484 10.0452 7.0596 10.4796 6.744 10.914 7.0596 10.7484 6.5484 11.1828 6.2328 10.6464 6.2328 10.4796 5.7228"></polyline>
                <polyline id="Fill-89" fill="#FFFFFE" mask="url(#mask-2)" points="1.3596 8.3064 1.194 8.8176 0.6564 8.8176 1.092 9.1332 0.9252 9.6444 1.3596 9.3288 1.794 9.6444 1.6284 9.1332 2.0628 8.8176 1.5264 8.8176 1.3596 8.3064"></polyline>
                <polyline id="Fill-90" fill="#FFFFFE" mask="url(#mask-2)" points="4.4004 8.3064 4.2336 8.8176 3.6972 8.8176 4.1316 9.1332 3.966 9.6444 4.4004 9.3288 4.8348 9.6444 4.668 9.1332 5.1036 8.8176 4.566 8.8176 4.4004 8.3064"></polyline>
                <polyline id="Fill-91" fill="#FFFFFE" mask="url(#mask-2)" points="7.44 8.3064 7.2744 8.8176 6.7368 8.8176 7.1712 9.1332 7.0056 9.6444 7.44 9.3288 7.8744 9.6444 7.7088 9.1332 8.1432 8.8176 7.6056 8.8176 7.44 8.3064"></polyline>
                <polyline id="Fill-92" fill="#FFFFFE" mask="url(#mask-2)" points="10.4796 8.3064 10.314 8.8176 9.7764 8.8176 10.212 9.1332 10.0452 9.6444 10.4796 9.3288 10.914 9.6444 10.7484 9.1332 11.1828 8.8176 10.6464 8.8176 10.4796 8.3064"></polyline>
                <polyline id="Fill-93" fill="#FFFFFE" mask="url(#mask-2)" points="1.5264 11.4024 1.3596 10.8912 1.194 11.4024 0.6564 11.4024 1.092 11.718 0.9252 12.2292 1.3596 11.9136 1.794 12.2292 1.6284 11.718 2.0628 11.4024 1.5264 11.4024"></polyline>
                <polyline id="Fill-94" fill="#FFFFFE" mask="url(#mask-2)" points="4.566 11.4024 4.4004 10.8912 4.2336 11.4024 3.6972 11.4024 4.1316 11.718 3.966 12.2292 4.4004 11.9136 4.8348 12.2292 4.668 11.718 5.1036 11.4024 4.566 11.4024"></polyline>
                <polyline id="Fill-95" fill="#FFFFFE" mask="url(#mask-2)" points="7.6056 11.4024 7.44 10.8912 7.2744 11.4024 6.7368 11.4024 7.1712 11.718 7.0056 12.2292 7.44 11.9136 7.8744 12.2292 7.7088 11.718 8.1432 11.4024 7.6056 11.4024"></polyline>
                <polyline id="Fill-96" fill="#FFFFFE" mask="url(#mask-2)" points="10.6464 11.4024 10.4796 10.8912 10.314 11.4024 9.7764 11.4024 10.212 11.718 10.0452 12.2292 10.4796 11.9136 10.914 12.2292 10.7484 11.718 11.1828 11.4024 10.6464 11.4024"></polyline>
                <polyline id="Fill-97" fill="#FFFFFE" mask="url(#mask-2)" points="-0.1596 1.8456 -0.3264 2.3568 -0.8628 2.3568 -0.4284 2.6724 -0.594 3.1824 -0.1596 2.8668 0.2748 3.1824 0.108 2.6724 0.5436 2.3568 0.006 2.3568 -0.1596 1.8456"></polyline>
                <polyline id="Fill-98" fill="#FFFFFE" mask="url(#mask-2)" points="2.88 1.8456 2.7144 2.3568 2.1768 2.3568 2.6112 2.6724 2.4456 3.1824 2.88 2.8668 3.3144 3.1824 3.1488 2.6724 3.5832 2.3568 3.0456 2.3568 2.88 1.8456"></polyline>
                <polyline id="Fill-99" fill="#FFFFFE" mask="url(#mask-2)" points="5.9196 1.8456 5.754 2.3568 5.2164 2.3568 5.652 2.6724 5.4852 3.1824 5.9196 2.8668 6.354 3.1824 6.1884 2.6724 6.6228 2.3568 6.0864 2.3568 5.9196 1.8456"></polyline>
                <polyline id="Fill-100" fill="#FFFFFE" mask="url(#mask-2)" points="8.9604 1.8456 8.7936 2.3568 8.2572 2.3568 8.6916 2.6724 8.526 3.1824 8.9604 2.8668 9.3948 3.1824 9.228 2.6724 9.6636 2.3568 9.126 2.3568 8.9604 1.8456"></polyline>
                <polyline id="Fill-101" fill="#FFFFFE" mask="url(#mask-2)" points="-0.1596 4.4304 -0.3264 4.9404 -0.8628 4.9404 -0.4284 5.256 -0.594 5.7672 -0.1596 5.4516 0.2748 5.7672 0.108 5.256 0.5436 4.9404 0.006 4.9404 -0.1596 4.4304"></polyline>
                <polyline id="Fill-102" fill="#FFFFFE" mask="url(#mask-2)" points="2.88 4.4304 2.7144 4.9404 2.1768 4.9404 2.6112 5.256 2.4456 5.7672 2.88 5.4516 3.3144 5.7672 3.1488 5.256 3.5832 4.9404 3.0456 4.9404 2.88 4.4304"></polyline>
                <polyline id="Fill-103" fill="#FFFFFE" mask="url(#mask-2)" points="5.9196 4.4304 5.754 4.9404 5.2164 4.9404 5.652 5.256 5.4852 5.7672 5.9196 5.4516 6.354 5.7672 6.1884 5.256 6.6228 4.9404 6.0864 4.9404 5.9196 4.4304"></polyline>
                <polyline id="Fill-104" fill="#FFFFFE" mask="url(#mask-2)" points="8.9604 4.4304 8.7936 4.9404 8.2572 4.9404 8.6916 5.256 8.526 5.7672 8.9604 5.4516 9.3948 5.7672 9.228 5.256 9.6636 4.9404 9.126 4.9404 8.9604 4.4304"></polyline>
                <polyline id="Fill-105" fill="#FFFFFE" mask="url(#mask-2)" points="-0.1596 7.0152 -0.3264 7.5252 -0.8628 7.5252 -0.4284 7.8408 -0.594 8.352 -0.1596 8.0364 0.2748 8.352 0.108 7.8408 0.5436 7.5252 0.006 7.5252 -0.1596 7.0152"></polyline>
                <polyline id="Fill-106" fill="#FFFFFE" mask="url(#mask-2)" points="2.88 7.0152 2.7144 7.5252 2.1768 7.5252 2.6112 7.8408 2.4456 8.352 2.88 8.0364 3.3144 8.352 3.1488 7.8408 3.5832 7.5252 3.0456 7.5252 2.88 7.0152"></polyline>
                <polyline id="Fill-107" fill="#FFFFFE" mask="url(#mask-2)" points="5.9196 7.0152 5.754 7.5252 5.2164 7.5252 5.652 7.8408 5.4852 8.352 5.9196 8.0364 6.354 8.352 6.1884 7.8408 6.6228 7.5252 6.0864 7.5252 5.9196 7.0152"></polyline>
                <polyline id="Fill-108" fill="#FFFFFE" mask="url(#mask-2)" points="8.9604 7.0152 8.7936 7.5252 8.2572 7.5252 8.6916 7.8408 8.526 8.352 8.9604 8.0364 9.3948 8.352 9.228 7.8408 9.6636 7.5252 9.126 7.5252 8.9604 7.0152"></polyline>
                <polyline id="Fill-109" fill="#FFFFFE" mask="url(#mask-2)" points="0.006 10.11 -0.1596 9.5988 -0.3264 10.11 -0.8628 10.11 -0.4284 10.4256 -0.594 10.9368 -0.1596 10.6212 0.2748 10.9368 0.108 10.4256 0.5436 10.11 0.006 10.11"></polyline>
                <polyline id="Fill-110" fill="#FFFFFE" mask="url(#mask-2)" points="3.0456 10.11 2.88 9.5988 2.7144 10.11 2.1768 10.11 2.6112 10.4256 2.4456 10.9368 2.88 10.6212 3.3144 10.9368 3.1488 10.4256 3.5832 10.11 3.0456 10.11"></polyline>
                <polyline id="Fill-111" fill="#FFFFFE" mask="url(#mask-2)" points="6.0864 10.11 5.9196 9.5988 5.754 10.11 5.2164 10.11 5.652 10.4256 5.4852 10.9368 5.9196 10.6212 6.354 10.9368 6.1884 10.4256 6.6228 10.11 6.0864 10.11"></polyline>
                <polyline id="Fill-112" fill="#FFFFFE" mask="url(#mask-2)" points="9.126 10.11 8.9604 9.5988 8.7936 10.11 8.2572 10.11 8.6916 10.4256 8.526 10.9368 8.9604 10.6212 9.3948 10.9368 9.228 10.4256 9.6636 10.11 9.126 10.11"></polyline>
            </g>
        </g>
    </g>
</svg>