<svg width="32" height="32" viewBox="0 0 32 32" fill="none" xmlns="http://www.w3.org/2000/svg">
<path d="M7.85766 5.86687C8.07939 5.68907 8.30837 5.51729 8.54452 5.35194C9.66443 4.56781 10.865 3.98482 12.1034 3.59542C13.3337 3.20928 14.6429 3.00112 16.0007 3.00112C18.161 3.00112 20.1982 3.52807 21.9909 4.46044C23.6098 5.30249 25.0293 6.47521 26.1597 7.88908C26.3285 8.10089 26.4918 8.31926 26.6492 8.54415C26.6599 8.55932 26.6707 8.57423 26.6818 8.58889C28.1417 10.6887 28.9981 13.2396 29.0001 15.9903L29.0001 16V16.9999C29.0001 19.485 26.9855 21.4996 24.5003 21.4996H19.0005C18.1721 21.4996 17.5006 20.828 17.5006 19.9997V10.5005H23.5003C24.3287 10.5005 25.0003 9.82899 25.0003 9.00064C25.0003 8.17228 24.3287 7.50076 23.5003 7.50076H17.0006C15.6199 7.50076 14.5007 8.61996 14.5007 10.0006V19.9997C14.5007 22.4848 16.5153 24.4993 19.0005 24.4993H24.5003C28.6422 24.4993 32 21.1417 32 16.9999V16.0103L32 16C32 12.2208 30.6896 8.74762 28.4983 6.01008C25.6037 2.38206 21.4009 0.322468 17.0447 0.034894C15.0934 -0.0939216 13.1112 0.132817 11.2021 0.733406C9.27998 1.33691 7.51414 2.29337 5.98055 3.52682C2.58024 6.26165 0.321661 10.3582 0.0327835 14.9886C-0.0900358 16.908 0.131208 18.8567 0.713926 20.7359C1.31718 22.6851 2.28303 24.475 3.53265 26.0268C6.26342 29.4178 10.3494 31.6716 14.968 31.9658C18.4729 32.1947 22.0765 31.2766 25.1775 29.1053C25.8561 28.6302 26.021 27.6949 25.5459 27.0164C25.0708 26.3378 24.1355 26.1729 23.4569 26.6481C21.2007 28.2278 18.6171 28.9911 16.0568 28.9999C16.0382 28.9992 16.0195 28.9989 16.0007 28.9989C13.8294 28.9989 11.7825 28.4666 9.98336 27.5254C8.39069 26.6923 6.99213 25.5387 5.87326 24.1503C5.69326 23.9262 5.51943 23.6947 5.35217 23.4559C4.55473 22.317 3.96531 21.0948 3.57596 19.8342C3.20234 18.6222 3.0012 17.3346 3.0012 16C3.0012 13.8273 3.53427 11.7792 4.47675 9.97911C5.31132 8.38518 6.4669 6.98582 7.85766 5.86687Z" fill="#FF4A4A"/>
<path d="M10.1967 7.10476C9.61096 6.51903 8.66126 6.51903 8.07549 7.10476C7.48973 7.6905 7.48973 8.64017 8.07549 9.2259L10.9038 12.0541C11.4896 12.6398 12.4393 12.6398 13.025 12.0541C13.6108 11.4684 13.6108 10.5187 13.025 9.93295L10.1967 7.10476Z" fill="#FF4A4A"/>
<path d="M9.35844 13.2659C8.77268 12.6802 7.82297 12.6802 7.23721 13.2659C6.65145 13.8516 6.65145 14.8013 7.23721 15.387L9.35844 17.5082C9.94421 18.0939 9.94421 19.0436 9.35844 19.6293L7.23721 21.7505C6.65145 22.3362 6.65145 23.2859 7.23721 23.8716C7.82297 24.4573 8.77268 24.4573 9.35844 23.8716L11.4797 21.7505C13.237 19.9932 13.237 17.1442 11.4797 15.387L9.35844 13.2659Z" fill="#FF4A4A"/>
</svg>
