<svg width="125" height="32" viewBox="0 0 125 32" fill="none" xmlns="http://www.w3.org/2000/svg">
<g clip-path="url(#clip0_5153_408)">
<path d="M7.85766 5.86687C8.07939 5.68907 8.30837 5.51729 8.54452 5.35194C9.66443 4.56781 10.865 3.98482 12.1034 3.59542C13.3337 3.20928 14.6429 3.00112 16.0007 3.00112C18.161 3.00112 20.1982 3.52807 21.9909 4.46044C23.6098 5.30249 25.0293 6.47521 26.1597 7.88908C26.3285 8.10089 26.4918 8.31926 26.6492 8.54415C26.6599 8.55932 26.6707 8.57423 26.6818 8.58889C28.1417 10.6887 28.9981 13.2396 29.0001 15.9903L29.0001 16V16.9999C29.0001 19.485 26.9855 21.4996 24.5003 21.4996H19.0005C18.1721 21.4996 17.5006 20.828 17.5006 19.9997V10.5005H23.5003C24.3287 10.5005 25.0003 9.82899 25.0003 9.00064C25.0003 8.17228 24.3287 7.50076 23.5003 7.50076H17.0006C15.6199 7.50076 14.5007 8.61996 14.5007 10.0006V19.9997C14.5007 22.4848 16.5153 24.4993 19.0005 24.4993H24.5003C28.6422 24.4993 32 21.1417 32 16.9999V16.0103L32 16C32 12.2208 30.6896 8.74762 28.4983 6.01008C25.6037 2.38206 21.4009 0.322468 17.0447 0.034894C15.0934 -0.0939216 13.1112 0.132817 11.2021 0.733406C9.27998 1.33691 7.51414 2.29337 5.98055 3.52682C2.58024 6.26165 0.321661 10.3582 0.0327835 14.9886C-0.0900358 16.908 0.131208 18.8567 0.713926 20.7359C1.31718 22.6851 2.28303 24.475 3.53265 26.0268C6.26342 29.4178 10.3494 31.6716 14.968 31.9658C18.4729 32.1947 22.0765 31.2766 25.1775 29.1053C25.8561 28.6302 26.021 27.6949 25.5459 27.0164C25.0708 26.3378 24.1355 26.1729 23.4569 26.6481C21.2007 28.2278 18.6171 28.9911 16.0568 28.9999C16.0382 28.9992 16.0195 28.9989 16.0007 28.9989C13.8294 28.9989 11.7825 28.4666 9.98336 27.5254C8.39069 26.6923 6.99213 25.5387 5.87326 24.1503C5.69326 23.9262 5.51943 23.6947 5.35217 23.4559C4.55473 22.317 3.96531 21.0948 3.57596 19.8342C3.20234 18.6222 3.0012 17.3346 3.0012 16C3.0012 13.8273 3.53427 11.7792 4.47675 9.97911C5.31132 8.38518 6.4669 6.98582 7.85766 5.86687Z" fill="#FF4A4A"/>
<path d="M10.1967 7.10476C9.61096 6.51903 8.66126 6.51903 8.07549 7.10476C7.48973 7.6905 7.48973 8.64017 8.07549 9.2259L10.9038 12.0541C11.4896 12.6398 12.4393 12.6398 13.025 12.0541C13.6108 11.4684 13.6108 10.5187 13.025 9.93295L10.1967 7.10476Z" fill="#FF4A4A"/>
<path d="M9.35844 13.2659C8.77268 12.6802 7.82297 12.6802 7.23721 13.2659C6.65145 13.8516 6.65145 14.8013 7.23721 15.387L9.35844 17.5082C9.94421 18.0939 9.94421 19.0436 9.35844 19.6293L7.23721 21.7505C6.65145 22.3362 6.65145 23.2859 7.23721 23.8716C7.82297 24.4573 8.77268 24.4573 9.35844 23.8716L11.4797 21.7505C13.237 19.9932 13.237 17.1442 11.4797 15.387L9.35844 13.2659Z" fill="#FF4A4A"/>
</g>
<path d="M58.8462 6.51488C59.712 6.51488 60.1449 6.94789 60.1449 7.81389V7.90049C60.1449 8.7665 59.712 9.1995 58.8462 9.1995H49.6041V23.1205H58.8462C59.712 23.1205 60.1449 23.5535 60.1449 24.4195V24.5061C60.1449 25.3721 59.712 25.8051 58.8462 25.8051H49.3011C48.5075 25.8051 47.9015 25.5959 47.483 25.1773C47.0645 24.7732 46.8553 24.167 46.8553 23.3587V8.96135C46.8553 8.16751 47.0573 7.56131 47.4614 7.14274C47.8798 6.72417 48.4931 6.51488 49.3011 6.51488H58.8462ZM43.4572 17.1884C44.3085 17.3905 44.626 17.9101 44.4095 18.7472C44.1354 19.8874 43.8323 21.006 43.5005 22.103C43.1686 23.1999 42.88 24.0515 42.6347 24.6577C42.3317 25.4804 41.7761 25.7402 40.9681 25.4371L40.8815 25.3938C40.0735 25.0907 39.8209 24.5278 40.124 23.7051C40.7589 21.8865 41.3216 20.0318 41.8122 18.141C41.9998 17.3039 42.5193 16.9863 43.3706 17.1884H43.4572ZM41.3793 6.14683C42.1874 5.81486 42.7501 6.0458 43.0676 6.83964L43.8035 8.52835C44.1354 9.33662 43.9045 9.89952 43.1109 10.2171L43.0243 10.2604C42.2162 10.5923 41.6535 10.3614 41.336 9.56755L40.6001 7.87884C40.2683 7.07057 40.4991 6.50767 41.2928 6.19013L41.3793 6.14683ZM41.3793 11.7759C42.1874 11.4439 42.7501 11.6748 43.0676 12.4687L43.8035 14.1574C44.1354 14.9656 43.9045 15.5286 43.1109 15.8461L43.0243 15.8894C42.2162 16.2214 41.6535 15.9904 41.336 15.1966L40.6001 13.5079C40.2683 12.6996 40.4991 12.1367 41.2928 11.8192L41.3793 11.7759Z" fill="black"/>
<path d="M68.6727 8.78815C68.6727 8.05204 68.8603 7.48914 69.2354 7.09944C69.625 6.70974 70.195 6.51488 70.9453 6.51488H78.8455C79.5814 6.51488 80.1441 6.70974 80.5337 7.09944C80.9233 7.47471 81.1181 8.03761 81.1181 8.78815V12.1656C81.1181 12.9017 80.9233 13.4646 80.5337 13.8543C80.1586 14.244 79.5958 14.4388 78.8455 14.4388H70.9453C70.2094 14.4388 69.6467 14.2512 69.2571 13.8759C68.8675 13.4862 68.6727 12.9161 68.6727 12.1656V8.78815ZM78.5208 8.983H71.27V11.9707H78.5208V8.983ZM65.3178 13.6811C66.1548 13.6811 66.5732 14.0996 66.5732 14.9368V24.7443C66.5732 25.5814 66.1548 26 65.3178 26H65.2313C64.3944 26 63.9759 25.5814 63.9759 24.7443V14.9368C63.9759 14.0996 64.3944 13.6811 65.2313 13.6811H65.3178ZM71.9626 17.5781C72.7851 17.6936 73.1098 18.1482 72.9366 18.9421C72.6625 20.1833 72.244 21.3524 71.6812 22.4494C71.1185 23.5463 70.5269 24.3979 69.9064 25.0041C69.3725 25.6247 68.8026 25.6464 68.1965 25.069L68.1532 25.0257C67.5761 24.4628 67.5544 23.8711 68.0883 23.2504C68.6799 22.5288 69.1777 21.7638 69.5818 20.9555C69.9858 20.1472 70.2816 19.3606 70.4692 18.5957C70.6135 17.8162 71.0824 17.4771 71.876 17.5781H71.9626ZM66.8329 6.27673C67.237 6.4788 67.5039 6.6953 67.6338 6.92624C67.7781 7.14274 67.7853 7.43862 67.6554 7.81389C66.7175 10.8305 65.3972 14.0996 63.6945 17.6214C63.5358 17.9389 63.341 18.1554 63.1101 18.2709C62.8937 18.3864 62.6772 18.408 62.4608 18.3359C62.2444 18.2493 62.0784 18.0833 61.963 17.8379L61.8981 17.708C61.7105 17.3183 61.6095 16.943 61.595 16.5822C61.595 16.2069 61.696 15.81 61.8981 15.3914C62.5474 14.0347 63.1679 12.5986 63.7595 11.0831C64.3655 9.56755 64.8417 8.23246 65.188 7.07779C65.3178 6.65922 65.5199 6.37055 65.794 6.21178C66.0682 6.05302 66.3856 6.06023 66.7464 6.23343L66.8329 6.27673ZM74.9495 13.2264C75.7864 13.2264 76.2049 13.645 76.2049 14.4821V24.7226C76.2049 25.5598 75.7864 25.9783 74.9495 25.9783H74.8629C74.026 25.9783 73.6076 25.5598 73.6076 24.7226V14.4821C73.6076 13.645 74.026 13.2264 74.8629 13.2264H74.9495ZM80.7285 16.3224C81.5222 16.3224 81.919 16.7193 81.919 17.5131V17.5997C81.919 18.3936 81.5222 18.7905 80.7285 18.7905H69.0623C68.2687 18.7905 67.8719 18.3936 67.8719 17.5997V17.5131C67.8719 16.7193 68.2687 16.3224 69.0623 16.3224H80.7285ZM77.9148 17.5781C78.694 17.4482 79.1701 17.7802 79.3433 18.574C79.5886 19.5699 79.9277 20.4936 80.3606 21.3452C80.7935 22.1824 81.2408 22.8246 81.7025 23.2721C82.2364 23.8927 82.2148 24.4773 81.6376 25.0257L81.5943 25.069C80.9883 25.6464 80.4183 25.6247 79.8844 25.0041C79.1341 24.1092 78.4992 23.1422 77.9797 22.103C77.4747 21.0638 77.0995 20.0173 76.8542 18.9637C76.7099 18.1699 77.0346 17.708 77.8282 17.5781H77.9148Z" fill="black"/>
<path d="M100.923 6.29838C101.644 6.29838 102.192 6.48602 102.568 6.86129C102.943 7.22212 103.13 7.77059 103.13 8.5067V10.4119C103.13 11.1336 102.943 11.682 102.568 12.0573C102.207 12.4326 101.659 12.6202 100.923 12.6202H99.9053C99.1117 12.6202 98.7149 12.2233 98.7149 11.4295V11.3429C98.7149 10.549 99.1117 10.1521 99.9053 10.1521H100.685V8.7665H95.6414V24.8092C95.6414 25.5886 95.2518 25.9783 94.4726 25.9783H94.386C93.5924 25.9783 93.1956 25.5814 93.1956 24.7876V8.5067C93.1956 7.78503 93.376 7.23656 93.7367 6.86129C94.1119 6.48602 94.6674 6.29838 95.4033 6.29838H100.923ZM100.706 13.5728C101.63 13.5728 102.315 13.811 102.762 14.2873C103.21 14.7491 103.376 15.442 103.26 16.3657C102.943 18.3431 102.279 20.1328 101.269 21.7349C100.259 23.3226 99.0468 24.6216 97.6327 25.6319C96.9689 26.0794 96.435 25.9495 96.031 25.2422L95.9877 25.1556C95.6125 24.4773 95.7568 23.9144 96.4206 23.4669C97.6182 22.6009 98.5922 21.5617 99.3426 20.3493C100.107 19.1225 100.62 17.6936 100.879 16.0626H95.6414C94.8334 16.0626 94.4293 15.6585 94.4293 14.8502V14.7852C94.4293 13.977 94.8334 13.5728 95.6414 13.5728H100.706ZM97.0483 16.7337C97.4234 16.6327 97.7337 16.6471 97.979 16.777C98.2243 16.9069 98.4047 17.1595 98.5201 17.5348C99.0396 19.0792 99.6744 20.3421 100.425 21.3236C101.19 22.305 101.99 23.0411 102.827 23.5319C103.491 23.9938 103.621 24.5567 103.217 25.2206L103.174 25.3072C102.755 25.9856 102.221 26.101 101.572 25.6536C100.345 24.7732 99.2849 23.7267 98.3902 22.5143C97.4956 21.2875 96.7597 19.8586 96.1825 18.2276C95.9516 17.4771 96.2114 16.9935 96.9617 16.777L97.0483 16.7337ZM89.4295 6.32003C90.1654 6.32003 90.721 6.50767 91.0961 6.88294C91.4857 7.25821 91.6805 7.82111 91.6805 8.57165V23.5102C91.6805 24.2463 91.4929 24.802 91.1178 25.1773C90.7426 25.567 90.1798 25.7618 89.4295 25.7618H89.0616C88.2247 25.7618 87.8062 25.3433 87.8062 24.5061V24.4195C87.8062 23.5824 88.2247 23.1638 89.0616 23.1638H89.2996V8.91805H86.9404V16.0626C86.9404 17.5492 86.8394 19.0359 86.6374 20.5225C86.4498 22.0092 86.154 23.4597 85.75 24.8742C85.5336 25.6103 85.0574 25.8484 84.3215 25.5886L84.2349 25.5453C83.5134 25.2855 83.2609 24.7804 83.4773 24.0298C83.8525 22.7308 84.1267 21.4246 84.2998 20.1112C84.473 18.7833 84.5596 17.4338 84.5596 16.0626V8.57165C84.5596 7.83554 84.7471 7.27986 85.1223 6.90459C85.4975 6.51488 86.0602 6.32003 86.8106 6.32003H89.4295ZM89.1914 17.2533C90.0283 17.2533 90.4468 17.6719 90.4468 18.5091V18.5957C90.4468 19.4328 90.0283 19.8514 89.1914 19.8514H87.027C86.1901 19.8514 85.7716 19.4328 85.7716 18.5957V18.5091C85.7716 17.6719 86.1901 17.2533 87.027 17.2533H89.1914ZM89.1914 11.9058C90.0283 11.9058 90.4468 12.3243 90.4468 13.1615V13.2481C90.4468 14.0852 90.0283 14.5038 89.1914 14.5038H87.027C86.1901 14.5038 85.7716 14.0852 85.7716 13.2481V13.1615C85.7716 12.3243 86.1901 11.9058 87.027 11.9058H89.1914Z" fill="black"/>
<path d="M108.693 6.06023C109.515 6.06023 109.927 6.45715 109.927 7.25099L109.775 7.09944H120.013C120.806 7.09944 121.427 7.25821 121.874 7.57574C122.322 7.89328 122.516 8.34793 122.459 8.9397C122.415 9.53147 122.069 10.2171 121.42 10.9965C119.876 12.512 117.841 13.7532 115.316 14.7203C112.791 15.6729 109.941 16.308 106.767 16.6255C105.973 16.7121 105.54 16.3513 105.468 15.543V15.4564C105.439 15.0522 105.511 14.7491 105.684 14.5471C105.857 14.3306 106.146 14.2007 106.55 14.1574C109.494 13.8687 112.026 13.3419 114.147 12.5769C116.283 11.8119 118 10.816 119.299 9.5892H109.645C108.909 9.5892 108.347 9.40157 107.957 9.0263C107.567 8.6366 107.373 8.06648 107.373 7.31594V7.09944C107.373 6.40663 107.784 6.06023 108.606 6.06023H108.693ZM110.944 10.0222C112.82 11.1624 114.811 12.0717 116.918 12.7501C119.024 13.4141 121.355 13.8831 123.909 14.1574C124.702 14.2151 125.063 14.6481 124.991 15.4564V15.543C124.919 16.3513 124.486 16.7121 123.692 16.6255C120.734 16.3224 118.05 15.7811 115.641 15.0017C113.245 14.2079 111.204 13.2409 109.515 12.1006C108.837 11.6676 108.722 11.1191 109.169 10.4552L109.212 10.3686C109.66 9.70467 110.237 9.5892 110.944 10.0222ZM114.342 15.7162C115.193 15.7162 115.59 16.1348 115.532 16.9719C115.33 19.1946 114.53 21.0926 113.13 22.6659C111.73 24.2247 109.696 25.2928 107.026 25.8701C106.233 26.0144 105.771 25.6897 105.641 24.8958V24.8092C105.511 24.0154 105.843 23.5463 106.637 23.402C108.859 22.9112 110.439 22.103 111.377 20.9772C112.329 19.8369 112.849 18.5018 112.935 16.9719C112.964 16.5533 113.087 16.243 113.303 16.0409C113.52 15.8244 113.837 15.7162 114.255 15.7162H114.342ZM121.55 17.5131C123.079 17.5131 123.844 18.2781 123.844 19.8081V23.5752C123.844 25.1051 123.079 25.8701 121.55 25.8701H119.731C118.923 25.8701 118.519 25.466 118.519 24.6577V24.5711C118.519 23.7628 118.923 23.3587 119.731 23.3587H121.247V20.0246H107.697C106.889 20.0246 106.485 19.6204 106.485 18.8122V18.7256C106.485 17.9173 106.889 17.5131 107.697 17.5131H121.55Z" fill="black"/>
<defs>
<clipPath id="clip0_5153_408">
<rect width="32" height="32" fill="white"/>
</clipPath>
</defs>
</svg>
