<svg viewBox="0 0 24 24" fill="none" xmlns="http://www.w3.org/2000/svg">
<path d="M12.0049 0C5.38504 0 0 5.38286 0 12C0 18.6171 5.38504 24 12.0049 24C15.896 24 19.3605 22.1402 21.5555 19.263C21.0248 19.4199 20.4755 19.5519 19.9975 19.6054C18.8127 19.7379 17.0943 19.4964 16.3558 19.3763C15.0801 20.1341 13.5927 20.5714 12.0049 20.5714C7.27581 20.5714 3.42996 16.7271 3.42996 12C3.42996 7.27286 7.27581 3.42857 12.0049 3.42857C16.7339 3.42857 20.5798 7.27286 20.5798 12C20.5798 12.4586 20.5419 12.9083 20.4701 13.3473C21.0865 13.157 21.8158 12.8754 22.5651 12.4618C23.11 12.161 23.5903 11.832 24 11.5133C23.7437 5.1209 18.4616 0 12.0049 0Z" fill="#fff"/>
<path fill-rule="evenodd" clip-rule="evenodd" d="M23.937 13.3258C23.7125 13.4846 23.4891 13.6287 23.2749 13.7469C21.9532 14.4764 20.2966 14.969 18.8134 15.2186C17.0898 15.5057 14.4016 15.1757 13.274 13.6671C13.8399 13.6114 14.3501 13.47 14.8003 13.2471C15.4048 12.9471 15.8764 12.5186 16.2152 11.9657C16.5539 11.4086 16.7211 10.7529 16.7211 9.99429C16.7211 9.23571 16.5581 8.58429 16.228 8.02286C15.9022 7.46143 15.4434 7.02429 14.8517 6.71571C14.2601 6.40714 13.5741 6.24857 12.7852 6.24857H8.21048V17.7H11.0874V13.8086C11.2031 14.3486 11.4389 14.82 11.7176 15.2186C12.7647 16.5557 14.2348 17.4081 15.8338 17.8616L15.8331 17.8555C15.8331 17.8555 17.5946 18.3971 19.8343 18.1466C21.0218 18.0138 22.029 17.6935 22.7132 17.4219C23.3517 16.1669 23.7758 14.7853 23.937 13.3258ZM12.9738 11.28C12.7337 11.4 12.4465 11.46 12.1078 11.46H11.0916V8.54143H12.1078C12.4465 8.54143 12.7337 8.59714 12.9738 8.71286C13.2139 8.82857 13.3983 8.99572 13.5269 9.21C13.6555 9.42429 13.7199 9.68571 13.7199 9.99C13.7199 10.2943 13.6555 10.5514 13.5269 10.77C13.3983 10.9929 13.2139 11.16 12.9738 11.28Z" fill="#fff"/>
</svg>