<svg width="64" height="64" viewBox="0 0 64 64" fill="none" xmlns="http://www.w3.org/2000/svg">
<path d="M22.0957 30.7139C20.8131 28.5122 21.5743 25.6971 23.7957 24.426L35.4451 17.7603C37.6665 16.4892 40.5071 17.2435 41.7896 19.4451C43.0722 21.6467 42.311 24.4619 40.0896 25.733L28.4402 32.3987C26.2188 33.6698 23.3782 32.9155 22.0957 30.7139Z" fill="white"/>
<path d="M21.4804 44.5547C20.1979 42.3531 20.959 39.5379 23.1805 38.2668L34.8299 31.6011C37.0514 30.33 39.8919 31.0843 41.1744 33.2859C42.457 35.4876 41.6958 38.3027 39.4744 39.5738L27.825 46.2395C25.6036 47.5106 22.7631 46.7563 21.4804 44.5547Z" fill="white"/>
<path opacity="0.2" d="M32.0006 6H9.71484V58H32.0006V6Z" fill="white"/>
<path opacity="0.1" d="M54.2867 6H32.001V58H54.2867V6Z" fill="white"/>
</svg>
