<svg width="64" height="64" viewBox="0 0 64 64" fill="none" xmlns="http://www.w3.org/2000/svg">
<path opacity="0.5" d="M50.359 10.5156H13.6406V53.4846H50.359V10.5156Z" stroke="white" stroke-width="7.03122"/>
<path d="M16.3749 7H10.125V13.25H16.3749V7Z" fill="white"/>
<path opacity="0.8" d="M22.6249 7H16.375V13.25H22.6249V7Z" fill="white"/>
<path opacity="0.6" d="M28.8749 7H22.625V13.25H28.8749V7Z" fill="white"/>
<path opacity="0.5" d="M35.1249 7H28.875V13.25H35.1249V7Z" fill="white"/>
<path opacity="0.4" d="M41.3749 7H35.125V13.25H41.3749V7Z" fill="white"/>
<path opacity="0.2" d="M47.6249 7H41.375V13.25H47.6249V7Z" fill="white"/>
<path opacity="0.8" d="M16.375 19.5V13.25H10.1251V19.5H16.375Z" fill="#1C1C1C"/>
<path opacity="0.6" d="M16.375 25.75V19.5H10.1251V25.75H16.375Z" fill="#1C1C1C"/>
<path opacity="0.5" d="M16.375 32V25.75H10.1251V32H16.375Z" fill="#1C1C1C"/>
<path opacity="0.4" d="M16.375 38.25V32H10.1251V38.25H16.375Z" fill="#1C1C1C"/>
<path opacity="0.2" d="M16.375 44.5V38.25H10.1251V44.5H16.375Z" fill="#1C1C1C"/>
<path opacity="0.1" d="M16.375 50.75V44.5H10.1251V50.75H16.375Z" fill="#1C1C1C"/>
<path d="M47.6251 57H53.875V50.75H47.6251V57Z" fill="white"/>
<path opacity="0.8" d="M41.3751 57H47.625V50.75H41.3751V57Z" fill="white"/>
<path opacity="0.6" d="M35.1251 57H41.375V50.75H35.1251V57Z" fill="white"/>
<path opacity="0.5" d="M28.8751 57H35.125V50.75H28.8751V57Z" fill="white"/>
<path opacity="0.4" d="M22.6251 57H28.875V50.75H22.6251V57Z" fill="white"/>
<path opacity="0.2" d="M16.3751 57H22.625V50.75H16.3751V57Z" fill="white"/>
<path opacity="0.34" d="M16.3751 50.75H22.625V44.5H16.3751V50.75Z" fill="white"/>
<path opacity="0.5" d="M22.6251 50.75H28.875V44.5H22.6251V50.75Z" fill="white"/>
<path opacity="0.9" d="M22.6251 44.5H28.875V38.25H22.6251V44.5Z" fill="white"/>
<path opacity="0.5" d="M28.8751 44.5H35.125V38.25H28.8751V44.5Z" fill="white"/>
<path opacity="0.7" d="M28.8751 50.75H35.125V44.5H28.8751V50.75Z" fill="white"/>
<path opacity="0.5" d="M35.1251 50.75H41.375V44.5H35.1251V50.75Z" fill="white"/>
<path d="M41.3751 50.75H47.625V44.5H41.3751V50.75Z" fill="white"/>
<path opacity="0.2" d="M28.8751 38.25H35.125V32H28.8751V38.25Z" fill="white"/>
<path d="M35.1251 25.75H41.375V19.5H35.1251V25.75Z" fill="white"/>
<path opacity="0.8" d="M47.625 44.5V50.75H53.8749V44.5H47.625Z" fill="#1C1C1C"/>
<path opacity="0.6" d="M47.625 38.25V44.5H53.8749V38.25H47.625Z" fill="#1C1C1C"/>
<path opacity="0.5" d="M47.625 32V38.25H53.8749V32H47.625Z" fill="#1C1C1C"/>
<path opacity="0.4" d="M47.625 25.75V32H53.8749V25.75H47.625Z" fill="#1C1C1C"/>
<path opacity="0.2" d="M47.625 19.5V25.75H53.8749V19.5H47.625Z" fill="#1C1C1C"/>
<path opacity="0.1" d="M47.625 13.25V19.5H53.8749V13.25H47.625Z" fill="#1C1C1C"/>
</svg>
