<svg width="64" height="64" viewBox="0 0 64 64" fill="none" xmlns="http://www.w3.org/2000/svg">
<g clip-path="url(#clip0_7146_3750)">
<path d="M18.8 45.2004H10V54.0004H18.8V45.2004Z" fill="white"/>
<path d="M27.6001 36.4008H18.8001V45.2008H27.6001V36.4008Z" fill="white"/>
<path opacity="0.7" d="M36.4002 27.5992H27.6002V36.3992H36.4002V27.5992Z" fill="white"/>
<path opacity="0.7" d="M45.1999 36.4004H36.3999V45.2004H45.1999V36.4004Z" fill="white"/>
<path opacity="0.7" d="M54 45.2H45.2V54H54V45.2Z" fill="white"/>
<path opacity="0.3" d="M45.1998 27.5992H36.3998V36.3992H45.1998V27.5992Z" fill="white"/>
<path opacity="0.7" d="M27.6 18.7998H18.8V27.5998H27.6V18.7998Z" fill="white"/>
<path opacity="0.7" d="M18.8 10H10V18.8H18.8V10Z" fill="white"/>
<path opacity="0.3" d="M45.2 10H10V18.8H45.2V10Z" fill="white"/>
<path opacity="0.3" d="M54 54V10H45.2V54H54Z" fill="white"/>
<path opacity="0.3" d="M36.4002 18.7997H27.6002V27.5997H36.4002V18.7997Z" fill="white"/>
<path opacity="0.3" d="M45.1998 18.7997H36.3998V27.5997H45.1998V18.7997Z" fill="white"/>
<path d="M36.4002 45.2004H27.6002V54.0004H36.4002V45.2004Z" fill="white"/>
<path d="M18.8 27.5992H10V36.3992H18.8V27.5992Z" fill="white"/>
</g>
<defs>
<clipPath id="clip0_7146_3750">
<rect width="44" height="44" fill="white" transform="translate(10 10)"/>
</clipPath>
</defs>
</svg>
