<svg width="64" height="64" viewBox="0 0 64 64" fill="none" xmlns="http://www.w3.org/2000/svg">
<path opacity="0.7" d="M33.7781 20.4445C33.7781 14.0625 28.6045 8.88892 22.2225 8.88892C15.8406 8.88892 10.667 14.0625 10.667 20.4445C10.667 26.8264 15.8406 32 22.2225 32C28.6045 32 33.7781 26.8264 33.7781 20.4445Z" fill="white"/>
<path opacity="0.2" d="M55.1111 20.4445C55.1111 14.0625 49.9375 8.88892 43.5555 8.88892C37.1736 8.88892 32 14.0625 32 20.4445C32 26.8264 37.1736 32 43.5555 32C49.9375 32 55.1111 26.8264 55.1111 20.4445Z" fill="white"/>
<path opacity="0.3" d="M33.7781 41.7777C33.7781 35.3958 28.6045 30.2222 22.2225 30.2222C15.8406 30.2222 10.667 35.3958 10.667 41.7777C10.667 48.1597 15.8406 53.3333 22.2225 53.3333C28.6045 53.3333 33.7781 48.1597 33.7781 41.7777Z" fill="white"/>
<path opacity="0.5" d="M55.1111 41.7777C55.1111 35.3958 49.9375 30.2222 43.5555 30.2222C37.1736 30.2222 32 35.3958 32 41.7777C32 48.1597 37.1736 53.3333 43.5555 53.3333C49.9375 53.3333 55.1111 48.1597 55.1111 41.7777Z" fill="white"/>
</svg>
