<svg width="48" height="48" viewBox="0 0 48 48" fill="none" xmlns="http://www.w3.org/2000/svg">
<g clip-path="url(#clip0_7146_6594)">
<path d="M30.5 30C32.9855 30 35 32.0145 35 34.5C35 36.9855 32.9855 39 30.5 39C28.0145 39 26 36.9855 26 34.5C26 32.0145 28.0145 30 30.5 30ZM15.5 24C18.815 24 21.5 26.685 21.5 30C21.5 33.315 18.815 36 15.5 36C12.185 36 9.5 33.315 9.5 30C9.5 26.685 12.185 24 15.5 24ZM30.5 33C29.672 33 29 33.672 29 34.5C29 35.328 29.672 36 30.5 36C31.328 36 32 35.328 32 34.5C32 33.672 31.328 33 30.5 33ZM15.5 27C13.8425 27 12.5 28.3425 12.5 30C12.5 31.6575 13.8425 33 15.5 33C17.1575 33 18.5 31.6575 18.5 30C18.5 28.3425 17.1575 27 15.5 27ZM28.25 9C32.807 9 36.5 12.693 36.5 17.25C36.5 21.807 32.807 25.5 28.25 25.5C23.693 25.5 20 21.807 20 17.25C20 12.693 23.693 9 28.25 9ZM28.25 12C25.3505 12 23 14.3505 23 17.25C23 20.1495 25.3505 22.5 28.25 22.5C31.1495 22.5 33.5 20.1495 33.5 17.25C33.5 14.3505 31.1495 12 28.25 12Z" fill="url(#paint0_linear_7146_6594)"/>
</g>
<defs>
<linearGradient id="paint0_linear_7146_6594" x1="23" y1="9" x2="23" y2="39" gradientUnits="userSpaceOnUse">
<stop stop-color="#663AF8"/>
<stop offset="1" stop-color="#3C2292"/>
</linearGradient>
<clipPath id="clip0_7146_6594">
<rect width="36" height="36" fill="white" transform="translate(6.5 6)"/>
</clipPath>
</defs>
</svg>
