<svg width="49" height="48" viewBox="0 0 49 48" fill="none" xmlns="http://www.w3.org/2000/svg">
<g clip-path="url(#clip0_7146_7976)">
<path d="M29.6666 11.5H14.6666V35.5H35.6666V17.5H29.6666V11.5ZM11.6666 9.988C11.6666 9.166 12.3371 8.5 13.1651 8.5H31.1666L38.6666 16V36.9895C38.668 37.1865 38.6306 37.3818 38.5565 37.5643C38.4824 37.7468 38.373 37.913 38.2347 38.0532C38.0964 38.1935 37.9318 38.3052 37.7504 38.3818C37.5689 38.4585 37.3741 38.4986 37.1771 38.5H13.1561C12.7622 38.4973 12.3852 38.3396 12.1065 38.0612C11.8278 37.7828 11.6698 37.4059 11.6666 37.012V9.988ZM33.6521 23.5L28.3481 28.804L26.2271 26.6815L29.4086 23.5L26.2286 20.3185L28.3481 18.196L33.6521 23.5ZM16.6811 23.5L21.9866 18.196L24.1076 20.3185L20.9246 23.5L24.1046 26.6815L21.9851 28.804L16.6811 23.5Z" fill="url(#paint0_linear_7146_7976)"/>
</g>
<defs>
<linearGradient id="paint0_linear_7146_7976" x1="25.1666" y1="8.5" x2="25.1666" y2="38.5" gradientUnits="userSpaceOnUse">
<stop stop-color="#663AF8"/>
<stop offset="1" stop-color="#3C2292"/>
</linearGradient>
<clipPath id="clip0_7146_7976">
<rect width="36" height="36" fill="white" transform="translate(7.16663 5.5)"/>
</clipPath>
</defs>
</svg>
