<svg width="49" height="48" viewBox="0 0 49 48" fill="none" xmlns="http://www.w3.org/2000/svg">
<g clip-path="url(#clip0_7146_6113)">
<path d="M11.5749 12.7037C13.315 10.9633 15.6489 9.94538 18.1083 9.85412C20.5677 9.76287 22.9707 10.6051 24.8349 12.2117C26.6976 10.6078 29.0973 9.76649 31.5538 9.85639C34.0102 9.94629 36.342 10.9607 38.0824 12.6966C39.8228 14.4324 40.8434 16.7616 40.9397 19.2178C41.036 21.674 40.201 24.0759 38.6019 25.9427L26.9544 37.6277C26.4193 38.1631 25.7016 38.4763 24.9452 38.5047C24.1888 38.5331 23.4497 38.2745 22.8759 37.7807L22.7109 37.6292L11.0649 25.9427C9.46667 24.0775 8.63131 21.6778 8.72586 19.2233C8.82041 16.7688 9.83792 14.4405 11.5749 12.7037ZM13.6959 14.8247C12.4693 16.0517 11.7622 17.7039 11.7214 19.4384C11.6807 21.1729 12.3093 22.8565 13.4769 24.1397L13.6959 24.3707L24.8334 35.5082L32.7879 27.5522L27.4854 22.2497L25.8954 23.8397C25.4776 24.2577 24.9816 24.5894 24.4356 24.8157C23.8897 25.0419 23.3045 25.1585 22.7135 25.1586C21.5199 25.1589 20.3751 24.685 19.5309 23.8412C18.6868 22.9975 18.2123 21.8529 18.2121 20.6593C18.2118 19.4657 18.6857 18.3209 19.5294 17.4767L22.6824 14.3222C21.4276 13.3208 19.8571 12.7993 18.2525 12.8512C16.6479 12.9032 15.1143 13.5252 13.9269 14.6057L13.6959 14.8247ZM26.4249 19.0667C26.7062 18.7855 27.0877 18.6276 27.4854 18.6276C27.8832 18.6276 28.2646 18.7855 28.5459 19.0667L34.9089 25.4297L35.9709 24.3707C37.2181 23.1244 37.9282 21.4396 37.9492 19.6766C37.9702 17.9136 37.3006 16.2123 36.0835 14.9366C34.8664 13.6609 33.1984 12.9121 31.4364 12.8502C29.6743 12.7884 27.958 13.4185 26.6544 14.6057L26.4249 14.8247L21.6519 19.5977C21.3919 19.8576 21.2364 20.2038 21.2148 20.5707C21.1933 20.9377 21.3072 21.2998 21.5349 21.5882L21.6519 21.7187C21.9118 21.9787 22.258 22.1343 22.6249 22.1559C22.9919 22.1774 23.3539 22.0635 23.6424 21.8357L23.7729 21.7187L26.4249 19.0667Z" fill="url(#paint0_linear_7146_6113)"/>
</g>
<defs>
<linearGradient id="paint0_linear_7146_6113" x1="24.8329" y1="9.84741" x2="24.8329" y2="38.5068" gradientUnits="userSpaceOnUse">
<stop stop-color="#663AF8"/>
<stop offset="1" stop-color="#3C2292"/>
</linearGradient>
<clipPath id="clip0_7146_6113">
<rect width="36" height="36" fill="white" transform="translate(6.83337 6)"/>
</clipPath>
</defs>
</svg>
