<svg width="48" height="48" viewBox="0 0 48 48" fill="none" xmlns="http://www.w3.org/2000/svg">
<g clip-path="url(#clip0_7146_3312)">
<path d="M18.2453 35.5003C17.9917 36.2171 17.5607 36.8581 16.9925 37.3633C16.4242 37.8685 15.7373 38.2215 14.9957 38.3895C14.2541 38.5574 13.4821 38.5347 12.7516 38.3236C12.0212 38.1125 11.3561 37.7198 10.8185 37.1822C10.2808 36.6445 9.88811 35.9794 9.67699 35.249C9.46588 34.5185 9.44323 33.7465 9.61117 33.0049C9.7791 32.2633 10.1321 31.5764 10.6374 31.0081C11.1426 30.4399 11.7835 30.0089 12.5003 29.7553V17.2453C11.7835 16.9917 11.1426 16.5607 10.6374 15.9925C10.1321 15.4242 9.7791 14.7373 9.61117 13.9957C9.44323 13.2541 9.46588 12.4821 9.67699 11.7516C9.88811 11.0212 10.2808 10.3561 10.8185 9.81846C11.3561 9.28081 12.0212 8.88811 12.7516 8.67699C13.4821 8.46588 14.2541 8.44323 14.9957 8.61117C15.7373 8.7791 16.4242 9.13214 16.9925 9.63735C17.5607 10.1426 17.9917 10.7835 18.2453 11.5003H30.7553C31.0089 10.7835 31.4399 10.1426 32.0081 9.63735C32.5764 9.13214 33.2633 8.7791 34.0049 8.61117C34.7465 8.44323 35.5185 8.46588 36.249 8.67699C36.9794 8.88811 37.6445 9.28081 38.1822 9.81846C38.7198 10.3561 39.1125 11.0212 39.3236 11.7516C39.5347 12.4821 39.5574 13.2541 39.3895 13.9957C39.2215 14.7373 38.8685 15.4242 38.3633 15.9925C37.8581 16.5607 37.2171 16.9917 36.5003 17.2453V29.7553C37.2171 30.0089 37.8581 30.4399 38.3633 31.0081C38.8685 31.5764 39.2215 32.2633 39.3895 33.0049C39.5574 33.7465 39.5347 34.5185 39.3236 35.249C39.1125 35.9794 38.7198 36.6445 38.1822 37.1822C37.6445 37.7198 36.9794 38.1125 36.249 38.3236C35.5185 38.5347 34.7465 38.5574 34.0049 38.3895C33.2633 38.2215 32.5764 37.8685 32.0081 37.3633C31.4399 36.8581 31.0089 36.2171 30.7553 35.5003H18.2453ZM18.2453 32.5003H30.7553C30.9797 31.8673 31.3426 31.2924 31.8175 30.8175C32.2924 30.3426 32.8673 29.9797 33.5003 29.7553V17.2453C32.8673 17.0209 32.2924 16.658 31.8175 16.1831C31.3426 15.7082 30.9797 15.1333 30.7553 14.5003H18.2453C18.0209 15.1333 17.658 15.7082 17.1831 16.1831C16.7082 16.658 16.1333 17.0209 15.5003 17.2453V29.7553C16.1333 29.9797 16.7082 30.3426 17.1831 30.8175C17.658 31.2924 18.0209 31.8673 18.2453 32.5003ZM14.0003 14.5003C14.3981 14.5003 14.7797 14.3423 15.061 14.061C15.3423 13.7797 15.5003 13.3981 15.5003 13.0003C15.5003 12.6025 15.3423 12.221 15.061 11.9397C14.7797 11.6583 14.3981 11.5003 14.0003 11.5003C13.6025 11.5003 13.221 11.6583 12.9397 11.9397C12.6583 12.221 12.5003 12.6025 12.5003 13.0003C12.5003 13.3981 12.6583 13.7797 12.9397 14.061C13.221 14.3423 13.6025 14.5003 14.0003 14.5003ZM35.0003 14.5003C35.3981 14.5003 35.7797 14.3423 36.061 14.061C36.3423 13.7797 36.5003 13.3981 36.5003 13.0003C36.5003 12.6025 36.3423 12.221 36.061 11.9397C35.7797 11.6583 35.3981 11.5003 35.0003 11.5003C34.6025 11.5003 34.221 11.6583 33.9397 11.9397C33.6583 12.221 33.5003 12.6025 33.5003 13.0003C33.5003 13.3981 33.6583 13.7797 33.9397 14.061C34.221 14.3423 34.6025 14.5003 35.0003 14.5003ZM35.0003 35.5003C35.3981 35.5003 35.7797 35.3423 36.061 35.061C36.3423 34.7797 36.5003 34.3981 36.5003 34.0003C36.5003 33.6025 36.3423 33.221 36.061 32.9397C35.7797 32.6583 35.3981 32.5003 35.0003 32.5003C34.6025 32.5003 34.221 32.6583 33.9397 32.9397C33.6583 33.221 33.5003 33.6025 33.5003 34.0003C33.5003 34.3981 33.6583 34.7797 33.9397 35.061C34.221 35.3423 34.6025 35.5003 35.0003 35.5003ZM14.0003 35.5003C14.3981 35.5003 14.7797 35.3423 15.061 35.061C15.3423 34.7797 15.5003 34.3981 15.5003 34.0003C15.5003 33.6025 15.3423 33.221 15.061 32.9397C14.7797 32.6583 14.3981 32.5003 14.0003 32.5003C13.6025 32.5003 13.221 32.6583 12.9397 32.9397C12.6583 33.221 12.5003 33.6025 12.5003 34.0003C12.5003 34.3981 12.6583 34.7797 12.9397 35.061C13.221 35.3423 13.6025 35.5003 14.0003 35.5003Z" fill="url(#paint0_linear_7146_3312)"/>
</g>
<defs>
<linearGradient id="paint0_linear_7146_3312" x1="24.5003" y1="8.5" x2="24.5003" y2="38.5006" gradientUnits="userSpaceOnUse">
<stop stop-color="#663AF8"/>
<stop offset="1" stop-color="#3C2292"/>
</linearGradient>
<clipPath id="clip0_7146_3312">
<rect width="36" height="36" fill="white" transform="translate(6.5 5.5)"/>
</clipPath>
</defs>
</svg>
