<svg width="49" height="48" viewBox="0 0 49 48" fill="none" xmlns="http://www.w3.org/2000/svg">
<g clip-path="url(#clip0_7146_8309)">
<path d="M11.1666 10.5H38.1666C38.5645 10.5 38.946 10.658 39.2273 10.9393C39.5086 11.2206 39.6666 11.6022 39.6666 12V36C39.6666 36.3978 39.5086 36.7794 39.2273 37.0607C38.946 37.342 38.5645 37.5 38.1666 37.5H11.1666C10.7688 37.5 10.3873 37.342 10.106 37.0607C9.82466 36.7794 9.66663 36.3978 9.66663 36V12C9.66663 11.6022 9.82466 11.2206 10.106 10.9393C10.3873 10.658 10.7688 10.5 11.1666 10.5ZM36.6666 22.5H12.6666V34.5H36.6666V22.5ZM36.6666 19.5V13.5H12.6666V19.5H36.6666ZM20.1666 15H23.1666V18H20.1666V15ZM14.1666 15H17.1666V18H14.1666V15Z" fill="url(#paint0_linear_7146_8309)"/>
</g>
<defs>
<linearGradient id="paint0_linear_7146_8309" x1="24.6666" y1="10.5" x2="24.6666" y2="37.5" gradientUnits="userSpaceOnUse">
<stop stop-color="#663AF8"/>
<stop offset="1" stop-color="#3C2292"/>
</linearGradient>
<clipPath id="clip0_7146_8309">
<rect width="36" height="36" fill="white" transform="translate(6.66663 6)"/>
</clipPath>
</defs>
</svg>
