<svg width="48" height="48" viewBox="0 0 48 48" fill="none" xmlns="http://www.w3.org/2000/svg">
<g clip-path="url(#clip0_7146_5535)">
<path d="M11.25 24H9.75C8.09315 24 6.75 25.3431 6.75 27V31.5C6.75 33.1569 8.09315 34.5 9.75 34.5H11.25V19.5C11.25 12.4584 16.9584 6.75 24 6.75V6.75C31.0416 6.75 36.75 12.4584 36.75 19.5V24M36.75 24V34.5H38.25C39.9069 34.5 41.25 33.1569 41.25 31.5V27C41.25 25.3431 39.9069 24 38.25 24H36.75Z" stroke="white" stroke-width="1.5"/>
<path d="M36.75 32.25V35.25C36.75 36.9069 35.4069 38.25 33.75 38.25H28.5" stroke="white" stroke-width="1.5"/>
<rect x="20.25" y="35.25" width="9" height="6" rx="3" stroke="white" stroke-width="1.5"/>
</g>
<defs>
<clipPath id="clip0_7146_5535">
<rect width="36" height="36" fill="white" transform="translate(6 6)"/>
</clipPath>
</defs>
</svg>
