<svg width="48" height="48" viewBox="0 0 48 48" fill="none" xmlns="http://www.w3.org/2000/svg">
<path d="M24 4.5L39 9.75V27.75L24 42L9 27.75V9.75L24 4.5Z" stroke="white" stroke-width="1.5"/>
<path fill-rule="evenodd" clip-rule="evenodd" d="M24.324 24.9035V25.3637C24.324 25.733 24.4022 26.074 24.5584 26.3865C24.7175 26.699 24.9505 26.9504 25.2573 27.1407C25.5641 27.3311 25.9405 27.4262 26.3865 27.4262C26.8326 27.4262 27.2104 27.3311 27.5201 27.1407C27.8297 26.9504 28.0641 26.699 28.2232 26.3865C28.3851 26.074 28.4661 25.733 28.4661 25.3637V24.9035C28.4661 24.5285 28.3865 24.1847 28.2275 23.8722C28.0684 23.5597 27.834 23.3097 27.5243 23.1222C27.2175 22.9347 26.8382 22.841 26.3865 22.841C25.9462 22.841 25.5726 22.9362 25.2658 23.1265C24.959 23.3169 24.7246 23.5683 24.5627 23.8808C24.4036 24.1933 24.324 24.5342 24.324 24.9035ZM25.807 25.3637V24.9035C25.807 24.733 25.8468 24.5683 25.9263 24.4092C26.0087 24.2501 26.1621 24.1705 26.3865 24.1705C26.6309 24.1705 26.7885 24.2501 26.8596 24.4092C26.9306 24.5683 26.9661 24.733 26.9661 24.9035V25.3637C26.9661 25.5342 26.9277 25.6961 26.851 25.8495C26.7772 26.0029 26.6223 26.0796 26.3865 26.0796C26.1621 26.0796 26.0087 26.0015 25.9263 25.8453C25.8468 25.6862 25.807 25.5257 25.807 25.3637Z" fill="white"/>
<path fill-rule="evenodd" clip-rule="evenodd" d="M19.7559 19.9092V20.3694C19.7559 20.7387 19.834 21.0782 19.9902 21.3879C20.1493 21.6975 20.3823 21.9461 20.6891 22.1336C20.9959 22.3211 21.3723 22.4149 21.8184 22.4149C22.2644 22.4149 22.6422 22.3225 22.9519 22.1379C23.2615 21.9532 23.4959 21.7061 23.655 21.3964C23.8169 21.0867 23.8979 20.7444 23.8979 20.3694V19.9092C23.8979 19.5342 23.8184 19.1904 23.6593 18.8779C23.5002 18.5654 23.2658 18.3154 22.9561 18.1279C22.6493 17.9404 22.2701 17.8467 21.8184 17.8467C21.3837 17.8467 21.013 17.9404 20.7061 18.1279C20.3993 18.3154 20.1635 18.5654 19.9988 18.8779C19.8368 19.1904 19.7559 19.5342 19.7559 19.9092ZM21.2559 20.3694V19.9092C21.2559 19.7472 21.2928 19.5853 21.3667 19.4234C21.4434 19.2586 21.5939 19.1762 21.8184 19.1762C22.0627 19.1762 22.2203 19.2558 22.2914 19.4149C22.3624 19.574 22.3979 19.7387 22.3979 19.9092V20.3694C22.3979 20.5399 22.3596 20.7018 22.2828 20.8552C22.209 21.0086 22.0542 21.0853 21.8184 21.0853C21.6025 21.0853 21.4547 21.0086 21.3752 20.8552C21.2956 20.7018 21.2559 20.5399 21.2559 20.3694Z" fill="white"/>
<path d="M26.4803 18.2728L20.4803 27.0001H21.6905L27.6905 18.2728H26.4803Z" fill="white"/>
<path d="M39 15L24 9.75L9 15" stroke="white" stroke-width="1.5"/>
</svg>
