<svg width="48" height="48" viewBox="0 0 48 48" fill="none" xmlns="http://www.w3.org/2000/svg">
<path opacity="0.1" d="M32.25 7.5C33.2349 7.5 34.2102 7.69399 35.1201 8.0709C36.0301 8.44781 36.8568 9.00026 37.5533 9.6967C38.2497 10.3931 38.8022 11.2199 39.1791 12.1299C39.556 13.0398 39.75 14.0151 39.75 15C39.75 15.9849 39.556 16.9602 39.1791 17.8701C38.8022 18.7801 38.2497 19.6068 37.5533 20.3033C36.8568 20.9997 36.0301 21.5522 35.1201 21.9291C34.2102 22.306 33.2349 22.5 32.25 22.5V15V7.5Z" fill="white"/>
<path d="M17.25 7.5C16.2651 7.5 15.2898 7.69399 14.3799 8.0709C13.4699 8.44782 12.6431 9.00026 11.9467 9.6967C11.2503 10.3931 10.6978 11.2199 10.3209 12.1299C9.94399 13.0398 9.75 14.0151 9.75 15C9.75 15.9849 9.94399 16.9602 10.3209 17.8701C10.6978 18.7801 11.2503 19.6068 11.9467 20.3033C12.6431 20.9997 13.4699 21.5522 14.3799 21.9291C15.2898 22.306 16.2651 22.5 17.25 22.5V15V7.5Z" fill="white"/>
<path opacity="0.7" d="M32.25 16.5C31.2651 16.5 30.2898 16.694 29.3799 17.0709C28.4699 17.4478 27.6432 18.0003 26.9467 18.6967C26.2503 19.3932 25.6978 20.2199 25.3209 21.1299C24.944 22.0398 24.75 23.0151 24.75 24C24.75 24.9849 24.944 25.9602 25.3209 26.8701C25.6978 27.7801 26.2503 28.6068 26.9467 29.3033C27.6432 29.9997 28.4699 30.5522 29.3799 30.9291C30.2898 31.306 31.2651 31.5 32.25 31.5V24V16.5Z" fill="white"/>
<path opacity="0.7" d="M17.25 16.5C18.2349 16.5 19.2102 16.694 20.1201 17.0709C21.0301 17.4478 21.8569 18.0003 22.5533 18.6967C23.2497 19.3932 23.8022 20.2199 24.1791 21.1299C24.556 22.0398 24.75 23.0151 24.75 24C24.75 24.9849 24.556 25.9602 24.1791 26.8701C23.8022 27.7801 23.2497 28.6068 22.5533 29.3033C21.8569 29.9997 21.0301 30.5522 20.1201 30.9291C19.2102 31.306 18.2349 31.5 17.25 31.5V24V16.5Z" fill="white"/>
<path d="M32.25 25.5C33.2349 25.5 34.2102 25.694 35.1201 26.0709C36.0301 26.4478 36.8568 27.0003 37.5533 27.6967C38.2497 28.3932 38.8022 29.2199 39.1791 30.1299C39.556 31.0398 39.75 32.0151 39.75 33C39.75 33.9849 39.556 34.9602 39.1791 35.8701C38.8022 36.7801 38.2497 37.6068 37.5533 38.3033C36.8568 38.9997 36.0301 39.5522 35.1201 39.9291C34.2102 40.306 33.2349 40.5 32.25 40.5V33V25.5Z" fill="white"/>
<path opacity="0.1" d="M17.25 25.5C16.2651 25.5 15.2898 25.694 14.3799 26.0709C13.4699 26.4478 12.6431 27.0003 11.9467 27.6967C11.2503 28.3932 10.6978 29.2199 10.3209 30.1299C9.94399 31.0398 9.75 32.0151 9.75 33C9.75 33.9849 9.94399 34.9602 10.3209 35.8701C10.6978 36.7801 11.2503 37.6068 11.9467 38.3033C12.6431 38.9997 13.4699 39.5522 14.3799 39.9291C15.2898 40.306 16.2651 40.5 17.25 40.5V33V25.5Z" fill="white"/>
<path opacity="0.4" d="M32.25 25.5C31.2651 25.5 30.2898 25.694 29.3799 26.0709C28.4699 26.4478 27.6431 27.0003 26.9467 27.6967C26.2503 28.3932 25.6978 29.2199 25.3209 30.1299C24.944 31.0398 24.75 32.0151 24.75 33C24.75 33.9849 24.944 34.9602 25.3209 35.8701C25.6978 36.7801 26.2503 37.6068 26.9467 38.3033C27.6431 38.9997 28.4699 39.5522 29.3799 39.9291C30.2898 40.306 31.2651 40.5 32.25 40.5V33V25.5Z" fill="white"/>
<path opacity="0.4" d="M32.25 7.5C31.2651 7.5 30.2898 7.69398 29.3799 8.07089C28.4699 8.4478 27.6431 9.00027 26.9467 9.69668C26.2503 10.3932 25.6978 11.2199 25.3209 12.1299C24.944 13.0398 24.75 14.0151 24.75 15C24.75 15.9849 24.944 16.9602 25.3209 17.8701C25.6978 18.7801 26.2503 19.6068 26.9467 20.3033C27.6431 20.9997 28.4699 21.5522 29.3799 21.9291C30.2898 22.306 31.2651 22.5 32.25 22.5V15V7.5Z" fill="white"/>
<path opacity="0.4" d="M17.25 40.5C18.2349 40.5 19.2102 40.306 20.1201 39.9291C21.0301 39.5522 21.8569 38.9997 22.5533 38.3033C23.2497 37.6068 23.8022 36.7801 24.1791 35.8701C24.556 34.9602 24.75 33.9849 24.75 33C24.75 32.0151 24.556 31.0398 24.1791 30.1299C23.8022 29.2199 23.2497 28.3932 22.5533 27.6967C21.8569 27.0003 21.0301 26.4478 20.1201 26.0709C19.2102 25.694 18.2349 25.5 17.25 25.5L17.25 33L17.25 40.5Z" fill="white"/>
<path opacity="0.4" d="M17.25 22.5C18.2349 22.5 19.2102 22.306 20.1201 21.9291C21.0301 21.5522 21.8569 20.9997 22.5533 20.3033C23.2497 19.6068 23.8022 18.7801 24.1791 17.8701C24.556 16.9602 24.75 15.9849 24.75 15C24.75 14.0151 24.556 13.0398 24.1791 12.1299C23.8022 11.2199 23.2497 10.3932 22.5533 9.69668C21.8569 9.00027 21.0301 8.44779 20.1201 8.07088C19.2102 7.69397 18.2349 7.5 17.25 7.5L17.25 15L17.25 22.5Z" fill="white"/>
</svg>
