<svg width="48" height="48" viewBox="0 0 48 48" fill="none" xmlns="http://www.w3.org/2000/svg">
<path opacity="0.2" d="M24 4.5H7.5V43.5H24V4.5Z" fill="white"/>
<path opacity="0.1" d="M40.5007 4.5H24.0007V43.5H40.5007V4.5Z" fill="white"/>
<path d="M31.5 16.5C32.4849 16.5 33.4602 16.694 34.3701 17.0709C35.2801 17.4478 36.1068 18.0003 36.8033 18.6967C37.4997 19.3932 38.0522 20.2199 38.4291 21.1299C38.806 22.0398 39 23.0151 39 24C39 24.9849 38.806 25.9602 38.4291 26.8701C38.0522 27.7801 37.4997 28.6068 36.8033 29.3033C36.1068 29.9997 35.2801 30.5522 34.3701 30.9291C33.4602 31.306 32.4849 31.5 31.5 31.5V24V16.5Z" fill="white"/>
<path d="M16.5 16.5C15.5151 16.5 14.5398 16.694 13.6299 17.0709C12.7199 17.4478 11.8931 18.0003 11.1967 18.6967C10.5003 19.3932 9.94781 20.2199 9.5709 21.1299C9.19399 22.0398 9 23.0151 9 24C9 24.9849 9.19399 25.9602 9.5709 26.8701C9.94781 27.7801 10.5003 28.6068 11.1967 29.3033C11.8931 29.9997 12.7199 30.5522 13.6299 30.9291C14.5398 31.306 15.5151 31.5 16.5 31.5V24V16.5Z" fill="white"/>
<path d="M31.5 31.5C31.5 32.4849 31.306 33.4602 30.9291 34.3701C30.5522 35.2801 29.9997 36.1068 29.3033 36.8033C28.6068 37.4997 27.7801 38.0522 26.8701 38.4291C25.9602 38.806 24.9849 39 24 39C23.0151 39 22.0398 38.806 21.1299 38.4291C20.2199 38.0522 19.3932 37.4997 18.6967 36.8033C18.0003 36.1068 17.4478 35.2801 17.0709 34.3701C16.694 33.4602 16.5 32.4849 16.5 31.5L24 31.5L31.5 31.5Z" fill="white" fill-opacity="0.5"/>
<path d="M31.5 16.5C31.5 15.5151 31.306 14.5398 30.9291 13.6299C30.5522 12.7199 29.9997 11.8931 29.3033 11.1967C28.6068 10.5003 27.7801 9.94781 26.8701 9.5709C25.9602 9.19399 24.9849 9 24 9C23.0151 9 22.0398 9.19399 21.1299 9.5709C20.2199 9.94781 19.3932 10.5003 18.6967 11.1967C18.0003 11.8931 17.4478 12.7199 17.0709 13.6299C16.694 14.5398 16.5 15.5151 16.5 16.5L24 16.5L31.5 16.5Z" fill="white" fill-opacity="0.5"/>
</svg>
