<svg width="180" height="140" viewBox="0 0 180 140" fill="none" xmlns="http://www.w3.org/2000/svg">
<g clip-path="url(#clip0_7146_6291)">
<g clip-path="url(#clip1_7146_6291)">
<path d="M200.385 49.3657C196.875 43.7442 189.472 42.0327 183.85 45.5429C178.229 49.053 176.517 56.4557 180.028 62.0772C183.538 67.6987 190.94 69.4103 196.562 65.9001C202.183 62.3899 203.895 54.9872 200.385 49.3657Z" fill="white"/>
<path d="M162.851 48.9272C157.412 47.3081 151.691 50.4045 150.071 55.8433C148.452 61.2822 151.549 67.0038 156.988 68.6229C162.426 70.2421 168.148 67.1456 169.767 61.7068C171.386 56.268 168.29 50.5464 162.851 48.9272Z" fill="white"/>
<path d="M130.747 41.4284C126.033 41.4499 122.23 45.2885 122.251 50.0022C122.273 54.7159 126.111 58.5197 130.825 58.4982C135.539 58.4767 139.342 54.638 139.321 49.9243C139.299 45.2106 135.461 41.4069 130.747 41.4284Z" fill="white"/>
<path d="M187.516 80.1538C184.005 74.5323 176.603 72.8208 170.981 76.3309C165.36 79.8411 163.648 87.2438 167.158 92.8653C170.669 98.4868 178.071 100.198 183.693 96.6882C189.314 93.178 191.026 85.7753 187.516 80.1538Z" fill="#663AF8"/>
<path d="M157.236 77.8239C154.076 72.7646 147.414 71.2242 142.355 74.3833C137.295 77.5425 135.755 84.2049 138.914 89.2643C142.073 94.3236 148.736 95.864 153.795 92.7049C158.854 89.5457 160.395 82.8833 157.236 77.8239Z" fill="#663AF8"/>
<path d="M128.84 67.6662C126.032 63.169 120.11 61.7997 115.613 64.6079C111.116 67.416 109.746 73.3382 112.555 77.8354C115.363 82.3326 121.285 83.7018 125.782 80.8937C130.279 78.0855 131.649 72.1634 128.84 67.6662Z" fill="#663AF8"/>
<path d="M104.379 50.5258C101.927 46.5978 96.7539 45.4018 92.8258 47.8546C88.8978 50.3073 87.7019 55.4799 90.1546 59.408C92.6074 63.336 97.78 64.5319 101.708 62.0792C105.636 59.6264 106.832 54.4538 104.379 50.5258Z" fill="#663AF8"/>
</g>
<g clip-path="url(#clip2_7146_6291)">
<path d="M54.3764 74.9323C60.9999 74.7031 66.1835 69.148 65.9543 62.5245C65.7251 55.9011 60.17 50.7175 53.5465 50.9466C46.9231 51.1758 41.7395 56.7309 41.9686 63.3544C42.1978 69.9778 47.7529 75.1614 54.3764 74.9323Z" fill="white"/>
<path d="M73.5232 42.6464C77.6449 38.7458 77.8241 32.2425 73.9235 28.1208C70.0229 23.9992 63.5196 23.82 59.398 27.7206C55.2763 31.6212 55.0971 38.1245 58.9977 42.2461C62.8983 46.3677 69.4016 46.5469 73.5232 42.6464Z" fill="white"/>
<path d="M96.0692 18.5926C98.4075 14.4997 96.985 9.28621 92.892 6.94799C88.7991 4.60977 83.5856 6.03226 81.2474 10.1252C78.9092 14.2181 80.3317 19.4316 84.4246 21.7698C88.5175 24.1081 93.731 22.6856 96.0692 18.5926Z" fill="white"/>
<path d="M34.1469 48.3932C40.7704 48.1641 45.954 42.6089 45.7248 35.9855C45.4956 29.362 39.9405 24.1784 33.317 24.4076C26.6936 24.6367 21.51 30.1919 21.7392 36.8153C21.9683 43.4388 27.5235 48.6224 34.1469 48.3932Z" fill="#663AF8"/>
<path d="M51.3046 23.335C57.2657 23.1287 61.9309 18.1291 61.7247 12.168C61.5184 6.20689 56.5188 1.54165 50.5577 1.7479C44.5966 1.95414 39.9314 6.95377 40.1376 12.9149C40.3438 18.876 45.3435 23.5412 51.3046 23.335Z" fill="#663AF8"/>
<path d="M74.2992 3.82312C79.5979 3.6398 83.7448 -0.804318 83.5615 -6.10308C83.3782 -11.4018 78.934 -15.5487 73.6353 -15.3654C68.3365 -15.1821 64.1896 -10.738 64.373 -5.43919C64.5563 -0.140426 69.0004 4.00645 74.2992 3.82312Z" fill="#663AF8"/>
</g>
<g clip-path="url(#clip3_7146_6291)">
<path d="M133.185 -0.021001C135.56 4.05042 140.786 5.42526 144.858 3.04977C148.929 0.674285 150.304 -4.55197 147.929 -8.62339C145.553 -12.6948 140.327 -14.0696 136.255 -11.6942C132.184 -9.31868 130.809 -4.09243 133.185 -0.021001Z" fill="white"/>
<path d="M156.86 -11.4886C154.369 -6.80803 156.144 -0.994668 160.825 1.49595C165.505 3.98656 171.319 2.21128 173.809 -2.46924C176.3 -7.14977 174.525 -12.9631 169.844 -15.4537C165.163 -17.9444 159.35 -16.1691 156.86 -11.4886Z" fill="#663AF8"/>
<path d="M154.246 18.2654C152.07 22.3536 153.621 27.4312 157.709 29.6066C161.797 31.782 166.875 30.2314 169.05 26.1432C171.226 22.0551 169.675 16.9775 165.587 14.8021C161.499 12.6267 156.421 14.1773 154.246 18.2654Z" fill="#663AF8"/>
</g>
</g>
<defs>
<clipPath id="clip0_7146_6291">
<rect width="240" height="240" fill="white" transform="translate(0 -100)"/>
</clipPath>
<clipPath id="clip1_7146_6291">
<rect width="240" height="240" fill="white" transform="translate(283.924 -23.9233) rotate(120)"/>
</clipPath>
<clipPath id="clip2_7146_6291">
<rect width="240" height="240" fill="white" transform="translate(76.0762 183.923) rotate(-120)"/>
</clipPath>
<clipPath id="clip3_7146_6291">
<rect width="240" height="240" fill="white" transform="translate(0 -100)"/>
</clipPath>
</defs>
</svg>
