<svg width="180" height="140" viewBox="0 0 180 140" fill="none" xmlns="http://www.w3.org/2000/svg">
<g clip-path="url(#clip0_7146_5366)">
<g clip-path="url(#clip1_7146_5366)">
<path d="M185.34 24.3414C181.186 27.6352 180.488 33.6734 183.782 37.8281C187.075 41.9828 193.114 42.6807 197.268 39.387C201.423 36.0932 202.121 30.055 198.827 25.9003C195.533 21.7456 189.495 21.0477 185.34 24.3414Z" fill="white"/>
</g>
<path d="M195.611 21.5506C189.448 19.1116 182.476 22.1299 180.037 28.2922C177.598 34.4545 180.616 41.4272 186.778 43.8663C192.941 46.3053 199.913 43.2869 202.352 37.1246C204.791 30.9624 201.773 23.9896 195.611 21.5506Z" fill="white"/>
<path d="M177.788 70.0697C172.242 67.8746 165.966 70.5911 163.771 76.1372C161.576 81.6832 164.293 87.9587 169.839 90.1538C175.385 92.3489 181.66 89.6324 183.855 84.0864C186.051 78.5403 183.334 72.2648 177.788 70.0697Z" fill="#39D8E1"/>
<path d="M148.909 78.7561C143.979 76.8049 138.401 79.2196 136.45 84.1494C134.499 89.0792 136.913 94.6574 141.843 96.6086C146.773 98.5598 152.351 96.1452 154.303 91.2153C156.254 86.2855 153.839 80.7073 148.909 78.7561Z" fill="white"/>
<g clip-path="url(#clip2_7146_5366)">
<path d="M156.462 86.2565C155.493 79.7002 149.393 75.1708 142.837 76.1397C136.281 77.1086 131.751 83.209 132.72 89.7652C133.689 96.3214 139.789 100.851 146.346 99.8819C152.902 98.913 157.431 92.8127 156.462 86.2565Z" fill="white"/>
<path d="M132.353 109.327C131.384 102.771 125.284 98.2414 118.728 99.2103C112.171 100.179 107.642 106.28 108.611 112.836C109.58 119.392 115.68 123.921 122.236 122.952C128.793 121.984 133.322 115.883 132.353 109.327Z" fill="#663AF8"/>
<path d="M105.532 95.0808C104.66 89.1802 99.1694 85.1038 93.2688 85.9758C87.3682 86.8478 83.2917 92.3381 84.1638 98.2386C85.0358 104.139 90.526 108.216 96.4266 107.344C102.327 106.472 106.404 100.981 105.532 95.0808Z" fill="#39D8E1"/>
<path d="M83.5697 74.4147C82.7946 69.1697 77.9143 65.5462 72.6694 66.3213C67.4244 67.0964 63.8009 71.9767 64.576 77.2216C65.3511 82.4666 70.2314 86.0901 75.4763 85.315C80.7213 84.5399 84.3448 79.6597 83.5697 74.4147Z" fill="white"/>
</g>
<g clip-path="url(#clip3_7146_5366)">
<path d="M80.8513 84.7056C86.0446 80.5884 86.9171 73.0407 82.7999 67.8473C78.6827 62.6539 71.1349 61.7815 65.9416 65.8987C60.7482 70.0159 59.8757 77.5636 63.9929 82.757C68.1101 87.9504 75.6579 88.8228 80.8513 84.7056Z" fill="white"/>
<path d="M48.8166 75.3623C54.01 71.2451 54.8824 63.6974 50.7652 58.504C46.648 53.3106 39.1003 52.4382 33.9069 56.5554C28.7135 60.6726 27.8411 68.2203 31.9583 73.4137C36.0755 78.6071 43.6232 79.4795 48.8166 75.3623Z" fill="#663AF8"/>
<path d="M47.7437 45.0111C52.4177 41.3056 53.2029 34.5126 49.4974 29.8386C45.7919 25.1645 38.999 24.3793 34.3249 28.0848C29.6509 31.7903 28.8657 38.5833 32.5712 43.2573C36.2767 47.9314 43.0696 48.7166 47.7437 45.0111Z" fill="#39D8E1"/>
<path d="M54.6605 15.6586C58.8152 12.3648 59.5132 6.32663 56.2194 2.17192C52.9256 -1.98279 46.8875 -2.68073 42.7327 0.613024C38.578 3.90678 37.8801 9.94497 41.1738 14.0997C44.4676 18.2544 50.5058 18.9523 54.6605 15.6586Z" fill="white"/>
</g>
<path d="M44.3893 18.4494C50.5516 20.8884 57.5244 17.8701 59.9634 11.7078C62.4024 5.5455 59.3841 -1.42724 53.2218 -3.86625C47.0595 -6.30526 40.0868 -3.28694 37.6477 2.87535C35.2087 9.03765 38.2271 16.0104 44.3893 18.4494Z" fill="white"/>
</g>
<defs>
<clipPath id="clip0_7146_5366">
<rect width="240" height="240" fill="white" transform="translate(0 -100)"/>
</clipPath>
<clipPath id="clip1_7146_5366">
<rect width="240" height="240" fill="white" transform="translate(283.924 -23.9233) rotate(120)"/>
</clipPath>
<clipPath id="clip2_7146_5366">
<rect width="240" height="240" fill="white" transform="translate(76.0762 183.923) rotate(-120)"/>
</clipPath>
<clipPath id="clip3_7146_5366">
<rect width="240" height="240" fill="white" transform="translate(-43.9238 63.9233) rotate(-60)"/>
</clipPath>
</defs>
</svg>
