<svg width="180" height="140" viewBox="0 0 180 140" fill="none" xmlns="http://www.w3.org/2000/svg">
<g clip-path="url(#clip0_7146_343)">
<g clip-path="url(#clip1_7146_343)">
<path d="M183.953 6.83134C179.882 8.02239 177.547 12.288 178.738 16.3589C179.929 20.4298 184.195 22.7644 188.266 21.5733C192.337 20.3823 194.671 16.1166 193.48 12.0458C192.289 7.97487 188.023 5.6403 183.953 6.83134Z" fill="#FF98E5"/>
</g>
<g clip-path="url(#clip2_7146_343)">
<path d="M186.034 47.5427C181.498 47.3643 177.676 50.8971 177.498 55.4334C177.319 59.9697 180.852 63.7916 185.388 63.97C189.925 64.1484 193.747 60.6156 193.925 56.0793C194.103 51.543 190.571 47.7211 186.034 47.5427Z" fill="#FF98E5"/>
<path d="M187.4 71.0534C183.95 67.7572 178.481 67.8821 175.185 71.3324C171.888 74.7827 172.013 80.2518 175.464 83.548C178.914 86.8442 184.383 86.7193 187.679 83.2691C190.975 79.8188 190.851 74.3497 187.4 71.0534Z" fill="#663AF8"/>
<path d="M163.38 68.8004C160.314 65.8705 155.452 65.9815 152.522 69.0484C149.592 72.1153 149.703 76.9768 152.77 79.9067C155.837 82.8367 160.698 82.7257 163.628 79.6588C166.558 76.5918 166.447 71.7304 163.38 68.8004Z" fill="#FF98E5"/>
</g>
<path d="M149.893 112.684C151.148 107.533 147.989 102.339 142.838 101.084C137.687 99.8295 132.494 102.988 131.239 108.139C129.984 113.291 133.142 118.484 138.294 119.739C143.445 120.994 148.638 117.835 149.893 112.684Z" fill="#663AF8"/>
<path d="M129.163 90.958C127.049 86.9403 122.079 85.3967 118.061 87.5104C114.043 89.6241 112.5 94.5945 114.613 98.6122C116.727 102.63 121.697 104.174 125.715 102.06C129.733 99.9462 131.276 94.9757 129.163 90.958Z" fill="#FF98E5"/>
<path d="M125.079 122.529C126.334 117.378 123.175 112.184 118.024 110.929C112.872 109.674 107.679 112.833 106.424 117.984C105.169 123.136 108.328 128.329 113.479 129.584C118.63 130.839 123.824 127.68 125.079 122.529Z" fill="white"/>
<path d="M109.486 103.897C110.615 99.2612 107.773 94.5872 103.136 93.4578C98.5003 92.3283 93.8264 95.171 92.6969 99.8072C91.5675 104.443 94.4102 109.117 99.0463 110.247C103.682 111.376 108.356 108.533 109.486 103.897Z" fill="#663AF8"/>
<path d="M99.4269 81.9691C100.431 77.8481 97.904 73.6935 93.783 72.6895C89.662 71.6855 85.5074 74.2124 84.5034 78.3334C83.4994 82.4544 86.0263 86.609 90.1473 87.613C94.2683 88.617 98.4229 86.0901 99.4269 81.9691Z" fill="#FF98E5"/>
<g clip-path="url(#clip3_7146_343)">
<path d="M54.6804 92.231C59.769 90.7422 62.6872 85.4102 61.1984 80.3216C59.7096 75.233 54.3775 72.3147 49.2889 73.8035C44.2003 75.2924 41.2821 80.6244 42.7709 85.713C44.2597 90.8016 49.5918 93.7198 54.6804 92.231Z" fill="#663AF8"/>
<path d="M63.1303 63.4153C65.553 59.576 64.4045 54.4996 60.5651 52.077C56.7258 49.6544 51.6495 50.8029 49.2269 54.6422C46.8042 58.4816 47.9527 63.5579 51.7921 65.9805C55.6314 68.4031 60.7077 67.2546 63.1303 63.4153Z" fill="#FF98E5"/>
<path d="M33.7463 75.6632C38.8349 74.1743 41.7531 68.8423 40.2643 63.7537C38.7755 58.6651 33.4435 55.7469 28.3549 57.2357C23.2662 58.7245 20.348 64.0565 21.8368 69.1451C23.3256 74.2337 28.6577 77.152 33.7463 75.6632Z" fill="white"/>
<path d="M42.0851 52.8434C46.6649 51.5035 49.2912 46.7046 47.9513 42.1249C46.6114 37.5451 41.8125 34.9187 37.2328 36.2587C32.6531 37.5986 30.0267 42.3974 31.3666 46.9772C32.7065 51.5569 37.5054 54.1833 42.0851 52.8434Z" fill="#663AF8"/>
<path d="M56.0465 33.1682C60.1173 31.9771 62.4519 27.7115 61.2609 23.6406C60.0698 19.5697 55.8042 17.2351 51.7333 18.4262C47.6624 19.6172 45.3278 23.8829 46.5189 27.9538C47.7099 32.0246 51.9756 34.3592 56.0465 33.1682Z" fill="#FF98E5"/>
</g>
<g clip-path="url(#clip4_7146_343)">
<path d="M24.7874 -0.452938C28.621 3.20952 34.6978 3.07075 38.3603 -0.762902C42.0227 -4.59655 41.884 -10.6734 38.0503 -14.3358C34.2167 -17.9983 28.1399 -17.8595 24.4774 -14.0258C20.815 -10.1922 20.9537 -4.1154 24.7874 -0.452938Z" fill="#663AF8"/>
</g>
</g>
<defs>
<clipPath id="clip0_7146_343">
<rect width="240" height="240" fill="white" transform="translate(0 -100)"/>
</clipPath>
<clipPath id="clip1_7146_343">
<rect width="240" height="240" fill="white" transform="translate(163.924 -143.923) rotate(60)"/>
</clipPath>
<clipPath id="clip2_7146_343">
<rect width="240" height="240" fill="white" transform="translate(283.924 -23.9233) rotate(120)"/>
</clipPath>
<clipPath id="clip3_7146_343">
<rect width="240" height="240" fill="white" transform="translate(76.0762 183.923) rotate(-120)"/>
</clipPath>
<clipPath id="clip4_7146_343">
<rect width="240" height="240" fill="white" transform="translate(-43.9238 63.9233) rotate(-60)"/>
</clipPath>
</defs>
</svg>
