<svg width="180" height="140" viewBox="0 0 180 140" fill="none" xmlns="http://www.w3.org/2000/svg">
<g clip-path="url(#clip0_7146_5619)">
<path d="M182.535 -10.7544C178.244 -10.9281 174.625 -7.59034 174.451 -3.29928C174.277 0.991769 177.615 4.61116 181.906 4.78486C186.197 4.95856 189.817 1.62078 189.99 -2.67027C190.164 -6.96133 186.826 -10.5807 182.535 -10.7544Z" fill="white"/>
<path d="M168.594 9.17785C165.741 11.4981 165.309 15.6917 167.63 18.5445C169.95 21.3973 174.143 21.829 176.996 19.5088C179.849 17.1885 180.281 12.995 177.96 10.1422C175.64 7.28935 171.447 6.85762 168.594 9.17785Z" fill="white"/>
<path d="M182.011 22.7362C178.149 22.5799 174.892 25.5839 174.736 29.4459C174.579 33.3078 177.583 36.5653 181.445 36.7216C185.307 36.8779 188.565 33.8739 188.721 30.012C188.877 26.15 185.873 22.8926 182.011 22.7362Z" fill="white"/>
<path d="M166.205 34.2269C162.773 34.0879 159.877 36.7582 159.738 40.191C159.599 43.6238 162.269 46.5194 165.702 46.6583C169.135 46.7973 172.031 44.127 172.17 40.6942C172.309 37.2614 169.638 34.3658 166.205 34.2269Z" fill="white"/>
<g clip-path="url(#clip1_7146_5619)">
<path d="M150.755 82.5354C150.928 78.2443 147.591 74.625 143.3 74.4513C139.008 74.2776 135.389 77.6153 135.215 81.9064C135.042 86.1974 138.379 89.8168 142.671 89.9905C146.962 90.1642 150.581 86.8265 150.755 82.5354Z" fill="white"/>
<path d="M130.822 68.5941C128.502 65.7413 124.308 65.3096 121.456 67.6298C118.603 69.95 118.171 74.1436 120.491 76.9964C122.811 79.8492 127.005 80.2809 129.858 77.9607C132.711 75.6405 133.142 71.4469 130.822 68.5941Z" fill="white"/>
<path d="M132.622 94.3174C132.796 90.0263 129.458 86.4069 125.167 86.2332C120.876 86.0595 117.256 89.3973 117.083 93.6884C116.909 97.9794 120.247 101.599 124.538 101.773C128.829 101.946 132.448 98.6084 132.622 94.3174Z" fill="#663AF8"/>
<path d="M117.264 82.0126C117.42 78.1507 114.416 74.8932 110.554 74.7369C106.692 74.5806 103.434 77.5846 103.278 81.4465C103.122 85.3085 106.126 88.5659 109.988 88.7223C113.85 88.8786 117.107 85.8746 117.264 82.0126Z" fill="white"/>
<path d="M105.773 66.2062C105.912 62.7734 103.242 59.8778 99.8088 59.7389C96.3759 59.5999 93.4804 62.2701 93.3414 65.703C93.2025 69.1358 95.8727 72.0313 99.3056 72.1703C102.738 72.3093 105.634 69.639 105.773 66.2062Z" fill="white"/>
</g>
<path d="M57.4648 50.7544C61.7559 50.9281 65.3753 47.5903 65.549 43.2993C65.7227 39.0082 62.3849 35.3888 58.0939 35.2151C53.8028 35.0414 50.1834 38.3792 50.0097 42.6703C49.836 46.9613 53.1738 50.5807 57.4648 50.7544Z" fill="white"/>
<path d="M71.4061 30.8222C74.2589 28.5019 74.6907 24.3083 72.3704 21.4555C70.0502 18.6027 65.8566 18.171 63.0038 20.4912C60.151 22.8115 59.7193 27.005 62.0395 29.8578C64.3598 32.7106 68.5533 33.1424 71.4061 30.8222Z" fill="white"/>
<path d="M45.6836 32.6218C49.9746 32.7955 53.594 29.4578 53.7677 25.1667C53.9414 20.8757 50.6037 17.2563 46.3126 17.0826C42.0216 16.9089 38.4022 20.2467 38.2285 24.5377C38.0548 28.8288 41.3925 32.4482 45.6836 32.6218Z" fill="#663AF8"/>
<path d="M57.9886 17.2638C61.8505 17.4201 65.108 14.4161 65.2643 10.5541C65.4206 6.6922 62.4166 3.43474 58.5547 3.27842C54.6927 3.12209 51.4353 6.12609 51.279 9.98804C51.1226 13.85 54.1266 17.1074 57.9886 17.2638Z" fill="white"/>
<path d="M73.7945 5.77311C77.2274 5.91207 80.1229 3.24185 80.2618 -0.190993C80.4008 -3.62384 77.7306 -6.51935 74.2977 -6.65831C70.8649 -6.79726 67.9694 -4.12704 67.8304 -0.694202C67.6915 2.73864 70.3617 5.63415 73.7945 5.77311Z" fill="white"/>
</g>
<defs>
<clipPath id="clip0_7146_5619">
<rect width="240" height="240" fill="white" transform="translate(0 -100)"/>
</clipPath>
<clipPath id="clip1_7146_5619">
<rect width="240" height="240" fill="white" transform="matrix(-1 0 0 -1 240 140)"/>
</clipPath>
</defs>
</svg>
