<svg width="29" height="28" viewBox="0 0 29 28" fill="none" xmlns="http://www.w3.org/2000/svg">
<path fill-rule="evenodd" clip-rule="evenodd" d="M6.96289 8.13309H21.2984C21.1671 5.66352 19.7466 4.12976 17.6653 3.05265L17.7374 2.94316C17.7886 2.86538 17.8362 2.79291 17.8845 2.7208L18.0821 2.42535C18.33 2.05452 18.578 1.68366 18.8272 1.31367C18.9206 1.17507 18.9457 1.03677 18.7979 0.928433C18.6344 0.808648 18.5046 0.886932 18.4024 1.03221C18.37 1.07819 18.3388 1.12496 18.3078 1.17175L18.2716 1.22585L17.1796 2.85078C17.1524 2.84255 17.1272 2.83516 17.1033 2.82816C17.0546 2.8139 17.0112 2.80118 16.9688 2.78667C15.2027 2.1834 13.4242 2.15405 11.6339 2.67251C11.3531 2.75383 11.212 2.79471 11.1009 2.75437C10.9896 2.71395 10.9078 2.59215 10.7441 2.34829L10.5911 2.12014C10.3763 1.79997 10.1614 1.47949 9.94426 1.16093C9.93063 1.14093 9.9171 1.1198 9.90347 1.09843C9.80444 0.943576 9.69711 0.775495 9.4734 0.927227C9.26421 1.06913 9.3745 1.22739 9.47611 1.37318C9.489 1.3917 9.50177 1.41001 9.51372 1.42806C9.59883 1.55661 9.68479 1.68458 9.77084 1.81254C9.83692 1.9108 9.90291 2.00905 9.96852 2.10757C10.1162 2.3291 10.2634 2.55091 10.4127 2.77587L10.5968 3.05322C8.50401 4.14014 7.09611 5.67087 6.96289 8.13309ZM21.2922 9.18018H6.97704V9.45762L6.97681 12.431C6.97648 15.0377 6.97615 17.6445 6.97821 20.2512C6.97905 21.2813 7.6515 21.9468 8.68484 21.9542C8.92441 21.956 9.16398 21.9555 9.40574 21.955H9.40723C9.51726 21.9549 9.62776 21.9547 9.73892 21.9547C9.73323 22.0164 9.7267 22.0735 9.72063 22.1276C9.70831 22.2357 9.69739 22.3317 9.69711 22.4277C9.69384 23.4779 9.69207 24.5281 9.69907 25.5782C9.7001 25.7408 9.72894 25.9092 9.77803 26.0646C10.0002 26.768 10.7 27.1985 11.448 27.1045C12.1531 27.016 12.7248 26.4254 12.7512 25.7029C12.7703 25.1798 12.7679 24.6557 12.7654 24.1318C12.7644 23.9165 12.7634 23.7014 12.7639 23.4863C12.7647 23.1399 12.7645 22.7936 12.7642 22.4475L12.7641 21.9817H15.5084C15.5084 22.3666 15.5053 22.7492 15.5023 23.13C15.4952 24.026 15.4881 24.913 15.5209 25.7983C15.55 26.5786 16.2967 27.142 17.1147 27.1121C17.8762 27.0844 18.5406 26.4504 18.5524 25.6865C18.5657 24.8228 18.5628 23.9589 18.56 23.0826V23.0812C18.5587 22.7082 18.5575 22.333 18.5575 21.9547H18.8393H19.4394C20.6491 21.9542 21.2914 21.3216 21.2918 20.1249C21.2926 17.6025 21.2924 15.0801 21.2923 12.5578L21.2922 9.50625V9.18018ZM17.964 5.3662C17.9684 4.95429 17.6213 4.60382 17.2045 4.59924C16.7837 4.59454 16.4409 4.93116 16.4376 5.35226C16.4342 5.77835 16.7627 6.10985 17.1909 6.11255C17.6174 6.11515 17.9597 5.78471 17.964 5.3662ZM11.0493 4.59841C11.4682 4.59058 11.8138 4.92674 11.8193 5.34732C11.8249 5.77429 11.4988 6.10777 11.0714 6.11233C10.6464 6.11684 10.3013 5.78732 10.2938 5.36972C10.2865 4.96022 10.6334 4.60616 11.0493 4.59841ZM25.3779 13.9517C25.3778 14.2775 25.378 14.6034 25.3783 14.9292V14.9305C25.3789 15.663 25.3794 16.3956 25.3769 17.128C25.3737 18.0601 24.7289 18.733 23.8481 18.7324C22.9681 18.7319 22.3178 18.0544 22.3169 17.1282L22.3166 16.8431C22.3147 14.7913 22.3128 12.7397 22.3187 10.6879C22.3209 9.89759 22.9037 9.26323 23.6727 9.18372C24.473 9.10103 25.1743 9.59435 25.3438 10.3702C25.3758 10.5166 25.3761 10.6714 25.3765 10.8226V10.8336C25.3785 11.6263 25.3782 12.419 25.378 13.2118L25.3779 13.9517ZM5.94153 14.9405C5.9406 14.6118 5.93967 14.283 5.93967 13.9542L5.94207 13.9543C5.94207 13.6264 5.94291 13.2984 5.94375 12.9703C5.94569 12.2103 5.94763 11.4503 5.93914 10.6904C5.92947 9.82274 5.26426 9.17475 4.41343 9.17471C3.56619 9.17471 2.88502 9.83263 2.88153 10.6902C2.87281 12.8662 2.87061 15.0422 2.88897 17.2181C2.89121 17.4855 2.98795 17.7778 3.1215 18.0135C3.44912 18.5916 4.1511 18.8554 4.7912 18.6931C5.44586 18.5271 5.92688 17.9552 5.93577 17.2764C5.94595 16.4978 5.94374 15.7192 5.94153 14.9405Z" fill="white"/>
</svg>
