<svg width="29" height="28" viewBox="0 0 29 28" fill="none" xmlns="http://www.w3.org/2000/svg">
<path d="M21.6154 14.8904C21.5837 11.353 24.5127 9.632 24.6466 9.55192C22.9877 7.13402 20.4167 6.80365 19.5132 6.77733C17.3537 6.55013 15.2591 8.06913 14.159 8.06913C13.037 8.06913 11.3431 6.79927 9.51738 6.83658C7.16803 6.87281 4.97017 8.23266 3.76475 10.3443C1.27706 14.65 3.1324 20.9773 5.51578 24.4576C6.70804 26.1632 8.10118 28.0653 9.92469 27.9982C11.7087 27.9258 12.3751 26.8623 14.5279 26.8623C16.661 26.8623 17.2866 27.9983 19.1465 27.9555C21.061 27.9258 22.2664 26.2433 23.4171 24.5234C24.7948 22.5709 25.3481 20.6458 25.3701 20.5471C25.3261 20.5317 21.6528 19.1291 21.6154 14.8904ZM18.1024 4.48785C19.0618 3.28823 19.7184 1.65619 19.5363 0C18.1475 0.0614623 16.4107 0.960353 15.4106 2.13363C14.5258 3.1675 13.7353 4.86211 13.9394 6.45575C15.4995 6.57209 17.1013 5.66881 18.1024 4.48785Z" fill="white"/>
</svg>
