<svg width="29" height="28" viewBox="0 0 29 28" fill="none" xmlns="http://www.w3.org/2000/svg">
<path fill-rule="evenodd" clip-rule="evenodd" d="M16.4734 13.4628C16.3856 13.4628 16.2978 13.4628 16.2099 13.3753L4.96714 2.789C4.87931 2.61402 4.79148 2.43904 4.87931 2.26406C4.96714 2.08908 5.14281 2.00159 5.31848 2.00159C5.40631 2.03075 5.49414 2.05019 5.58198 2.06964C5.75765 2.10852 5.93332 2.1474 6.10899 2.26406L19.8111 9.70072C19.9868 9.78817 20.0747 9.87572 20.0747 10.0507C20.0747 10.1382 19.9868 10.3132 19.899 10.4006L16.737 13.3753C16.6492 13.4628 16.5612 13.4628 16.4734 13.4628ZM15.4215 13.9031C15.5094 13.9906 15.5972 14.1656 15.5972 14.2531C15.5972 14.3406 15.5972 14.5155 15.5094 14.6031L4.00309 25.4518C4.00309 25.5393 3.82743 25.5393 3.73959 25.5393H3.65175C3.51756 25.5393 3.43462 25.4372 3.36378 25.35C3.3419 25.323 3.32116 25.2975 3.30042 25.2768C3.21259 25.0144 3.12476 24.7519 3.12476 24.4894V4.01671C3.12476 3.75424 3.21259 3.49177 3.30042 3.22929C3.38825 3.05431 3.47609 2.96682 3.65175 2.96682C3.73959 2.96682 3.91526 2.96682 4.00309 3.05431L15.4215 13.9031ZM16.8247 15.1284C16.6491 14.9534 16.3856 14.9534 16.2099 15.1284L4.96713 25.7148C4.87929 25.8897 4.79146 26.0647 4.87929 26.2397C4.96713 26.4147 5.14279 26.5021 5.31846 26.5021C5.58197 26.5021 5.84547 26.4147 6.10897 26.2397L19.7233 18.7155C19.8111 18.6281 19.8989 18.5405 19.9868 18.3655C19.9868 18.1906 19.9868 18.1031 19.8111 18.0156L16.8247 15.1284ZM21.4826 10.5803L24.8203 12.4176C25.6108 12.7676 25.8743 13.5549 25.8743 14.2548C25.8743 14.9548 25.4352 15.6547 24.8203 16.0046L21.307 17.9295C21.307 18.0169 21.2191 18.0169 21.1313 18.0169C21.0435 18.0169 20.9556 18.0169 20.8678 17.9295L17.4423 14.6923C17.3545 14.6048 17.2666 14.5174 17.2666 14.3424C17.2666 14.1674 17.3545 14.0799 17.4423 13.9924L20.9556 10.6677C21.1313 10.4927 21.307 10.4927 21.4826 10.5803Z" fill="white"/>
</svg>
