<svg width="124" height="32" viewBox="0 0 124 32" fill="none" xmlns="http://www.w3.org/2000/svg">
<g clip-path="url(#clip0_1061_1553)">
<path d="M16.0049 4C9.38504 4 4 9.38286 4 16C4 22.6171 9.38504 28 16.0049 28C19.896 28 23.3605 26.1402 25.5555 23.263C25.0248 23.4199 24.4755 23.5519 23.9975 23.6054C22.8127 23.7379 21.0943 23.4964 20.3558 23.3763C19.0801 24.1341 17.5927 24.5714 16.0049 24.5714C11.2758 24.5714 7.42996 20.7271 7.42996 16C7.42996 11.2729 11.2758 7.42857 16.0049 7.42857C20.7339 7.42857 24.5798 11.2729 24.5798 16C24.5798 16.4586 24.5419 16.9083 24.4701 17.3473C25.0865 17.157 25.8158 16.8754 26.5651 16.4618C27.11 16.161 27.5903 15.832 28 15.5133C27.7437 9.1209 22.4616 4 16.0049 4Z" fill="#0D8523"/>
<path fill-rule="evenodd" clip-rule="evenodd" d="M27.937 17.3258C27.7125 17.4846 27.4891 17.6287 27.2749 17.7469C25.9532 18.4764 24.2966 18.969 22.8134 19.2186C21.0898 19.5057 18.4016 19.1757 17.274 17.6671C17.8399 17.6114 18.3501 17.47 18.8003 17.2471C19.4048 16.9471 19.8764 16.5186 20.2152 15.9657C20.5539 15.4086 20.7211 14.7529 20.7211 13.9943C20.7211 13.2357 20.5581 12.5843 20.228 12.0229C19.9022 11.4614 19.4434 11.0243 18.8517 10.7157C18.2601 10.4071 17.5741 10.2486 16.7852 10.2486H12.2105V21.7H15.0874V17.8086C15.2031 18.3486 15.4389 18.82 15.7176 19.2186C16.7647 20.5557 18.2348 21.4081 19.8338 21.8616L19.8331 21.8555C19.8331 21.8555 21.5946 22.3971 23.8343 22.1466C25.0218 22.0138 26.029 21.6935 26.7132 21.4219C27.3517 20.1669 27.7758 18.7853 27.937 17.3258ZM16.9738 15.28C16.7337 15.4 16.4465 15.46 16.1078 15.46H15.0916V12.5414H16.1078C16.4465 12.5414 16.7337 12.5971 16.9738 12.7129C17.2139 12.8286 17.3983 12.9957 17.5269 13.21C17.6555 13.4243 17.7199 13.6857 17.7199 13.99C17.7199 14.2943 17.6555 14.5514 17.5269 14.77C17.3983 14.9929 17.2139 15.16 16.9738 15.28Z" fill="#0D8523"/>
</g>
<path fill-rule="evenodd" clip-rule="evenodd" d="M62.5313 14.062C61.9926 13.7313 61.3981 13.5659 60.7476 13.5659C59.7516 13.5659 58.9741 13.9328 58.4151 14.6667V10H55.9301V21.7984H58.1407C58.161 21.4367 58.1966 21.0594 58.2474 20.6667C58.532 21.1111 58.8877 21.447 59.3146 21.6744C59.7414 21.8915 60.2191 22 60.7476 22C61.3981 22 61.9926 21.8346 62.5313 21.5039C63.0801 21.1628 63.5121 20.677 63.8271 20.0465C64.1524 19.4057 64.315 18.6512 64.315 17.7829C64.315 16.9044 64.1524 16.1499 63.8271 15.5194C63.5121 14.8786 63.0801 14.3928 62.5313 14.062ZM61.2964 19.3023C60.9915 19.6848 60.5952 19.876 60.1073 19.876C59.6296 19.876 59.2282 19.6951 58.9029 19.3333C58.5777 18.9716 58.4151 18.4548 58.4151 17.7829C58.4151 17.1214 58.5777 16.6253 58.9029 16.2946C59.2282 15.9535 59.6296 15.7829 60.1073 15.7829C60.6053 15.7829 61.0017 15.9638 61.2964 16.3256C61.6013 16.677 61.7538 17.1628 61.7538 17.7829C61.7538 18.4134 61.6013 18.9199 61.2964 19.3023Z" fill="#303133"/>
<path d="M68.1666 21.7984H65.6817V10H68.1666V21.7984Z" fill="#303133"/>
<path d="M89.1449 21.7984H91.6299V10H89.1449V21.7984Z" fill="#303133"/>
<path fill-rule="evenodd" clip-rule="evenodd" d="M120 10H117.515V14.6667C116.956 13.9328 116.184 13.5659 115.198 13.5659C114.537 13.5659 113.932 13.7313 113.384 14.062C112.845 14.3928 112.413 14.8786 112.088 15.5194C111.773 16.1499 111.615 16.9044 111.615 17.7829C111.615 18.6512 111.773 19.4057 112.088 20.0465C112.413 20.677 112.845 21.1628 113.384 21.5039C113.932 21.8346 114.537 22 115.198 22C115.716 22 116.184 21.8915 116.6 21.6744C117.027 21.447 117.388 21.1111 117.683 20.6667C117.734 20.9767 117.769 21.354 117.789 21.7984H120V10ZM117.027 19.3333C116.702 19.6951 116.306 19.876 115.838 19.876C115.34 19.876 114.939 19.6848 114.634 19.3023C114.329 18.9199 114.176 18.4134 114.176 17.7829C114.176 17.1628 114.329 16.677 114.634 16.3256C114.939 15.9638 115.34 15.7829 115.838 15.7829C116.316 15.7829 116.712 15.9535 117.027 16.2946C117.352 16.6253 117.515 17.1214 117.515 17.7829C117.515 18.4548 117.352 18.9716 117.027 19.3333Z" fill="#303133"/>
<path d="M110.24 13.783H107.755V17.5504C107.755 18.2532 107.628 18.801 107.373 19.1938C107.119 19.5866 106.759 19.783 106.291 19.783C105.813 19.783 105.483 19.5917 105.3 19.2093C105.127 18.8166 105.041 18.2998 105.041 17.6589V13.783H102.556V18.5116C102.556 19.6589 102.81 20.5271 103.318 21.1163C103.837 21.7054 104.543 22 105.437 22C106.565 22 107.389 21.5194 107.907 20.5582C107.938 20.6925 107.973 20.9923 108.014 21.4574L108.044 21.7985H110.24V13.783Z" fill="#303133"/>
<path fill-rule="evenodd" clip-rule="evenodd" d="M93.0054 17.7829C93.0054 16.9354 93.1934 16.1912 93.5695 15.5504C93.9557 14.9096 94.4689 14.4186 95.1092 14.0775C95.7495 13.7364 96.4356 13.5659 97.1673 13.5659C97.8991 13.5659 98.58 13.7364 99.2102 14.0775C99.8505 14.4186 100.359 14.9096 100.735 15.5504C101.111 16.1912 101.299 16.9354 101.299 17.7829C101.299 18.6408 101.111 19.3902 100.735 20.031C100.359 20.6615 99.8556 21.1473 99.2254 21.4884C98.5953 21.8295 97.9093 22 97.1673 22C96.4254 22 95.7343 21.8295 95.094 21.4884C94.4639 21.1473 93.9557 20.6615 93.5695 20.031C93.1934 19.3902 93.0054 18.6408 93.0054 17.7829ZM95.5666 17.7829C95.5666 18.4134 95.714 18.9147 96.0087 19.2868C96.3136 19.6486 96.6947 19.8295 97.1521 19.8295C97.5993 19.8295 97.9702 19.6486 98.265 19.2868C98.5699 18.9147 98.7223 18.4134 98.7223 17.7829C98.7223 17.1525 98.5699 16.6512 98.265 16.2791C97.9702 15.907 97.5993 15.7209 97.1521 15.7209C96.6947 15.7209 96.3136 15.907 96.0087 16.2791C95.714 16.6512 95.5666 17.1525 95.5666 17.7829Z" fill="#303133"/>
<path d="M83.6367 19.5659C84.6428 19.5659 85.3746 19.0284 85.832 17.9535L88.012 19.2558C87.8494 19.7519 87.5699 20.2119 87.1735 20.6356C86.7772 21.0491 86.2792 21.3798 85.6795 21.6279C85.09 21.876 84.4294 22 83.6976 22C82.6915 22 81.7717 21.7571 80.9383 21.2713C80.1049 20.7855 79.4442 20.0982 78.9564 19.2093C78.4686 18.3101 78.2246 17.2765 78.2246 16.1085C78.2246 14.9406 78.4686 13.9121 78.9564 13.0232C79.4442 12.1344 80.1049 11.447 80.9383 10.9612C81.7717 10.4754 82.6915 10.2325 83.6976 10.2325C84.4294 10.2325 85.09 10.3566 85.6795 10.6046C86.2792 10.8527 86.7772 11.1886 87.1735 11.6124C87.5699 12.0258 87.8494 12.4806 88.012 12.9767L85.832 14.2791C85.3746 13.2041 84.6428 12.6667 83.6367 12.6667C83.1387 12.6667 82.6864 12.8062 82.2798 13.0853C81.8835 13.354 81.5633 13.7519 81.3194 14.2791C81.0856 14.7959 80.9688 15.4057 80.9688 16.1085C80.9688 16.8114 81.0856 17.4263 81.3194 17.9535C81.5633 18.4806 81.8835 18.8837 82.2798 19.1628C82.6864 19.4315 83.1387 19.5659 83.6367 19.5659Z" fill="#303133"/>
<path fill-rule="evenodd" clip-rule="evenodd" d="M75.5182 14.0465C74.9694 13.7261 74.3342 13.5659 73.6126 13.5659C72.9012 13.5659 72.2355 13.7261 71.6155 14.0465C70.9955 14.3566 70.4924 14.8269 70.1062 15.4574C69.7302 16.0879 69.5421 16.8527 69.5421 17.7519C69.5421 18.6615 69.7302 19.4367 70.1062 20.0775C70.4924 20.7183 70.9955 21.199 71.6155 21.5194C72.2456 21.8398 72.9164 22 73.6278 22C74.4003 22 75.0965 21.8346 75.7164 21.5039C76.3364 21.1731 76.7582 20.7028 76.9818 20.093L75.1676 18.9922C75.0456 19.292 74.8525 19.5194 74.5883 19.6744C74.3342 19.8295 74.0445 19.907 73.7193 19.907C73.3229 19.907 72.9875 19.7881 72.7131 19.5504C72.4387 19.3023 72.2456 18.9561 72.1338 18.5116H77.18C77.2409 18.1395 77.2714 17.7881 77.2714 17.4574C77.2714 16.6718 77.119 15.9845 76.8141 15.3953C76.5092 14.8062 76.0772 14.3566 75.5182 14.0465ZM72.6522 15.907C72.8961 15.6899 73.1908 15.5814 73.5364 15.5814C73.8616 15.5814 74.136 15.6848 74.3596 15.8915C74.5832 16.0982 74.7153 16.3979 74.756 16.7907H72.1338C72.2456 16.4083 72.4184 16.1137 72.6522 15.907Z" fill="#303133"/>
<path d="M51.6275 13.783H54.1124V21.7985H51.9171L51.8866 21.4574C51.846 20.9923 51.8104 20.6925 51.7799 20.5582C51.2616 21.5194 50.4383 22 49.3102 22C48.4158 22 47.7095 21.7054 47.1911 21.1163C46.6829 20.5271 46.4289 19.6589 46.4289 18.5116V13.783H48.9138V17.6589C48.9138 18.2998 49.0002 18.8166 49.173 19.2093C49.3559 19.5917 49.6862 19.783 50.1639 19.783C50.6314 19.783 50.9922 19.5866 51.2463 19.1938C51.5004 18.801 51.6275 18.2532 51.6275 17.5504V13.783Z" fill="#303133"/>
<path fill-rule="evenodd" clip-rule="evenodd" d="M42.5554 21.7829L45.6502 21.7985L42.6469 17.3954C43.277 17.0749 43.7598 16.6408 44.0952 16.093C44.4306 15.5452 44.5983 14.9147 44.5983 14.2016C44.5983 13.4574 44.4153 12.801 44.0494 12.2326C43.6835 11.6641 43.1551 11.2248 42.4639 10.9147C41.783 10.6047 40.9801 10.4496 40.0552 10.4496H36V21.7985H38.6069V17.9535H40.0857L42.5554 21.7829ZM38.6069 15.7364V12.6822H39.7503C41.1529 12.6822 41.8541 13.1886 41.8541 14.2016C41.8541 14.7597 41.6458 15.1576 41.2291 15.3954C40.8225 15.6227 40.3296 15.7364 39.7503 15.7364H38.6069Z" fill="#303133"/>
<defs>
<clipPath id="clip0_1061_1553">
<rect width="32" height="32" fill="white"/>
</clipPath>
</defs>
</svg>
