<svg width="128" height="32" viewBox="0 0 128 32" fill="none" xmlns="http://www.w3.org/2000/svg">
<mask id="mask0_1068_1769" style="mask-type:luminance" maskUnits="userSpaceOnUse" x="19" y="3" width="89" height="26">
<path d="M108 3H19V28.1437H108V3Z" fill="white"/>
</mask>
<g mask="url(#mask0_1068_1769)">
<path d="M19.3565 21.7891H20.4588C20.5075 21.7891 20.5723 21.7729 20.5885 21.6432V4.58894H28.0133C28.0781 4.58894 28.143 4.54031 28.143 4.47546V3.42173C28.143 3.32446 28.0457 3.32446 28.0133 3.32446H19.2268V21.6594C19.2268 21.7243 19.2754 21.7729 19.324 21.7891C19.3402 21.7891 19.3565 21.7891 19.3565 21.7891Z" fill="black"/>
<path d="M103.607 25.9559H90.1675C90.1026 25.9559 90.0378 26.0045 90.0378 26.0856V27.0907C90.0378 27.1555 90.0702 27.2041 90.1351 27.2204H90.1513H103.607C103.672 27.2204 103.72 27.1717 103.736 27.1069V27.0907V26.0856C103.753 26.0369 103.72 25.9721 103.607 25.9559Z" fill="black"/>
<path d="M56.14 3.32446H46.8347V21.7891H56.1724C56.221 21.7891 56.2697 21.7567 56.2697 21.7081V21.6919V20.6219C56.2697 20.5246 56.1724 20.5246 56.14 20.5246H48.1802V4.58894H56.1724C56.1886 4.58894 56.2697 4.58894 56.2697 4.49168V3.42173C56.2697 3.32446 56.1724 3.32446 56.14 3.32446Z" fill="black"/>
<path d="M67.9258 13.0514L63.0463 10.49C62.0087 9.93884 61.5062 8.99858 61.5062 7.57199C61.5062 6.08055 62.4464 4.49184 65.0727 4.49184C67.2288 4.49184 68.5419 5.64284 68.7688 7.71789C68.785 7.78273 68.8823 7.81516 68.9634 7.78273L70.0982 7.49093C70.2116 7.47472 70.2927 7.36124 70.2603 7.23155C70.2603 7.21534 70.2603 7.21534 70.2603 7.19913C69.9685 5.26998 68.8661 2.98419 65.2348 2.98419C63.8082 2.98419 62.5275 3.4219 61.6359 4.21625C60.6632 5.0106 60.1606 6.12918 60.1606 7.47472C60.1606 8.75541 60.42 10.6035 62.7058 11.7707L66.8073 13.862C68.2501 14.6239 68.9472 15.6614 68.9472 17.0394C68.9472 18.7902 67.7313 20.6869 65.0889 20.6869C61.6683 20.6869 61.3116 17.9958 61.3116 16.8448C61.3116 16.7314 61.2468 16.7152 61.2144 16.7152H60.4687H60.4362H60.1282C60.1282 16.7152 60.1282 16.7152 60.112 16.7152L60.0796 16.7314C59.9661 16.7476 59.9661 16.8124 59.9661 16.8611C59.9661 19.2117 61.3116 21.9676 65.1051 21.9676C65.9156 21.9838 66.71 21.8379 67.4719 21.5299C69.4011 20.8815 70.5034 19.2928 70.5034 17.1691C70.5034 16.553 70.3413 15.9694 70.0495 15.4345C69.6442 14.4132 68.8985 13.554 67.9258 13.0514Z" fill="black"/>
<path d="M97.8679 20.5084H91.513V3.45415C91.513 3.38931 91.4806 3.34067 91.4158 3.32446C91.3996 3.32446 91.3996 3.32446 91.3833 3.32446H90.2648C90.1999 3.32446 90.1675 3.3731 90.1675 3.43794V3.45415V21.7891H97.8679C97.9327 21.7891 97.9813 21.7567 97.9976 21.6919C97.9976 21.6756 97.9976 21.6756 97.9976 21.6594V20.6219C97.9813 20.5084 97.8841 20.5084 97.8679 20.5084Z" fill="black"/>
<path d="M50.6931 13.2298C51.2605 13.2298 51.5361 12.9704 51.5361 12.3868C51.5361 11.8032 51.2767 11.5439 50.6931 11.5439C50.1095 11.5439 49.8501 11.8032 49.8501 12.3868C49.8501 12.9704 50.1095 13.2298 50.6931 13.2298Z" fill="black"/>
<path d="M23.4419 11.5439C22.8745 11.5439 22.5989 11.8032 22.5989 12.3868C22.5989 12.9704 22.8583 13.2298 23.4419 13.2298C24.0255 13.2298 24.2849 12.9704 24.2849 12.3868C24.2849 11.8032 24.0093 11.5439 23.4419 11.5439Z" fill="black"/>
<path d="M20.5887 25.5501C20.9129 25.5501 21.2047 25.696 21.3993 25.9553L21.4641 26.0364L21.918 25.696L21.8532 25.6149C21.7073 25.4204 21.5128 25.2583 21.302 25.1448C20.5077 24.7557 19.5674 25.0799 19.1621 25.8581C19.0486 26.085 19 26.3282 19 26.5714C19 26.7821 19.0486 26.9929 19.1297 27.1874C19.2107 27.3819 19.3242 27.5441 19.4701 27.69C19.616 27.8359 19.7781 27.9493 19.9727 28.0304C20.1672 28.1114 20.378 28.1601 20.5887 28.1601C21.0913 28.1601 21.5614 27.9331 21.8532 27.5278L21.918 27.4468L21.4641 27.1226L21.3993 27.2036C21.0588 27.6575 20.4266 27.7548 19.9727 27.4144C19.5188 27.0739 19.4215 26.4417 19.7619 25.9878C19.9565 25.7122 20.2645 25.5501 20.5887 25.5501Z" fill="black"/>
<path d="M29.2295 24.9827C28.354 24.9827 27.657 25.696 27.657 26.5714C27.657 27.4468 28.3703 28.1439 29.2457 28.1439C30.1211 28.1439 30.8182 27.4306 30.8182 26.5714C30.8182 25.696 30.1049 24.9827 29.2295 24.9827ZM29.2295 27.5765C28.6621 27.5765 28.2081 27.1226 28.2081 26.5714C28.2081 26.004 28.6621 25.5501 29.2132 25.5501C29.7806 25.5501 30.2346 26.004 30.2346 26.5552C30.2346 27.1226 29.7806 27.5765 29.2295 27.5765Z" fill="black"/>
<path d="M38.4375 26.4745C38.2591 26.3772 38.0646 26.3286 37.8538 26.2962L37.7566 26.2799C37.6107 26.2637 37.481 26.2151 37.3513 26.134C37.2702 26.0854 37.2378 26.0043 37.2378 25.9233C37.254 25.8098 37.3189 25.7125 37.4324 25.6639C37.5134 25.6315 37.6107 25.6153 37.6917 25.6153C37.9349 25.6315 38.1781 25.7288 38.3564 25.8909L38.4375 25.9557L38.7941 25.518L38.713 25.4532C38.4861 25.2586 38.2105 25.1289 37.9187 25.0641C37.8376 25.0479 37.7728 25.0479 37.6917 25.0479C37.5134 25.0479 37.3513 25.0803 37.1892 25.1614C37.0433 25.2262 36.9136 25.3235 36.8163 25.4532C36.7191 25.5991 36.6704 25.7612 36.6704 25.9233C36.6704 26.0692 36.7028 26.2151 36.7839 26.3286C36.865 26.4583 36.9622 26.5555 37.0919 26.6366C37.3189 26.7339 37.5458 26.7987 37.7728 26.8473C37.9187 26.8635 38.0484 26.9122 38.1619 26.977C38.2429 27.0257 38.3078 27.1067 38.3078 27.204C38.3078 27.3499 38.2267 27.4634 38.0808 27.512C37.9835 27.5606 37.8863 27.5768 37.789 27.5768C37.7242 27.5768 37.6593 27.5768 37.5945 27.5606C37.3675 27.512 37.1406 27.3985 36.9622 27.2364L36.8812 27.1716L36.5083 27.5931L36.5894 27.6579C36.8487 27.8849 37.1405 28.0308 37.481 28.1118C37.5783 28.128 37.6917 28.1442 37.789 28.1442C37.9673 28.1442 38.1456 28.1118 38.3078 28.0308C38.4699 27.9659 38.5996 27.8524 38.6968 27.7227C38.7941 27.5768 38.8589 27.3985 38.8427 27.2202C38.8427 27.0743 38.8103 26.9284 38.7293 26.7987C38.6968 26.6528 38.5834 26.5393 38.4375 26.4745Z" fill="black"/>
<path d="M45.9595 26.1988L45.1489 25.0803H44.614V28.1118H45.1814V26.0854L45.9595 27.1553L46.7539 26.0854V28.1118H47.3212V25.0803H46.7863L45.9595 26.1988Z" fill="black"/>
<path d="M53.0437 28.1118H55.0053V27.5444H53.6111V26.6365H54.8594V26.0692H53.6111V25.6314H55.0377V25.0803H53.0437V28.1118Z" fill="black"/>
<path d="M60.7603 25.6314H61.5061V28.1118H62.0735V25.6314H62.8192V25.0803H60.7603V25.6314Z" fill="black"/>
<path d="M69.1091 25.0803H68.5417V28.1118H69.1091V25.0803Z" fill="black"/>
<path d="M76.4205 25.5501C76.7447 25.5501 77.0365 25.696 77.231 25.9554L77.2959 26.0365L77.7498 25.696L77.6849 25.615C77.539 25.4204 77.3445 25.2583 77.1338 25.1449C76.3556 24.7558 75.3992 25.0638 75.0101 25.8419C74.8966 26.0689 74.8318 26.3121 74.8318 26.5552C74.8318 26.766 74.8804 26.9767 74.9614 27.1713C75.0425 27.3658 75.156 27.5279 75.3019 27.6738C75.5937 27.9656 75.999 28.1439 76.4205 28.1439C76.923 28.1439 77.3931 27.917 77.6849 27.5117L77.7498 27.4306L77.2959 27.1064L77.231 27.1875C76.8906 27.6414 76.2584 27.7387 75.8044 27.3982C75.3505 27.0578 75.2533 26.4255 75.5937 25.9716C75.7882 25.7122 76.0962 25.5501 76.4205 25.5501Z" fill="black"/>
<path d="M85.3853 26.4745C85.207 26.3772 85.0124 26.3286 84.8017 26.2962L84.7044 26.2799C84.5585 26.2637 84.4288 26.2151 84.2991 26.134C84.2181 26.0854 84.1857 26.0043 84.1857 25.9233C84.2019 25.8098 84.2667 25.7125 84.3802 25.6639C84.4612 25.6315 84.5585 25.6153 84.6396 25.6153C84.8827 25.6315 85.1259 25.7288 85.3042 25.8909L85.3853 25.9557L85.7419 25.518L85.6609 25.4532C85.4339 25.2586 85.1583 25.1289 84.8665 25.0641C84.7855 25.0641 84.7206 25.0479 84.6396 25.0479C84.4612 25.0479 84.2991 25.0803 84.137 25.1614C83.9911 25.2262 83.8614 25.3235 83.7642 25.4532C83.6669 25.5991 83.6183 25.7612 83.6183 25.9233C83.6183 26.0692 83.6507 26.2151 83.7317 26.3286C83.8128 26.4583 83.9101 26.5555 84.0398 26.6366C84.2667 26.7339 84.4937 26.7987 84.7206 26.8473C84.8665 26.8635 84.9962 26.9122 85.1097 26.977C85.1908 27.0257 85.2556 27.1067 85.2556 27.204C85.2556 27.3499 85.1745 27.4634 85.0286 27.512C84.9314 27.5606 84.8341 27.5768 84.7368 27.5768C84.672 27.5768 84.6071 27.5768 84.5423 27.5606C84.3153 27.512 84.0884 27.3985 83.9101 27.2364L83.829 27.1716L83.4561 27.5931L83.5372 27.6579C83.7966 27.8849 84.0884 28.0308 84.4288 28.1118C84.5261 28.128 84.6396 28.1442 84.7368 28.1442C84.9152 28.1442 85.0935 28.1118 85.2556 28.0308C85.4177 27.9659 85.5474 27.8524 85.6447 27.7227C85.7419 27.5768 85.8068 27.3985 85.8068 27.2202C85.8068 27.0743 85.7744 26.9284 85.6933 26.7987C85.6447 26.6528 85.515 26.5393 85.3853 26.4745Z" fill="black"/>
<path d="M75.172 21.773H76.2906C76.3392 21.773 76.404 21.7405 76.404 21.627V12.8405H84.0071V21.627C84.0071 21.7081 84.0558 21.7567 84.1368 21.773H84.153H85.2716C85.3203 21.773 85.3851 21.7405 85.3851 21.627V3.45419C85.3851 3.37313 85.3365 3.3245 85.2554 3.30829H85.2392H84.1206C84.072 3.30829 84.0071 3.34071 84.0071 3.45419V11.5436H76.404V3.45419C76.404 3.37313 76.3554 3.3245 76.2744 3.3245H76.2581H75.1396C75.0909 3.3245 75.0261 3.35692 75.0261 3.4704V21.627C75.0261 21.7081 75.0747 21.7567 75.1558 21.773C75.1558 21.773 75.1558 21.773 75.172 21.773Z" fill="black"/>
<path d="M107.903 3.32446H106.752C106.687 3.32446 106.59 3.32446 106.525 3.53521L103.023 13.3917H102.731L102.715 13.3593L98.7921 3.53521C98.7272 3.32446 98.63 3.32446 98.5651 3.32446H97.4141C97.3817 3.32446 97.3493 3.34067 97.3168 3.35689C97.3006 3.38931 97.3006 3.43794 97.3331 3.50279L102.148 15.3532V21.627C102.148 21.6919 102.18 21.7405 102.245 21.7567H102.261H103.591C103.639 21.7567 103.688 21.7405 103.688 21.627V15.4829L107.984 3.50279C108.016 3.43794 108.016 3.3731 108 3.34067C107.968 3.32446 107.935 3.32446 107.903 3.32446Z" fill="black"/>
<path d="M41.9063 21.7567L37.7563 13.8294L37.9184 13.7807C40.1879 13.1647 41.2903 11.5274 41.2903 8.80388V8.23648C41.2903 5.99933 40.2852 3.32446 35.4543 3.32446H31.8391V21.6594C31.8391 21.7243 31.8716 21.7729 31.9364 21.7891H31.9526H33.0712C33.1685 21.7891 33.1685 21.6919 33.1685 21.6594V13.9915H36.3945L40.3014 21.7567C40.3176 21.7891 40.3501 21.8378 40.3987 21.8378H41.8253C41.9226 21.8378 41.9063 21.7891 41.9063 21.7567ZM35.6974 12.727H33.1847V4.58894H35.6002C38.5182 4.58894 39.9448 5.78858 39.9448 8.23648V8.80388C39.9448 12.2407 37.9022 12.727 35.6974 12.727Z" fill="black"/>
</g>
</svg>
