<svg width="128" height="32" viewBox="0 0 128 32" fill="none" xmlns="http://www.w3.org/2000/svg">
<mask id="mask0_1068_1665" style="mask-type:luminance" maskUnits="userSpaceOnUse" x="17" y="0" width="94" height="32">
<path d="M111 0.198242H17V31.8016H111V0.198242Z" fill="white"/>
</mask>
<g mask="url(#mask0_1068_1665)">
<path d="M25.8412 10.2846C25.8412 4.86941 30.1883 0.477051 35.5531 0.477051H26.7071C21.3447 0.477051 17 4.86714 17 10.2795V28.6483H25.8436V10.2846H25.8412ZM35.5507 20.0895H30.6037L33.8685 28.6481H43.2272L39.2035 19.3709C38.0433 19.8465 36.8028 20.0906 35.5507 20.0895Z" fill="black"/>
<path d="M45.263 10.2846C45.263 4.86944 40.9158 0.477086 35.5509 0.477086C30.1886 0.477086 25.8389 4.867 25.8389 10.2846V20.092H35.5509C36.8031 20.0931 38.0435 19.849 39.2038 19.3733C42.7573 17.9159 45.263 14.3955 45.263 10.2846ZM55.9679 13.8326L52.2577 9.56596H51.3768V13.8326H48.346V1.40424H54.5744C55.9082 1.40424 56.9807 1.77876 57.7894 2.52764C58.598 3.27635 59.0012 4.25623 59.0012 5.46746C59.0012 6.48279 58.7126 7.33713 58.1377 8.03555C57.563 8.73414 56.7716 9.19405 55.7689 9.41772L59.6258 13.8326H55.9679ZM54.241 7.00538C54.781 7.00538 55.2114 6.86971 55.5349 6.59838C55.8584 6.32687 56.0225 5.96264 56.0225 5.50273C56.0225 5.04282 55.8608 4.69868 55.5349 4.42717C55.2089 4.15583 54.7784 4.02034 54.241 4.02034H51.3744V7.00782H54.241V7.00538ZM70.0942 13.8326H67.1555V13.0914C66.409 13.7724 65.4535 14.1116 64.2888 14.1116C63.0397 14.1116 61.9772 13.6517 61.1013 12.7294C60.2254 11.8074 59.7876 10.6237 59.7876 9.17641C59.7876 7.72894 60.2254 6.56066 61.1013 5.63334C61.9772 4.70619 63.0397 4.24121 64.2888 4.24121C65.4535 4.24121 66.4064 4.58047 67.1555 5.26143V4.52023H70.0942V13.8326ZM66.4837 10.9102C66.9316 10.458 67.1531 9.88007 67.1531 9.17641C67.1531 8.47276 66.9291 7.91001 66.4837 7.4501C66.0358 6.99281 65.5057 6.76408 64.8936 6.76408C64.2441 6.76408 63.7115 6.99036 63.2961 7.44015C62.8806 7.89237 62.6715 8.47031 62.6715 9.17397C62.6715 9.87763 62.8806 10.473 63.2961 10.9177C63.7115 11.3626 64.2441 11.5861 64.8936 11.5861C65.5057 11.5861 66.0358 11.3598 66.4837 10.9102ZM72.3711 13.8326V4.52023H75.3098V13.8326H72.3711ZM77.5867 13.8326V0.477086H80.5254V13.8326H77.5867ZM57.9336 28.6482H48.3436V16.2198H57.8764V18.8532H51.3744V21.1901H56.6398V23.6752H51.3744V26.0121H57.9312V28.6455L57.9336 28.6482ZM68.9546 28.6482H66.0159V27.7585C65.2817 28.5376 64.3386 28.927 63.1866 28.927C62.109 28.927 61.2432 28.5703 60.5862 27.8591C59.9318 27.148 59.6034 26.2107 59.6034 25.0497V19.3356H62.5246V24.4191C62.5246 24.9643 62.6715 25.4042 62.9651 25.7459C63.2588 26.0851 63.6395 26.2559 64.1048 26.2559C64.7044 26.2559 65.1723 26.0424 65.5107 25.6151C65.8466 25.188 66.0159 24.5373 66.0159 23.6578V19.3356H68.9546V28.6482ZM77.8629 19.2804L77.7334 22.248H77.2011C75.0835 22.248 74.0234 23.4114 74.0234 25.7357V28.6482H71.0847V19.3358H74.0234V21.1173C74.7823 19.8434 75.8424 19.2076 77.2011 19.2076C77.4449 19.2076 77.6664 19.2328 77.8629 19.2804ZM87.1395 20.469C88.1199 21.3836 88.6101 22.5597 88.6101 23.9944C88.6101 25.4291 88.1199 26.6227 87.1395 27.5375C86.159 28.4521 84.9647 28.9095 83.5562 28.9095C82.1478 28.9095 80.9135 28.4521 79.9283 27.5375C78.9428 26.6227 78.4502 25.4417 78.4502 23.9944C78.4502 22.5471 78.9428 21.3862 79.9283 20.469C80.9135 19.5544 82.1229 19.0969 83.5562 19.0969C84.9896 19.0969 86.159 19.5544 87.1395 20.469ZM85.119 25.7282C85.5595 25.276 85.7808 24.6981 85.7808 23.9944C85.7808 23.2908 85.5569 22.7104 85.1114 22.2606C84.6635 21.8084 84.146 21.5847 83.5587 21.5847C82.9715 21.5847 82.4141 21.8108 81.9612 22.2606C81.5083 22.7128 81.2819 23.2908 81.2819 23.9944C81.2819 24.6981 81.5059 25.2785 81.9513 25.7282C82.3966 26.178 82.9342 26.4041 83.5587 26.4041C84.1833 26.4041 84.6785 26.178 85.119 25.7282ZM99.1259 20.4489C100.002 21.376 100.44 22.5571 100.44 23.992C100.44 25.4267 100.002 26.6227 99.1259 27.545C98.25 28.4673 97.1875 28.927 95.9383 28.927C94.7737 28.927 93.8207 28.5877 93.0717 27.9068V31.8017H90.133V19.3358H93.0717V20.077C93.8181 19.396 94.7737 19.0568 95.9383 19.0568C97.1875 19.0568 98.25 19.5216 99.1259 20.4489ZM96.9312 25.7357C97.3466 25.291 97.5557 24.7106 97.5557 23.992C97.5557 23.2733 97.3466 22.7079 96.9312 22.2581C96.5156 21.8057 95.9831 21.5821 95.3335 21.5821C94.7215 21.5821 94.1914 21.8108 93.7435 22.2681C93.2956 22.7254 93.0741 23.3009 93.0741 23.9944C93.0741 24.6879 93.2982 25.2785 93.7435 25.7282C94.189 26.178 94.7189 26.4041 95.3335 26.4041C95.9831 26.4041 96.5156 26.1806 96.9312 25.7357ZM111 24.7532H104.239C104.361 25.3087 104.6 25.7483 104.956 26.0699C105.312 26.3916 105.735 26.5524 106.223 26.5524C107.141 26.5524 107.795 26.1932 108.188 25.477L110.796 26.0148C110.406 26.9796 109.813 27.7058 109.025 28.1933C108.236 28.6808 107.3 28.927 106.223 28.927C104.864 28.927 103.712 28.4673 102.769 27.545C101.826 26.6227 101.355 25.4393 101.355 23.992C101.355 22.5445 101.826 21.376 102.769 20.4489C103.712 19.5216 104.869 19.0568 106.24 19.0568C107.611 19.0568 108.696 19.5092 109.602 20.4112C110.508 21.3134 110.973 22.5068 110.998 23.992V24.7532H111ZM105.048 21.8585C104.68 22.1174 104.429 22.4768 104.294 22.934H108.096C107.962 22.4516 107.728 22.0872 107.397 21.8384C107.066 21.5922 106.681 21.4665 106.24 21.4665C105.8 21.4665 105.414 21.5973 105.046 21.856L105.048 21.8585ZM75.5835 1.82661C75.5835 0.926868 74.8619 0.198242 73.971 0.198242C73.0803 0.198242 72.3587 0.926868 72.3587 1.82661V3.45479H73.971C74.1851 3.45479 74.3892 3.41219 74.5782 3.33676C74.8752 3.21507 75.1296 3.00658 75.3087 2.73799C75.4878 2.4694 75.5835 2.15292 75.5835 1.82905V1.82661Z" fill="#424249"/>
</g>
</svg>
