<svg width="128" height="32" viewBox="0 0 128 32" fill="none" xmlns="http://www.w3.org/2000/svg">
<path d="M94.2967 6.00015C94.3453 6.04954 94.3938 6.09891 94.4425 6.14829C97.6981 9.21251 100.954 12.2766 104.209 15.3408C104.209 12.4247 104.209 9.45936 104.209 6.54468C105.473 6.54468 106.736 6.54468 108 6.54468C108 12.7224 108 18.8494 108 25.0272C104.695 21.9135 101.391 18.7506 98.038 15.6371C98.038 18.5531 98.038 21.4692 98.038 24.3839C96.7744 24.3839 95.5591 24.3839 94.2954 24.3839C94.2967 18.3048 94.2967 12.1271 94.2967 6.00015Z" fill="black"/>
<path d="M21.3123 8.86697C22.3319 7.33489 24.1297 6.49409 25.8789 6.29658C28.5507 6.04969 31.4666 6.49409 33.5572 8.37182C32.6818 9.21122 31.7593 10.0027 30.8841 10.8421C29.913 9.95191 28.6007 9.50754 27.2884 9.50754C26.316 9.45819 25.2964 9.80375 24.7622 10.6446C24.3738 11.2385 24.5195 12.1272 25.0536 12.5717C25.9276 13.3123 27.0456 13.658 28.1151 14.0544C29.6702 14.5481 31.2253 15.0927 32.489 16.179C34.2382 17.6123 34.6267 20.5284 33.2658 22.3567C32.0992 23.9382 30.2043 24.779 28.3093 24.9258C26.6086 24.9751 24.9079 24.9258 23.3043 24.3332C22.0891 23.9382 21.021 23.2456 20 22.5036C20.8739 21.6641 21.7978 20.8233 22.6718 19.9839C24.1782 21.1704 26.1217 21.8122 28.0167 21.5654C28.8421 21.4172 29.7174 20.9728 30.0087 20.132C30.2029 19.3913 29.7659 18.6493 29.1334 18.3037C27.1899 17.1665 24.9052 16.9211 23.0103 15.6853C21.992 15.0433 21.118 14.0557 20.7768 12.8694C20.3884 11.4854 20.5341 10.0027 21.3123 8.86697Z" fill="black"/>
<path d="M40.5544 6.59302C41.818 6.59302 43.0818 6.59302 44.3442 6.59302C44.3442 8.96451 44.3442 11.288 44.3442 13.6596C46.9202 13.6596 49.4463 13.6596 52.0223 13.6596C52.0223 11.288 52.0223 8.96451 52.0223 6.59302C53.2861 6.59302 54.5971 6.59302 55.8607 6.59302C55.8607 12.5719 55.8607 18.5026 55.8607 24.4816C54.5971 24.4816 53.2861 24.4816 52.0223 24.4816C52.0223 21.8632 52.0223 19.194 52.0223 16.5756C49.4476 16.5756 46.9202 16.5756 44.3442 16.5756C44.3442 19.194 44.3442 21.8632 44.3442 24.4816C43.0805 24.4816 41.818 24.4816 40.5544 24.4816C40.5544 18.5534 40.5544 12.5732 40.5544 6.59302Z" fill="black"/>
<path d="M63.2961 6.59302C67.6213 6.59302 71.8968 6.59302 76.222 6.59302C76.222 7.53119 76.222 8.52014 76.222 9.45834C73.1605 9.45834 70.099 9.45834 67.0388 9.45834C67.0388 10.8917 67.0388 12.2756 67.0388 13.7089C70.0504 13.7089 73.0648 13.7089 76.0764 13.7089C76.0764 14.6485 76.0764 15.5866 76.0764 16.5262C73.0648 16.5262 70.0504 16.5262 67.0388 16.5262C67.0388 18.1571 67.0388 19.7879 67.0388 21.4188C70.1003 21.4188 73.1618 21.4188 76.222 21.4188C76.222 22.4557 76.222 23.4447 76.222 24.4816C71.8981 24.4816 67.6213 24.4816 63.2961 24.4816C63.2961 18.5534 63.2961 12.5732 63.2961 6.59302Z" fill="black"/>
<path d="M82.9751 6.59302C84.2388 6.59302 85.5025 6.59302 86.7649 6.59302C86.7649 12.5719 86.7649 18.5026 86.7649 24.4816C85.5012 24.4816 84.2374 24.4816 82.9751 24.4816C82.9751 18.5534 82.9751 12.5732 82.9751 6.59302Z" fill="black"/>
</svg>
