<?xml version="1.0" encoding="iso-8859-1"?>
<!-- Generator: Adobe Illustrator 17.0.0, SVG Export Plug-In . SVG Version: 6.00 Build 0)  -->
<!DOCTYPE svg PUBLIC "-//W3C//DTD SVG 1.1//EN" "http://www.w3.org/Graphics/SVG/1.1/DTD/svg11.dtd">
<svg version="1.1" id="Layer_1" xmlns="http://www.w3.org/2000/svg" xmlns:xlink="http://www.w3.org/1999/xlink" x="0px" y="0px"
	 width="612px" height="792px" viewBox="0 0 612 792" style="enable-background:new 0 0 612 792;" xml:space="preserve">
<g>
	<path style="fill-rule:evenodd;clip-rule:evenodd;fill:#FFFFFF;" d="M112.336,409.818h-1.339v-1.339
		c0-0.378-0.318-0.684-0.709-0.684h-0.203c-0.392,0-0.709,0.306-0.709,0.684v1.339h-1.339c-0.378,0-0.684,0.318-0.684,0.709v0.203
		c0,0.392,0.306,0.709,0.684,0.709h1.339v1.339c0,0.378,0.318,0.684,0.709,0.684h0.203c0.392,0,0.709-0.306,0.709-0.684v-1.339
		h1.339c0.378,0,0.684-0.318,0.684-0.709v-0.203C113.02,410.136,112.714,409.818,112.336,409.818z"/>
	<path style="fill-rule:evenodd;clip-rule:evenodd;fill:#FFFFFF;" d="M182.895,443.078h-2.172v-2.172c0-0.613-0.515-1.11-1.151-1.11
		h-0.329c-0.636,0-1.151,0.497-1.151,1.11v2.172h-2.172c-0.613,0-1.11,0.515-1.11,1.151v0.329c0,0.636,0.497,1.151,1.11,1.151h2.172
		v2.172c0,0.613,0.515,1.11,1.151,1.11h0.329c0.636,0,1.151-0.497,1.151-1.11v-2.172h2.172c0.613,0,1.11-0.515,1.11-1.151v-0.329
		C184.004,443.593,183.507,443.078,182.895,443.078z"/>
	<path style="fill-rule:evenodd;clip-rule:evenodd;fill:#FFFFFF;" d="M175.481,402.298c0.397,0,0.719-0.334,0.719-0.745v-0.213
		c0-0.412-0.322-0.745-0.719-0.745h-1.407v-1.407c0-0.397-0.334-0.719-0.745-0.719h-0.213c-0.412,0-0.745,0.322-0.745,0.719v1.407
		h-1.407c-0.397,0-0.719,0.334-0.719,0.745v0.213c0,0.412,0.322,0.745,0.719,0.745h1.407v1.407c0,0.397,0.334,0.719,0.745,0.719
		h0.213c0.412,0,0.745-0.322,0.745-0.719v-1.407H175.481z"/>
	<path style="fill-rule:evenodd;clip-rule:evenodd;fill:#FFFFFF;" d="M145.457,405.01v-5.41c4.626-0.475,8.108-2.695,8.108-7.591
		c0-0.125-0.007-0.375-0.007-0.375l-20.256-0.027c0,0-0.008,0.267-0.008,0.402c0,4.896,3.482,7.115,8.108,7.591v5.389
		c-13.858,0.973-24.838,12.535-24.838,26.617c0,14.718,11.991,26.692,26.729,26.692s26.73-11.974,26.73-26.692
		C170.025,417.616,159.188,406.114,145.457,405.01z M120.746,434.418h7.82v9.317H124.1
		C122.343,440.975,121.169,437.812,120.746,434.418z M145.003,418.241v-9.256c3.359,0.251,6.517,1.23,9.314,2.785v6.471H145.003z
		 M154.317,421.429v9.802h-9.314v-9.802H154.317z M141.815,418.241h-10.061v-6.172c2.985-1.764,6.406-2.865,10.061-3.101V418.241z
		 M141.815,421.429v9.802h-10.061v-9.802H141.815z M128.566,431.231h-7.991c0.058-3.519,0.921-6.844,2.414-9.802h5.577V431.231z
		 M131.754,434.418h10.061v9.317h-10.061V434.418z M141.815,446.924v7.321c-3.655-0.236-7.076-1.336-10.061-3.101v-4.22H141.815z
		 M145.003,446.924h9.314v4.519c-2.797,1.555-5.955,2.534-9.314,2.785V446.924z M145.003,443.736v-9.317h9.314v9.317H145.003z
		 M157.505,434.418h8.339c-0.422,3.394-1.597,6.556-3.354,9.317h-4.986V434.418z M157.505,431.231v-9.802h6.096
		c1.494,2.958,2.357,6.283,2.414,9.802H157.505z M161.648,418.241h-4.143v-4.327C159.068,415.168,160.462,416.623,161.648,418.241z
		 M128.566,414.344v3.897h-3.624C125.995,416.805,127.212,415.498,128.566,414.344z M126.542,446.924h2.024v1.945
		C127.853,448.261,127.175,447.613,126.542,446.924z M157.505,449.299v-2.375h2.544
		C159.263,447.779,158.411,448.571,157.505,449.299z"/>
</g>
<g>
	<path style="fill-rule:evenodd;clip-rule:evenodd;fill:#FFFFFF;" d="M340.108,305.335l-7.391,1.088v-1.317
		c0-2.553-1.605-4.733-3.858-5.598c3.86-2.396,6.446-6.669,6.446-11.547c0-7.491-6.077-13.584-13.546-13.584
		c-5.319,0-9.919,3.098-12.134,7.582c-2.215-4.484-6.815-7.582-12.134-7.582c-7.47,0-13.546,6.094-13.546,13.584
		c0,4.756,2.455,8.942,6.155,11.37c-2.529,0.705-4.393,3.024-4.393,5.775v13.44c0,3.309,2.691,6,6,6h14.025l-8.107,15.027
		c-0.571,1.059-0.176,2.38,0.883,2.951s2.38,0.176,2.951-0.883l6.483-12.017v12.097c0,1.125,0.975,2.037,2.178,2.037
		s2.178-0.912,2.178-2.037v-12.157l6.581,12.061c0.576,1.056,1.899,1.445,2.955,0.869c1.056-0.576,1.445-1.899,0.869-2.955
		l-8.181-14.993h12.196c3.309,0,6-2.691,6-6v-1.293l7.17,1.066l0.221,0.016c1.401,0,2.499-1.273,2.499-2.899v-7.202
		C342.607,306.609,341.509,305.335,340.108,305.335z M321.758,278.377c5.264,0,9.546,4.3,9.546,9.584s-4.283,9.584-9.546,9.584
		s-9.546-4.3-9.546-9.584S316.494,278.377,321.758,278.377z M309.624,293.964c1.02,2.064,2.539,3.834,4.41,5.142h-8.819
		C307.085,297.798,308.604,296.028,309.624,293.964z M297.49,278.377c5.264,0,9.546,4.3,9.546,9.584s-4.283,9.584-9.546,9.584
		s-9.546-4.3-9.546-9.584S292.226,278.377,297.49,278.377z M328.717,318.546c0,1.103-0.897,2-2,2h-35.01c-1.103,0-2-0.897-2-2
		v-13.44c0-1.103,0.897-2,2-2h10.218v6.891c0,0.9,0.78,1.629,1.742,1.629c0.962,0,1.742-0.729,1.742-1.629v-6.891h2.915v7.058
		c0,0.9,0.78,1.629,1.742,1.629c0.962,0,1.742-0.729,1.742-1.629v-7.058h3.021v7.058c0,0.9,0.78,1.629,1.742,1.629
		c0.962,0,1.742-0.729,1.742-1.629v-7.058h8.403c1.103,0,2,0.897,2,2V318.546z M339.607,315.244l-6.89-1.024v-4.769l6.89-1.025
		V315.244z"/>
	<ellipse style="fill-rule:evenodd;clip-rule:evenodd;fill:#FFFFFF;" cx="321.7" cy="283.119" rx="2.155" ry="2.162"/>
	<ellipse style="fill-rule:evenodd;clip-rule:evenodd;fill:#FFFFFF;" cx="321.758" cy="292.578" rx="2.155" ry="2.162"/>
	<ellipse style="fill-rule:evenodd;clip-rule:evenodd;fill:#FFFFFF;" cx="317.39" cy="287.894" rx="2.155" ry="2.162"/>
	<ellipse style="fill-rule:evenodd;clip-rule:evenodd;fill:#FFFFFF;" cx="326.37" cy="287.894" rx="2.155" ry="2.162"/>
	<ellipse style="fill-rule:evenodd;clip-rule:evenodd;fill:#FFFFFF;" cx="297.183" cy="283.232" rx="2.155" ry="2.162"/>
	<ellipse style="fill-rule:evenodd;clip-rule:evenodd;fill:#FFFFFF;" cx="297.241" cy="292.691" rx="2.155" ry="2.162"/>
	<ellipse style="fill-rule:evenodd;clip-rule:evenodd;fill:#FFFFFF;" cx="292.873" cy="288.007" rx="2.155" ry="2.162"/>
	<ellipse style="fill-rule:evenodd;clip-rule:evenodd;fill:#FFFFFF;" cx="301.853" cy="288.007" rx="2.155" ry="2.162"/>
</g>
<g>
	<path style="fill-rule:evenodd;clip-rule:evenodd;fill:#FFFFFF;" d="M297.464,432.399c-0.703-0.703-1.843-0.703-2.546,0
		c-0.703,0.703-0.703,1.843,0,2.546l11.016,11.016c0.703,0.703,1.843,0.703,2.546,0s0.703-1.843,0-2.546L297.464,432.399z"/>
	<path style="fill-rule:evenodd;clip-rule:evenodd;fill:#FFFFFF;" d="M344.397,405.267l0.515-0.515c1.267-1.267,1.267-3.32,0-4.587
		l-4.075-4.075c-1.267-1.267-3.32-1.267-4.587,0l-0.515,0.515l-0.981-0.981c-0.497-0.497-1.303-0.497-1.8,0s-0.497,1.303,0,1.8
		l0.981,0.981l-1.263,1.263l-0.981-0.98c-0.497-0.497-1.303-0.497-1.8,0c-0.497,0.497-0.497,1.303,0,1.8l0.981,0.98l-0.178,0.178
		c-1.253,1.253-1.262,3.273-0.036,4.543l-6.255,6.255c-3.084-2.238-7.327-4.062-11.386-3.866c-3.549,0.166-6.399,1.28-8.473,3.311
		c-1.314,1.287-2.191,2.818-2.965,4.169c-0.587,1.024-1.141,1.992-1.813,2.755c-1.352,1.535-3.053,1.898-5.942,2.41l-0.336,0.059
		c-3.859,0.688-6.613,2-8.929,4.257c-2.505,2.442-3.843,5.732-3.869,9.516c-0.046,6.607,3.887,13.525,7.807,17.454
		c4.642,4.633,11.303,7.627,16.97,7.627c0.001,0,0.001,0,0.001,0c3.867,0,7.239-1.362,9.75-3.938
		c2.257-2.315,3.569-5.069,4.256-8.929l0.06-0.335c0.512-2.89,0.876-4.591,2.411-5.943c0.763-0.673,1.73-1.227,2.756-1.814
		c1.351-0.773,2.881-1.65,4.168-2.963c2.03-2.073,3.144-4.923,3.311-8.472c0.172-3.649-1.191-7.721-3.555-11.032l6.285-6.285
		c1.273,1.139,3.224,1.109,4.447-0.115l0.178-0.178l0.981,0.981c0.497,0.497,1.303,0.497,1.8,0s0.497-1.303,0-1.8l-0.981-0.981
		l1.263-1.263l0.98,0.981c0.497,0.497,1.303,0.497,1.8,0s0.497-1.303,0-1.8L344.397,405.267z M327.183,427.506
		c-0.107,2.286-0.743,4.039-1.889,5.208c-0.801,0.818-1.908,1.452-3.08,2.123c-1.196,0.685-2.434,1.394-3.578,2.402
		c-2.922,2.575-3.51,5.895-4.027,8.823l-0.059,0.33c-0.508,2.852-1.379,4.74-2.914,6.315c-1.571,1.612-3.646,2.429-6.17,2.429
		c-5.017,0-10.363-3.097-13.435-6.163c-3.08-3.086-6.379-8.747-6.343-13.883c0.017-2.452,0.811-4.46,2.359-5.97
		c1.575-1.535,3.464-2.407,6.314-2.915l0.33-0.059c2.929-0.518,6.249-1.104,8.824-4.027c1.008-1.144,1.716-2.38,2.4-3.577
		c0.672-1.172,1.306-2.28,2.124-3.082c1.17-1.146,2.923-1.781,5.209-1.889c0.116-0.005,0.233-0.008,0.352-0.008
		c2.203,0,4.925,0.974,7.21,2.47l-8.988,8.988c-2.07-0.613-4.392-0.113-6.012,1.55c-2.349,2.41-2.322,6.291,0.06,8.669
		s6.217,2.351,8.566-0.059c1.547-1.587,2.042-3.808,1.534-5.821l9.052-9.052C326.445,422.579,327.289,425.253,327.183,427.506z"/>
</g>
<g>
	<path style="fill:#FFFFFF;" d="M162.107,279.138c-1.017-3.867-4.555-6.739-8.72-6.739c-2.554,0-4.937,1.082-6.614,2.896
		c-1.469-0.943-3.187-1.457-4.979-1.457c-2.971,0-5.686,1.386-7.416,3.706c-0.435-0.064-0.875-0.097-1.317-0.097
		c-5.007,0-9.08,4.073-9.08,9.08c0,2.395,0.937,4.663,2.597,6.354c0.05,0.461,0.095,1.043,0.095,1.242v2.656h-3.888
		c-3.417,0-6.198,2.79-6.198,6.218v17.662c0,3.429,2.781,6.218,6.191,6.218l3.895,0.01v4.093c0,7.036,7.329,11.071,20.108,11.071
		h1.354c12.779,0,20.108-4.035,20.108-11.071v-36.755c0.035-0.21,0.116-0.502,0.198-0.823c0.183-0.722,0.391-1.542,0.458-2.276
		l0.043-0.452c0.072-0.739,0.124-1.273,0.124-2.564C169.066,283.826,166.097,280.175,162.107,279.138z M126.542,321.888l-3.757-0.01
		c-0.661,0-1.198-0.546-1.198-1.218v-17.662c0-0.672,0.538-1.218,1.198-1.218h3.787L126.542,321.888z M163.243,330.981
		c0,5.633-11.564,6.071-15.108,6.071h-1.354c-3.544,0-15.108-0.438-15.108-6.071v-33.119c3.912,2.003,9.402,3.169,15.464,3.169
		c0.806,0,1.615-0.021,2.414-0.064v9.051c0,3.151,2.563,5.715,5.715,5.715s5.715-2.563,5.715-5.715v-11.417
		c0.819-0.336,1.567-0.702,2.262-1.09V330.981z M163.966,290.19l-0.045,0.478c-0.032,0.345-0.202,1.016-0.327,1.506
		c-0.015,0.06-0.027,0.111-0.042,0.168c-0.966,1.019-2.568,1.99-4.638,2.773c-0.938,0.354-1.934,1.457-1.934,2.802v12.1
		c0,0.946-0.769,1.715-1.715,1.715s-1.715-0.769-1.715-1.715v-9.648c0-0.925-0.424-1.85-1.164-2.538
		c-0.68-0.632-1.517-0.97-2.284-0.907c-0.974,0.07-1.972,0.106-2.966,0.106c-7.324,0-12.779-1.826-15.492-3.871
		c-0.147-2.624-0.884-3.243-1.182-3.49c-0.942-0.779-1.482-1.925-1.482-3.142c0-2.25,1.83-4.08,4.08-4.08
		c0.514,0,1.022,0.099,1.509,0.293l0.568,0.227l0.608-0.061c0.365-0.037,0.714-0.144,1.009-0.303
		c0.669-0.351,1.143-0.936,1.344-1.633c0.764-1.323,2.155-2.133,3.695-2.133c1.285,0,2.491,0.581,3.307,1.592
		c0.506,0.627,1.271,0.987,2.096,0.987c1.102,0,2.09-0.633,2.515-1.609c0.641-1.464,2.083-2.41,3.675-2.41
		c2.189,0,3.989,1.782,4.013,3.972l0.027,2.435l2.434,0.038c2.319,0.037,4.205,1.951,4.205,4.268
		C164.066,289.159,164.033,289.503,163.966,290.19z"/>
	<path style="fill:#FFFFFF;" d="M166.566,277.675c1.895,0,3.437-1.542,3.437-3.437c0-1.896-1.542-3.438-3.437-3.438
		s-3.437,1.542-3.437,3.438C163.129,276.133,164.671,277.675,166.566,277.675z"/>
</g>
<path style="fill:#FFFFFF;" d="M507.701,452.951l-4.821-4.821l1.7-1.699c1.881-1.882,1.79-5.035-0.203-7.03l-20.554-20.553
	c1.823-7.147-0.206-14.656-5.479-19.928c-3.951-3.951-9.204-6.127-14.792-6.127s-10.841,2.176-14.792,6.127
	s-6.127,9.205-6.127,14.792c0,5.587,2.176,10.841,6.127,14.792c3.944,3.945,9.191,6.118,14.774,6.118
	c1.744,0,3.472-0.215,5.152-0.641l20.555,20.555c0.831,0.831,1.968,1.27,3.287,1.27c1.626,0,3.362-0.686,4.423-1.747l1.019-1.019
	l4.822,4.822c0.565,0.565,1.332,0.876,2.158,0.876c0.924,0,1.85-0.396,2.541-1.087C508.845,456.298,508.939,454.189,507.701,452.951
	z M452.295,402.455c3.007-3.007,7.005-4.663,11.257-4.663s8.25,1.656,11.257,4.663c0.209,0.209,0.406,0.427,0.602,0.645
	l-22.462,22.461c-0.219-0.196-0.444-0.383-0.654-0.593C446.088,418.762,446.088,408.662,452.295,402.455z M456.293,427.874
	l21.425-21.425c1.935,3.759,2.314,8.185,0.904,12.365c-0.045,0.135-0.14,0.48-0.128,0.921c-1.21,0.854-2.817,2.117-4.524,3.824
	c-1.876,1.876-3.372,3.784-4.362,5.157c-0.083-0.007-0.161-0.022-0.249-0.022l-0.476,0.012l-0.378,0.124
	c-1.604,0.524-3.277,0.791-4.971,0.791C460.972,429.622,458.508,429.011,456.293,427.874z M492.582,450.805l-19.737-19.736
	c0.891-1.237,2.254-2.981,3.953-4.68c1.553-1.553,3.01-2.687,4.066-3.427l19.976,19.975c0.034,0.034,0.057,0.066,0.071,0.093
	l-7.485,7.485C493.313,450.612,492.918,450.787,492.582,450.805z"/>
<g>
	<path style="fill-rule:evenodd;clip-rule:evenodd;fill:#FFFFFF;" d="M487.996,304.307h-8.072c0.226-0.556,0.485-1.172,0.786-1.845
		c1.149-2.57,2.99-5.896,2.99-9.24c0-3.132-2.409-6.279-3.446-8.835c-1.346-3.317-1.4-5.638-1.4-5.638h-6.337
		c0,0,0.05,2.345,1.394,5.688c1.039,2.585,3.452,5.768,3.452,8.925c0,3.261-1.801,6.495-2.927,9.017
		c-0.314,0.704-0.588,1.35-0.825,1.928h-12.461c-11.345,0-20.575,9.23-20.575,20.575v0.927c0,11.345,9.23,20.575,20.575,20.575
		h26.846c11.345,0,20.575-9.23,20.575-20.575v-0.927C508.571,313.537,499.341,304.307,487.996,304.307z M503.571,325.809
		c0,8.588-6.987,15.575-15.575,15.575h-26.846c-8.588,0-15.575-6.987-15.575-15.575v-0.927c0-8.588,6.987-15.575,15.575-15.575
		h26.846c8.588,0,15.575,6.987,15.575,15.575V325.809z"/>
	<polygon style="fill-rule:evenodd;clip-rule:evenodd;fill:#FFFFFF;" points="462.262,316.259 457.788,316.259 457.788,323 
		451.079,323 451.079,327.494 457.788,327.494 457.788,334.235 462.262,334.235 462.262,327.494 468.598,327.494 468.598,323 
		462.262,323 	"/>
	<ellipse style="fill-rule:evenodd;clip-rule:evenodd;fill:#FFFFFF;" cx="483.903" cy="330.865" rx="4.846" ry="4.869"/>
	<ellipse style="fill-rule:evenodd;clip-rule:evenodd;fill:#FFFFFF;" cx="493.222" cy="321.502" rx="4.846" ry="4.869"/>
</g>
</svg>
