<svg width="104" height="32" viewBox="0 0 104 32" fill="none" xmlns="http://www.w3.org/2000/svg">
<g clip-path="url(#clip0_3143_618)">
<path d="M11.1795 25.5178C7.71054 23.7574 5.33333 20.1563 5.33333 16C5.33333 11.7695 7.79611 8.11424 11.3662 6.38969L15.1878 0.0202332C6.72867 0.443152 0 7.43578 0 16C0 24.0125 5.88977 30.6495 13.5761 31.8176L24.7098 13.3334H16.7098L20.8206 6.48217C24.2895 8.24258 26.6667 11.8437 26.6667 16C26.6667 20.2305 24.2039 23.8857 20.6338 25.6103L16.8122 31.9797C25.2713 31.5568 32 24.5642 32 16C32 7.98742 26.1102 1.35048 18.4239 0.182391L7.29016 18.6667H15.2902L11.1795 25.5178Z" fill="#7535FD"/>
</g>
<path d="M56.1049 26.6667V11.6493H60.8859V26.6667H56.1049Z" fill="black"/>
<path d="M58.5003 9.89918C57.829 9.89918 57.2521 9.67757 56.7698 9.23434C56.2875 8.7846 56.0463 8.24361 56.0463 7.61137C56.0463 6.98564 56.2875 6.45117 56.7698 6.00795C57.2521 5.55821 57.829 5.33334 58.5003 5.33334C59.1782 5.33334 59.755 5.55821 60.2308 6.00795C60.7132 6.45117 60.9543 6.98564 60.9543 7.61137C60.9543 8.24361 60.7132 8.7846 60.2308 9.23434C59.755 9.67757 59.1782 9.89918 58.5003 9.89918Z" fill="black"/>
<path d="M81.3784 26.6667V11.6493H86.1593V26.6667H81.3784Z" fill="black"/>
<path d="M83.7738 9.89918C83.1024 9.89918 82.5256 9.67757 82.0432 9.23434C81.5609 8.7846 81.3197 8.24361 81.3197 7.61137C81.3197 6.98564 81.5609 6.45117 82.0432 6.00795C82.5256 5.55821 83.1024 5.33334 83.7738 5.33334C84.4516 5.33334 85.0285 5.55821 85.5043 6.00795C85.9866 6.45117 86.2278 6.98564 86.2278 7.61137C86.2278 8.24361 85.9866 8.7846 85.5043 9.23434C85.0285 9.67757 84.4516 9.89918 83.7738 9.89918Z" fill="black"/>
<path d="M93.9884 11.6493L96.462 16.5964L99.0235 11.6493H103.844L99.6493 19.158L104 26.6667H99.2191L96.462 21.6804L93.7733 26.6667H88.9239L93.2845 19.158L89.139 11.6493H93.9884Z" fill="black"/>
<path d="M68.71 26.6666V18.102C68.7166 17.5284 68.8209 17.0395 69.0229 16.6354C69.2315 16.2313 69.5248 15.9217 69.9028 15.7066C70.2874 15.485 70.7306 15.3742 71.2325 15.3742C71.9886 15.3742 72.5785 15.6088 73.0021 16.0781C73.4323 16.5474 73.6442 17.1992 73.6376 18.0335V26.6666H78.4186V17.0949C78.4251 15.9673 78.21 14.9831 77.7733 14.1423C77.3431 13.2949 76.7369 12.6366 75.9548 12.1673C75.1791 11.6915 74.2634 11.4536 73.2075 11.4536C72.0994 11.4536 71.1445 11.7176 70.3428 12.2456C69.5411 12.767 68.974 13.4872 68.6416 14.4063H68.4754V11.6492H63.9291V26.6666H68.71Z" fill="black"/>
<path d="M40 6.64343V26.6666H44.8396V18.6202H52.798V14.6801H44.8396V10.5738H53.6682V6.64343H40Z" fill="black"/>
<defs>
<clipPath id="clip0_3143_618">
<rect width="32" height="32" fill="white"/>
</clipPath>
</defs>
</svg>
