<svg width="32" height="32" viewBox="0 0 32 32" fill="none" xmlns="http://www.w3.org/2000/svg">
<path d="M11.1795 25.5178C7.71054 23.7574 5.33333 20.1563 5.33333 16C5.33333 11.7695 7.79611 8.11424 11.3662 6.38969L15.1878 0.0202332C6.72867 0.443152 0 7.43578 0 16C0 24.0125 5.88977 30.6495 13.5761 31.8176L24.7098 13.3334H16.7098L20.8206 6.48217C24.2895 8.24258 26.6667 11.8437 26.6667 16C26.6667 20.2305 24.2039 23.8857 20.6338 25.6103L16.8122 31.9797C25.2713 31.5568 32 24.5642 32 16C32 7.98742 26.1102 1.35048 18.4239 0.182391L7.29016 18.6667H15.2902L11.1795 25.5178Z" fill="#7535FD"/>
</svg>
