<svg width="128" height="32" viewBox="0 0 128 32" fill="none" xmlns="http://www.w3.org/2000/svg">
<g clip-path="url(#clip0_1068_1753)">
<mask id="mask0_1068_1753" style="mask-type:luminance" maskUnits="userSpaceOnUse" x="0" y="0" width="128" height="32">
<path d="M128 0H0V32H128V0Z" fill="white"/>
</mask>
<g mask="url(#mask0_1068_1753)">
<mask id="mask1_1068_1753" style="mask-type:luminance" maskUnits="userSpaceOnUse" x="12" y="0" width="104" height="32">
<path d="M115.733 0H12.2666V32H115.733V0Z" fill="white"/>
</mask>
<g mask="url(#mask1_1068_1753)">
<path d="M44.1384 31.8718H12.2666V0H44.1384V31.8718Z" fill="black"/>
<path d="M20.4165 16.627C20.4165 18.1373 20.8155 18.294 22.5394 18.3652V18.9209H15.7148V18.3652C17.1396 18.3082 17.5385 18.1373 17.5385 16.627V6.81046C17.5385 5.30022 17.1396 5.12925 15.7576 5.07226V4.5166H27.7825L27.868 7.69381H27.2696C26.7567 6.08383 26.2153 5.57092 23.3943 5.57092H21.2144C20.559 5.57092 20.4165 5.7134 20.4165 6.31179V10.8568H21.4851C23.7362 10.8568 24.2206 10.4578 24.4913 8.94759H25.047V14.034H24.4913C24.1921 12.3385 23.3515 11.9111 21.4851 11.9111H20.4165V16.627ZM41.4032 4.5166H28.7941L28.4949 7.69381H29.2215C29.6775 6.14082 30.3613 5.57092 31.8858 5.57092H33.6668V16.627C33.6668 18.1373 33.2678 18.294 31.6294 18.3652V18.9209H38.5679V18.3652C36.9437 18.3082 36.5305 18.1373 36.5305 16.627V5.58517H38.3115C39.836 5.58517 40.5056 6.14082 40.9758 7.70806H41.7024L41.4032 4.5166Z" fill="white"/>
<path d="M50.1661 17.9094C50.1661 18.7215 50.3798 18.8212 51.3202 18.864V19.1489H47.6016V18.864C48.3709 18.8212 48.5989 18.7357 48.5989 17.9094V12.5523C48.5989 11.7259 48.3852 11.6404 47.6301 11.5977V11.2985H54.1839L54.2267 13.0225H53.899C53.6283 12.1534 53.3291 11.8684 51.7903 11.8684H50.5935C50.2374 11.8684 50.1519 11.9539 50.1519 12.2673V14.7464H51.4911C52.7164 14.7464 52.9729 14.5327 53.1296 13.7063H53.4288V16.4846H53.1296C52.9729 15.5585 52.5027 15.3306 51.4911 15.3306H50.1661V17.9094ZM57.9025 17.9094C57.9025 18.7215 58.1163 18.8212 59.0566 18.864V19.1489H55.1813V18.864C56.1216 18.8212 56.3353 18.7357 56.3353 17.9094V12.5523C56.3353 11.7259 56.1216 11.6404 55.1813 11.5977V11.2985H59.0566V11.5977C58.1163 11.6262 57.9025 11.7259 57.9025 12.5523V17.9094ZM67.1492 12.766C67.1492 11.9966 66.9355 11.6974 66.0806 11.5977V11.2985H68.8447V11.5977C67.9898 11.6974 67.7904 11.9966 67.7904 12.766V19.3341H67.4057L62.0486 13.1507V17.6814C62.0486 18.4508 62.2481 18.75 63.1029 18.8497V19.1347H60.3246V18.8497C61.1795 18.75 61.3932 18.4508 61.3932 17.6814V12.4098C61.1225 11.9396 60.809 11.7259 60.3246 11.6119V11.3127H62.4618L67.135 16.7126V12.766H67.1492ZM71.338 16.3421L72.5205 13.2362L73.6888 16.3421H71.338ZM76.9658 19.1489V18.864C76.3816 18.8782 76.2249 18.6217 75.9257 17.8809L73.1617 11.1133H72.777L69.899 18.1088C69.6995 18.5933 69.4431 18.7357 68.9444 18.8497V19.1347H71.4377V18.8497C70.8963 18.8497 70.6256 18.7357 70.6256 18.351C70.6256 18.0233 70.9818 17.1542 71.0815 16.912H73.9168C74.0023 17.1685 74.387 18.0376 74.387 18.351C74.387 18.7357 74.102 18.8497 73.5606 18.8497V19.1347L76.9658 19.1489ZM84.574 12.766C84.574 11.9966 84.3603 11.6974 83.5197 11.5977V11.2985H86.2837V11.5977C85.4288 11.6974 85.2151 11.9966 85.2151 12.766V19.3341H84.8304L79.4734 13.1507V17.6814C79.4734 18.4508 79.6871 18.75 80.5419 18.8497V19.1347H77.7636V18.8497C78.6185 18.75 78.8322 18.4508 78.8322 17.6814V12.4098C78.5615 11.9396 78.2481 11.7259 77.7636 11.6119V11.3127H79.9008L84.574 16.7126V12.766ZM94.4903 17.2967C93.6639 18.693 92.5954 19.3341 90.9711 19.3341C88.4208 19.3341 86.9106 17.6529 86.9106 15.1453C86.9106 13.3644 88.3211 11.1133 91.0566 11.1133C91.8687 11.1133 93.037 11.5692 93.208 11.5692C93.436 11.5692 93.5072 11.441 93.6924 11.1133H94.0771L94.2338 13.7348H93.8919C93.4217 12.5238 92.6096 11.6404 91.2418 11.6404C89.3897 11.6404 88.5918 13.6351 88.5918 15.1453C88.5918 17.2682 89.5036 18.6787 91.4555 18.6787C92.98 18.6787 93.8206 17.5532 94.1768 17.0545L94.4903 17.2967ZM98.2944 17.9094C98.2944 18.7215 98.5081 18.8212 99.4484 18.864V19.1489H95.5731V18.864C96.5134 18.8212 96.7271 18.7357 96.7271 17.9094V12.5523C96.7271 11.7259 96.5134 11.6404 95.5731 11.5977V11.2985H99.4484V11.5977C98.5081 11.6262 98.2944 11.7259 98.2944 12.5523V17.9094ZM102.654 16.3421L103.837 13.2362L105.005 16.3421H102.654ZM108.282 19.1489V18.864C107.698 18.8782 107.541 18.6217 107.242 17.8809L104.478 11.1133H104.093L101.215 18.1088C101.016 18.5933 100.759 18.7357 100.261 18.8497V19.1347H102.754V18.8497C102.212 18.8497 101.942 18.7357 101.942 18.351C101.942 18.0233 102.298 17.1542 102.398 16.912H105.233C105.318 17.1685 105.703 18.0376 105.703 18.351C105.703 18.7357 105.418 18.8497 104.877 18.8497V19.1347L108.282 19.1489ZM108.966 19.1489V18.864C109.721 18.8355 109.935 18.7357 109.935 17.9094V12.5523C109.935 11.7259 109.721 11.6404 108.966 11.5977V11.2985H112.585V11.5977C111.716 11.6262 111.502 11.7259 111.502 12.5523V18.0661C111.502 18.5363 111.644 18.693 112.513 18.693C113.924 18.693 114.75 18.4365 115.42 17.0545H115.719L115.192 19.1489C115.206 19.1489 108.966 19.1489 108.966 19.1489ZM49.3255 31.5158C50.2231 31.473 50.4368 31.3876 50.4368 30.5612V24.5345H49.468C48.5561 24.5345 48.2 24.9049 47.9435 25.9592H47.6016L47.7868 23.9503H54.6684L54.8536 25.9592H54.5116C54.2552 24.8907 53.899 24.5345 52.9871 24.5345H52.0183V30.5612C52.0183 31.3733 52.232 31.473 53.1296 31.5158V31.8007H49.3398V31.5158H49.3255ZM58.387 30.5755C58.387 31.3876 58.6007 31.4873 59.541 31.5158V31.815H55.6657V31.5158C56.606 31.4873 56.8197 31.3876 56.8197 30.5755V25.2184C56.8197 24.4063 56.606 24.3065 55.6657 24.278V23.9788H59.541V24.278C58.6007 24.3065 58.387 24.4063 58.387 25.2184C58.387 25.2041 58.387 30.5755 58.387 30.5755ZM67.7761 23.9646H70.4831V24.2638C69.728 24.2923 69.5143 24.392 69.5143 25.2041V30.5612C69.5143 31.3733 69.728 31.473 70.4831 31.5158V31.8007H66.9497V31.5158C67.7191 31.473 67.9471 31.3876 67.9471 30.5612V25.0474H67.9186L65.297 31.9147H64.9408L62.3763 25.0616H62.3478V30.3475C62.3478 31.1169 62.5615 31.4161 63.4164 31.5158V31.8007H60.6523V31.5158C61.5072 31.4161 61.7066 31.1169 61.7066 30.3475V25.0189C61.7066 24.4775 61.4787 24.2638 60.6523 24.2638V23.9646H63.5018L65.5962 29.4072C65.582 29.4072 67.7761 23.9646 67.7761 23.9646ZM71.5945 31.815V31.53C72.3496 31.4873 72.5633 31.4018 72.5633 30.5755V25.2184C72.5633 24.4063 72.3496 24.3065 71.5945 24.278V23.9788H78.1483L78.1911 25.7028H77.8634C77.5784 24.8337 77.2792 24.5487 75.7547 24.5487H74.5722C74.216 24.5487 74.1305 24.6342 74.1305 24.9477V27.4267H75.4698C76.6951 27.4267 76.9515 27.213 77.1083 26.3867H77.4075V29.1507H77.1083C76.9515 28.2246 76.4814 27.9966 75.4698 27.9966H74.1305V30.7179C74.1305 31.1881 74.273 31.3448 75.655 31.3448C77.0655 31.3448 77.8919 31.0884 78.5615 29.7064H78.8607L78.3335 31.8007H71.5945V31.815ZM79.8865 29.3502H80.1857C80.5134 30.3902 81.5108 31.473 82.6648 31.473C83.6621 31.473 84.0183 30.7892 84.0183 30.1623C84.0183 28.3671 79.9578 28.0251 79.9578 25.7883C79.9578 24.7055 81.0121 23.7794 82.2089 23.7794C83.3914 23.7794 83.8046 24.1925 84.3175 24.1925C84.5312 24.1925 84.6737 24.0216 84.7307 23.7794H85.0299V26.2727H84.7307C84.403 25.1471 83.6051 24.3065 82.5366 24.3065C81.6675 24.3065 81.3398 24.8764 81.3398 25.4036C81.3398 26.9993 85.4003 27.0563 85.4003 29.8061C85.4003 31.0456 84.3888 31.986 82.9782 31.986C81.5962 31.986 81.24 31.5015 80.6986 31.5015C80.4992 31.5015 80.3567 31.644 80.314 31.8862H79.9008L79.8865 29.3502Z" fill="black"/>
</g>
</g>
</g>
<defs>
<clipPath id="clip0_1068_1753">
<rect width="128" height="32" fill="white"/>
</clipPath>
</defs>
</svg>
