<svg width="128" height="32" viewBox="0 0 128 32" fill="none" xmlns="http://www.w3.org/2000/svg">
<mask id="mask0_1068_1684" style="mask-type:luminance" maskUnits="userSpaceOnUse" x="1" y="2" width="127" height="29">
<path d="M128 2H1V30.2222H128V2Z" fill="white"/>
</mask>
<g mask="url(#mask0_1068_1684)">
<path d="M122.897 15.7246C122.897 14.699 123.754 13.9755 124.948 13.9755C126.042 13.9755 126.664 14.4797 126.664 15.3543C126.664 16.1444 125.992 16.5822 124.948 17.036L122.897 17.9106V15.7246ZM124.747 21.9977C125.924 21.9977 126.95 21.5438 127.471 20.6189C127.639 20.3331 127.606 19.9969 127.354 19.8288C127.1 19.6608 126.764 19.711 126.597 19.9636C126.143 20.6198 125.571 20.9389 124.747 20.9389C123.536 20.9389 122.897 20.3169 122.897 19.1897V19.0387L125.301 18.0132C127.151 17.2231 127.84 16.7017 127.84 15.2555C127.84 13.8092 126.713 12.9176 124.931 12.9176C123.148 12.9176 121.752 14.0951 121.752 15.7256V19.1897C121.752 20.8886 122.914 21.9977 124.747 21.9977ZM119.904 13.0002C118.222 13.0002 117.044 14.2281 117.044 16.0779V21.3416C117.044 21.6606 117.28 21.9132 117.616 21.9132C117.952 21.9132 118.187 21.6606 118.187 21.3416V16.0779C118.187 14.9507 118.777 14.1103 119.92 14.1103C120.105 14.1103 120.391 14.1777 120.541 14.1777C120.845 14.1777 121.08 13.9755 121.08 13.6393C121.08 13.3867 120.929 13.1683 120.609 13.0847C120.374 13.0173 120.139 13.0002 119.904 13.0002ZM110.272 19.5592C110.272 18.769 110.944 18.3313 111.987 17.8774L114.039 17.0028V19.1887C114.039 20.2144 113.182 20.9379 111.987 20.9379C110.894 20.9379 110.272 20.4337 110.272 19.5592ZM112.189 12.9166C111.012 12.9166 109.986 13.3706 109.465 14.2955C109.297 14.5813 109.33 14.9175 109.582 15.0855C109.835 15.2536 110.171 15.2033 110.339 14.9507C110.793 14.2945 111.365 13.9755 112.189 13.9755C113.399 13.9755 114.039 14.5974 114.039 15.7246V15.8756L111.635 16.9012C109.784 17.6913 109.096 18.2126 109.096 19.6588C109.096 21.105 110.223 21.9968 112.005 21.9968C113.787 21.9968 115.184 20.8193 115.184 19.1887V15.7246C115.184 14.0258 114.022 12.9166 112.189 12.9166ZM101.812 18.0455V14.1777C101.812 12.5634 103.007 11.3184 104.537 11.3184C105.697 11.3184 106.556 11.8227 107.043 12.7647C107.178 13.0335 107.497 13.1512 107.783 13.0173C108.051 12.8825 108.154 12.5634 108.019 12.2937C107.379 10.9652 106.136 10.2255 104.537 10.2255C102.335 10.2255 100.619 11.9405 100.619 14.1777V18.0455C100.619 20.2817 102.335 21.9977 104.537 21.9977C106.135 21.9977 107.379 21.258 108.019 19.9295C108.154 19.6608 108.051 19.3407 107.783 19.2059C107.497 19.071 107.177 19.1887 107.043 19.4584C106.556 20.4004 105.697 20.9047 104.537 20.9047C103.007 20.9047 101.812 19.6608 101.812 18.0455ZM92.5582 21.4279C92.5582 21.6615 92.7937 21.9132 93.1297 21.9132C93.4657 21.9132 93.7012 21.6606 93.7012 21.3416V16.0968C93.7012 14.9697 94.6087 14.0618 95.7358 14.0618C96.8638 14.0618 97.7713 14.9697 97.7713 16.0968V21.3416C97.7713 21.6606 98.0068 21.9132 98.3428 21.9132C98.6789 21.9132 98.9144 21.6606 98.9144 21.3416V16.0968C98.9144 14.398 97.5694 13.0021 95.8875 13.0021C95.0294 13.0021 94.2559 13.3725 93.7012 13.9602V10.8807C93.7012 10.5616 93.4657 10.309 93.1297 10.309C92.7937 10.309 92.5582 10.5616 92.5582 10.9671V21.4279ZM88.8251 13.0847V10.8816C88.8251 10.5626 88.5895 10.31 88.2534 10.31C87.9172 10.31 87.6817 10.5626 87.6817 10.8816V13.0847H86.2858C85.9828 13.0847 85.7645 13.3032 85.7645 13.6231C85.7645 13.9261 85.9828 14.1445 86.2858 14.1445H87.6817V18.8365C87.6817 19.6939 87.9676 20.485 88.4889 21.0566C89.0606 21.6786 89.7845 21.9141 90.6752 21.9141C91.0456 21.9141 91.2811 21.6283 91.2635 21.3253C91.2467 21.0225 90.9945 20.8211 90.692 20.8211C89.4308 20.8211 88.8251 19.9807 88.8251 18.8365V14.1445H90.7422C91.0456 14.1445 91.2635 13.9261 91.2635 13.606C91.2635 13.3031 91.0456 13.0847 90.7422 13.0847H88.8251ZM86.1348 21.4763C86.1519 21.1735 85.9164 20.9379 85.6135 20.9047C84.9241 20.8373 84.5376 20.4166 84.5376 19.6265V10.8816C84.5376 10.5626 84.3021 10.31 83.9659 10.31C83.6297 10.31 83.3942 10.5626 83.3942 10.8816V19.6265C83.3942 20.2656 83.5795 20.8202 83.9156 21.2237C84.302 21.7119 84.8576 21.9977 85.547 21.9977C85.8832 21.9977 86.1177 21.7622 86.1348 21.4763ZM76.5182 19.5592C76.5182 18.769 77.1905 18.3313 78.2332 17.8774L80.2852 17.0028V19.1887C80.2852 20.2144 79.4278 20.9379 78.2332 20.9379C77.1402 20.9379 76.5182 20.4337 76.5182 19.5592ZM78.4354 12.9166C77.2579 12.9166 76.2323 13.3706 75.711 14.2955C75.5429 14.5813 75.5762 14.9175 75.8288 15.0855C76.0813 15.2536 76.4175 15.2033 76.5856 14.9507C77.0395 14.2945 77.6112 13.9755 78.4354 13.9755C79.6462 13.9755 80.2852 14.5974 80.2852 15.7246V15.8756L77.8809 16.9012C76.0311 17.6913 75.3417 18.2126 75.3417 19.6588C75.3417 21.105 76.4688 21.9968 78.2512 21.9968C80.0336 21.9968 81.4295 20.8193 81.4295 19.1887V15.7246C81.4295 14.0258 80.2681 12.9166 78.4354 12.9166ZM69.2196 15.7246C69.2196 14.699 70.077 13.9755 71.2717 13.9755C72.3646 13.9755 72.9866 14.4797 72.9866 15.3543C72.9866 16.1444 72.3143 16.5822 71.2717 17.036L69.2196 17.9106V15.7246ZM71.0693 21.9977C72.2468 21.9977 73.2724 21.5438 73.7938 20.6189C73.9619 20.3331 73.9286 19.9969 73.676 19.8288C73.4234 19.6608 73.0872 19.711 72.9192 19.9636C72.4653 20.6198 71.8936 20.9389 71.0693 20.9389C69.8586 20.9389 69.2196 20.3169 69.2196 19.1897V19.0387L71.6239 18.0132C73.4737 17.2231 74.1632 16.7017 74.1632 15.2555C74.1632 13.8092 73.036 12.9176 71.2536 12.9176C69.4712 12.9176 68.0752 14.0951 68.0752 15.7256V19.1897C68.0752 20.8886 69.2366 21.9977 71.0693 21.9977ZM66.0602 21.3083V10.9158C66.0602 10.5626 65.8247 10.31 65.4544 10.31C65.084 10.31 64.8485 10.5626 64.8485 10.9158V15.4056H59.5402V10.9158C59.5402 10.5626 59.3047 10.31 58.9344 10.31C58.564 10.31 58.3285 10.5626 58.3285 10.9158V21.3083C58.3285 21.6444 58.5811 21.9141 58.9344 21.9141C59.2876 21.9141 59.5402 21.6615 59.5402 21.3083V16.4653H64.8485V21.3083C64.8485 21.6615 65.084 21.9141 65.4544 21.9141C65.8247 21.9141 66.0602 21.6615 66.0602 21.3083ZM53.2776 21.8296C53.5805 21.8296 53.7989 21.6112 53.7989 21.3083C53.7989 20.9892 53.5805 20.7699 53.2776 20.7699H48.3415V16.4643H52.874C53.1769 16.4643 53.3953 16.246 53.3953 15.943C53.3953 15.6239 53.1769 15.4046 52.874 15.4046H48.3415V11.4523H53.2776C53.5805 11.4523 53.7989 11.234 53.7989 10.9139C53.7989 10.611 53.5805 10.3926 53.2776 10.3926H47.7528C47.3995 10.3926 47.1641 10.6452 47.1641 10.9814V21.2399C47.1641 21.5761 47.3995 21.8287 47.7528 21.8287L53.2776 21.8296ZM45.0626 18.0455V16.2289C45.0626 15.8927 44.8271 15.6401 44.4738 15.6401H41.2955C40.9926 15.6401 40.7741 15.8585 40.7741 16.1615C40.7741 16.4805 40.9926 16.6999 41.2955 16.6999H43.8851V18.0455C43.8851 19.6265 42.6743 20.9047 41.2109 20.9047C39.7476 20.9047 38.554 19.6437 38.554 18.0455V14.1777C38.554 12.5634 39.6973 11.3184 41.1777 11.3184C42.3049 11.3184 43.112 11.8227 43.5992 12.7647C43.7341 13.0335 44.0531 13.1512 44.3389 13.0173C44.6077 12.8825 44.7093 12.5634 44.5745 12.2937C43.9353 10.9652 42.7417 10.2255 41.1777 10.2255C39.0249 10.2255 37.3604 11.9405 37.3604 14.1777V18.0455C37.3604 20.2656 39.0421 21.9977 41.2109 21.9977C43.3799 21.9977 45.0626 20.1982 45.0626 18.0455ZM18.278 12.4371C18.278 10.8342 19.3625 9.27587 19.956 9.57214C20.6302 9.91019 19.4508 11.421 18.278 12.4371ZM10.8892 13.023C10.8892 11.7334 12.1626 9.28061 12.9413 9.53891C13.8595 9.84468 12.1797 12.3184 10.8892 13.023ZM9.59961 22.2484C9.01371 22.275 8.62342 21.8999 8.62342 21.2751C8.62342 19.5943 10.9528 17.9904 12.7124 17.1291C12.4 19.4746 11.608 22.1563 9.59961 22.2484ZM20.3492 16.7758C19.0216 16.7758 18.0036 17.7539 18.0036 18.9257C18.0036 19.9038 18.5895 20.6844 19.372 20.6844C19.6464 20.6844 19.918 20.5287 19.918 20.1763C19.918 19.6683 19.2447 19.5449 19.297 18.7843C19.3302 18.2829 19.8022 17.9477 20.2703 17.9477C21.2085 17.9477 21.6472 18.8564 21.6472 19.7946C21.6073 21.2409 20.5438 22.2474 19.2932 22.2474C17.6513 22.2474 16.5973 20.6835 16.5973 19.0017C16.5973 16.5005 18.2381 15.5233 19.0976 15.2888C19.1061 15.2888 21.3462 15.6886 21.2759 14.701C21.2456 14.2679 20.5998 14.1018 20.1317 14.0818C19.6122 14.0609 19.0909 14.248 19.0909 14.248C18.8174 14.1103 18.6285 13.8415 18.5126 13.5301C20.1146 12.3174 21.2484 11.1457 21.2484 9.81619C21.2484 9.11253 20.7793 8.48675 19.88 8.48675C18.278 8.48675 17.0654 10.5189 17.0654 12.3564C17.0654 12.6688 17.0654 12.9821 17.1442 13.2556C16.1282 13.9982 15.3723 14.4588 14.0038 15.2802C14.0038 15.1083 14.04 14.6687 14.1548 14.0951C14.6239 13.5871 15.2678 12.8264 15.2678 12.2396C15.2678 11.9661 15.1121 11.7316 14.7987 11.7316C14.0171 11.7316 13.4313 12.9034 13.2745 13.7247C12.9223 14.155 12.2196 14.7028 11.6327 14.7028C11.1636 14.7028 11.0079 14.2717 10.968 14.116C12.4541 13.607 14.2906 11.5748 14.2906 9.73737C14.2906 9.34613 14.134 8.48579 12.9622 8.48579C11.2025 8.48579 9.71736 11.1048 9.71736 13.1379C9.09158 13.1379 8.85797 12.4732 8.85797 11.9652C8.85797 11.4571 9.05359 10.9481 9.05359 10.7924C9.05359 10.6366 8.97477 10.4401 8.74022 10.4401C8.15336 10.4401 7.80201 11.2216 7.80201 12.1208C7.8419 13.3715 8.66235 14.154 9.75724 14.2319C9.9139 14.9745 10.5786 15.6781 11.3991 15.6781C11.9081 15.6781 12.5329 15.5223 12.9631 15.1311C12.9232 15.4056 12.8853 15.6392 12.8454 15.8737C11.1256 16.773 9.87501 17.3988 8.74117 18.4139C7.84285 19.2353 7.33385 20.3293 7.33385 21.1906C7.33385 22.3633 8.07645 23.4563 9.60055 23.4563C11.3991 23.4563 12.7665 22.011 13.4313 20.0168C13.7446 19.0786 13.87 17.714 13.9478 16.4625C15.7464 15.4464 16.5991 14.8576 17.5355 14.1929C17.6532 14.3885 17.7719 14.5452 17.9267 14.662C17.1062 15.0922 15.1519 16.3039 15.1519 19.1565C15.1519 21.1896 16.5203 23.4563 19.2172 23.4563C21.445 23.4563 22.97 21.6207 22.97 19.8611C22.97 18.2582 22.0707 16.773 20.35 16.773L20.3492 16.7758ZM27.0695 20.1327C27.0628 20.145 27.04 20.163 26.9973 20.1479C26.9641 20.1355 26.9536 20.1184 26.9546 20.0976C26.9565 20.0747 27.4275 18.6845 27.4246 17.0882C27.4189 15.3675 26.72 14.3126 25.8227 14.3126C25.2747 14.3126 24.8845 14.7038 24.8845 15.2897C24.8845 16.3456 26.174 16.4235 26.174 18.7301C26.174 19.6683 25.9783 20.5657 25.666 21.5448C24.2197 26.4305 19.6066 28.6972 15.1121 28.6972C13.04 28.6972 11.5672 28.2717 11.1285 28.0751C11.1104 28.0667 11.0961 28.0315 11.1095 27.9973C11.12 27.9697 11.1503 27.9498 11.1664 27.9574C11.3449 28.0277 12.6089 28.4246 14.1719 28.4246C15.8917 28.4246 16.9087 27.7219 16.9087 26.8596C16.9087 26.3136 16.4786 25.8835 15.9306 25.8835C14.8756 25.8835 14.7968 27.212 12.5301 27.212C11.5529 27.212 10.6935 27.0173 9.67653 26.704C4.82975 25.2188 2.51936 20.6445 2.52316 16.1101C2.52507 13.9024 3.14326 12.1437 3.1537 12.1266C3.16129 12.1152 3.18884 12.1029 3.22302 12.1152C3.25816 12.1266 3.26766 12.157 3.26385 12.1655C3.20688 12.3488 2.79665 13.6089 2.79665 15.1719C2.79665 16.8926 3.5003 17.9087 4.39863 17.9087C4.90667 17.9087 5.33684 17.5175 5.33684 16.9714C5.33684 15.9155 4.04728 15.7987 4.04728 13.5311C4.04728 12.5529 4.2429 11.6935 4.55531 10.6775C6.0405 5.8307 10.6138 3.5583 15.1101 3.52411C17.1993 3.50798 19.0283 4.13281 19.0966 4.18788C19.109 4.19833 19.1222 4.22587 19.109 4.25816C19.0947 4.29425 19.07 4.29899 19.0576 4.29709C19.0359 4.29425 17.8469 3.7976 16.0474 3.7976C14.3675 3.7976 13.3126 4.5003 13.3126 5.40053C13.3126 5.90857 13.7028 6.33779 14.2888 6.33779C15.3447 6.33779 15.4235 5.04823 17.6893 5.04823C18.6674 5.04823 19.5258 5.24384 20.5428 5.55626C25.4305 7.04144 27.6544 11.6546 27.6962 16.1101C27.7181 18.393 27.0752 20.1213 27.0695 20.1327ZM15.1121 2.66282C7.68521 2.66282 1.66377 8.68331 1.66377 16.1092C1.66377 23.5351 7.68426 29.5556 15.1121 29.5556C22.5398 29.5556 28.5575 23.537 28.5575 16.1092C28.5575 8.68141 22.5389 2.66282 15.1121 2.66282ZM15.1121 30.2213C7.33291 30.2213 1 23.9282 1 16.1101C1 8.29207 7.331 2 15.1101 2C22.8893 2 29.2213 8.33196 29.2213 16.1111C29.2213 23.8903 22.8874 30.2222 15.1101 30.2222L15.1121 30.2213Z" fill="black"/>
</g>
</svg>
