<svg width="94" height="32" viewBox="0 0 94 32" fill="none" xmlns="http://www.w3.org/2000/svg">
<mask id="mask0_1068_1690" style="mask-type:luminance" maskUnits="userSpaceOnUse" x="25" y="0" width="78" height="32">
<path d="M102.898 0H25V32H102.898V0Z" fill="white"/>
</mask>
<g mask="url(#mask0_1068_1690)">
<path d="M25.001 18.7182C25.0578 18.3033 25.1079 17.8866 25.1759 17.4737C25.5791 15.0486 26.5155 12.7443 27.9171 10.7284C30.8124 6.52132 34.5839 3.35749 39.2685 1.31851C40.8168 0.645494 42.436 0.212639 44.1299 0.133852C46.4485 0.0246885 48.5252 0.627458 50.2134 2.30382C50.3335 2.42343 50.4148 2.39875 50.5386 2.3304C52.1219 1.46374 53.7741 0.771745 55.5484 0.396793C57.2649 0.0322829 58.9758 -0.0218246 60.6716 0.516397C61.764 0.866705 62.7591 1.47023 63.5763 2.2782C63.6188 2.31901 63.6632 2.35698 63.6708 2.36742C64.6037 1.94311 65.4998 1.49982 66.4233 1.12486C68.1805 0.411031 70.0011 -0.0284692 71.9133 0.00190669C74.5004 0.0427242 76.6149 1.01096 78.1349 3.16954C79.0413 4.45577 79.7607 5.82268 79.9592 7.40602C80.0168 7.86355 79.9592 8.33533 79.9431 8.80046C79.9275 8.88539 79.9021 8.96821 79.8675 9.04726C79.6306 7.6984 79.1911 6.3935 78.564 5.17719C77.9864 4.05613 77.3484 2.97494 76.3899 2.12727C75.0061 0.906537 73.3897 0.380655 71.5617 0.503108C69.5833 0.635053 67.8176 1.3916 66.1511 2.41204C63.5867 3.98114 61.4476 6.03151 59.6091 8.39228C59.2026 8.91437 58.8056 9.10327 58.1459 9.10327C57.6203 9.10327 56.0125 9.08523 55.9917 9.08523C57.9767 6.4881 60.4135 4.37888 63.2076 2.69207C62.7242 2.19992 62.1658 1.78818 61.5535 1.47229C60.1356 0.72808 58.6166 0.570504 57.0551 0.80212C54.7865 1.13815 52.7769 2.13106 50.9299 3.45146C47.3796 5.99829 44.6337 9.22572 42.8935 13.2562C42.0087 15.3066 41.5323 17.4642 41.6335 19.7111C41.8074 23.5717 43.5882 26.4754 46.9826 28.2951C49.9525 29.887 53.0898 30.1376 56.3168 29.1494C56.3962 29.1247 56.4728 29.0896 56.5834 29.0479C54.9245 27.5665 53.7037 25.6552 53.0548 23.5232C53.1673 23.5157 53.2439 23.5062 53.327 23.5062C54.3876 23.5062 55.4472 23.5062 56.5068 23.5014C56.5759 23.4921 56.6461 23.5062 56.7064 23.5414C56.7666 23.5767 56.8135 23.6311 56.8395 23.696C58.4871 26.9149 61.1328 28.7669 64.6576 29.3715C66.9073 29.7579 69.1002 29.4845 71.1486 28.4774C72.0692 28.0246 72.9048 27.3895 73.7518 26.7972C74.9181 25.9742 75.9902 25.0243 76.9486 23.9646C77.0245 23.8844 77.105 23.8087 77.1896 23.7378C77.2395 23.7079 77.2917 23.6818 77.3456 23.6599C77.2766 23.8403 77.2416 23.9656 77.183 24.0786C76.7331 24.9538 76.1432 25.7331 75.5061 26.4735C73.6951 28.5732 71.5617 30.2268 68.9358 31.1732C65.6539 32.355 62.4136 32.3028 59.2282 30.8002C58.8622 30.6226 58.506 30.4255 58.161 30.2097C57.8217 30.0028 57.4993 29.7674 57.2035 29.568C56.3622 29.9231 55.5531 30.3189 54.7071 30.6122C51.3638 31.7693 48.0441 31.7437 44.7821 30.185C44.4758 30.0389 44.1837 29.8661 43.8926 29.6914C43.8358 29.6484 43.7674 29.6237 43.6963 29.6207C43.6252 29.6176 43.5549 29.6363 43.4947 29.6744C42.0617 30.4337 40.5521 30.9853 38.9481 31.2302C34.8552 31.8519 31.2349 30.8714 28.2668 27.8983C26.4293 26.0596 25.4122 23.7919 25.0889 21.2109C25.0625 20.9954 25.0294 20.7818 24.9944 20.5673L25.001 18.7182ZM49.8382 2.69966C48.2048 1.0736 46.1905 0.540128 44.0722 0.753708C42.4464 0.916979 40.9378 1.46564 39.5133 2.24497C35.8221 4.26781 32.9741 7.17155 30.7906 10.7502C29.2319 13.3075 28.3188 16.0717 28.1997 19.0779C28.1317 20.7866 28.42 22.4354 29.1866 23.976C30.3605 26.3359 32.2718 27.8546 34.702 28.7536C36.9158 29.5728 39.1957 29.7152 41.5144 29.3507C41.9738 29.2785 42.4265 29.1608 42.9228 29.0583C42.625 28.8029 42.3679 28.5941 42.1259 28.371C41.884 28.148 41.6429 27.9164 41.4217 27.6705C39.0076 24.9908 38.1011 21.8203 38.4471 18.273C38.672 15.9625 39.449 13.8201 40.6126 11.8238C42.4851 8.61156 45.0505 6.0448 48.0507 3.89571C48.6283 3.47899 49.2323 3.10214 49.8382 2.69966Z" fill="black"/>
<path d="M68.9584 21.391L69.5709 16.6031L69.5284 16.5907C69.3733 16.9818 69.2193 17.3729 69.0614 17.763C68.5992 18.9126 68.137 20.0621 67.6662 21.2088C67.6322 21.2923 67.5292 21.4053 67.4564 21.4053C66.3571 21.4186 65.2578 21.4148 64.1348 21.4148C64.5898 17.9184 65.047 14.4043 65.5064 10.8725H68.2476C67.976 12.7994 67.7044 14.7251 67.4328 16.6496L67.4706 16.6629C67.5415 16.4825 67.6133 16.3021 67.6823 16.1208C68.3213 14.4293 68.9587 12.7374 69.5945 11.0452C69.655 10.8848 69.725 10.8288 69.9008 10.8297C70.6211 10.8297 71.3413 10.8174 72.0616 10.8098C72.1278 10.8098 72.1939 10.8155 72.2989 10.8202C72.0153 12.7396 71.7317 14.6419 71.4482 16.5432L71.4737 16.548C71.7686 15.7278 72.0503 14.9011 72.3631 14.0866C72.762 13.0491 73.1817 12.0191 73.6052 10.9911C73.6278 10.9429 73.6613 10.9007 73.703 10.8678C73.7446 10.8348 73.7933 10.8121 73.8453 10.8013C74.6676 10.7842 75.49 10.787 76.3124 10.7842C76.3517 10.7873 76.3908 10.7927 76.4296 10.8003C76.1309 11.5891 75.8378 12.3666 75.5429 13.1421C74.5347 15.8 73.528 18.4595 72.5229 21.1205C72.4473 21.3236 72.3518 21.3844 72.1448 21.3844C71.1277 21.3844 70.1106 21.4015 69.0936 21.411C69.0482 21.4068 69.0031 21.4001 68.9584 21.391Z" fill="black"/>
<path d="M49.4922 11.0112H52.759C52.6777 11.277 52.5954 11.5438 52.4915 11.8865C52.9376 11.4327 53.3639 11.091 53.9018 10.9192C54.4184 10.7399 54.9779 10.7273 55.5021 10.8831C56.1184 11.0729 56.5097 11.6093 56.4048 12.2434C56.2497 13.1708 56.0531 14.0944 55.8253 15.0066C55.3036 17.095 54.7525 19.1833 54.2128 21.2716C54.191 21.3533 54.1674 21.4349 54.1381 21.5393H50.9432C50.9564 21.471 50.9659 21.3988 50.9838 21.3305C51.6379 18.7808 52.2917 16.2311 52.9452 13.6815C53.0037 13.4595 53.0482 13.2341 53.0785 13.0066C53.1087 12.7626 53.0038 12.6658 52.7552 12.6724C52.6304 12.6718 52.5091 12.7142 52.4116 12.7924C52.3141 12.8707 52.2462 12.9801 52.2192 13.1024C52.0255 13.7441 51.8326 14.3868 51.6634 15.0351C51.1133 17.138 50.5695 19.2422 50.032 21.3476C49.9998 21.4748 49.9856 21.5858 49.8032 21.5858C48.8202 21.5858 47.8371 21.5982 46.8541 21.6048C46.8218 21.6005 46.7901 21.5925 46.7595 21.5811C47.6689 18.0622 48.5753 14.5462 49.4922 11.0112Z" fill="black"/>
<path d="M90.7189 20.0623H93.5829C93.5829 20.1078 93.5829 20.1572 93.5829 20.2037C93.5754 20.3936 93.5376 20.591 93.772 20.6783C93.8864 20.7131 94.0086 20.7127 94.1228 20.6772C94.237 20.6417 94.338 20.5726 94.4129 20.479C94.5095 20.3297 94.5852 20.1678 94.6378 19.9977C94.7418 19.6674 94.8269 19.3333 94.929 18.9393C94.7976 19.0181 94.7097 19.0694 94.6237 19.1235C93.9431 19.5573 93.2058 19.7244 92.4137 19.563C91.6575 19.4092 91.2038 18.833 91.3257 18.066C91.4476 17.299 91.6367 16.5188 91.822 15.7527C92.0394 14.8528 92.253 13.9491 92.5309 13.0682C92.6872 12.5666 92.9148 12.0902 93.2067 11.6539C93.7644 10.8318 94.9639 10.5005 95.8922 10.8423C96.2703 10.979 96.5359 11.241 96.7571 11.6093C96.8762 11.3919 96.9707 11.1982 97.087 11.0188C97.1102 10.9831 97.1406 10.9526 97.1762 10.9294C97.2119 10.9062 97.252 10.8907 97.294 10.884C98.1239 10.8688 98.9547 10.866 99.7856 10.8613C99.8346 10.866 99.8833 10.8743 99.9312 10.8859C99.7818 11.465 99.6372 12.0298 99.4907 12.5946C98.8801 14.9449 98.2515 17.2914 97.6635 19.6475C97.2684 21.2289 96.1824 21.9997 94.6908 22.3158C93.8752 22.485 93.0361 22.5055 92.2133 22.3765C90.8181 22.1668 90.372 21.4928 90.7189 20.0623ZM94.3665 17.5269C94.3864 17.7822 94.4875 17.898 94.7286 17.8439C94.8779 17.8044 95.0105 17.7175 95.1067 17.5961C95.2046 17.4474 95.2742 17.2816 95.3118 17.1073C95.538 16.2808 95.7586 15.4521 95.9735 14.6212C96.1247 14.0289 96.2731 13.4356 96.3931 12.8366C96.4565 12.5215 96.2428 12.362 95.9498 12.5006C95.8239 12.5651 95.7184 12.6637 95.6455 12.7854C95.562 12.9339 95.5002 13.0938 95.4621 13.26C95.2207 14.1624 94.9844 15.0661 94.7532 15.971C94.6218 16.4893 94.496 17.0095 94.3665 17.5269Z" fill="black"/>
<path d="M82.7192 20.1278H85.5927C85.5927 20.1677 85.5927 20.2009 85.5927 20.2341C85.5738 20.424 85.5284 20.6385 85.7657 20.7382C86.0029 20.8378 86.3395 20.7277 86.4538 20.4952C86.5724 20.2329 86.6725 19.9627 86.7535 19.6864C86.8206 19.4776 86.8631 19.2611 86.9236 19.0219C86.6968 19.151 86.5001 19.2725 86.295 19.3789C85.7448 19.6727 85.1106 19.7672 84.4991 19.6465C83.62 19.4785 83.1871 18.8976 83.3402 18.0119C83.4735 17.244 83.672 16.4865 83.8591 15.7281C84.0747 14.8547 84.2996 13.9824 84.5397 13.1157C84.6744 12.5779 84.9215 12.0751 85.2647 11.6406C85.5688 11.2885 85.9654 11.0294 86.4092 10.8931C86.8531 10.7568 87.3261 10.7487 87.7743 10.8698C88.1638 10.9866 88.2999 11.0919 88.7772 11.651C88.884 11.4545 88.9804 11.2619 89.0948 11.0815C89.1157 11.048 89.1433 11.0192 89.1758 10.997C89.2084 10.9747 89.2452 10.9596 89.2839 10.9524C90.1563 10.9439 91.0278 10.9467 91.923 10.9467C91.9212 11.0018 91.9155 11.0567 91.906 11.1109C91.1668 13.9587 90.403 16.7922 89.696 19.6437C89.2725 21.3523 88.1118 22.1383 86.5011 22.4193C85.6571 22.5837 84.7884 22.5724 83.9489 22.3861C82.8043 22.1146 82.4366 21.5365 82.6672 20.3718C82.6766 20.2977 82.6965 20.2246 82.7192 20.1278ZM86.3744 17.5895C86.3952 17.8686 86.5427 18.0024 86.7988 17.9066C86.9426 17.8442 87.0656 17.7417 87.1533 17.6114C87.2361 17.4733 87.2949 17.3221 87.3272 17.1643C87.538 16.3868 87.7479 15.6084 87.9464 14.8282C88.1089 14.1874 88.2677 13.5448 88.4029 12.8984C88.4662 12.5955 88.2649 12.4389 87.9813 12.5623C87.8389 12.6312 87.7208 12.7422 87.6429 12.8803C87.5463 13.0685 87.4736 13.2682 87.4265 13.4745C87.1836 14.3934 86.9482 15.3132 86.7119 16.2331C86.5966 16.6839 86.4869 17.1367 86.3744 17.5895Z" fill="black"/>
<path d="M63.4732 17.0646C63.2114 18.0053 63.0687 18.9631 62.4997 19.7718C61.4873 21.2033 60.0751 21.7842 58.3604 21.6703C57.9551 21.6498 57.5539 21.5793 57.1657 21.4605C56.0739 21.1074 55.5162 20.2265 55.7157 19.095C55.8962 18.0603 56.1628 17.0399 56.4095 16.0176C56.5752 15.3335 56.7576 14.6532 56.9568 13.9767C57.6751 11.5675 59.4579 10.661 61.6149 10.7341C62.0709 10.751 62.5216 10.8378 62.9515 10.9913C63.8788 11.3235 64.3693 12.1352 64.3192 13.1233C64.2644 14.2282 63.9241 15.2724 63.65 16.3735H59.5117C59.265 17.3883 59.0164 18.3669 58.7952 19.3485C58.713 19.7168 58.9115 19.8696 59.283 19.7832C59.4039 19.755 59.5148 19.694 59.6035 19.6068C59.6922 19.5195 59.7553 19.4095 59.7859 19.2887C59.9749 18.6982 60.1337 18.1002 60.3048 17.505C60.3445 17.3664 60.3785 17.226 60.4211 17.0627L63.4732 17.0646ZM59.9532 14.6431C60.8436 14.7627 60.8634 14.7541 61.0553 13.9862C61.1424 13.6507 61.2109 13.3107 61.2604 12.9676C61.2992 12.6829 61.1659 12.5879 60.888 12.6107C60.6923 12.6297 60.5392 12.7151 60.4806 12.9012C60.3001 13.4717 60.1328 14.0469 59.9532 14.6431Z" fill="black"/>
<path d="M79.5631 16.9564H82.4735C82.19 18.6043 81.6417 20.1003 80.0528 20.9261C78.8674 21.5422 77.6036 21.5906 76.3484 21.1786C75.2727 20.8264 74.7812 19.9038 75.0487 18.6878C75.3965 17.1045 75.82 15.5382 76.2302 13.97C76.3291 13.6271 76.4645 13.2958 76.6338 12.9819C77.2955 11.6957 78.4043 11.0692 79.7834 10.8983C80.3125 10.8329 80.8482 10.8441 81.3742 10.9315C82.8129 11.1755 83.4944 12.1086 83.2751 13.5495C83.1428 14.42 82.897 15.2734 82.7155 16.1362C82.6824 16.2881 82.5936 16.291 82.4764 16.291C81.62 16.2947 80.7636 16.3001 79.9072 16.3071C79.6356 16.3071 79.3646 16.3128 79.0943 16.3242C78.6822 16.3375 78.6803 16.3384 78.5791 16.7485C78.3854 17.5316 78.185 18.3128 78.012 19.0998C77.9817 19.2355 78.0196 19.4918 78.0971 19.525C78.1794 19.558 78.2677 19.5736 78.3563 19.5708C78.4449 19.568 78.5321 19.547 78.6122 19.5089C78.7803 19.398 78.9067 19.234 78.9714 19.0428C79.1605 18.4552 79.3174 17.8544 79.4856 17.2582C79.5083 17.1681 79.531 17.0779 79.5631 16.9564ZM79.9998 14.6431C80.0944 14.2586 80.2031 13.8751 80.291 13.4869C80.3366 13.2977 80.3576 13.1034 80.3534 12.9088C80.3442 12.8591 80.3234 12.8124 80.2927 12.7724C80.2619 12.7325 80.2221 12.7005 80.1766 12.6791C80.1222 12.6595 80.0646 12.6509 80.0069 12.6538C79.9492 12.6566 79.8927 12.6709 79.8405 12.6958C79.7883 12.7207 79.7416 12.7556 79.7029 12.7987C79.6642 12.8418 79.6344 12.8921 79.6151 12.9468C79.4327 13.4983 79.2767 14.0602 79.1028 14.6431H79.9998Z" fill="black"/>
</g>
</svg>
