<svg width="128" height="32" viewBox="0 0 128 32" fill="none" xmlns="http://www.w3.org/2000/svg">
<path d="M50.1319 23.8779C46.763 23.8779 43.6357 22.8981 41.5483 21.0812C39.9712 19.7085 39.2134 17.844 39.2134 15.9249C39.2134 14.0292 40.0039 12.1518 41.5481 10.7863C43.4867 9.07299 46.9094 8 50.1319 8C53.698 8 56.5523 8.87107 58.7342 10.791C60.2866 12.1572 61.0372 14.0263 61.0372 15.9251C61.0372 17.7655 60.2407 19.7255 58.7342 21.0812C56.7024 22.9099 53.5094 23.8779 50.1319 23.8779V21.7837C51.92 21.7837 53.5787 21.185 54.7371 20.0673C55.8874 18.9572 56.4234 17.5926 56.4234 15.9249C56.4234 14.3273 55.8452 12.8336 54.7371 11.7742C53.5942 10.6826 51.8959 10.0683 50.1319 10.0683C48.3625 10.0683 46.6631 10.6762 45.5193 11.7742C44.4171 12.8332 43.8374 14.3313 43.8374 15.9249C43.8374 17.5136 44.4238 19.0108 45.5193 20.0674C46.664 21.1718 48.3574 21.7837 50.1319 21.7837V23.8779ZM25.5086 8.00761C23.7065 8.00761 21.6592 8.33448 19.9196 9.08784C18.3141 9.78252 17 10.906 17 12.7686C16.9993 14.4461 18.0986 15.4285 18.0688 15.4014C18.5364 15.8188 19.2891 16.5296 21.2573 16.947C22.1368 17.1335 24.0174 17.42 25.8901 17.6098C27.749 17.8 29.5783 17.9807 30.3235 18.1636C30.9155 18.3097 31.9099 18.5088 31.9099 19.5906C31.9099 20.6681 30.8622 20.997 30.6802 21.0684C30.4983 21.1381 29.2415 21.6973 26.9822 21.6973C25.3142 21.6973 23.3089 21.2109 22.5779 20.9573C21.7353 20.6665 20.8515 20.2819 20.027 19.3052C19.8219 19.0631 19.4985 18.3972 19.4985 17.7378H17.4538V23.2938H19.7265V22.5432C19.7265 22.4577 19.8367 22.1062 20.2182 22.2734C20.6929 22.4825 22.0864 23.0206 23.5434 23.3156C24.738 23.5579 25.5084 23.7315 26.9936 23.7315C29.4168 23.7315 30.7186 23.3487 31.6186 23.0995C32.4664 22.8641 33.514 22.4414 34.365 21.7833C34.8259 21.4275 35.8366 20.5153 35.8366 18.8595C35.8366 17.2703 34.957 16.2838 34.6476 15.9838C34.2261 15.5748 33.7112 15.2579 33.1747 15.0136C32.7073 14.8003 31.9696 14.544 31.3661 14.4008C30.1946 14.1219 27.5458 13.7778 26.2791 13.6493C24.9508 13.5147 22.6465 13.3296 21.7262 13.0535C21.4472 12.9696 20.8784 12.7068 20.8784 12.0665C20.8784 11.611 21.1385 11.2249 21.6526 10.9129C22.4687 10.4171 24.1171 10.1089 25.8354 10.1089C27.8668 10.1016 29.5871 10.552 30.6815 11.0265C31.0536 11.1876 31.4891 11.4191 31.835 11.6929C32.2253 12.0015 32.7732 12.6427 32.9713 13.5372H34.8071V8.70084H32.7573V9.26296C32.7573 9.44441 32.5641 9.6802 32.1986 9.48534C31.2813 9.01866 28.6881 8.01177 25.5086 8.00761ZM70.4276 8.88646L80.4264 17.637L80.3237 11.7454C80.3136 10.9729 80.1668 10.6503 79.3051 10.6503H77.4252V8.88791H85.9744V10.6503H84.1406C83.2618 10.6503 83.2063 10.9229 83.1956 11.7454L83.3506 23.0028H80.4228L68.9061 13.0353L68.9086 20.1093C68.9187 20.8782 68.9558 21.2404 69.7728 21.2404H71.8261V23.0021H63.43V21.2406H65.3927C66.1259 21.2406 66.0967 20.5627 66.0967 20.0693V11.8124C66.0967 11.2794 66.0196 10.6516 64.8685 10.6516H63.2759V8.88646H70.4276ZM95.7437 21.2371C95.824 21.2371 96.1807 21.2272 96.2498 21.2067C96.4472 21.147 96.5811 21.0104 96.6431 20.8681C96.6693 20.8083 96.6823 20.5439 96.6823 20.4865L96.6838 17.7013C96.6838 17.6343 96.6788 17.6053 96.5615 17.4561C96.4326 17.2931 91.3242 11.6791 91.0904 11.4319C90.8 11.125 90.2902 10.6505 89.5155 10.6505H87.739V8.88737H97.7649V10.6483H96.5563C96.2767 10.6483 96.0909 10.9055 96.3298 11.1913C96.3298 11.1913 99.703 15.1042 99.7349 15.1451C99.7663 15.1868 99.7932 15.1967 99.8361 15.1587C99.8783 15.1198 103.294 11.2271 103.321 11.1963C103.483 11.0076 103.373 10.6503 103.023 10.6503H101.783V8.88737H110V10.6503H108.164C107.498 10.6503 107.227 10.7698 106.726 11.3191C106.497 11.5705 101.334 17.2853 101.194 17.4401C101.12 17.5211 101.127 17.6339 101.127 17.7009V20.4858C101.127 20.5423 101.14 20.807 101.166 20.8664C101.228 21.0095 101.363 21.146 101.56 21.2051C101.629 21.2257 101.981 21.2359 102.061 21.2359H103.939V22.9987H93.9644V21.2357L95.7437 21.2371Z" fill="black"/>
</svg>
